<svg width="653" height="632" viewBox="0 0 653 632" fill="none" xmlns="http://www.w3.org/2000/svg">
<path d="M550.484 -66.1722L525.484 122.828L564.484 275.828H583.484C592.818 214.494 602.284 122.428 603.884 117.628C605.484 112.828 572.151 -17.5056 550.484 -66.1722Z" fill="#72AEF8"/>
<path d="M333.484 -24.1722C219.484 63.8278 140.484 71.8278 130.484 95.8278C120.484 119.828 14.4844 451.828 14.4844 501.828C14.4844 549.029 37.4844 681.828 193.484 673.828M67.4844 462.569C134.5 412.75 257.151 415.75 277 415.75C229 501.75 260.799 600.639 319.484 625.828H364M399.997 426.846C424.77 430.436 456.791 433.445 487.664 435.829C511.482 437.668 517.475 477.846 493.586 477.846C494.427 477.846 495.862 478.196 497.759 478.823C523.451 487.318 520.647 529.346 493.586 529.346C518.587 529.346 515.301 567.892 490.318 568.85C486.982 568.978 484.231 568.986 482.242 568.846C502.965 570.307 475.482 603.49 454.707 603.458C442.602 603.439 428.617 603.651 414.177 604.346C372.582 606.346 287.118 612.846 267.266 568.846M273.992 422.846C323.15 378.846 374.472 393.846 421.74 385.846C459.554 379.446 467.747 404.846 467.117 416.846M365.484 389.828V279.828H649.484M259.484 183.828H377.484M406.484 -30.1722C356.484 75.8278 291.484 86.8278 462.484 130.828C431.484 201.828 401.884 214.028 491.484 274.828M480.484 -23.1722C499.484 54.8278 546.084 234.628 560.484 269.828M585.484 270.828L632.484 -12.1722M498.786 530.846L467.353 527.846M490.041 568.596L455.772 565.846M490.141 477.846H459.087M378.266 459.846C370.266 471.846 374.932 493.846 378.266 500.846C363 507.25 362.266 540.95 378.266 553.75C372.933 565.417 376.6 597.65 399 603.25M550.484 -66.1722L525.484 122.828L564.484 275.828H583.484C592.818 214.494 602.284 122.428 603.884 117.628C605.484 112.828 572.151 -17.5056 550.484 -66.1722Z" stroke="#72AEF8" stroke-width="28" stroke-linecap="round" stroke-linejoin="round"/>
</svg>
