<svg width="234" height="263" viewBox="0 0 234 263" fill="none" xmlns="http://www.w3.org/2000/svg">
<path fill-rule="evenodd" clip-rule="evenodd" d="M182.321 6.07906C176.961 3.17539 171.761 1.26108 166.638 1.90151C161.464 2.5483 158.816 4.46394 156.557 6.67003C156.057 7.15715 155.568 7.67157 155.066 8.19771C153.3 10.0521 151.395 12.052 148.468 13.5158C147.345 14.0771 146.128 14.5821 144.958 15.0681C144.246 15.3635 143.551 15.6518 142.905 15.9415C141.129 16.7375 139.572 17.598 138.389 18.8019C136.119 21.114 134.964 24.9914 137.404 33.196C137.538 33.6492 137.28 34.1258 136.827 34.2605C136.374 34.3952 135.897 34.1371 135.763 33.6839C133.253 25.2412 134.25 20.5735 137.168 17.6022C138.58 16.1645 140.376 15.1988 142.205 14.3791C142.95 14.045 143.682 13.742 144.405 13.4427C145.52 12.9812 146.613 12.5286 147.702 11.9844C150.337 10.667 151.981 8.94448 153.714 7.12868C154.244 6.57316 154.783 6.00891 155.361 5.44486C157.825 3.03923 160.802 0.905563 166.426 0.20258C172.1 -0.506754 177.699 1.62824 183.137 4.57358C185.86 6.04852 188.578 7.74747 191.269 9.42947L191.281 9.43704C193.985 11.127 196.662 12.7996 199.334 14.2469C205.009 17.3209 209.051 23.8631 210.887 30.4612C211.809 33.7755 212.19 37.1553 211.927 40.192C211.664 43.2203 210.753 45.9762 209.019 47.9579C207.616 49.5607 207.235 51.2225 207.248 52.9979C207.255 53.9017 207.364 54.8288 207.498 55.8026C207.526 55.9997 207.554 56.1995 207.583 56.4014C207.694 57.18 207.809 57.9893 207.878 58.7941C208.053 60.8429 207.948 63.0149 206.712 65.1579C205.483 67.2898 203.205 69.2728 199.291 71.1148C198.863 71.3161 198.353 71.1325 198.152 70.7047C197.95 70.2769 198.134 69.7669 198.562 69.5656C202.296 67.8083 204.237 66.0231 205.229 64.3026C206.214 62.5931 206.334 60.8282 206.172 58.9403C206.107 58.188 206.001 57.4402 205.891 56.6677C205.862 56.4595 205.832 56.2494 205.802 56.0371C205.666 55.053 205.544 54.0327 205.536 53.0104C205.521 50.9332 205.983 48.8269 207.73 46.8304C209.146 45.2127 209.978 42.8507 210.221 40.044C210.464 37.2459 210.115 34.0736 209.237 30.9202C207.474 24.5831 203.642 18.5274 198.518 15.7524C195.796 14.2775 193.077 12.5786 190.386 10.8967L190.374 10.8889C187.67 9.19899 184.993 7.5264 182.321 6.07906Z" fill="#201A18"/>
<path fill-rule="evenodd" clip-rule="evenodd" d="M145.711 26.3356C145.911 26.7641 145.726 27.2735 145.297 27.4734C142.031 28.9976 139.903 30.797 138.504 32.7019C137.104 34.6073 136.4 36.6658 136.05 38.7614C135.699 40.87 135.71 42.9912 135.731 45.0372C135.732 45.1026 135.733 45.168 135.733 45.2334C135.754 47.1722 135.774 49.0898 135.424 50.723C135.101 52.2325 134.677 53.5658 134.288 54.7892C134.259 54.881 134.23 54.9721 134.201 55.0626C133.785 56.374 133.426 57.5521 133.24 58.771C132.879 61.1414 133.163 63.7633 135.336 67.6749C135.565 68.0882 135.416 68.6093 135.003 68.839C134.59 69.0686 134.069 68.9197 133.839 68.5064C131.513 64.3193 131.121 61.3171 131.547 58.5134C131.756 57.1453 132.155 55.8488 132.569 54.545C132.597 54.4575 132.625 54.3699 132.653 54.2822C133.044 53.0493 133.445 51.7896 133.75 50.3642C134.059 48.9206 134.041 47.1697 134.02 45.1295L134.019 45.055C133.998 43.0236 133.982 40.758 134.361 38.4799C134.743 36.1887 135.529 33.8605 137.124 31.6884C138.72 29.5159 141.091 27.5471 144.573 25.9219C145.002 25.722 145.511 25.9072 145.711 26.3356ZM156.227 26.6977C156.227 26.2249 156.611 25.8416 157.083 25.8416C165.275 25.8416 170.711 27.6563 173.754 30.5169C176.86 33.4363 177.336 37.312 175.875 40.9632C175.549 41.7797 175.388 42.3472 175.332 42.7375C175.304 42.9295 175.304 43.059 175.314 43.1419C175.318 43.1822 175.325 43.209 175.329 43.2252C175.333 43.2375 175.336 43.2443 175.338 43.2471C175.338 43.2471 175.34 43.249 175.342 43.2505C175.356 43.26 175.392 43.2812 175.471 43.3058C175.648 43.3615 175.882 43.3908 176.253 43.434C176.271 43.436 176.288 43.4381 176.306 43.4401C176.961 43.5157 177.974 43.6328 178.784 44.3373C179.455 44.9221 179.881 45.802 180.039 47.0563C184.662 45.683 189.025 48.5638 190.51 52.3338C191.327 54.4082 191.304 56.8037 189.979 58.959C188.661 61.1021 186.132 62.8875 182.172 63.9359C181.715 64.0569 181.246 63.7844 181.125 63.3274C181.004 62.8703 181.276 62.4017 181.734 62.2808C185.422 61.3045 187.504 59.7154 188.521 58.0623C189.529 56.4214 189.562 54.5989 188.917 52.9614C187.599 49.6158 183.576 47.2545 179.604 49.0415C179.339 49.1607 179.032 49.1375 178.788 48.9797C178.544 48.822 178.397 48.5513 178.397 48.2609C178.397 46.5777 177.994 45.9204 177.659 45.6287C177.287 45.3042 176.784 45.2194 176.056 45.1347C176.039 45.1327 176.022 45.1308 176.004 45.1288C175.693 45.0928 175.303 45.0478 174.958 44.9393C174.569 44.8173 174.126 44.5826 173.848 44.0915C173.584 43.6235 173.554 43.0692 173.637 42.4923C173.722 41.909 173.937 41.1981 174.285 40.3273C175.525 37.2297 175.1 34.1316 172.582 31.7644C170.001 29.3384 165.089 27.5537 157.083 27.5537C156.611 27.5537 156.227 27.1705 156.227 26.6977Z" fill="#201A18"/>
<path fill-rule="evenodd" clip-rule="evenodd" d="M177.318 65.9095C176.563 65.2839 175.131 64.9007 172.521 65.3356C165.907 66.438 161.528 68.6237 158.146 70.4526C157.855 70.6102 157.568 70.7665 157.287 70.9202C155.95 71.65 154.723 72.3199 153.575 72.7883C152.163 73.3642 150.772 73.6806 149.294 73.4342C129.295 70.101 116.983 76.5571 111.572 81.9687C111.496 82.0437 111.408 82.1042 111.311 82.1469C108.238 83.4991 105.588 83.163 102.107 82.4553C101.603 82.353 101.08 82.2424 100.533 82.1265C97.2927 81.4409 93.1946 80.5738 87.2901 80.1929C85.9775 80.1082 85.113 80.2974 84.5659 80.5974C84.0494 80.8806 83.7551 81.2941 83.6222 81.8428C83.4817 82.4223 83.5179 83.1808 83.7595 84.0918C83.999 84.9952 84.4264 85.9957 85.0053 87.028C86.1643 89.0949 87.8852 91.2095 89.7444 92.8268C91.6307 94.4677 93.532 95.4867 95.0473 95.5814C96.025 95.6425 96.8015 95.8436 97.3942 96.2167C98.0136 96.6065 98.3602 97.1382 98.5451 97.7055C98.7185 98.2377 98.749 98.8035 98.7665 99.2684C98.7693 99.3408 98.7717 99.411 98.7741 99.4793C98.7882 99.8877 98.8 100.228 98.8589 100.554C98.9237 100.912 99.0359 101.182 99.2275 101.398C99.4191 101.615 99.7536 101.851 100.387 102.027C101.7 102.392 104.071 102.442 108.329 101.77C108.796 101.696 109.235 102.015 109.309 102.482C109.382 102.949 109.063 103.387 108.596 103.461C104.306 104.139 101.62 104.147 99.9285 103.677C99.0604 103.436 98.4068 103.055 97.9445 102.532C97.4821 102.009 97.2745 101.414 97.1741 100.859C97.0911 100.4 97.0752 99.9194 97.062 99.5188C97.0599 99.4546 97.0578 99.3925 97.0556 99.3329C97.0378 98.8609 97.0082 98.5153 96.9172 98.2361C96.8376 97.992 96.7154 97.8125 96.4822 97.6657C96.2224 97.5022 95.7624 97.3416 94.9405 97.2902C92.8564 97.1599 90.5981 95.8387 88.6207 94.1185C86.6161 92.3747 84.769 90.1072 83.5119 87.8655C82.8828 86.7435 82.3901 85.608 82.1045 84.5306C81.8209 83.4608 81.7269 82.3936 81.9582 81.4394C82.197 80.4543 82.7764 79.626 83.7426 79.0962C84.6782 78.5831 85.9053 78.3878 87.4003 78.4843C93.4354 78.8737 97.6503 79.766 100.896 80.453C101.439 80.568 101.955 80.6773 102.448 80.7775C105.819 81.4627 107.988 81.6935 110.478 80.6415C116.369 74.8343 129.217 68.3522 149.575 71.7453C150.621 71.9196 151.673 71.7151 152.928 71.203C153.978 70.7745 155.101 70.1621 156.435 69.4341C156.724 69.2768 157.022 69.114 157.332 68.9465C160.787 67.0782 165.357 64.7939 172.24 63.6467C175.03 63.1817 177.084 63.4921 178.41 64.5913C179.758 65.708 180.105 67.4263 179.984 69.1624C179.743 72.6092 177.619 76.9223 175.804 79.7957C175.552 80.1955 175.023 80.3149 174.623 80.0624C174.223 79.8099 174.104 79.2812 174.356 78.8815C176.141 76.0559 178.066 72.0454 178.276 69.0433C178.379 67.555 178.051 66.5174 177.318 65.9095Z" fill="#201A18"/>
<path fill-rule="evenodd" clip-rule="evenodd" d="M174.482 78.7207C174.89 78.4825 175.414 78.6204 175.653 79.0288C176.745 80.9009 175.867 83.3244 173.788 85.5021C171.654 87.7383 168.018 90.0176 162.764 91.8453C162.317 92.0006 161.829 91.7645 161.674 91.3179C161.519 90.8714 161.755 90.3835 162.201 90.2281C167.295 88.4564 170.662 86.2972 172.55 84.3199C174.493 82.284 174.656 80.7189 174.174 79.8915C173.936 79.4831 174.074 78.9589 174.482 78.7207Z" fill="#201A18"/>
<path fill-rule="evenodd" clip-rule="evenodd" d="M159.458 85.2955C159.895 85.1161 160.395 85.3252 160.575 85.7626C161.112 87.0725 161.739 88.2787 162.365 89.4844C164.359 93.3213 166.35 97.1544 165.458 104.316C166.335 112.216 166.286 117.235 166.248 121.021C166.241 121.731 166.234 122.397 166.234 123.031C166.234 123.504 165.851 123.887 165.378 123.887C164.905 123.887 164.522 123.504 164.522 123.031C164.522 122.387 164.529 121.713 164.536 120.999C164.566 117.89 164.605 114.007 164.136 108.39C163.476 109.478 162.594 110.386 161.495 111.208C159.733 112.527 157.376 113.65 154.539 115.002C153.949 115.283 153.339 115.574 152.708 115.878C152.283 116.084 151.771 115.906 151.565 115.48C151.359 115.054 151.537 114.543 151.963 114.337C152.626 114.017 153.257 113.715 153.858 113.429C156.692 112.077 158.856 111.045 160.469 109.837C162.339 108.438 163.41 106.84 163.747 104.201C164.598 97.5447 162.887 94.2434 160.941 90.4897C160.288 89.2296 159.609 87.9185 158.991 86.4125C158.811 85.9751 159.021 85.475 159.458 85.2955ZM109.206 94.0059C109.678 94.0277 110.043 94.4282 110.022 94.9005C109.737 101.062 109.659 105.434 110.479 108.816C111.278 112.11 112.934 114.475 116.254 116.589C117.544 117.41 119.091 118.196 120.944 118.981C121.38 119.165 121.583 119.667 121.399 120.103C121.215 120.538 120.713 120.742 120.277 120.557C118.989 120.013 117.827 119.459 116.78 118.885C116.871 122.671 115.433 125.186 114.454 126.124C114.113 126.451 113.571 126.439 113.244 126.098C112.917 125.756 112.928 125.215 113.27 124.887C113.931 124.254 115.431 121.825 114.994 117.811C111.545 115.524 109.696 112.853 108.815 109.219C107.927 105.556 108.029 100.928 108.311 94.8216C108.333 94.3493 108.734 93.9841 109.206 94.0059Z" fill="#201A18"/>
<path fill-rule="evenodd" clip-rule="evenodd" d="M122.556 123.93C115.541 122.448 110.669 126.035 107.817 128.135C107.206 128.585 106.688 128.966 106.261 129.216C105.808 129.48 105.249 129.753 104.598 130.071C104.324 130.205 104.035 130.347 103.73 130.499C102.728 130.999 101.614 131.59 100.577 132.315C98.5091 133.762 96.6126 135.843 96.6126 138.953C96.6126 139.372 96.4327 139.943 96.0838 140.696C95.8736 141.149 95.6402 141.594 95.3932 142.065C95.2258 142.385 95.0521 142.716 94.8751 143.07C94.4622 143.896 94.06 144.795 93.8779 145.677C93.6933 146.571 93.7171 147.54 94.2718 148.412C94.571 148.882 94.7295 149.449 94.8163 150.123C94.8789 150.608 94.8994 151.089 94.9215 151.605C94.9311 151.83 94.941 152.062 94.9548 152.303C95.0393 153.78 95.2664 155.588 97.0373 156.621C97.4457 156.859 97.9699 156.722 98.2081 156.313C98.4464 155.905 98.3084 155.381 97.9 155.142C96.9714 154.601 96.7486 153.681 96.6642 152.205C96.6535 152.017 96.6449 151.817 96.6359 151.609C96.6125 151.063 96.5868 150.466 96.5144 149.904C96.4114 149.105 96.2043 148.259 95.7162 147.492C95.4835 147.127 95.423 146.661 95.5547 146.023C95.689 145.372 96.0039 144.641 96.4065 143.836C96.5501 143.548 96.7109 143.241 96.8748 142.928C97.1414 142.418 97.416 141.893 97.6373 141.415C97.9985 140.636 98.3248 139.773 98.3248 138.953C98.3248 136.656 99.6902 135.025 101.559 133.718C102.49 133.067 103.514 132.52 104.494 132.031C104.759 131.899 105.024 131.769 105.286 131.641C105.965 131.309 106.613 130.992 107.123 130.694C107.703 130.356 108.34 129.894 109.046 129.38C111.961 127.263 116.061 124.283 122.259 125.618C122.301 125.627 122.344 125.633 122.387 125.635C125.044 125.798 128.96 126.675 133.488 127.946C137.997 129.212 143.049 130.852 147.951 132.509C150.918 133.512 153.816 134.517 156.506 135.45C158.269 136.061 159.942 136.641 161.485 137.169C165.343 138.489 168.434 139.499 169.97 139.794C170.434 139.883 170.883 139.579 170.972 139.115C171.061 138.651 170.757 138.202 170.293 138.113C168.904 137.846 165.949 136.887 162.039 135.549C160.511 135.027 158.843 134.448 157.082 133.838C154.384 132.902 151.467 131.891 148.5 130.887C143.588 129.227 138.503 127.576 133.951 126.298C129.45 125.034 125.408 124.115 122.556 123.93Z" fill="#201A18"/>
<path fill-rule="evenodd" clip-rule="evenodd" d="M101.019 142.644C101.342 142.989 101.323 143.531 100.977 143.854C99.9368 144.825 97.4144 147.845 96.0276 151.833C95.8722 152.279 95.3843 152.515 94.9378 152.36C94.4912 152.205 94.2551 151.717 94.4104 151.27C95.9031 146.979 98.5998 143.731 99.809 142.602C100.155 142.279 100.696 142.298 101.019 142.644Z" fill="#201A18"/>
<path fill-rule="evenodd" clip-rule="evenodd" d="M185.033 74.2553C185.107 73.7884 185.546 73.4699 186.013 73.544C189.415 74.0842 192.479 74.5242 195.221 74.9179C198.141 75.3372 200.696 75.7041 202.906 76.0836C207.21 76.8227 210.452 77.6435 212.893 79.1112C215.39 80.6121 216.983 82.7463 218.1 85.9384C219.202 89.0861 219.855 93.31 220.474 99.0435C220.524 99.5136 220.185 99.9358 219.714 99.9865C219.244 100.037 218.822 99.6972 218.772 99.2271C218.153 93.4876 217.513 89.4442 216.484 86.5038C215.471 83.6079 214.098 81.8334 212.011 80.5785C209.868 79.2905 206.91 78.5083 202.616 77.7711C200.401 77.3908 197.896 77.0313 195.013 76.6178C192.285 76.2264 189.219 75.7866 185.744 75.235C185.277 75.1609 184.959 74.7223 185.033 74.2553ZM221.499 105.497C221.837 105.166 222.379 105.173 222.71 105.511C227.662 110.58 230.842 118.606 232.525 127.765C234.212 136.946 234.415 147.371 233.325 157.353C232.235 167.33 229.847 176.912 226.32 184.392C222.81 191.834 218.078 197.385 212.193 198.946C206.504 200.455 199.903 200.124 193.369 198.695C186.826 197.263 180.292 194.716 174.705 191.731C169.13 188.752 164.438 185.304 161.626 182.037C160.224 180.408 159.234 178.761 158.886 177.186C158.527 175.561 158.86 174.019 160.069 172.776C167.688 164.939 169.471 152.493 170.147 137.839C170.169 137.367 170.569 137.001 171.042 137.023C171.514 137.045 171.879 137.446 171.857 137.918C171.184 152.508 169.424 165.609 161.296 173.969C160.537 174.751 160.308 175.684 160.558 176.816C160.819 177.999 161.609 179.392 162.924 180.92C165.546 183.966 170.036 187.295 175.512 190.221C180.976 193.141 187.363 195.628 193.735 197.022C200.115 198.418 206.421 198.706 211.754 197.291C216.893 195.928 221.328 190.962 224.771 183.662C228.196 176.399 230.547 167.014 231.623 157.167C232.698 147.323 232.493 137.067 230.841 128.075C229.184 119.061 226.093 111.424 221.485 106.707C221.154 106.369 221.161 105.827 221.499 105.497Z" fill="#201A18"/>
<path fill-rule="evenodd" clip-rule="evenodd" d="M128.723 145.049C128.925 144.621 129.436 144.439 129.863 144.641C156.552 157.264 164.522 164.317 165.947 165.584C166.3 165.898 166.332 166.439 166.018 166.792C165.704 167.146 165.163 167.178 164.81 166.863L164.804 166.858C163.512 165.71 155.674 158.743 129.131 146.188C128.703 145.986 128.521 145.476 128.723 145.049Z" fill="#201A18"/>
<path fill-rule="evenodd" clip-rule="evenodd" d="M102.485 102.758C102.721 103.168 102.579 103.691 102.169 103.927C100.306 104.997 98.381 106.086 96.4194 107.196C87.2048 112.408 77.186 118.076 69.0287 124.389C59.0984 132.076 52.2274 140.497 52.6565 149.938C52.678 150.41 52.3125 150.81 51.8402 150.832C51.3679 150.853 50.9676 150.488 50.9461 150.016C50.4754 139.66 58.002 130.759 67.9807 123.035C76.2459 116.638 86.3997 110.895 95.6153 105.683C97.5667 104.579 99.476 103.5 101.316 102.442C101.726 102.207 102.25 102.348 102.485 102.758ZM51.6684 154.53C52.1354 154.457 52.5736 154.776 52.647 155.243C56.9841 182.833 68.7449 195.381 75.1764 202.242C75.3985 202.479 75.6143 202.71 75.8232 202.933C76.7066 203.88 78.3393 204.05 80.8863 203.185C83.3666 202.342 86.3654 200.624 89.5346 198.427C95.8586 194.043 102.657 187.895 106.986 183.565C107.321 183.231 107.863 183.231 108.197 183.565C108.531 183.9 108.531 184.442 108.197 184.776C103.828 189.145 96.9489 195.37 90.5101 199.834C87.2979 202.061 84.1439 203.887 81.437 204.806C78.7968 205.703 76.2077 205.855 74.5715 204.102C74.3659 203.881 74.1536 203.655 73.9351 203.422C67.4151 196.464 55.3737 183.614 50.9556 155.509C50.8822 155.042 51.2013 154.603 51.6684 154.53Z" fill="#201A18"/>
<path fill-rule="evenodd" clip-rule="evenodd" d="M85.6021 134.384C86.0139 134.151 86.5361 134.297 86.7684 134.709C96.678 152.276 102.585 164.029 107.982 180.302C108.131 180.751 107.887 181.235 107.439 181.384C106.99 181.533 106.505 181.29 106.357 180.841C101.01 164.72 95.1641 153.077 85.2771 135.55C85.0448 135.138 85.1903 134.616 85.6021 134.384Z" fill="#201A18"/>
<path fill-rule="evenodd" clip-rule="evenodd" d="M170.263 137.506C170.438 137.067 170.935 136.852 171.375 137.027C185.413 142.606 195.456 146.62 202.14 149.314C208.795 151.997 212.167 153.39 212.807 153.71C213.23 153.922 213.401 154.436 213.19 154.859C212.978 155.282 212.464 155.453 212.041 155.242C211.482 154.962 208.208 153.607 201.499 150.902C194.819 148.209 184.779 144.197 170.742 138.618C170.303 138.443 170.088 137.945 170.263 137.506Z" fill="#201A18"/>
<path fill-rule="evenodd" clip-rule="evenodd" d="M224.853 192.802C224.402 192.661 223.922 192.914 223.782 193.365C220.055 205.356 218.409 214.265 217.161 221.022C216.673 223.664 216.246 225.976 215.779 228.016C214.943 231.663 213.989 234.418 212.382 236.723C210.782 239.016 208.488 240.931 204.86 242.8C204.44 243.016 204.275 243.532 204.491 243.953C204.708 244.373 205.224 244.538 205.645 244.322C209.441 242.366 211.983 240.288 213.786 237.702C215.581 235.128 216.595 232.119 217.448 228.398C217.935 226.27 218.372 223.903 218.867 221.222C220.112 214.482 221.722 205.76 225.417 193.873C225.557 193.422 225.305 192.942 224.853 192.802ZM165.885 219.152C165.822 219.62 166.151 220.051 166.62 220.113C173.132 220.982 183.862 225.631 195.649 237.417C195.983 237.752 196.525 237.752 196.859 237.417C197.194 237.083 197.194 236.541 196.859 236.207C184.89 224.237 173.832 219.348 166.846 218.416C166.378 218.354 165.947 218.683 165.885 219.152Z" fill="#201A18"/>
<path fill-rule="evenodd" clip-rule="evenodd" d="M104.527 186.33C104.17 186.64 104.132 187.181 104.442 187.538C111.864 196.084 116.131 200.599 119.12 203.204C122.148 205.842 123.89 206.538 126.17 207.451L126.198 207.462C126.637 207.637 127.135 207.424 127.311 206.985C127.486 206.546 127.273 206.048 126.834 205.872L126.769 205.846C124.598 204.978 123.054 204.361 120.245 201.913C117.357 199.396 113.161 194.966 105.735 186.415C105.425 186.058 104.884 186.02 104.527 186.33ZM142.72 204.929C142.058 205.231 141.352 205.553 140.581 205.878C139.547 206.314 138.868 206.507 138.322 206.577C137.791 206.646 137.338 206.604 136.73 206.498C136.539 206.465 136.338 206.427 136.12 206.385C134.883 206.148 133.123 205.811 129.89 205.811C129.418 205.811 129.034 206.194 129.034 206.667C129.034 207.14 129.418 207.523 129.89 207.523C132.957 207.523 134.581 207.834 135.803 208.068C136.026 208.11 136.234 208.15 136.436 208.185C137.121 208.304 137.766 208.375 138.541 208.275C139.303 208.177 140.143 207.92 141.246 207.456C142.042 207.121 142.782 206.783 143.451 206.478C143.69 206.369 143.92 206.264 144.14 206.165C144.993 205.78 145.686 205.489 146.264 205.326C146.852 205.16 147.2 205.163 147.415 205.234C147.584 205.29 147.795 205.429 148.008 205.896C148.177 206.268 148.211 206.816 148.001 207.525C147.794 208.226 147.365 209.019 146.719 209.808C145.427 211.385 143.337 212.854 140.714 213.483C137.796 214.183 135.968 215.274 134.928 216.949C133.915 218.579 133.758 220.604 133.758 222.864C133.758 223.681 134.112 224.684 134.543 225.647C134.991 226.644 135.585 227.729 136.181 228.751C136.693 229.629 137.216 230.476 137.658 231.192C137.732 231.311 137.803 231.427 137.872 231.538C138.114 231.933 138.322 232.272 138.482 232.547C138.651 232.837 138.739 233.007 138.769 233.08C138.825 233.22 138.916 233.343 139.035 233.436C139.633 233.905 140.234 234.215 140.739 234.471L140.757 234.481C141.275 234.744 141.658 234.938 141.98 235.199C142.526 235.642 143.044 236.393 143.044 238.612C143.044 239.084 143.427 239.468 143.9 239.468C144.372 239.468 144.756 239.084 144.756 238.612C144.756 236.106 144.155 234.757 143.058 233.869C142.591 233.491 142.061 233.222 141.598 232.987C141.57 232.973 141.542 232.959 141.515 232.945C141.069 232.718 140.653 232.501 140.251 232.209C140.17 232.048 140.068 231.868 139.961 231.684C139.789 231.39 139.572 231.034 139.329 230.64C139.259 230.527 139.187 230.41 139.113 230.29C138.67 229.572 138.16 228.746 137.66 227.888C137.075 226.886 136.516 225.861 136.106 224.946C135.68 223.997 135.471 223.285 135.471 222.864C135.471 220.603 135.651 219.029 136.382 217.852C137.085 216.721 138.407 215.798 141.113 215.148C144.114 214.428 146.524 212.747 148.043 210.893C148.803 209.967 149.358 208.974 149.643 208.01C149.926 207.052 149.96 206.053 149.566 205.188C149.216 204.418 148.697 203.854 147.952 203.608C147.253 203.377 146.505 203.478 145.798 203.678C145.083 203.88 144.285 204.221 143.437 204.603C143.203 204.709 142.965 204.818 142.72 204.929Z" fill="#201A18"/>
<path fill-rule="evenodd" clip-rule="evenodd" d="M85.8991 201.188C86.2193 200.84 86.7608 200.817 87.1088 201.137C89.3377 203.188 91.9398 205.372 94.5075 207.527C95.1588 208.074 95.8078 208.619 96.448 209.159C99.589 211.81 102.536 214.368 104.384 216.446C105.807 218.048 106.949 219.189 107.792 219.961C108.651 220.748 109.167 221.121 109.343 221.221C109.753 221.456 109.896 221.979 109.661 222.389C109.427 222.8 108.904 222.942 108.493 222.708C108.144 222.508 107.513 222.026 106.636 221.223C105.743 220.406 104.56 219.222 103.104 217.584C101.353 215.613 98.5042 213.135 95.3437 210.467C94.7127 209.935 94.0699 209.395 93.4226 208.852C90.8519 206.695 88.2102 204.477 85.9496 202.397C85.6016 202.077 85.579 201.536 85.8991 201.188Z" fill="#201A18"/>
<path fill-rule="evenodd" clip-rule="evenodd" d="M109.258 224.514C108.927 224.851 108.932 225.393 109.269 225.725C109.853 226.298 110.673 227.512 111.651 229.145C112.463 230.5 113.345 232.076 114.246 233.685C114.412 233.982 114.579 234.28 114.746 234.578C115.813 236.481 116.893 238.382 117.878 239.926C118.371 240.697 118.848 241.394 119.296 241.962C119.734 242.518 120.185 243.007 120.632 243.314C121.379 243.828 122.056 244.122 122.711 244.235C123.372 244.349 123.946 244.268 124.458 244.132C124.708 244.065 124.95 243.984 125.172 243.907C125.207 243.895 125.241 243.884 125.274 243.872C125.464 243.806 125.642 243.745 125.827 243.688C126.253 243.558 126.685 243.465 127.191 243.465C127.798 243.465 128.33 243.495 128.885 243.527C130.494 243.62 132.299 243.724 136.704 243.126C137.172 243.062 137.5 242.63 137.437 242.162C137.373 241.693 136.942 241.365 136.473 241.429C132.243 242.004 130.615 241.91 129.031 241.819C128.453 241.786 127.881 241.753 127.191 241.753C126.459 241.753 125.851 241.891 125.327 242.051C125.109 242.117 124.899 242.19 124.71 242.256C124.677 242.267 124.646 242.278 124.614 242.288C124.395 242.364 124.204 242.428 124.018 242.477C123.659 242.573 123.347 242.607 123.003 242.548C122.652 242.487 122.204 242.317 121.602 241.903C121.373 241.746 121.051 241.423 120.642 240.903C120.243 240.396 119.799 239.753 119.322 239.004C118.366 237.508 117.309 235.648 116.239 233.741C116.074 233.446 115.908 233.15 115.743 232.854C114.843 231.246 113.946 229.644 113.12 228.265C112.158 226.659 111.234 225.255 110.468 224.503C110.131 224.172 109.589 224.177 109.258 224.514Z" fill="#201A18"/>
<path fill-rule="evenodd" clip-rule="evenodd" d="M148.395 235.749C148.325 236.428 148.132 237.104 147.984 237.613C147.915 237.849 147.748 238.044 147.526 238.149C146.402 238.678 145.436 239.42 144.484 240.152C144.227 240.35 143.971 240.547 143.713 240.738C143.133 241.169 142.525 241.585 141.907 241.845C141.275 242.112 140.565 242.245 139.824 242.017C139.789 242.006 139.754 241.993 139.721 241.978C137.667 241.044 132.731 238.998 129.31 238.208C128.849 238.102 128.562 237.642 128.668 237.182C128.774 236.721 129.234 236.434 129.695 236.54C133.259 237.363 138.265 239.439 140.371 240.393C140.596 240.45 140.866 240.426 141.242 240.268C141.658 240.093 142.126 239.784 142.692 239.364C142.905 239.206 143.13 239.032 143.367 238.85C144.242 238.175 145.278 237.377 146.442 236.775C146.554 236.37 146.652 235.962 146.692 235.573C146.745 235.061 146.682 234.715 146.544 234.498C146.43 234.32 146.17 234.078 145.441 233.99C144.689 233.9 143.532 233.991 141.799 234.43C141.34 234.546 140.875 234.268 140.759 233.81C140.643 233.351 140.92 232.886 141.378 232.77C143.2 232.309 144.592 232.164 145.645 232.29C146.721 232.419 147.522 232.846 147.988 233.579C148.43 234.273 148.464 235.08 148.395 235.749Z" fill="#201A18"/>
<path fill-rule="evenodd" clip-rule="evenodd" d="M165.654 183.711C166.126 183.674 166.538 184.026 166.574 184.498C167.144 191.785 166.535 202.312 163.212 211.924C159.889 221.536 153.801 230.361 143.335 233.966C142.888 234.12 142.401 233.882 142.247 233.435C142.093 232.988 142.33 232.501 142.777 232.347C152.557 228.978 158.365 220.705 161.594 211.365C164.823 202.023 165.423 191.741 164.867 184.631C164.831 184.16 165.183 183.748 165.654 183.711Z" fill="#201A18"/>
<path fill-rule="evenodd" clip-rule="evenodd" d="M121.615 242.72C121.949 243.054 121.949 243.596 121.615 243.931C120.73 244.816 119.137 246.498 117.589 248.313C116.025 250.147 114.57 252.045 113.902 253.382C113.69 253.805 113.176 253.976 112.753 253.764C112.33 253.553 112.159 253.039 112.37 252.616C113.142 251.073 114.724 249.034 116.287 247.202C117.866 245.35 119.49 243.635 120.404 242.72C120.739 242.386 121.281 242.386 121.615 242.72Z" fill="#201A18"/>
<path fill-rule="evenodd" clip-rule="evenodd" d="M71.7004 201.534C72.0503 201.852 72.0761 202.394 71.758 202.744C67.6344 207.28 64.1297 211.009 61.0592 214.276C50.6876 225.311 45.2688 231.076 37.6805 244.873C37.4527 245.287 36.9321 245.439 36.5179 245.211C36.1036 244.983 35.9525 244.462 36.1803 244.048C43.8795 230.05 49.4553 224.118 59.874 213.034C62.9358 209.777 66.4159 206.075 70.4911 201.592C70.8092 201.242 71.3506 201.216 71.7004 201.534Z" fill="#201A18"/>
<path fill-rule="evenodd" clip-rule="evenodd" d="M51.6187 190.079C51.7546 190.053 51.8947 190.06 52.0271 190.101C52.7801 190.33 53.4067 190.686 53.854 191.208C54.3092 191.738 54.5205 192.372 54.5538 193.043C54.6172 194.321 54.0385 195.81 53.2228 197.346C52.3895 198.915 51.2223 200.685 49.9377 202.562C49.545 203.136 49.1414 203.72 48.7312 204.314C47.7891 205.677 46.8128 207.09 45.8566 208.543C43.1036 212.729 40.6315 217.092 39.8371 221.138C39.443 223.145 39.4702 225.036 40.053 226.774C40.6332 228.504 41.7851 230.146 43.7457 231.63C44.1227 231.915 44.1971 232.452 43.9117 232.829C43.6264 233.206 43.0895 233.281 42.7125 232.995C40.5113 231.329 39.1324 229.414 38.4297 227.318C37.7295 225.23 37.7215 223.026 38.157 220.808C39.0217 216.404 41.6675 211.797 44.4261 207.603C45.3935 206.132 46.3886 204.692 47.3357 203.322C47.7429 202.732 48.1412 202.156 48.5246 201.596C49.8095 199.717 50.9271 198.018 51.7107 196.543C52.512 195.034 52.8823 193.905 52.8438 193.128C52.8261 192.772 52.7237 192.52 52.5545 192.323C52.3994 192.142 52.1435 191.956 51.7191 191.802C51.6966 191.806 51.6741 191.81 51.6515 191.815C48.8763 192.338 45.0298 193.064 41.4688 194.81C37.808 196.604 34.5088 199.447 33.0234 204.222C32.8829 204.673 32.4031 204.925 31.9516 204.785C31.5002 204.644 31.248 204.165 31.3885 203.713C33.0524 198.365 36.7647 195.209 40.7152 193.272C44.4896 191.422 48.5358 190.66 51.2918 190.14C51.4029 190.119 51.5119 190.099 51.6187 190.079ZM25.4012 200.884C23.3182 203.887 22.1888 207.598 22.7013 210.571C22.7816 211.037 22.469 211.48 22.0031 211.56C21.5372 211.64 21.0944 211.328 21.014 210.862C20.4017 207.31 21.7469 203.148 23.9944 199.908C26.2308 196.684 29.5494 194.113 33.1058 194.113C33.5786 194.113 33.9619 194.496 33.9619 194.969C33.9619 195.442 33.5786 195.825 33.1058 195.825C30.3633 195.825 27.4955 197.865 25.4012 200.884ZM22.693 200.406C22.7965 200.867 22.5065 201.325 22.0452 201.428C19.5051 201.999 15.8576 204.173 12.3368 207.503C8.83613 210.815 5.56006 215.176 3.70363 219.994C1.85122 224.803 1.42196 230.032 3.54128 235.16C5.66354 240.294 10.3931 245.451 19.1046 250.001C19.5236 250.22 19.6859 250.737 19.4671 251.156C19.2482 251.575 18.731 251.737 18.3119 251.518C9.36403 246.845 4.27968 241.428 1.95897 235.814C-0.364669 230.192 0.134032 224.497 2.10595 219.379C4.07383 214.271 7.51846 209.704 11.1603 206.259C14.7819 202.834 18.6987 200.425 21.6702 199.758C22.1315 199.654 22.5894 199.944 22.693 200.406Z" fill="#201A18"/>
<path fill-rule="evenodd" clip-rule="evenodd" d="M11.4639 234.425C11.9125 234.275 12.3973 234.518 12.5468 234.966C14.5625 241.013 18.6332 243.237 20.7836 244.411C20.9125 244.482 21.0346 244.549 21.1489 244.612C21.5622 244.842 21.7111 245.363 21.4815 245.776C21.2519 246.189 20.7307 246.338 20.3174 246.109C20.2038 246.046 20.081 245.979 19.9498 245.907C17.7365 244.7 13.153 242.199 10.9225 235.508C10.773 235.059 11.0154 234.574 11.4639 234.425Z" fill="#201A18"/>
<path fill-rule="evenodd" clip-rule="evenodd" d="M157.493 126.356C154.121 127.788 151.328 129.935 150.282 131.928C150.062 132.346 149.544 132.508 149.126 132.288C148.707 132.068 148.546 131.551 148.766 131.132C150.082 128.625 153.306 126.274 156.824 124.78C160.351 123.283 164.457 122.527 167.66 123.513C170.648 124.432 174.391 126.179 176.762 128.821C177.96 130.155 178.835 131.748 179.046 133.598C179.258 135.454 178.791 137.471 177.475 139.625C177.228 140.029 176.701 140.156 176.298 139.909C175.894 139.663 175.767 139.136 176.014 138.732C177.172 136.837 177.506 135.199 177.345 133.792C177.184 132.38 176.512 131.105 175.488 129.965C173.417 127.657 170.017 126.03 167.156 125.149C164.51 124.335 160.855 124.929 157.493 126.356ZM195.234 136.982C191.294 136.728 186.547 137.79 182.419 142.026C182.089 142.364 181.547 142.371 181.208 142.041C180.87 141.711 180.863 141.169 181.193 140.831C185.725 136.181 190.989 134.993 195.344 135.273C197.514 135.413 199.463 135.917 200.997 136.538C202.495 137.145 203.707 137.909 204.295 138.644C204.486 138.882 204.767 139.173 205.131 139.534C205.245 139.646 205.367 139.766 205.494 139.891C205.76 140.151 206.05 140.435 206.339 140.73C207.199 141.604 208.154 142.664 208.83 143.862C209.51 145.068 209.941 146.473 209.657 148.003C209.373 149.533 208.401 151.038 206.581 152.5C206.213 152.796 205.674 152.737 205.378 152.369C205.082 152 205.141 151.461 205.509 151.165C207.12 149.871 207.786 148.698 207.973 147.69C208.16 146.682 207.895 145.691 207.338 144.703C206.777 143.708 205.953 142.778 205.119 141.93C204.84 141.647 204.571 141.383 204.311 141.129C204.181 141.001 204.052 140.875 203.927 140.751C203.564 140.392 203.218 140.038 202.958 139.714C202.647 139.324 201.764 138.696 200.355 138.125C198.982 137.569 197.212 137.109 195.234 136.982Z" fill="#201A18"/>
<path fill-rule="evenodd" clip-rule="evenodd" d="M162.24 126.833C162.536 126.464 163.075 126.404 163.444 126.7C165.209 128.112 166.488 129.67 167.12 131.488C167.756 133.317 167.705 135.312 166.985 137.53C166.839 137.98 166.357 138.227 165.907 138.081C165.457 137.935 165.211 137.452 165.357 137.002C165.987 135.058 165.991 133.454 165.503 132.05C165.011 130.634 163.983 129.324 162.374 128.036C162.005 127.741 161.945 127.202 162.24 126.833ZM172.523 129.492C172.904 129.211 173.44 129.291 173.721 129.671C175.855 132.559 175.624 135.691 175.173 138.85C175.106 139.318 174.673 139.643 174.205 139.576C173.737 139.509 173.411 139.076 173.478 138.607C173.927 135.467 174.033 132.975 172.344 130.689C172.063 130.309 172.143 129.773 172.523 129.492ZM194.38 138.234C194.653 137.848 195.188 137.757 195.573 138.03C198.458 140.073 200.866 143.667 199.617 148.288C199.493 148.744 199.023 149.014 198.567 148.891C198.111 148.768 197.841 148.298 197.964 147.841C198.965 144.138 197.098 141.208 194.584 139.427C194.198 139.154 194.107 138.62 194.38 138.234Z" fill="#201A18"/>
<path fill-rule="evenodd" clip-rule="evenodd" d="M203.807 143.316C204.193 143.043 204.727 143.135 205.001 143.521C206.41 145.513 206.69 147.203 206.575 148.605C206.52 149.284 206.373 149.874 206.255 150.34C206.125 150.849 206.058 151.122 206.058 151.326C206.058 151.799 205.674 152.182 205.202 152.182C204.729 152.182 204.346 151.799 204.346 151.326C204.346 150.892 204.468 150.414 204.57 150.015C204.579 149.982 204.587 149.95 204.595 149.918C204.712 149.457 204.826 148.989 204.869 148.466C204.951 147.464 204.78 146.173 203.603 144.51C203.33 144.124 203.421 143.589 203.807 143.316Z" fill="#201A18"/>
<path fill-rule="evenodd" clip-rule="evenodd" d="M198.375 101.114C192.571 100.74 185.245 100.444 177.403 101.336C176.933 101.389 176.509 101.051 176.456 100.582C176.402 100.112 176.74 99.6878 177.21 99.6344C185.205 98.7259 192.651 99.0299 198.485 99.4058C199.52 99.4725 200.5 99.5411 201.421 99.6056C203.111 99.7239 204.606 99.8286 205.89 99.8828C206.878 99.9246 207.716 99.9351 208.399 99.9007C209.095 99.8657 209.568 99.7862 209.858 99.6805C210.303 99.519 210.794 99.7482 210.955 100.193C211.117 100.637 210.888 101.128 210.443 101.29C209.909 101.484 209.232 101.573 208.485 101.611C207.725 101.649 206.826 101.636 205.818 101.593C204.511 101.538 202.975 101.431 201.266 101.311C200.35 101.247 199.383 101.179 198.375 101.114Z" fill="#201A18"/>
<path fill-rule="evenodd" clip-rule="evenodd" d="M75.1423 124.234C75.0754 123.766 75.4006 123.333 75.8686 123.266C79.2416 122.783 82.6139 123.685 85.4161 124.955C88.2229 126.227 90.5376 127.904 91.8306 129.082C92.1801 129.4 92.2053 129.942 91.8869 130.291C91.5684 130.641 91.027 130.666 90.6775 130.347C89.5091 129.283 87.3435 127.708 84.7095 126.515C82.0709 125.319 79.0417 124.541 76.1109 124.961C75.6429 125.027 75.2092 124.702 75.1423 124.234Z" fill="#201A18"/>
<path fill-rule="evenodd" clip-rule="evenodd" d="M154.894 234.303C155.037 233.853 155.518 233.603 155.969 233.746C165.447 236.752 173.015 244.812 178.788 251.257C179.164 251.677 179.532 252.09 179.892 252.493C182.333 255.23 184.406 257.554 186.182 259.021C187.204 259.864 188.032 260.341 188.693 260.492C189.276 260.625 189.739 260.512 190.199 260.052C194.408 255.843 197.535 249.777 198.561 247.284C198.741 246.847 199.241 246.638 199.679 246.818C200.116 246.998 200.324 247.499 200.144 247.936C199.071 250.542 195.839 256.834 191.41 261.263C190.519 262.153 189.45 262.42 188.313 262.161C187.253 261.92 186.172 261.233 185.092 260.341C183.207 258.783 181.032 256.345 178.611 253.629C178.25 253.225 177.884 252.814 177.512 252.399C171.7 245.909 164.42 238.222 155.451 235.378C155.001 235.235 154.751 234.754 154.894 234.303Z" fill="#201A18"/>
<path fill-rule="evenodd" clip-rule="evenodd" d="M155.045 159.361C155.329 159.74 155.252 160.276 154.874 160.56C153.277 161.758 152.111 163.787 151.211 166.384C150.315 168.969 149.72 172.001 149.186 175.093C149.07 175.763 148.957 176.437 148.845 177.109C148.442 179.51 148.043 181.887 147.537 183.992C146.894 186.66 146.04 189.074 144.643 190.598C142.589 192.839 140.148 194.581 138.028 195.746C136.967 196.328 135.972 196.774 135.132 197.067C134.332 197.345 133.554 197.528 132.979 197.471C132.508 197.423 132.165 197.004 132.212 196.534C132.259 196.063 132.679 195.72 133.149 195.767C133.324 195.784 133.794 195.72 134.569 195.45C135.303 195.194 136.21 194.791 137.204 194.245C139.193 193.152 141.476 191.52 143.381 189.441C144.458 188.266 145.235 186.237 145.872 183.591C146.363 181.551 146.749 179.254 147.15 176.864C147.264 176.183 147.379 175.494 147.499 174.802C148.034 171.707 148.648 168.553 149.594 165.823C150.535 163.105 151.845 160.692 153.847 159.19C154.225 158.906 154.762 158.983 155.045 159.361ZM138.434 183.359C138.882 183.508 139.125 183.993 138.975 184.442C137.135 189.962 134.664 193.461 132.227 195.76C129.797 198.053 127.441 199.113 125.926 199.795L125.917 199.799C125.906 199.804 125.894 199.809 125.883 199.813L119.134 202.513C118.695 202.688 118.197 202.475 118.022 202.036C117.846 201.597 118.059 201.099 118.498 200.923L125.23 198.23C126.714 197.562 128.845 196.597 131.052 194.515C133.264 192.428 135.592 189.178 137.351 183.9C137.5 183.452 137.985 183.209 138.434 183.359Z" fill="#201A18"/>
<path fill-rule="evenodd" clip-rule="evenodd" d="M135.464 150.599C135.866 150.847 135.99 151.375 135.742 151.777C135.059 152.879 134.4 153.953 133.761 154.993C131.676 158.39 129.816 161.421 128.124 163.851C127.016 165.442 125.96 166.806 124.937 167.865C123.921 168.917 122.889 169.723 121.817 170.125C121.374 170.291 120.88 170.067 120.714 169.624C120.548 169.181 120.773 168.688 121.215 168.522C121.943 168.249 122.766 167.649 123.705 166.676C124.637 165.711 125.633 164.431 126.719 162.873C128.38 160.487 130.204 157.516 132.281 154.132C132.924 153.084 133.591 151.997 134.286 150.876C134.535 150.474 135.062 150.35 135.464 150.599Z" fill="#201A18"/>
<path fill-rule="evenodd" clip-rule="evenodd" d="M181.78 193.776C182.191 194.01 182.334 194.533 182.099 194.944C181.176 196.558 180.406 197.545 179.711 198.171C178.987 198.822 178.379 199.053 177.879 199.214C177.845 199.225 177.813 199.236 177.782 199.245C177.374 199.376 177.193 199.434 176.969 199.641C176.704 199.885 176.34 200.392 175.849 201.592C174.854 204.024 173.561 205.635 171.575 206.789C169.647 207.911 167.116 208.569 163.746 209.243C163.283 209.336 162.832 209.035 162.739 208.572C162.646 208.108 162.947 207.657 163.411 207.564C166.789 206.889 169.06 206.272 170.715 205.309C172.312 204.38 173.383 203.097 174.264 200.944C174.786 199.669 175.265 198.883 175.809 198.382C176.323 197.908 176.849 197.743 177.237 197.622C177.277 197.609 177.316 197.597 177.353 197.585C177.725 197.465 178.086 197.33 178.565 196.899C179.071 196.443 179.735 195.629 180.612 194.094C180.847 193.684 181.37 193.541 181.78 193.776Z" fill="#201A18"/>
<path fill-rule="evenodd" clip-rule="evenodd" d="M157.696 95.8585C158.139 96.0236 158.365 96.5165 158.2 96.9596C157.024 100.115 154.469 102.226 151.306 103.565C148.15 104.901 144.322 105.501 140.438 105.615C139.965 105.629 139.571 105.257 139.557 104.785C139.543 104.312 139.915 103.918 140.388 103.904C144.152 103.793 147.748 103.212 150.638 101.989C153.52 100.769 155.634 98.9426 156.595 96.3619C156.76 95.9188 157.253 95.6935 157.696 95.8585ZM138.225 104.323C138.466 104.729 138.332 105.254 137.925 105.496C131.191 109.49 125.88 110.714 122.011 110.536C118.185 110.359 115.655 108.787 114.789 107.054C114.577 106.631 114.749 106.117 115.172 105.906C115.595 105.694 116.109 105.866 116.32 106.289C116.804 107.255 118.604 108.664 122.09 108.825C125.532 108.984 130.512 107.902 137.051 104.023C137.458 103.782 137.983 103.916 138.225 104.323Z" fill="#201A18"/>
<path fill-rule="evenodd" clip-rule="evenodd" d="M125.622 112.708C125.705 112.242 126.15 111.932 126.615 112.015C128.672 112.382 132.714 113.38 134.462 113.828C134.92 113.946 135.196 114.413 135.079 114.87C134.961 115.328 134.495 115.604 134.037 115.487C132.279 115.036 128.298 114.054 126.315 113.701C125.849 113.618 125.539 113.173 125.622 112.708Z" fill="#201A18"/>
<path fill-rule="evenodd" clip-rule="evenodd" d="M142.332 111.874C141.863 110.731 141.147 109.594 139.689 108.731C139.282 108.49 139.147 107.965 139.388 107.558C139.629 107.151 140.154 107.017 140.561 107.258C142.43 108.365 143.352 109.849 143.916 111.224C144.156 111.808 144.335 112.382 144.489 112.877C144.513 112.952 144.535 113.025 144.558 113.096C144.737 113.665 144.879 114.072 145.051 114.368C145.289 114.777 145.151 115.301 144.743 115.539C144.334 115.777 143.81 115.639 143.572 115.23C143.289 114.744 143.096 114.156 142.924 113.61C142.9 113.533 142.876 113.456 142.852 113.379C142.697 112.881 142.541 112.383 142.332 111.874Z" fill="#201A18"/>
<path fill-rule="evenodd" clip-rule="evenodd" d="M148.145 105.785C148.572 105.583 149.082 105.765 149.285 106.192C150.534 108.827 151.939 112.767 151.425 116.178C151.162 117.922 150.392 119.559 148.833 120.775C147.289 121.979 145.064 122.7 142.02 122.816C139.966 122.895 138.463 122.421 137.328 121.511C136.219 120.622 135.559 119.39 135.035 118.164C134.833 117.69 134.641 117.194 134.454 116.708C134.399 116.564 134.344 116.421 134.289 116.28C134.044 115.651 133.795 115.038 133.507 114.448C132.933 113.274 132.219 112.228 131.131 111.424C130.75 111.144 130.67 110.608 130.951 110.227C131.231 109.847 131.767 109.766 132.148 110.047C133.534 111.071 134.401 112.378 135.046 113.696C135.366 114.353 135.636 115.021 135.884 115.659C135.944 115.813 136.002 115.963 136.059 116.112C136.244 116.592 136.42 117.049 136.609 117.491C137.105 118.65 137.629 119.558 138.399 120.175C139.143 120.771 140.213 121.172 141.955 121.105C144.779 120.998 146.612 120.335 147.779 119.425C148.93 118.527 149.521 117.32 149.732 115.923C150.165 113.05 148.964 109.512 147.738 106.926C147.535 106.498 147.717 105.988 148.145 105.785Z" fill="#201A18"/>
<path fill-rule="evenodd" clip-rule="evenodd" d="M153.32 100.812C153.761 100.983 153.98 101.479 153.809 101.92L150.84 109.568C150.669 110.009 150.173 110.228 149.733 110.057C149.292 109.886 149.073 109.39 149.244 108.949L152.212 101.3C152.384 100.859 152.88 100.641 153.32 100.812Z" fill="#201A18"/>
<path fill-rule="evenodd" clip-rule="evenodd" d="M133.052 97.674C132.172 98.308 131.576 99.0367 131.333 99.8342C130.969 101.03 131.251 101.278 131.323 101.335C131.413 101.407 131.586 101.486 131.899 101.535C132.207 101.582 132.587 101.59 133.035 101.57C133.449 101.551 133.887 101.511 134.349 101.469C134.385 101.465 134.422 101.462 134.459 101.459C134.952 101.414 135.471 101.368 135.965 101.355C136.455 101.342 136.962 101.359 137.428 101.457C137.894 101.554 138.384 101.744 138.768 102.129C139.103 102.463 139.103 103.005 138.768 103.34C138.434 103.674 137.892 103.674 137.558 103.34C137.492 103.274 137.357 103.191 137.078 103.133C136.8 103.074 136.444 103.055 136.01 103.066C135.579 103.078 135.113 103.118 134.615 103.164C134.576 103.167 134.537 103.171 134.497 103.175C134.044 103.216 133.567 103.26 133.112 103.28C132.618 103.302 132.108 103.299 131.637 103.227C131.171 103.155 130.673 103.004 130.261 102.678C129.328 101.941 129.272 100.727 129.695 99.3357C130.083 98.0635 130.983 97.0544 132.052 96.2846C133.124 95.5128 134.418 94.9418 135.704 94.5556C136.992 94.1688 138.309 93.9562 139.446 93.924C140.015 93.908 140.555 93.9365 141.033 94.018C141.501 94.0976 141.965 94.2368 142.34 94.4797C142.737 94.7365 142.851 95.2665 142.594 95.6635C142.337 96.0604 141.807 96.174 141.41 95.9172C141.307 95.8507 141.097 95.7657 140.746 95.7058C140.405 95.6478 139.982 95.6217 139.495 95.6355C138.52 95.6631 137.352 95.8483 136.196 96.1954C135.039 96.543 133.93 97.0419 133.052 97.674ZM142.484 95.9051C142.902 95.6826 143.42 95.8405 143.643 96.2576C144.13 97.1717 144.346 98.0012 144.121 98.7556C143.895 99.5122 143.298 99.9402 142.839 100.218C142.673 100.319 142.487 100.422 142.317 100.515C142.25 100.552 142.186 100.587 142.127 100.62C141.898 100.748 141.695 100.87 141.512 101.004C141.16 101.263 140.909 101.552 140.782 101.971C140.644 102.424 140.166 102.679 139.714 102.541C139.261 102.403 139.006 101.925 139.144 101.473C139.41 100.599 139.947 100.03 140.498 99.6246C140.767 99.4267 141.044 99.2642 141.291 99.1263C141.375 99.0789 141.454 99.0358 141.527 98.9953C141.682 98.9101 141.817 98.8359 141.951 98.7546C142.35 98.5127 142.449 98.3712 142.48 98.2667C142.512 98.1599 142.544 97.8365 142.132 97.0634C141.909 96.6462 142.067 96.1276 142.484 95.9051Z" fill="#201A18"/>
<path fill-rule="evenodd" clip-rule="evenodd" d="M120.123 90.9351C120.8 90.7249 121.52 91.1036 121.73 91.7809L122.742 95.0428C122.953 95.7202 122.574 96.4397 121.897 96.6499C121.219 96.8601 120.5 96.4814 120.29 95.8041L119.277 92.5421C119.067 91.8648 119.446 91.1453 120.123 90.9351Z" fill="#201A18"/>
<path fill-rule="evenodd" clip-rule="evenodd" d="M144.931 84.1282C145.608 83.918 146.327 84.2967 146.538 84.974L147.55 88.236C147.76 88.9133 147.381 89.6328 146.704 89.843C146.027 90.0532 145.307 89.6745 145.097 88.9972L144.085 85.7353C143.875 85.0579 144.253 84.3384 144.931 84.1282Z" fill="#201A18"/>
<path fill-rule="evenodd" clip-rule="evenodd" d="M112.698 79.7819C113.075 80.068 113.148 80.6051 112.862 80.9815C111.874 82.2815 111.16 83.9159 110.674 85.4103C110.189 86.9015 109.949 88.1961 109.881 88.7746C109.826 89.2442 109.4 89.5801 108.931 89.5248C108.461 89.4696 108.125 89.0441 108.18 88.5746C108.262 87.8783 108.528 86.4734 109.046 84.8807C109.563 83.2913 110.349 81.4575 111.499 79.9455C111.785 79.5691 112.322 79.4958 112.698 79.7819Z" fill="#201A18"/>
<path fill-rule="evenodd" clip-rule="evenodd" d="M147.442 72.4491C147.52 71.9827 147.961 71.6677 148.427 71.7454C150.721 72.1278 152.738 73.6335 154.315 75.3414C155.902 77.0617 157.133 79.0826 157.842 80.6782C158.034 81.1103 157.84 81.6162 157.408 81.8082C156.976 82.0002 156.47 81.8056 156.278 81.3736C155.637 79.9322 154.506 78.0726 153.057 76.5027C151.596 74.9206 149.901 73.7268 148.146 73.4343C147.679 73.3565 147.364 72.9155 147.442 72.4491Z" fill="#201A18"/>
<path fill-rule="evenodd" clip-rule="evenodd" d="M70.3536 221.142C70.5592 220.716 71.071 220.538 71.4968 220.743C78.1975 223.978 81.4598 228.101 83.1009 231.857C84.3321 234.676 84.6467 237.35 84.8437 239.024C84.9032 239.529 84.9519 239.944 85.0118 240.243C85.1045 240.707 84.8039 241.158 84.3403 241.251C83.8766 241.343 83.4256 241.043 83.3329 240.579C83.2435 240.132 83.1809 239.604 83.11 239.007C82.9106 237.326 82.6457 235.092 81.5319 232.543C80.061 229.176 77.0995 225.349 70.7524 222.285C70.3266 222.08 70.1481 221.568 70.3536 221.142Z" fill="#201A18"/>
<path fill-rule="evenodd" clip-rule="evenodd" d="M137.137 119.06C137.222 119.525 136.913 119.971 136.448 120.055C136.423 120.06 136.397 120.065 136.37 120.07C134.623 120.388 129.021 121.408 123.21 120.681C122.74 120.623 122.408 120.195 122.466 119.726C122.525 119.256 122.953 118.924 123.422 118.982C128.97 119.676 134.362 118.695 136.08 118.382C136.101 118.378 136.122 118.375 136.142 118.371C136.607 118.286 137.052 118.595 137.137 119.06Z" fill="#201A18"/>
<path fill-rule="evenodd" clip-rule="evenodd" d="M156.111 35.76C154.138 35.5481 152.195 35.8146 150.879 36.1831C150.424 36.3106 149.952 36.0448 149.824 35.5895C149.697 35.1342 149.962 34.6618 150.418 34.5343C151.914 34.1155 154.076 33.8195 156.294 34.0576C158.511 34.2957 160.865 35.0784 162.625 36.9012C162.953 37.2413 162.944 37.7833 162.604 38.1117C162.264 38.4401 161.722 38.4306 161.393 38.0905C160.004 36.6514 158.084 35.9718 156.111 35.76ZM134.296 40.2127C134.758 38.3641 137.367 36.0338 141.55 36.6489C142.017 36.7177 142.341 37.1526 142.272 37.6204C142.203 38.0882 141.768 38.4116 141.301 38.3428C137.834 37.833 136.169 39.777 135.957 40.6279C135.842 41.0866 135.377 41.3655 134.919 41.2508C134.46 41.1362 134.181 40.6714 134.296 40.2127ZM155.205 46.1213C153.848 46.2802 152.793 46.8925 152.105 47.4817C151.747 47.7894 151.206 47.7478 150.898 47.3889C150.591 47.0299 150.632 46.4894 150.991 46.1817C151.879 45.4212 153.242 44.6274 155.006 44.4208C156.785 44.2124 158.893 44.6108 161.234 46.111C161.632 46.3662 161.748 46.8957 161.492 47.2937C161.237 47.6918 160.708 47.8076 160.31 47.5524C158.263 46.2407 156.547 45.9641 155.205 46.1213ZM136.483 48.7298C136.253 48.9679 135.971 49.2599 135.683 49.5064C135.324 49.8141 134.784 49.7725 134.476 49.4135C134.168 49.0545 134.21 48.5141 134.569 48.2064C134.801 48.0078 134.972 47.8294 135.164 47.6293C135.281 47.5075 135.405 47.3777 135.556 47.2304C135.916 46.8774 136.356 46.508 136.97 46.2717C138.193 45.8014 139.831 45.9597 142.504 46.9265C142.948 47.0874 143.178 47.5781 143.017 48.0228C142.857 48.4674 142.366 48.6974 141.921 48.5366C139.308 47.5913 138.19 47.6371 137.585 47.8698C137.285 47.985 137.042 48.171 136.753 48.4542C136.676 48.5299 136.584 48.6246 136.483 48.7298Z" fill="#201A18"/>
<path fill-rule="evenodd" clip-rule="evenodd" d="M156.266 58.6284C156.46 59.0595 156.268 59.5663 155.836 59.7603C152.403 61.3053 148.599 62.5071 145.143 63.1669C141.723 63.8197 138.511 63.968 136.332 63.2833C135.881 63.1415 135.63 62.6609 135.772 62.2099C135.913 61.7588 136.394 61.5081 136.845 61.6499C138.603 62.2024 141.465 62.1258 144.822 61.4851C148.142 60.8513 151.818 59.691 155.134 58.199C155.565 58.005 156.072 58.1972 156.266 58.6284Z" fill="#201A18"/>
<path fill-rule="evenodd" clip-rule="evenodd" d="M142.417 51.0045C142.722 51.3661 142.676 51.9062 142.314 52.2107C141.852 52.5993 141.632 52.9282 141.54 53.176C141.454 53.4053 141.462 53.6012 141.536 53.7954C141.708 54.2456 142.289 54.7968 143.351 55.2745C143.782 55.4685 143.974 55.9753 143.78 56.4065C143.586 56.8376 143.08 57.0299 142.648 56.8358C141.46 56.3012 140.355 55.5026 139.936 54.4062C139.715 53.8271 139.702 53.2005 139.936 52.5756C140.163 51.9693 140.604 51.4124 141.211 50.9011C141.573 50.5966 142.113 50.6428 142.417 51.0045Z" fill="#201A18"/>
</svg>
