<svg width="278" height="281" viewBox="0 0 278 281" fill="none" xmlns="http://www.w3.org/2000/svg">
<path fill-rule="evenodd" clip-rule="evenodd" d="M103.654 54.1676C102.798 56.7703 102.001 59.1944 101.252 60.6932C101.052 61.0934 100.565 61.2557 100.165 61.0556C99.7647 60.8555 99.6025 60.3688 99.8026 59.9686C100.493 58.5869 101.237 56.3275 102.086 53.745C102.316 53.0466 102.554 52.3246 102.8 51.59C103.934 48.21 105.246 44.5935 106.807 42.1653C107.584 40.9578 108.488 39.9349 109.56 39.4321C110.71 38.8925 111.94 39.0039 113.147 39.8336C114.299 40.6252 115.439 42.069 116.604 44.2113C117.778 46.3693 119.017 49.3104 120.333 53.1839C127.418 74.0329 133.073 87.859 137.903 97.0176C142.741 106.189 146.703 110.582 150.353 112.695C150.74 112.919 150.872 113.415 150.648 113.802C150.424 114.189 149.928 114.322 149.541 114.097C145.494 111.754 141.354 107.033 136.47 97.7736C131.579 88.5011 125.892 74.5794 118.799 53.7053C117.499 49.8787 116.294 47.0321 115.181 44.9854C114.059 42.9231 113.068 41.7452 112.23 41.169C111.446 40.6309 110.825 40.6283 110.248 40.8991C109.592 41.2067 108.892 41.9187 108.17 43.0414C106.736 45.2734 105.479 48.6979 104.336 52.1052C104.105 52.796 103.877 53.4879 103.654 54.1676ZM74.4694 43.6677C75.2277 44.2811 75.9166 45.2759 76.5502 46.6175C76.818 47.1847 77.0737 47.728 77.3187 48.2487C78.6573 51.0936 79.6776 53.262 80.6251 54.9463C81.7411 56.9305 82.7061 58.1477 83.8739 58.9562C85.0385 59.7625 86.4875 60.2193 88.6857 60.5158C90.6786 60.7845 93.2043 60.9126 96.5913 61.0844C96.9615 61.1032 97.342 61.1225 97.7332 61.1425C98.1801 61.1655 98.5237 61.5463 98.5008 61.9931C98.4779 62.44 98.0971 62.7836 97.6502 62.7607C97.2545 62.7404 96.8685 62.7209 96.4922 62.7018C93.1326 62.5316 90.5337 62.3999 88.4692 62.1215C86.1609 61.8103 84.4199 61.305 82.9516 60.2884C81.4864 59.274 80.3753 57.8074 79.2128 55.7407C78.2339 54.0004 77.1831 51.7668 75.8469 48.9268C75.6029 48.4081 75.3493 47.8692 75.085 47.3093C74.4987 46.0678 73.9374 45.3214 73.4503 44.9274C72.9928 44.5572 72.6422 44.5227 72.3442 44.6099C71.99 44.7135 71.5432 45.0394 71.0499 45.7186C70.5655 46.3856 70.0919 47.3174 69.6585 48.4848C67.9181 53.173 67.0143 61.1363 68.113 68.9271C68.1778 69.3863 68.2418 69.8109 68.3011 70.2048C68.4475 71.1766 68.5657 71.9614 68.5981 72.6157C68.6474 73.6087 68.5105 74.4065 68.0222 75.3018C67.8079 75.6946 67.3158 75.8393 66.923 75.6251C66.5302 75.4108 66.3854 74.9187 66.5997 74.5259C66.9215 73.936 67.0169 73.4446 66.9798 72.696C66.9516 72.1269 66.8517 71.4643 66.7133 70.5452C66.6517 70.1367 66.5825 69.6775 66.5086 69.1534C65.3794 61.1461 66.2894 52.9047 68.1395 47.9209C68.6038 46.6703 69.1389 45.5924 69.7389 44.7664C70.3299 43.9526 71.0431 43.3023 71.8892 43.0547C72.7915 42.7908 73.6814 43.0302 74.4694 43.6677ZM108.293 44.544C108.734 44.4704 109.152 44.7686 109.225 45.2099C109.596 47.4333 109.527 49.5046 109.35 51.3937C109.276 52.1806 109.182 52.944 109.094 53.6694C109.076 53.8118 109.059 53.9528 109.042 54.0922C108.938 54.9486 108.847 55.7469 108.805 56.5031C108.719 58.0201 108.832 59.2823 109.356 60.3728C109.871 61.4449 110.831 62.4505 112.637 63.3534C113.037 63.5535 113.199 64.0401 112.999 64.4403C112.799 64.8405 112.312 65.0027 111.912 64.8026C109.87 63.7813 108.602 62.5463 107.895 61.0741C107.197 59.6202 107.095 58.0342 107.187 56.4118C107.233 55.5983 107.329 54.7542 107.433 53.8969C107.451 53.7537 107.468 53.6101 107.486 53.466C107.575 52.7408 107.665 52.0041 107.737 51.2423C107.908 49.4225 107.965 47.5062 107.627 45.4763C107.554 45.035 107.852 44.6175 108.293 44.544ZM72.9013 48.5878C73.3465 48.5432 73.7435 48.8681 73.788 49.3133C73.9303 50.7361 74.0655 51.8755 74.1789 52.8317C74.2265 53.2327 74.2703 53.6015 74.3091 53.9456C74.4388 55.0938 74.5163 55.9823 74.4746 56.8024C74.3889 58.4874 73.799 59.8003 72.4966 62.5053C71.4571 64.6644 70.8139 66.3336 70.4323 67.5337C70.0422 68.7609 69.9438 69.4414 69.9438 69.6478C69.9438 70.0953 69.5811 70.458 69.1337 70.458C68.6862 70.458 68.3235 70.0953 68.3235 69.6478C68.3235 69.1791 68.4884 68.3001 68.8882 67.0428C69.2965 65.7584 69.9699 64.0182 71.0367 61.8024C72.3673 59.0389 72.7901 58.0226 72.8564 56.7201C72.8906 56.0465 72.8288 55.2767 72.699 54.1274C72.6617 53.7966 72.6188 53.4355 72.5719 53.0394C72.4579 52.0789 72.3196 50.9128 72.1758 49.4745C72.1312 49.0293 72.4561 48.6323 72.9013 48.5878ZM106.19 75.1431C106.62 75.3195 107.029 75.6161 107.267 76.0923C107.467 76.4925 107.305 76.9792 106.905 77.1793C106.505 77.3794 106.018 77.2172 105.818 76.817C105.803 76.7869 105.756 76.7164 105.576 76.6427C105.388 76.5659 105.107 76.5086 104.723 76.4919C103.954 76.4584 102.946 76.5932 101.861 76.8396C100.787 77.0837 99.6832 77.427 98.7393 77.7825C97.7803 78.1436 97.0398 78.4976 96.6626 78.7491C96.2903 78.9972 95.7873 78.8966 95.5391 78.5244C95.2909 78.1521 95.3915 77.6491 95.7638 77.4009C96.298 77.0448 97.1778 76.6391 98.1682 76.2661C99.1738 75.8874 100.349 75.5218 101.502 75.2596C102.646 74.9996 103.815 74.8306 104.793 74.8731C105.282 74.8943 105.766 74.9699 106.19 75.1431ZM182.71 92.8145C182.657 94.05 182.557 95.1711 182.302 95.8555C181.703 97.4671 181.155 100.618 180.754 103.449C180.557 104.847 180.398 106.14 180.289 107.083C180.235 107.555 180.193 107.939 180.164 108.205C180.15 108.338 180.139 108.441 180.132 108.511L180.125 108.574C180.125 108.583 180.125 108.591 180.125 108.601C180.124 108.652 180.12 108.717 180.111 108.797C180.094 108.958 180.059 109.179 179.987 109.466C179.844 110.04 179.555 110.88 178.976 112.037C177.821 114.348 175.495 117.951 170.808 123.25C170.775 123.286 170.74 123.319 170.704 123.349C170.942 123.479 171.18 123.61 171.418 123.742C177.334 127.035 182.95 131.001 187.375 136.901C196.237 148.717 200.138 168.027 192.854 204.507C192.864 206.788 193.322 208.44 194.203 209.747C195.098 211.077 196.49 212.137 198.522 213.116C198.877 213.287 199.251 213.455 199.642 213.621C199.593 211.47 199.375 209.732 199.157 207.987C199.136 207.817 199.115 207.647 199.094 207.476C198.826 205.312 198.585 203.096 198.716 200.117C198.978 194.179 200.713 185.276 206.517 167.562C206.525 167.537 206.535 167.513 206.545 167.489C211.457 156.279 213.073 149.035 213.19 143.124C213.283 138.452 212.447 134.596 211.486 130.169C211.401 129.774 211.314 129.376 211.228 128.971C211.036 129.41 210.842 129.861 210.643 130.324C210.467 130.735 209.991 130.925 209.579 130.749C209.168 130.573 208.978 130.097 209.154 129.685C209.687 128.44 210.195 127.284 210.678 126.205C210.688 126.001 210.776 125.811 210.918 125.671C211.99 123.291 212.935 121.302 213.764 119.583C214.001 119.091 214.228 118.622 214.445 118.173C215.383 116.236 216.139 114.673 216.747 113.233C218.218 109.754 218.81 107.028 218.81 101.649C218.81 90.8181 216.806 83.2024 215.598 78.7727C215.558 78.6267 215.52 78.5135 215.487 78.4266C215.386 78.5446 215.263 78.7115 215.119 78.938C214.873 79.3242 214.606 79.8177 214.319 80.3903C213.969 81.0904 213.613 81.8623 213.244 82.6615C213.001 83.1876 212.753 83.7255 212.497 84.2624C211.873 85.5743 211.209 86.8716 210.547 87.7549C210.278 88.1128 209.77 88.1854 209.412 87.9169C209.054 87.6484 208.982 87.1406 209.25 86.7827C209.803 86.0456 210.405 84.8871 211.034 83.566C211.271 83.069 211.512 82.5461 211.753 82.0241C212.134 81.2013 212.513 80.3804 212.87 79.6657C213.166 79.0736 213.462 78.5228 213.753 78.0672C214.031 77.63 214.351 77.2051 214.711 76.9357C214.898 76.7966 215.147 76.6597 215.448 76.6258C215.776 76.5891 216.085 76.6835 216.338 76.8731C216.772 77.1985 217.005 77.7733 217.161 78.3464C218.384 82.8284 220.43 90.6057 220.43 101.649C220.43 107.207 219.808 110.153 218.24 113.864C217.614 115.345 216.835 116.955 215.895 118.896C215.68 119.341 215.456 119.804 215.223 120.286C214.388 122.021 213.434 124.028 212.351 126.434C212.581 127.568 212.819 128.663 213.052 129.737C214.02 134.195 214.907 138.277 214.81 143.156C214.688 149.352 212.992 156.806 208.045 168.104C202.261 185.763 200.586 194.485 200.335 200.188C200.21 203.031 200.437 205.141 200.702 207.277C200.723 207.449 200.744 207.621 200.766 207.793C201.006 209.709 201.256 211.705 201.272 214.263C202.776 214.818 204.499 215.366 206.461 215.956C207.64 216.311 208.908 216.681 210.261 217.076C212.648 217.773 215.301 218.547 218.209 219.452C222.847 220.895 226.926 223.024 229.922 225.487C232.897 227.933 234.907 230.797 235.169 233.725C235.439 236.738 233.844 239.546 230.227 241.767C226.637 243.972 220.967 245.669 212.789 246.551C192.143 248.778 177.029 249.831 167.443 248.925C163.254 248.529 160 247.751 157.796 246.445C157.65 246.583 157.454 246.667 157.238 246.667C156.283 246.667 153.629 247.043 151.186 248.569C149.574 249.577 147.651 249.317 146.067 248.746C144.697 248.252 143.435 247.477 142.557 246.813C141.723 247.167 140.578 247.358 139.344 247.024C138.617 246.826 137.889 246.455 137.195 245.862C135.099 246.18 133.44 246.194 132.163 245.988C131.394 245.865 130.737 245.657 130.203 245.37C129.895 246.051 129.579 246.694 129.266 247.308C129.024 247.783 128.787 248.235 128.558 248.672C127.964 249.806 127.426 250.833 126.999 251.875C125.947 254.447 123.718 255.004 122.427 254.947C121.487 255.555 120.303 255.635 119.306 255.551C118.332 255.47 117.392 255.22 116.723 254.978C115.143 255.517 113.845 255.394 112.847 254.919C112.061 254.544 111.509 253.971 111.171 253.428C109.832 253.369 108.744 253.064 107.904 252.536C107.376 252.204 106.963 251.795 106.654 251.333C106.563 251.434 106.46 251.525 106.342 251.602C106.127 251.742 105.911 251.802 105.721 251.829C105.534 251.856 105.378 251.859 105.225 251.861C104.842 251.868 104.482 251.874 103.725 252.253C102.577 252.827 101.303 252.93 100.222 252.853C99.1696 252.778 98.2315 252.528 97.6457 252.301C95.9479 251.867 95.0272 251.178 94.6426 250.276C94.4581 249.844 94.4315 249.434 94.4353 249.125C94.4356 249.105 94.436 249.085 94.4365 249.065C93.3214 248.612 92.6271 247.869 92.3449 246.86C92.0435 245.783 92.2603 244.545 92.5806 243.366C92.7659 242.684 93.0187 241.92 93.2707 241.159C93.4467 240.627 93.6222 240.096 93.7739 239.596C94.1636 238.312 94.4511 237.076 94.4511 235.933C94.4511 230.687 93.4482 219.856 90.4121 202.246C89.0707 194.466 87.8114 189.95 86.6417 185.756C86.4935 185.225 86.3467 184.698 86.2014 184.171C84.9013 179.455 83.7273 174.704 82.709 165.743C82.6585 165.298 82.9779 164.897 83.4225 164.846C83.8671 164.796 84.2684 165.115 84.3189 165.56C85.326 174.422 86.4812 179.089 87.7635 183.741C87.9081 184.265 88.0545 184.79 88.2026 185.321C89.3752 189.526 90.6532 194.108 92.0088 201.971C95.0489 219.603 96.0714 230.545 96.0714 235.933C96.0714 237.321 95.7259 238.743 95.3244 240.067C95.1429 240.665 94.9581 241.221 94.7812 241.753C94.5466 242.459 94.3257 243.123 94.1442 243.791C93.8316 244.941 93.7319 245.804 93.9053 246.423C93.9998 246.761 94.1916 247.081 94.6099 247.345C94.8026 246.67 95.1319 246.072 95.4958 245.578C96.0772 244.789 96.8025 244.188 97.3701 243.9C97.7693 243.698 98.2568 243.858 98.459 244.257C98.6612 244.656 98.5015 245.143 98.1024 245.346C97.7939 245.502 97.2553 245.922 96.8005 246.539C96.4051 247.076 96.1163 247.703 96.0619 248.367C96.0641 248.381 96.0659 248.395 96.0674 248.409C96.0827 248.562 96.0754 248.717 96.0699 248.823C96.0634 248.949 96.0568 249.04 96.0555 249.146C96.053 249.343 96.0728 249.499 96.133 249.641C96.234 249.877 96.5811 250.365 98.0907 250.742C98.1263 250.751 98.1611 250.762 98.1951 250.776C98.4895 250.894 98.9551 251.035 99.5105 251.133C99.5021 251.089 99.4973 251.043 99.4965 250.996C99.477 249.871 99.7689 248.586 100.17 247.532C100.372 247.001 100.612 246.503 100.874 246.095C101.118 245.714 101.446 245.306 101.865 245.095C102.264 244.892 102.751 245.052 102.953 245.451C103.156 245.85 102.996 246.338 102.597 246.54C102.597 246.54 102.597 246.54 102.597 246.54C102.593 246.543 102.554 246.566 102.486 246.639C102.415 246.715 102.331 246.824 102.238 246.969C102.051 247.26 101.858 247.653 101.684 248.109C101.334 249.03 101.102 250.105 101.117 250.968C101.118 251.067 101.102 251.162 101.071 251.251C101.747 251.227 102.416 251.096 103 250.803C104.141 250.233 104.973 250.231 105.334 250.23C105.39 250.23 105.434 250.23 105.467 250.228C105.474 250.219 105.482 250.207 105.492 250.192C105.592 250.042 105.73 249.743 105.938 249.142C105.825 247.512 106.443 245.752 107.338 244.347C107.578 243.97 108.079 243.859 108.456 244.099C108.834 244.339 108.945 244.84 108.705 245.218C107.946 246.41 107.514 247.748 107.548 248.878C107.597 249.012 107.612 249.159 107.585 249.307C107.604 249.436 107.63 249.562 107.663 249.683C107.828 250.282 108.172 250.791 108.765 251.164C109.292 251.495 110.056 251.743 111.139 251.804C111.201 250.841 111.472 249.894 111.827 249.11C112.038 248.646 112.287 248.22 112.557 247.869C112.818 247.53 113.138 247.207 113.511 247.019C113.91 246.816 114.397 246.976 114.599 247.375C114.802 247.774 114.642 248.262 114.243 248.464C114.177 248.497 114.032 248.608 113.841 248.856C113.66 249.092 113.472 249.407 113.303 249.78C112.962 250.531 112.732 251.442 112.747 252.293C112.749 252.444 112.71 252.587 112.64 252.71C112.834 252.975 113.133 253.26 113.545 253.456C114.146 253.742 115.076 253.883 116.439 253.357C116.519 253.326 116.604 253.308 116.688 253.304C116.678 252.075 117.211 251.063 117.827 250.322C118.446 249.579 119.192 249.055 119.718 248.789C120.117 248.586 120.605 248.746 120.807 249.145C121.009 249.544 120.849 250.032 120.45 250.234C120.101 250.411 119.536 250.802 119.073 251.359C118.613 251.911 118.296 252.572 118.309 253.314C118.311 253.466 118.272 253.608 118.202 253.731C118.589 253.824 119.014 253.901 119.441 253.937C120.407 254.018 121.205 253.877 121.687 253.485C121.864 253.341 122.093 253.278 122.319 253.312C123.015 253.416 124.711 253.19 125.5 251.261C125.958 250.143 126.548 249.016 127.156 247.855C127.378 247.432 127.602 247.005 127.823 246.572C128.661 244.926 129.497 243.121 130.13 240.951C131.244 237.136 133.821 228.291 136.119 218.384C138.422 208.458 140.427 197.538 140.427 189.551C140.427 187.047 140.14 185.465 139.846 183.846C139.704 183.061 139.56 182.268 139.446 181.356C139.103 178.607 139.116 175.126 140.442 168.288C140.528 167.849 140.953 167.562 141.392 167.647C141.831 167.732 142.118 168.157 142.033 168.597C140.727 175.33 140.739 178.63 141.054 181.156C141.15 181.922 141.281 182.651 141.417 183.404C141.721 185.091 142.048 186.904 142.048 189.551C142.048 196.85 140.422 206.444 138.436 215.48C138.557 215.589 138.647 215.734 138.686 215.904C140.072 222.004 142.081 227.189 143.021 229.324C144.427 228.651 146.141 228.293 147.737 228.109C149.731 227.879 151.664 227.907 152.85 228.006C153.296 228.044 153.627 228.435 153.59 228.881C153.552 229.327 153.161 229.658 152.715 229.621C151.624 229.53 149.799 229.502 147.923 229.718C146.132 229.925 144.4 230.344 143.201 231.063C143.171 231.09 143.139 231.115 143.105 231.138C141.537 232.183 139.329 234.024 137.802 236.125C136.815 237.482 136.181 238.846 136.088 240.133C136.469 239.539 136.961 238.96 137.461 238.445C138.499 237.378 139.694 236.462 140.246 236.183C140.645 235.981 141.132 236.14 141.335 236.539C141.537 236.938 141.377 237.426 140.978 237.628C140.654 237.792 139.604 238.566 138.623 239.575C138.143 240.069 137.709 240.59 137.403 241.084C137.087 241.595 136.961 241.991 136.966 242.259C136.97 242.46 136.899 242.646 136.78 242.789C137.766 244.509 138.86 245.213 139.769 245.46C140.73 245.721 141.606 245.503 142.136 245.22C142.138 245.204 142.14 245.188 142.143 245.172L142.183 244.944C142.713 241.895 144.414 239.175 146.923 237.363C147.285 237.101 147.792 237.182 148.054 237.545C148.316 237.908 148.234 238.414 147.871 238.676C145.705 240.241 144.237 242.59 143.779 245.222L143.739 245.45C143.728 245.514 143.71 245.575 143.685 245.632C144.448 246.19 145.502 246.82 146.616 247.221C148.03 247.731 149.347 247.808 150.328 247.195C152.417 245.889 154.635 245.326 156.106 245.132C155.44 244.44 154.965 243.643 154.702 242.737C154.343 241.5 154.4 240.129 154.805 238.646C155.46 236.245 156.705 234.565 158.313 233.421C159.903 232.288 161.8 231.714 163.719 231.425C165.638 231.136 167.632 231.125 169.443 231.157C169.854 231.164 170.254 231.173 170.64 231.182C171.986 231.213 173.174 231.241 174.158 231.165C175.94 231.028 180.6 230.561 185.964 229.893L189.671 215.677C189.784 215.244 190.226 214.984 190.659 215.097C191.092 215.21 191.352 215.653 191.239 216.086L187.696 229.674C189.668 229.419 191.702 229.14 193.696 228.842C197.766 228.236 201.648 227.557 204.503 226.857C205.936 226.505 207.075 226.158 207.84 225.825C208.228 225.656 208.475 225.511 208.613 225.399C208.634 225.381 208.651 225.366 208.663 225.355C208.728 224.972 209.061 224.681 209.462 224.681C209.909 224.681 210.272 225.044 210.272 225.492C210.272 226.041 209.916 226.427 209.635 226.656C209.331 226.903 208.929 227.118 208.486 227.311C207.592 227.699 206.348 228.073 204.889 228.43C201.959 229.149 198.018 229.836 193.935 230.445C185.765 231.663 176.936 232.577 174.282 232.781C173.209 232.863 171.908 232.833 170.546 232.801C170.172 232.792 169.794 232.783 169.414 232.777C167.618 232.745 165.738 232.759 163.96 233.027C162.183 233.295 160.561 233.809 159.252 234.741C157.961 235.66 156.928 237.018 156.368 239.072C156.019 240.353 156.004 241.409 156.258 242.286C156.51 243.153 157.044 243.914 157.919 244.581C159.713 245.947 162.877 246.866 167.596 247.312C176.992 248.2 191.943 247.169 212.615 244.94C220.692 244.069 226.086 242.409 229.379 240.386C232.646 238.38 233.754 236.09 233.555 233.87C233.349 231.566 231.719 229.061 228.893 226.738C226.088 224.432 222.204 222.392 217.728 220.999C214.828 220.097 212.209 219.332 209.834 218.639C208.476 218.243 207.198 217.87 205.994 217.508C202.709 216.52 199.983 215.619 197.818 214.575C195.647 213.529 193.976 212.311 192.859 210.653C191.737 208.987 191.233 206.967 191.233 204.428C191.233 204.374 191.238 204.321 191.249 204.269C198.525 167.886 194.527 149.138 186.079 137.873C181.845 132.228 176.447 128.396 170.63 125.158C167.753 123.556 164.785 122.107 161.806 120.651L161.698 120.599C158.69 119.128 155.669 117.65 152.759 116.017C152.369 115.798 152.23 115.304 152.449 114.914C152.668 114.524 153.162 114.385 153.552 114.604C156.415 116.211 159.395 117.67 162.41 119.143L162.535 119.204C164.819 120.32 167.124 121.446 169.393 122.645C169.407 122.477 169.474 122.312 169.594 122.176C174.223 116.943 176.455 113.457 177.527 111.312C178.063 110.242 178.305 109.512 178.415 109.073C178.47 108.854 178.491 108.708 178.5 108.628C178.504 108.588 178.505 108.565 178.505 108.557C178.504 108.523 178.505 108.489 178.509 108.455L178.838 108.488C178.509 108.455 178.509 108.455 178.509 108.455L178.512 108.426L178.52 108.344C178.528 108.272 178.539 108.167 178.553 108.032C178.582 107.763 178.624 107.374 178.68 106.898C178.79 105.945 178.95 104.637 179.15 103.222C179.546 100.426 180.112 97.0955 180.784 95.2904C180.934 94.8861 181.036 94.0261 181.091 92.7453C181.139 91.6317 181.149 90.3026 181.159 88.8682C181.161 88.7051 181.162 88.5405 181.163 88.3748C181.188 85.1694 181.237 81.498 181.761 78.8933C182.018 77.6194 182.42 76.4213 183.134 75.698C183.517 75.3107 184.004 75.0454 184.589 75.0046C185.157 74.965 185.725 75.1434 186.276 75.4599C187.356 76.0802 188.584 77.355 190.019 79.3344C191.396 81.2338 193.012 83.8526 194.912 87.3331C197.6 86.6659 203.047 85.9539 207.724 87.513C208.149 87.6544 208.378 88.1133 208.237 88.5377C208.095 88.9622 207.636 89.1916 207.212 89.0501C202.573 87.5038 196.953 88.4062 194.734 89.0588C194.367 89.1667 193.975 89.0033 193.793 88.6668C191.776 84.9356 190.099 82.2055 188.707 80.2854C187.3 78.3442 186.237 77.3063 185.469 76.8649C185.096 76.6505 184.85 76.6107 184.702 76.621C184.571 76.6301 184.439 76.6828 184.287 76.8368C183.932 77.1962 183.599 77.9745 183.35 79.2133C182.862 81.6341 182.809 85.1339 182.783 88.3875C182.782 88.5535 182.781 88.7188 182.78 88.8832C182.769 90.3106 182.759 91.6703 182.71 92.8145ZM178.506 108.575L178.506 108.576L178.506 108.578C178.506 108.579 178.506 108.58 179.315 108.535L178.506 108.58C178.506 108.578 178.506 108.577 178.506 108.575ZM208.696 225.319C208.695 225.32 208.694 225.322 208.69 225.326C208.694 225.321 208.696 225.319 208.696 225.319ZM141.631 230.188C140.805 228.346 139.093 224.012 137.706 218.715C137.703 218.726 137.7 218.738 137.698 218.75C135.388 228.704 132.8 237.586 131.686 241.405C131.43 242.28 131.144 243.098 130.841 243.868C131.17 244.072 131.674 244.269 132.42 244.389C133.283 244.527 134.422 244.555 135.885 244.399C135.591 243.981 135.31 243.509 135.044 242.979C133.699 240.288 134.842 237.441 136.491 235.173C137.98 233.124 140.021 231.341 141.631 230.188ZM76.9211 77.3049C76.2166 77.3789 75.9948 77.586 75.9345 77.7066C75.7344 78.1068 75.2477 78.269 74.8475 78.0689C74.4473 77.8688 74.2851 77.3822 74.4852 76.982C74.9313 76.0899 75.8994 75.783 76.7519 75.6935C77.6455 75.5997 78.6977 75.7091 79.7213 75.911C81.754 76.3122 83.9436 77.1355 84.976 77.8238C85.3483 78.072 85.4489 78.575 85.2007 78.9473C84.9525 79.3196 84.4495 79.4202 84.0773 79.172C83.2868 78.6451 81.3244 77.8789 79.4076 77.5007C78.4564 77.313 77.5845 77.2353 76.9211 77.3049ZM185.022 78.1719C185.46 78.0797 185.889 78.3599 185.981 78.7977C186.22 79.931 186.431 80.8699 186.62 81.7135C186.76 82.3342 186.888 82.9033 187.006 83.4604C187.274 84.715 187.462 85.7663 187.517 86.7693C187.628 88.8266 187.167 90.5832 185.933 93.4615C185.757 93.8728 185.281 94.0633 184.87 93.887C184.458 93.7108 184.268 93.2345 184.444 92.8232C185.641 90.0305 185.99 88.5464 185.899 86.8568C185.852 85.9863 185.686 85.0375 185.422 83.7983C185.317 83.3086 185.191 82.7453 185.051 82.1192C184.853 81.2376 184.627 80.2315 184.396 79.1315C184.304 78.6937 184.584 78.264 185.022 78.1719ZM66.1826 79.7795C66.6275 79.8276 66.9491 80.2272 66.901 80.672C66.4948 84.4292 66.1952 87.2562 66.1204 89.5484C66.0459 91.8333 66.1981 93.5291 66.6663 95.0274C67.6049 98.0309 69.8563 100.418 74.7577 105.115C75.0807 105.424 75.0916 105.937 74.7821 106.26C74.4725 106.583 73.9596 106.594 73.6366 106.285C68.816 101.665 66.2065 98.9884 65.1197 95.5107C64.5753 93.7683 64.4236 91.8691 64.501 89.4956C64.5782 87.1294 64.8861 84.2347 65.2901 80.4979C65.3382 80.053 65.7378 79.7314 66.1826 79.7795ZM88.138 81.9778C88.6136 81.6991 89.2658 81.5976 90.0401 81.5976C90.8234 81.5976 91.4621 81.6325 91.9088 81.7515C92.1256 81.8093 92.4173 81.9161 92.6393 82.1538C92.9152 82.4491 92.9753 82.8232 92.8965 83.1531C92.8314 83.4257 92.6776 83.6538 92.5478 83.8187C92.4081 83.9963 92.2328 84.1781 92.0429 84.36C91.6963 84.692 91.2336 85.087 90.7096 85.5344C90.6906 85.5506 90.6716 85.5669 90.6525 85.5832C90.7325 85.6054 90.8118 85.6293 90.8898 85.6542C91.2596 85.7719 91.6687 85.9333 92.0917 86.1095C92.3633 86.2227 92.641 86.342 92.9249 86.4639C93.549 86.7321 94.2029 87.013 94.8874 87.2697C95.8759 87.6404 96.8487 87.9281 97.7313 88.013C98.6116 88.0976 99.3259 87.9736 99.8753 87.6073C100.248 87.3592 100.751 87.4598 100.999 87.832C101.247 88.2043 101.146 88.7073 100.774 88.9555C99.8044 89.602 98.6706 89.7311 97.5762 89.6259C96.484 89.5208 95.3555 89.1757 94.3185 88.7868C93.5976 88.5165 92.882 88.2092 92.2425 87.9345C91.9687 87.8169 91.7089 87.7053 91.4685 87.6052C91.056 87.4333 90.6992 87.294 90.3982 87.1981C90.0846 87.0983 89.8928 87.0662 89.7927 87.0662C89.629 87.0662 89.3741 87.1622 88.9253 87.514C88.7135 87.68 88.4909 87.8758 88.2368 88.1012L88.1907 88.142C87.9546 88.3515 87.6949 88.5818 87.4195 88.8072C86.2335 89.7775 84.6158 90.7698 82.3344 90.2895C81.8965 90.1973 81.6163 89.7676 81.7085 89.3298C81.8007 88.8919 82.2303 88.6117 82.6682 88.7039C84.2349 89.0337 85.3515 88.4057 86.3935 87.5531C86.6428 87.3491 86.8799 87.1388 87.1207 86.9253L87.1617 86.8889C87.4108 86.668 87.6692 86.4398 87.9258 86.2387C88.1671 86.0495 88.4434 85.8536 88.7516 85.7038C88.704 85.6703 88.6593 85.6311 88.6184 85.5862C88.3775 85.3215 88.0985 84.9947 87.8699 84.6491C87.654 84.3227 87.4185 83.8856 87.3786 83.4126C87.3573 83.1595 87.3906 82.878 87.5291 82.6061C87.6682 82.3331 87.8846 82.1262 88.138 81.9778ZM89.6502 84.3083C89.4907 84.1243 89.3412 83.9363 89.2214 83.7552C89.0968 83.567 89.0361 83.4325 89.0098 83.3499C89.1446 83.2928 89.4474 83.218 90.0401 83.218C90.3768 83.218 90.6506 83.2254 90.8709 83.2385C90.566 83.5262 90.1587 83.8741 89.6502 84.3083ZM215.661 86.2612C216.106 86.3117 216.425 86.7131 216.375 87.1577C216.121 89.3883 216.056 90.4143 216.258 91.6214C216.436 92.6817 216.818 93.8799 217.518 96.0748C217.649 96.485 217.79 96.9299 217.944 97.4152C218.079 97.8417 217.843 98.297 217.416 98.4321C216.99 98.5672 216.534 98.3309 216.399 97.9043C216.25 97.4331 216.111 96.996 215.981 96.5884C215.284 94.4072 214.859 93.0734 214.66 91.8893C214.416 90.4327 214.512 89.2 214.765 86.9747C214.815 86.5302 215.216 86.2107 215.661 86.2612ZM192.335 99.4101C192.084 99.5159 192.057 99.6269 192.055 99.6373C192.053 99.6477 192.039 99.7613 192.236 99.9497C192.427 100.133 192.753 100.311 193.177 100.389C193.601 100.467 193.969 100.417 194.213 100.314C194.464 100.208 194.492 100.097 194.493 100.087C194.495 100.077 194.509 99.963 194.312 99.7745C194.121 99.5918 193.795 99.4135 193.371 99.3353C192.947 99.2572 192.579 99.3074 192.335 99.4101ZM191.707 97.9168C192.281 97.6749 192.975 97.6147 193.665 97.7419C194.355 97.869 194.982 98.1729 195.432 98.6037C195.877 99.0288 196.22 99.6602 196.087 100.381C195.954 101.101 195.408 101.569 194.842 101.808C194.267 102.049 193.573 102.11 192.883 101.982C192.193 101.855 191.566 101.551 191.116 101.121C190.671 100.695 190.328 100.064 190.461 99.3435C190.594 98.623 191.14 98.1554 191.707 97.9168ZM210.736 100.883C210.492 100.782 210.123 100.735 209.7 100.817C209.277 100.899 208.952 101.08 208.763 101.264C208.567 101.454 208.582 101.567 208.584 101.578C208.586 101.588 208.615 101.699 208.867 101.803C209.111 101.903 209.48 101.95 209.903 101.869C210.326 101.787 210.651 101.606 210.84 101.422C211.036 101.232 211.021 101.118 211.019 101.108C211.017 101.097 210.988 100.987 210.736 100.883ZM211.353 99.3843C211.921 99.6182 212.471 100.081 212.61 100.801C212.749 101.52 212.411 102.154 211.97 102.583C211.523 103.018 210.899 103.327 210.21 103.46C209.522 103.593 208.827 103.538 208.25 103.301C207.682 103.067 207.132 102.604 206.993 101.885C206.854 101.166 207.192 100.531 207.633 100.103C208.079 99.668 208.704 99.3588 209.393 99.2259C210.081 99.093 210.776 99.1473 211.353 99.3843ZM201.571 105.568C201.304 105.352 201.078 105.187 200.897 105.057C200.785 104.977 200.669 104.895 200.584 104.829C200.54 104.795 200.487 104.753 200.437 104.706C200.398 104.671 200.303 104.581 200.23 104.447C200.15 104.3 200.021 103.935 200.267 103.569C200.446 103.302 200.713 103.23 200.772 103.214L200.773 103.214C200.934 103.171 201.116 103.169 201.213 103.168C201.307 103.167 201.458 103.17 201.638 103.172C201.85 103.175 202.103 103.179 202.358 103.179C202.694 103.179 202.959 103.175 203.18 103.172C203.287 103.17 203.384 103.169 203.474 103.168C203.603 103.167 203.726 103.167 203.83 103.173C203.907 103.177 204.081 103.187 204.251 103.254C204.343 103.291 204.52 103.378 204.653 103.573C204.806 103.796 204.821 104.039 204.785 104.222C204.754 104.379 204.686 104.492 204.652 104.547C204.612 104.608 204.57 104.659 204.541 104.693C204.488 104.754 204.423 104.821 204.372 104.874L204.359 104.887C204.299 104.949 204.235 105.014 204.166 105.09C204.02 105.25 203.824 105.339 203.624 105.353C203.9 105.48 204.13 105.659 204.306 105.808C204.476 105.953 204.645 106.115 204.801 106.265C204.963 106.421 205.116 106.569 205.278 106.712C205.917 107.28 206.514 107.619 207.34 107.43C207.776 107.33 208.21 107.603 208.31 108.039C208.41 108.476 208.137 108.91 207.7 109.01C206.097 109.376 204.968 108.605 204.202 107.924C204.024 107.766 203.856 107.604 203.707 107.462L203.678 107.433C203.516 107.278 203.382 107.15 203.256 107.043C203.02 106.842 202.924 106.815 202.914 106.811C202.905 106.812 202.885 106.815 202.851 106.822C202.8 106.834 202.732 106.853 202.645 106.883C202.47 106.944 202.256 107.034 201.998 107.151C201.852 107.216 201.692 107.291 201.521 107.371C201.115 107.56 200.65 107.776 200.187 107.965C199.523 108.235 198.777 108.485 198.041 108.562C197.298 108.639 196.491 108.547 195.796 108.044C195.434 107.782 195.352 107.275 195.614 106.913C195.877 106.55 196.383 106.469 196.746 106.731C197.009 106.922 197.369 107.003 197.873 106.95C198.383 106.897 198.963 106.714 199.577 106.464C200.001 106.291 200.402 106.105 200.792 105.923C200.973 105.838 201.152 105.755 201.33 105.674C201.41 105.638 201.491 105.602 201.571 105.568ZM76.5808 111.815C77.0065 111.678 77.4632 111.911 77.601 112.337C78.756 115.907 78.9953 119.785 78.9092 123.797C78.8596 126.105 78.6983 128.522 78.5353 130.964C78.418 132.721 78.2998 134.492 78.2218 136.243C77.8442 144.728 78.361 153.361 83.974 161.337C84.2315 161.703 84.1436 162.208 83.7777 162.466C83.4117 162.723 82.9064 162.635 82.6489 162.269C76.7171 153.84 76.2212 144.751 76.6031 136.171C76.685 134.33 76.8053 132.538 76.9232 130.781C77.0837 128.389 77.2398 126.061 77.2892 123.762C77.3739 119.819 77.1323 116.152 76.0593 112.836C75.9216 112.41 76.1551 111.953 76.5808 111.815ZM159.381 154.408C154.637 154.799 150.082 156.636 147.42 161.58C147.207 161.974 146.716 162.121 146.322 161.909C145.928 161.697 145.781 161.205 145.993 160.811C149.002 155.223 154.169 153.212 159.248 152.793C164.304 152.376 169.378 153.521 172.435 154.337C172.867 154.452 173.124 154.896 173.009 155.328C172.894 155.76 172.45 156.017 172.017 155.902C168.999 155.097 164.148 154.015 159.381 154.408ZM89.3264 159.318C89.6923 159.06 90.1977 159.148 90.4552 159.514C97.0929 168.947 105.159 175.675 110.903 179.53C112.368 180.513 113.676 181.306 114.765 181.906C114.344 179.349 113.831 176.598 113.316 173.833C113.171 173.052 113.025 172.27 112.881 171.49C112.123 167.387 111.414 163.361 111.064 160.066C111.017 159.621 111.339 159.222 111.784 159.175C112.229 159.127 112.628 159.45 112.675 159.895C113.018 163.119 113.716 167.087 114.475 171.196C114.617 171.969 114.762 172.747 114.907 173.525C115.531 176.872 116.156 180.228 116.619 183.243C117.141 186.646 117.47 189.691 117.336 191.83C117.275 192.809 117.222 194.384 117.156 196.372C117.008 200.757 116.793 207.155 116.272 213.617C115.891 218.34 115.344 223.158 114.532 227.364C113.725 231.544 112.64 235.218 111.135 237.583C110.918 237.924 110.483 238.053 110.115 237.885C109.747 237.716 109.56 237.303 109.676 236.915C113.356 224.635 113.288 216.12 112.074 198.925C112.073 198.906 112.072 198.887 112.072 198.868C112.072 196.116 111.479 192.486 110.869 188.995C110.81 188.657 110.75 188.319 110.691 187.983C110.193 185.156 109.72 182.468 109.65 180.639C103.808 176.665 95.7734 169.887 89.1301 160.447C88.8726 160.081 88.9605 159.575 89.3264 159.318ZM111.358 181.762C111.525 183.37 111.892 185.457 112.295 187.747C112.351 188.066 112.408 188.39 112.465 188.716C113.068 192.164 113.688 195.924 113.692 198.839C114.172 205.634 114.475 211.111 114.436 216.025C114.515 215.18 114.589 214.332 114.657 213.487C115.176 207.047 115.384 200.826 115.53 196.461C115.598 194.424 115.653 192.791 115.719 191.728C115.836 189.863 115.564 187.129 115.081 183.906C114.064 183.394 112.8 182.678 111.358 181.762ZM238.299 195.048C244.649 195.791 251.348 196.575 258.456 196.575C258.903 196.575 259.266 196.937 259.266 197.385C259.266 197.832 258.903 198.195 258.456 198.195C251.249 198.195 244.395 197.393 238.009 196.646C235.379 196.339 232.828 196.04 230.364 195.811C221.858 195.02 214.359 195.043 207.793 198.118C207.388 198.308 206.906 198.134 206.716 197.728C206.526 197.323 206.701 196.841 207.106 196.651C214.092 193.379 221.97 193.403 230.515 194.198C233.051 194.434 235.644 194.737 238.299 195.048ZM84.3396 209.866C85.1365 209.866 85.9355 209.867 86.7364 209.867C87.1839 209.867 87.5466 210.229 87.5466 210.677C87.5466 211.124 87.1839 211.487 86.7364 211.487C85.9392 211.487 85.1445 211.486 84.3524 211.486C75.0696 211.481 66.1579 211.476 57.9586 212.142C49.0597 212.864 41.0688 214.372 34.4198 217.487C34.0146 217.676 33.5323 217.502 33.3425 217.096C33.1528 216.691 33.3274 216.209 33.7326 216.019C40.6356 212.786 48.8479 211.256 57.8275 210.527C66.0962 209.856 75.0739 209.861 84.3396 209.866Z" fill="#201A18"/>
</svg>
