<svg width="156" height="216" viewBox="0 0 156 216" fill="none" xmlns="http://www.w3.org/2000/svg">
<path d="M30.7954 124.641C31.6128 119.532 34.2693 114.424 37.7432 112.789C40.5224 111.481 38.9012 109.519 37.7432 108.702C38.5606 106.522 39.0102 102.204 34.2693 102.367" stroke="#201A18" stroke-width="2" stroke-linejoin="round"/>
<path d="M125.817 190.645C114.987 170.824 119.482 177.976 104.361 157.541C89.2389 137.106 85.1519 129.954 82.9041 123.415C80.6563 116.876 79.4302 112.584 75.3432 108.497C72.0736 105.228 77.1142 107.135 80.0432 108.497L77.9997 102.571C83.9939 104.547 97.2493 106.74 102.317 99.7105C100.955 100.187 97.0858 100.855 92.5084 99.7105C86.7867 98.28 68.8041 94.1931 62.0606 93.1713C55.3171 92.1496 37.7432 95.8279 34.678 100.937C31.6127 106.045 23.4388 115.65 30.7953 124.845C31.749 128.66 33.7248 129.722 37.4957 132.196" stroke="#201A18" stroke-width="2" stroke-linejoin="round"/>
<ellipse cx="51.3327" cy="109.771" rx="3.78044" ry="3.73069" fill="#201A18"/>
<path d="M24.2075 49.1191C28.4111 57.709 41.8024 62.6438 37.2333 69.9543M37.2333 69.9543C35.3326 72.4399 43.0208 83.1741 47.1025 88.2306M37.2333 69.9543C33.0298 73.7923 30.2883 79.2752 29.7401 82.0166" stroke="#201A18" stroke-width="2" stroke-linecap="round" stroke-linejoin="round"/>
<ellipse cx="45.7319" cy="53.4002" rx="4.02931" ry="3.97629" fill="#201A18"/>
<path d="M140.869 115.228C126.979 94.7581 114.176 81.1029 110.887 76.7166V76.7166C97.4708 55.6027 75.6112 39.6018 50.649 37.9688C39.7444 37.2554 29.4513 39.468 24.6226 48.2056C13.1085 69.0406 15.8499 81.4684 29.7399 90.7893C29.3135 88.718 28.7164 84.1002 29.7399 82.1994C31.6285 84.2098 37.7449 88.1941 47.1024 88.0478C49.1128 90.4847 50.419 91.2338 53.0507 93.427" stroke="#201A18" stroke-width="2" stroke-linecap="round" stroke-linejoin="round"/>
<path d="M24.1102 141.369C25.3891 142.894 26.7425 144.27 27.8311 145.546M25.4722 150.611C26.9509 150.767 29.0717 149.638 29.9473 149.055C29.7068 147.948 28.8956 146.795 27.8311 145.546M18.5649 148.568C22.0672 146.934 26.2017 145.873 27.8311 145.546" stroke="#201A18" stroke-width="2" stroke-linecap="round" stroke-linejoin="round"/>
<ellipse cx="36.0524" cy="139.91" rx="1.87274" ry="1.8481" fill="#201A18"/>
<path d="M100.187 183.98C89.8749 173.668 91.4314 173.473 84.6215 168.609C77.8115 163.745 81.3138 160.243 61.0785 152.46C60.1056 147.79 49.7934 131.835 41.4269 131.835C37.9247 131.057 25.2776 131.835 23.9156 141.272C22.4239 142.407 19.2654 145.455 18.5649 148.568C20.3161 149.347 24.1102 150.845 25.2776 150.611C25.8613 151.292 26.9704 152.946 26.7369 154.114C26.445 155.573 25.5695 158.686 26.7369 159.756C25.5046 162.545 26.7369 179.804 37.9674 189.231" stroke="#201A18" stroke-width="2" stroke-linecap="round" stroke-linejoin="round"/>
</svg>
