<svg width="156" height="217" viewBox="0 0 156 217" fill="none" xmlns="http://www.w3.org/2000/svg">
<path d="M43.208 93.5346C32.6948 93.0775 34.78 90.1313 33.3464 88.0605C29.5234 85.5119 28.6738 82.4322 28.7269 81.211C28.1428 80.68 26.8473 79.172 26.3375 77.388C25.7004 75.1579 34.1428 70.0606 34.78 62.4146C35.4171 54.7686 42.2667 50.1491 45.4525 48.2376C48.0012 46.7084 46.5145 43.1917 45.4525 42.82C46.833 42.2891 51.4416 42.249 49.5941 34.8571C48.7778 31.5908 47.5233 22.8041 47.5233 18.6094C50.7091 26.574 61.7003 34.8571 69.187 40.1137C76.6737 45.3704 80.5644 40.1137 92.9199 51.3617C102.173 59.7849 135.293 82.6446 136.886 83.9189C138.479 85.1933 132.107 86.3083 138.797 90.1313C142.246 90.1313 146.192 93.9419 147.733 95.8471M39.658 62.4146C42.8003 64.1977 40.8156 63.8482 48.7802 63.8482" stroke="#201A18" stroke-width="2" stroke-linecap="round" stroke-linejoin="round"/>
<path d="M48.9278 21.5099C52.4322 26.9258 69.5056 42.1844 64.8861 49.9897C61.1906 56.234 57.718 55.5649 56.4437 54.4499M26.8154 76.4321C30.7977 76.4321 33.9836 77.2286 29.2048 81.2109" stroke="#201A18" stroke-width="2" stroke-linecap="round" stroke-linejoin="round"/>
<ellipse cx="44.8695" cy="66.412" rx="1.37483" ry="2.38937" fill="#201A18"/>
<ellipse cx="33.4118" cy="105.813" rx="1.63557" ry="2.84252" transform="rotate(-9.17766 33.4118 105.813)" fill="#201A18"/>
<path d="M25.1705 135.391C23.3205 135.391 22.858 134.466 19.396 129.986C17.3553 128.513 16.0992 125.594 15.7263 124.319C7.42037 119.402 18.4308 111.614 20.8389 109.472C23.2471 107.33 28.527 99.7169 30.526 98.142C32.525 96.5672 47.1731 92.6983 52.5883 90.5714C57.2394 86.8153 53.9278 66.3183 64.7208 69.5822C73.3552 72.1933 75.8433 88.3165 76.008 96.0517C86.1648 104.676 91.7663 122.3 95.5937 128.942C99.4211 135.585 101.154 138.56 113.615 141.304C130.92 149.709 136.479 161.676 137.096 166.61" stroke="#201A18" stroke-width="2" stroke-linecap="round" stroke-linejoin="round"/>
<path d="M71.8049 76.8408C74.8459 86.3648 73.827 93.3994 68.4438 97.2737C63.0606 101.148 66.1315 104.658 63.7233 106.8C61.7968 108.513 56.3447 106.072 53.8595 104.638M31.078 101.558C31.2282 104.038 35.2975 102.879 37.7621 105.736" stroke="#201A18" stroke-width="2" stroke-linecap="round" stroke-linejoin="round"/>
<path d="M15.6477 123.831C17.1267 120.588 21.5264 118.375 17.8193 120.225C14.8536 121.706 13.4608 119.594 12.6631 119.306" stroke="#201A18" stroke-width="2" stroke-linecap="round" stroke-linejoin="round"/>
<path d="M21.9239 193.18C23.2144 185.437 24.505 183.286 17.6221 187.373C18.3391 184.935 20.6764 179.543 24.2899 177.478C19.9164 175.686 11.8147 170.467 14.3958 163.928V159.626C16.0448 158.622 19.3859 156.099 19.5579 154.034C19.773 151.453 17.192 149.302 19.5579 143.064C21.9239 136.827 27.7313 133.385 34.8293 131.88C36.9801 130.087 42.0993 123.395 45.3686 122.191C47.0941 121.555 49.0113 126.409 50.3755 129.669M50.9609 146.075C53.0736 140.856 52.2423 134.129 50.3755 129.669M50.3755 129.669C53.08 130.262 59.3494 132.611 62.7908 137.257C66.2323 141.903 73.2585 143.064 76.3414 143.064V150.807L91.8279 163.928V170.31C96.4339 171.818 107.126 177.343 113.046 187.373M44.2932 129.669C39.9914 134.246 39.5182 141.214 45.3686 145C51.219 148.786 53.8288 145.645 55.4778 143.064" stroke="#201A18" stroke-width="2" stroke-linecap="round" stroke-linejoin="round"/>
<ellipse cx="26.8711" cy="152.82" rx="1.29053" ry="2.90948" fill="#201A18"/>
<path d="M24.7198 150.162C28.3763 150.162 29.7385 150.879 30.7423 151.452M14.3955 159.841C17.6218 159.841 17.8369 160.916 14.3955 163.927" stroke="#201A18" stroke-width="2" stroke-linecap="round" stroke-linejoin="round"/>
</svg>
