<svg width="156" height="216" viewBox="0 0 156 216" fill="none" xmlns="http://www.w3.org/2000/svg">
<path d="M135.971 114.569C109.568 107.391 109.824 109.186 105.723 107.904C101.621 106.622 89.0605 98.6756 81.8829 97.394C74.7054 96.1123 62.4011 95.0869 56.5053 104.828C53.9419 107.904 51.3785 108.929 47.5334 112.518C43.6884 116.107 42.1503 120.721 40.8686 123.284C39.8433 125.335 42.3212 129.607 43.6884 131.487C44.2865 132.854 45.8929 135.64 47.5334 135.845C49.5841 136.101 50.3532 139.434 56.5053 138.921C62.6575 138.408 59.5568 144.49 65.9934 144.49M68.2969 107.904C72.0489 110.405 71.2056 115.317 73.6488 118.638C78.8739 125.739 87.3146 111.958 82.3223 104.691C79.4876 100.565 76.0802 97.249 71.7324 96.6403" stroke="#201A18" stroke-width="2" stroke-linecap="round" stroke-linejoin="round"/>
<path d="M41.125 122.515C46.7645 124.822 49.3279 130.974 43.9447 131.487" stroke="#201A18" stroke-width="2" stroke-linecap="round" stroke-linejoin="round"/>
<path d="M59.4531 118.798C60.7348 113.928 63.6827 111.749 67.5278 113.543" stroke="#201A18" stroke-width="2" stroke-linecap="round" stroke-linejoin="round"/>
<ellipse cx="63.539" cy="115.382" rx="3.57964" ry="1.97105" transform="rotate(-27.8744 63.539 115.382)" fill="#201A18"/>
<ellipse cx="49.5889" cy="73.336" rx="3.17506" ry="3.24374" transform="rotate(-27.8744 49.5889 73.336)" fill="#201A18"/>
<path d="M51.6219 108.271C46.3192 106.662 47.4969 106.896 43.2196 104.517C33.7611 103.426 32.306 96.9384 32.7607 93.8311C27.7587 90.8753 35.2618 84.2817 37.7628 80.189C40.2639 76.0964 41.8554 70.867 45.2659 67.2291C47.9943 64.3188 56.8617 61.4691 60.9543 60.4081C62.0153 59.8776 64.7951 60.3484 62.4969 55.3959C59.0864 48.0462 59.2469 41.0209 60.9543 35.6459C62.6191 30.4047 69.8216 20.3915 72.3226 20.3915C74.8237 20.3915 76.1879 20.8462 77.5521 24.9388C78.9162 29.0314 81.9969 35.9154 81.9969 43.6459C81.9969 49.2846 80.6219 57.0734 80.6219 60.4081C93.8092 67.0017 87.3288 77.0058 94.1499 74.9595C100.971 72.9132 114.84 74.5048 125.072 77.0058C132.612 79.5524 137.408 81.6782 138.864 82.4228" stroke="#201A18" stroke-width="2" stroke-linecap="round" stroke-linejoin="round"/>
<path d="M46.6302 77.6878C45.9481 72.231 47.5397 67.2289 55.2702 71.0942" stroke="#201A18" stroke-width="2" stroke-linecap="round" stroke-linejoin="round"/>
<path d="M33.2151 86.5552C34.6703 89.2836 33.3671 92.5046 32.7607 93.7172" stroke="#201A18" stroke-width="2" stroke-linecap="round" stroke-linejoin="round"/>
<path d="M23.4305 151.569C24.5701 150.927 27.2403 148.277 28.054 153.809M12.1545 149.087C12.6997 151.134 13.0955 150.675 12.1544 154.031" stroke="#201A18" stroke-width="2" stroke-linecap="round" stroke-linejoin="round"/>
<path d="M36.4843 153.642C37.1163 152.028 41.2709 145.805 44.2115 148.904C47.1522 152.003 46.0317 155.89 42.2578 157.994" stroke="#201A18" stroke-width="2" stroke-linecap="round" stroke-linejoin="round"/>
<path d="M39.5309 181.132C36.9974 178.506 33.6085 174.746 32.0297 172.925C30.4509 171.104 32.6054 172.406 23.3532 166.55C17.4171 162.793 17.7652 162.426 15.2474 160.396C12.862 158.473 12.1466 156.1 12.1306 154.823C11.5051 152.86 10.8319 148.964 13.1432 149.09C16.0324 149.246 16.2441 148.413 27.2727 147.974C31.257 148.188 37.7274 150.319 38.761 150.094M45.6493 150.811C50.8877 150.456 53.9361 148.356 55.5779 147.309V147.309C66.8031 140.147 81.6894 147.543 90.8138 157.24C95.1102 161.806 99.6188 168.394 103.923 178.506C107.448 181.682 121.767 186.013 132.065 182.794" stroke="#201A18" stroke-width="2" stroke-linecap="round" stroke-linejoin="round"/>
<ellipse cx="25.8043" cy="152.249" rx="1.48217" ry="1.77999" transform="rotate(-40.1874 25.8043 152.249)" fill="#201A18"/>
</svg>
