<svg width="156" height="217" viewBox="0 0 156 217" fill="none" xmlns="http://www.w3.org/2000/svg">
<g clip-path="url(#clip0_568_21506)">
<path d="M26.7044 62.7063C31.6933 63.573 32.4465 67.6247 27.3389 71.5589" stroke="#201A18" stroke-width="2" stroke-linecap="round" stroke-linejoin="round"/>
<path d="M84.4146 43.4313C79.3321 67.504 76.7242 76.1112 87.8378 88.6917C98.9514 101.272 109.927 102.755 107.997 54.9986C108.585 47.2169 106.571 45.1079 105.49 45.0261M59.3608 51.3183C63.0405 52.2488 64.603 55.3021 67.5948 54.5502" stroke="#201A18" stroke-width="2" stroke-linecap="round" stroke-linejoin="round"/>
<path d="M147.994 134.241C140.659 121.404 131.018 117.069 129.141 111.709C127.264 106.349 127.102 76.1732 123.974 67.9471C120.846 59.7211 120.22 57.228 113.226 48.3833C106.232 39.5386 111.589 35.5417 88.5213 36.568C65.4539 37.5943 59.9769 45.3323 57.241 51.3211C54.5052 57.3099 32.1896 61.3279 25.7075 62.957C19.2253 64.5862 24.4728 72.8095 25.3474 74.1801C26.2219 75.5507 24.6408 82.2148 33.779 83.6769" stroke="#201A18" stroke-width="2" stroke-linecap="round" stroke-linejoin="round"/>
<circle cx="60.4909" cy="54.215" r="2.05654" transform="rotate(-14.1077 60.4909 54.215)" fill="#201A18"/>
<path d="M7.73403 94.4073C11.813 94.9953 13.1844 97.1696 5.33906 101.693" stroke="#201A18" stroke-width="2" stroke-linecap="round" stroke-linejoin="round"/>
<path d="M54.2612 80.3771C53.5562 89.0889 53.6198 97.8629 59.8389 100.687C66.058 103.512 71.8107 89.7925 71.2834 83.5601" stroke="#201A18" stroke-width="2" stroke-linecap="round" stroke-linejoin="round"/>
<path d="M32.8853 88.3438C36.6799 88.2642 38.2732 90.516 40.9581 88.997" stroke="#201A18" stroke-width="2" stroke-linecap="round" stroke-linejoin="round"/>
<path d="M31.3184 115.846C29.4846 115.33 26.0638 113.945 19.0939 113.381C12.5527 112.637 5.14908 107.259 5.24238 106.106C5.68076 100.69 -0.19233 96.0178 4.36167 94.651C8.91567 93.2842 28.1081 93.0635 29.8592 88.7193C31.6103 84.3751 38.9704 78.1076 52.6751 77.6698C60.0288 72.8487 68.7569 75.8547 70.8744 82.2376C72.9918 88.6204 76.9566 88.5125 79.4446 94.2574C81.9325 100.002 98.6715 118 100.178 121.748C101.685 125.496 113.397 127.326 123.628 141.057C134.238 152.939 148.27 168.374 148.79 171.237" stroke="#201A18" stroke-width="2" stroke-linecap="round" stroke-linejoin="round"/>
<circle cx="34.0199" cy="90.5597" r="2.05654" transform="rotate(-29.5007 34.0199 90.5597)" fill="#201A18"/>
<path d="M18.3495 124.422C18.0509 128.112 20.8387 129.782 22.2699 130.156C21.6242 133.886 21.3243 141.84 25.2913 143.811C30.25 146.276 25.9711 151.346 31.303 149.198C35.5686 147.48 38.7026 142.747 39.7364 140.596L41.0843 123.941M53.6307 112.319C47.496 118.012 42.0604 121.441 45.8978 128.199C48.9678 133.606 51.5304 129.773 52.428 127.18" stroke="#201A18" stroke-width="2" stroke-linecap="round" stroke-linejoin="round"/>
<path d="M5.61474 128.808C7.6927 131.813 6.54073 131.114 1.97747 133.324" stroke="#201A18" stroke-width="2" stroke-linecap="round" stroke-linejoin="round"/>
<path d="M79.2265 176.744C70.894 164.979 62.9342 151.246 59.2137 139.855C56.2374 130.742 56.3737 116.667 57.9792 109.576C53.374 109.117 43.5101 109.901 40.8962 116.704C37.1797 115.888 29.3256 114.994 27.6419 117.953C25.5372 121.651 16.2005 109.548 16.4181 129.166C10.8941 128.375 0.168967 127.903 1.46046 132.34C3.07482 137.887 1.2546 144.445 7.36263 145.455C13.4707 146.465 9.97664 167.331 16.4713 160.377C17.7484 164.779 18.0901 168.25 20.5606 165.767C23.5544 164.892 32.912 161.466 32.5956 157.726C30.9654 169.372 35.6737 170.325 35.6737 176.744" stroke="#201A18" stroke-width="2" stroke-linecap="round" stroke-linejoin="round"/>
<circle cx="20.8929" cy="131.273" r="2.05654" transform="rotate(-29.5007 20.8929 131.273)" fill="#201A18"/>
</g>
<defs>
<clipPath id="clip0_568_21506">
<rect width="156" height="216" fill="white" transform="translate(0 0.880066)"/>
</clipPath>
</defs>
</svg>
