<svg width="156" height="184" viewBox="0 0 156 184" fill="none" xmlns="http://www.w3.org/2000/svg">
<path fill-rule="evenodd" clip-rule="evenodd" d="M49.1921 34.3411C48.6049 36.1275 48.0579 37.7913 47.5435 38.8201C47.4062 39.0948 47.0722 39.2061 46.7975 39.0688C46.5228 38.9314 46.4114 38.5974 46.5488 38.3227C47.023 37.3743 47.5332 35.8236 48.1164 34.051C48.2741 33.5717 48.4371 33.0761 48.6062 32.5719C49.3842 30.2519 50.2853 27.7697 51.3567 26.103C51.8894 25.2743 52.5102 24.5722 53.2458 24.2271C54.0354 23.8567 54.8794 23.9332 55.7081 24.5026C56.4989 25.046 57.2811 26.0369 58.0809 27.5073C58.8865 28.9885 59.7368 31.0072 60.6403 33.6659C65.5029 47.976 69.3843 57.4659 72.7001 63.7521C76.0206 70.0472 78.7402 73.0625 81.2449 74.5126C81.5107 74.6665 81.6014 75.0067 81.4476 75.2725C81.2937 75.5383 80.9535 75.629 80.6877 75.4751C77.9098 73.8669 75.0688 70.6264 71.7164 64.271C68.3594 57.9066 64.4558 48.3511 59.5872 34.0237C58.6948 31.3973 57.868 29.4434 57.1039 28.0387C56.334 26.6231 55.6539 25.8147 55.0783 25.4192C54.5407 25.0498 54.1143 25.0481 53.7181 25.2339C53.268 25.4451 52.7875 25.9338 52.2922 26.7044C51.3074 28.2363 50.4449 30.5868 49.6606 32.9255C49.5016 33.3996 49.3455 33.8745 49.1921 34.3411ZM29.1608 27.1342C29.6813 27.5553 30.1541 28.238 30.589 29.1589C30.7728 29.5482 30.9483 29.9211 31.1165 30.2785C32.0353 32.2312 32.7356 33.7195 33.3859 34.8756C34.1519 36.2374 34.8142 37.0729 35.6158 37.6278C36.4151 38.1812 37.4097 38.4948 38.9185 38.6983C40.2863 38.8827 42.0199 38.9706 44.3446 39.0886C44.5987 39.1014 44.8599 39.1147 45.1284 39.1285C45.4351 39.1442 45.671 39.4056 45.6553 39.7123C45.6395 40.019 45.3782 40.2549 45.0714 40.2391C44.7998 40.2252 44.5349 40.2118 44.2766 40.1987C41.9707 40.0819 40.1869 39.9915 38.7699 39.8004C37.1855 39.5868 35.9905 39.24 34.9827 38.5422C33.9771 37.8459 33.2144 36.8393 32.4166 35.4208C31.7447 34.2263 31.0234 32.6932 30.1063 30.7439C29.9388 30.3879 29.7648 30.018 29.5833 29.6337C29.1809 28.7816 28.7956 28.2693 28.4613 27.9988C28.1473 27.7448 27.9066 27.7211 27.7021 27.7809C27.459 27.852 27.1523 28.0757 26.8137 28.5419C26.4813 28.9997 26.1562 29.6393 25.8588 30.4406C24.6642 33.6584 24.0439 39.1242 24.798 44.4716C24.8424 44.7867 24.8863 45.0782 24.927 45.3486C25.0275 46.0156 25.1086 46.5542 25.1309 47.0033C25.1647 47.6849 25.0708 48.2325 24.7356 48.847C24.5885 49.1166 24.2508 49.2159 23.9811 49.0689C23.7115 48.9218 23.6122 48.584 23.7593 48.3144C23.9801 47.9095 24.0456 47.5722 24.0201 47.0584C24.0008 46.6678 23.9322 46.213 23.8372 45.5822C23.795 45.3018 23.7475 44.9866 23.6967 44.6269C22.9217 39.1309 23.5463 33.4742 24.8162 30.0535C25.1348 29.1951 25.5021 28.4553 25.9139 27.8884C26.3196 27.3298 26.8091 26.8834 27.3898 26.7135C28.0091 26.5323 28.62 26.6967 29.1608 27.1342ZM52.3764 27.7357C52.6793 27.6852 52.9658 27.8898 53.0163 28.1928C53.2707 29.7188 53.2235 31.1405 53.1018 32.4372C53.0511 32.9773 52.9869 33.5012 52.9258 33.9991C52.9138 34.0969 52.9019 34.1936 52.8903 34.2893C52.8189 34.8771 52.7569 35.425 52.7276 35.9441C52.6688 36.9853 52.7466 37.8517 53.1059 38.6001C53.4593 39.336 54.1185 40.0262 55.3578 40.6459C55.6325 40.7833 55.7438 41.1173 55.6065 41.392C55.4692 41.6666 55.1351 41.778 54.8605 41.6406C53.4585 40.9396 52.5885 40.092 52.1034 39.0815C51.6243 38.0835 51.5544 36.995 51.6172 35.8814C51.6487 35.3231 51.7148 34.7437 51.7863 34.1553C51.7982 34.0569 51.8103 33.9584 51.8224 33.8595C51.8835 33.3618 51.9455 32.8561 51.9945 32.3332C52.1118 31.0842 52.1515 29.7689 51.9193 28.3756C51.8688 28.0727 52.0735 27.7862 52.3764 27.7357ZM28.0845 30.5112C28.3901 30.4807 28.6626 30.7036 28.6931 31.0092C28.7908 31.9858 28.8836 32.7678 28.9614 33.4241C28.9941 33.6994 29.0241 33.9525 29.0508 34.1887C29.1398 34.9768 29.193 35.5866 29.1644 36.1495C29.1056 37.306 28.7007 38.2072 27.8067 40.0638C27.0932 41.5458 26.6518 42.6914 26.3899 43.5152C26.1221 44.3575 26.0546 44.8246 26.0546 44.9662C26.0546 45.2733 25.8056 45.5223 25.4985 45.5223C25.1914 45.5223 24.9424 45.2733 24.9424 44.9662C24.9424 44.6445 25.0556 44.0412 25.33 43.1782C25.6103 42.2967 26.0725 41.1022 26.8047 39.5814C27.718 37.6846 28.0082 36.987 28.0537 36.093C28.0772 35.6307 28.0348 35.1023 27.9457 34.3135C27.92 34.0864 27.8906 33.8385 27.8584 33.5667C27.7802 32.9074 27.6852 32.107 27.5865 31.1199C27.556 30.8143 27.7789 30.5418 28.0845 30.5112ZM50.9327 48.7381C51.2284 48.8591 51.5089 49.0627 51.6723 49.3896C51.8097 49.6643 51.6983 49.9983 51.4237 50.1356C51.149 50.273 50.815 50.1616 50.6776 49.8869C50.6673 49.8663 50.635 49.8179 50.5114 49.7673C50.3827 49.7146 50.1898 49.6753 49.9257 49.6638C49.3979 49.6408 48.706 49.7333 47.9618 49.9025C47.2245 50.07 46.4668 50.3056 45.819 50.5496C45.1607 50.7975 44.6525 51.0404 44.3936 51.2131C44.138 51.3834 43.7928 51.3144 43.6224 51.0588C43.4521 50.8033 43.5211 50.4581 43.7767 50.2877C44.1433 50.0433 44.7472 49.7649 45.427 49.5088C46.1172 49.2489 46.9235 48.9979 47.7153 48.818C48.5003 48.6396 49.3029 48.5235 49.974 48.5527C50.3095 48.5673 50.6422 48.6191 50.9327 48.7381ZM103.454 60.8672C103.418 61.7152 103.349 62.4847 103.174 62.9544C102.763 64.0606 102.387 66.2233 102.112 68.1663C101.976 69.1259 101.867 70.0133 101.792 70.661C101.755 70.9847 101.726 71.2482 101.707 71.4306C101.697 71.5218 101.689 71.5926 101.685 71.6406L101.68 71.6842C101.68 71.6899 101.68 71.696 101.68 71.7024C101.679 71.7374 101.676 71.7822 101.67 71.8374C101.659 71.9477 101.634 72.0993 101.585 72.2963C101.487 72.6899 101.288 73.2668 100.891 74.061C100.098 75.6471 98.502 78.1201 95.2845 81.7572C95.2624 81.7822 95.2385 81.8048 95.2132 81.8248C95.3769 81.9142 95.5403 82.0042 95.7032 82.0949C99.7643 84.3554 103.619 87.0773 106.656 91.1269C112.738 99.2369 115.416 112.491 110.416 137.53C110.423 139.095 110.738 140.229 111.342 141.126C111.957 142.039 112.912 142.766 114.307 143.439C114.551 143.556 114.807 143.671 115.076 143.785C115.042 142.309 114.893 141.116 114.743 139.918C114.728 139.802 114.714 139.685 114.699 139.568C114.515 138.082 114.35 136.561 114.44 134.516C114.62 130.441 115.811 124.33 119.795 112.172C119.8 112.155 119.807 112.138 119.814 112.122C123.185 104.427 124.294 99.4554 124.375 95.3981C124.438 92.1917 123.864 89.545 123.205 86.506C123.147 86.2354 123.087 85.9616 123.028 85.6841C122.896 85.9853 122.763 86.2946 122.626 86.6124C122.506 86.8947 122.179 87.0254 121.896 86.9044C121.614 86.7835 121.483 86.4566 121.604 86.1743C121.971 85.3196 122.319 84.5257 122.65 83.7855C122.658 83.6453 122.718 83.5149 122.815 83.4189C123.551 81.7857 124.2 80.4205 124.768 79.2402C124.931 78.9026 125.087 78.5808 125.236 78.2729C125.88 76.9428 126.399 75.8702 126.816 74.8818C127.825 72.4937 128.232 70.623 128.232 66.931C128.232 59.4969 126.857 54.2697 126.027 51.2293C126 51.1291 125.974 51.0514 125.951 50.9918C125.882 51.0727 125.798 51.1873 125.699 51.3427C125.53 51.6078 125.346 51.9466 125.15 52.3396C124.91 52.8201 124.665 53.3499 124.412 53.8985C124.245 54.2596 124.074 54.6287 123.899 54.9972C123.47 55.8977 123.015 56.7882 122.56 57.3944C122.376 57.6401 122.027 57.6899 121.782 57.5056C121.536 57.3213 121.486 56.9728 121.671 56.7271C122.05 56.2212 122.463 55.426 122.895 54.5193C123.057 54.1781 123.223 53.8193 123.389 53.4609C123.649 52.8962 123.91 52.3328 124.155 51.8422C124.358 51.4358 124.562 51.0577 124.761 50.7451C124.952 50.445 125.171 50.1533 125.419 49.9684C125.547 49.8729 125.718 49.779 125.925 49.7558C126.15 49.7305 126.361 49.7953 126.535 49.9255C126.833 50.1488 126.993 50.5434 127.1 50.9367C127.939 54.013 129.344 59.3512 129.344 66.931C129.344 70.7459 128.917 72.7676 127.841 75.3146C127.411 76.3317 126.876 77.4368 126.231 78.7691C126.083 79.0745 125.93 79.3919 125.77 79.7229C125.197 80.9138 124.542 82.2912 123.799 83.9427C123.957 84.7207 124.12 85.4726 124.28 86.2095C124.945 89.2694 125.553 92.0714 125.487 95.4201C125.403 99.6726 124.239 104.789 120.843 112.543C116.873 124.664 115.724 130.651 115.551 134.565C115.465 136.517 115.621 137.965 115.803 139.431C115.818 139.549 115.832 139.667 115.847 139.785C116.012 141.1 116.183 142.47 116.194 144.226C117.226 144.607 118.409 144.983 119.756 145.388C120.566 145.631 121.436 145.885 122.364 146.157C124.003 146.635 125.824 147.167 127.82 147.788C131.003 148.778 133.803 150.239 135.859 151.93C137.901 153.608 139.28 155.574 139.46 157.584C139.645 159.652 138.551 161.579 136.068 163.104C133.604 164.617 129.713 165.782 124.1 166.388C109.929 167.916 99.555 168.639 92.9754 168.017C90.0997 167.745 87.8667 167.211 86.3535 166.315C86.2538 166.409 86.1192 166.467 85.9709 166.467C85.3149 166.467 83.4935 166.725 81.8171 167.773C80.7107 168.464 79.3905 168.286 78.3033 167.894C77.363 167.555 76.497 167.023 75.8942 166.567C75.3218 166.81 74.5356 166.942 73.6892 166.712C73.1902 166.577 72.6903 166.321 72.2141 165.915C70.7754 166.133 69.6367 166.142 68.7603 166.001C68.2325 165.917 67.7813 165.774 67.4151 165.577C67.2035 166.044 66.9864 166.485 66.7717 166.907C66.6054 167.233 66.4428 167.544 66.2859 167.843C65.8779 168.622 65.5088 169.326 65.2159 170.042C64.4935 171.807 62.9636 172.189 62.0778 172.15C61.4326 172.567 60.6193 172.622 59.9352 172.565C59.2666 172.509 58.6216 172.337 58.1624 172.171C57.0782 172.541 56.1872 172.457 55.5024 172.131C54.9624 171.873 54.5834 171.481 54.3516 171.108C53.4325 171.067 52.6861 170.858 52.109 170.495C51.7468 170.268 51.4632 169.987 51.2512 169.67C51.1889 169.739 51.1184 169.802 51.0371 169.855C50.8896 169.951 50.7414 169.992 50.611 170.01C50.4828 170.029 50.3754 170.03 50.2704 170.032C50.0079 170.037 49.7609 170.041 49.2411 170.301C48.4533 170.695 47.5785 170.766 46.8364 170.713C46.1143 170.661 45.4704 170.49 45.0684 170.334C43.903 170.036 43.2711 169.563 43.0071 168.944C42.8805 168.647 42.8622 168.366 42.8648 168.155C42.865 168.141 42.8653 168.127 42.8656 168.113C42.1002 167.802 41.6237 167.292 41.43 166.6C41.2232 165.861 41.372 165.01 41.5918 164.201C41.719 163.733 41.8925 163.209 42.0654 162.686C42.1862 162.321 42.3067 161.957 42.4109 161.614C42.6783 160.732 42.8756 159.884 42.8756 159.099C42.8756 155.499 42.1873 148.064 40.1034 135.978C39.1827 130.638 38.3183 127.538 37.5155 124.659C37.4138 124.295 37.313 123.934 37.2133 123.572C36.321 120.335 35.5152 117.074 34.8162 110.923C34.7815 110.618 35.0008 110.343 35.3059 110.308C35.6111 110.273 35.8866 110.492 35.9212 110.798C36.6124 116.88 37.4053 120.084 38.2855 123.276C38.3847 123.636 38.4852 123.997 38.5869 124.361C39.3917 127.247 40.2689 130.392 41.1993 135.789C43.286 147.891 43.9878 155.401 43.9878 159.099C43.9878 160.052 43.7507 161.029 43.4751 161.937C43.3505 162.347 43.2237 162.729 43.1022 163.094C42.9412 163.579 42.7896 164.035 42.665 164.493C42.4505 165.283 42.382 165.875 42.501 166.3C42.5659 166.532 42.6976 166.751 42.9847 166.932C43.1169 166.469 43.3429 166.059 43.5927 165.72C43.9918 165.178 44.4896 164.765 44.8792 164.568C45.1532 164.429 45.4878 164.539 45.6265 164.813C45.7653 165.087 45.6558 165.421 45.3818 165.56C45.17 165.667 44.8004 165.955 44.4882 166.379C44.2168 166.748 44.0186 167.178 43.9813 167.634C43.9828 167.643 43.984 167.653 43.985 167.663C43.9955 167.768 43.9906 167.874 43.9868 167.947C43.9823 168.033 43.9778 168.096 43.9769 168.168C43.9752 168.304 43.9888 168.411 44.0301 168.508C44.0994 168.671 44.3377 169.005 45.3738 169.264C45.3982 169.27 45.4221 169.278 45.4454 169.287C45.6475 169.368 45.967 169.465 46.3483 169.533C46.3425 169.502 46.3392 169.471 46.3387 169.438C46.3253 168.666 46.5256 167.784 46.8009 167.061C46.9397 166.696 47.1042 166.354 47.2838 166.074C47.4513 165.813 47.6769 165.533 47.964 165.388C48.238 165.249 48.5726 165.359 48.7114 165.633C48.8502 165.906 48.7406 166.241 48.4666 166.38C48.4668 166.38 48.4669 166.38 48.4666 166.38C48.4637 166.382 48.4373 166.398 48.3909 166.448C48.342 166.5 48.284 166.575 48.2201 166.674C48.092 166.874 47.9595 167.144 47.8403 167.457C47.5997 168.089 47.4404 168.827 47.4506 169.419C47.4518 169.487 47.4407 169.553 47.4194 169.613C47.8833 169.597 48.3425 169.507 48.7437 169.306C49.5268 168.915 50.0979 168.913 50.3453 168.913C50.3837 168.913 50.4143 168.913 50.4367 168.911C50.4414 168.905 50.4471 168.897 50.4538 168.887C50.5223 168.783 50.617 168.579 50.7599 168.166C50.6822 167.047 51.1067 165.839 51.7207 164.875C51.8857 164.616 52.2294 164.54 52.4884 164.705C52.7475 164.87 52.8238 165.213 52.6588 165.472C52.1379 166.29 51.8415 167.209 51.8647 167.984C51.8988 168.076 51.9089 168.178 51.8901 168.279C51.9031 168.368 51.921 168.454 51.9439 168.538C52.0571 168.949 52.2933 169.298 52.7006 169.554C53.0621 169.781 53.5864 169.951 54.3297 169.993C54.3722 169.332 54.5581 168.682 54.8022 168.144C54.9469 167.825 55.1176 167.533 55.3029 167.292C55.4818 167.059 55.7021 166.838 55.9575 166.708C56.2315 166.57 56.5661 166.679 56.7049 166.953C56.8437 167.227 56.7341 167.562 56.4601 167.701C56.4149 167.723 56.3154 167.8 56.1846 167.97C56.0601 168.132 55.931 168.348 55.815 168.604C55.5812 169.119 55.423 169.744 55.4331 170.329C55.4349 170.433 55.408 170.53 55.3597 170.615C55.4934 170.797 55.6981 170.992 55.9809 171.127C56.3934 171.323 57.0318 171.42 57.9674 171.059C58.0226 171.038 58.0804 171.026 58.1386 171.023C58.1316 170.179 58.4974 169.484 58.9203 168.976C59.3451 168.466 59.8568 168.106 60.2181 167.923C60.4921 167.785 60.8267 167.894 60.9655 168.168C61.1042 168.442 60.9947 168.777 60.7207 168.915C60.4807 169.037 60.0933 169.305 59.7752 169.688C59.4597 170.067 59.242 170.52 59.2509 171.03C59.2527 171.134 59.2258 171.231 59.1775 171.316C59.4433 171.38 59.7347 171.432 60.0281 171.457C60.6913 171.512 61.239 171.416 61.5698 171.147C61.6912 171.048 61.8485 171.005 62.0032 171.028C62.4813 171.099 63.6449 170.944 64.1867 169.621C64.5009 168.853 64.9062 168.079 65.3236 167.283C65.4757 166.992 65.6294 166.699 65.7808 166.402C66.3566 165.272 66.9301 164.033 67.3649 162.544C68.1291 159.925 69.8978 153.854 71.4754 147.054C73.0559 140.242 74.4325 132.746 74.4325 127.264C74.4325 125.546 74.2355 124.46 74.0337 123.349C73.936 122.81 73.8372 122.265 73.7591 121.64C73.5236 119.753 73.5321 117.363 74.4427 112.67C74.5012 112.369 74.793 112.172 75.0945 112.23C75.396 112.289 75.593 112.58 75.5345 112.882C74.6378 117.503 74.6463 119.769 74.8627 121.502C74.9283 122.028 75.0184 122.528 75.1116 123.045C75.3204 124.203 75.5447 125.448 75.5447 127.264C75.5447 132.274 74.429 138.859 73.066 145.061C73.1489 145.136 73.2105 145.236 73.237 145.352C74.1886 149.539 75.5677 153.098 76.2124 154.564C77.178 154.102 78.3543 153.856 79.4496 153.729C80.8184 153.571 82.1449 153.591 82.9589 153.659C83.2649 153.685 83.4923 153.953 83.4667 154.259C83.4411 154.566 83.1723 154.793 82.8663 154.767C82.1174 154.705 80.8652 154.685 79.5771 154.834C78.3481 154.976 77.1592 155.263 76.3358 155.757C76.3155 155.776 76.2936 155.793 76.2702 155.809C75.1944 156.526 73.6786 157.79 72.6302 159.232C71.953 160.163 71.5179 161.099 71.4538 161.982C71.7156 161.574 72.0532 161.177 72.3967 160.824C73.1086 160.092 73.9288 159.463 74.3078 159.271C74.5817 159.132 74.9163 159.242 75.0551 159.516C75.1939 159.79 75.0843 160.124 74.8104 160.263C74.588 160.376 73.8671 160.907 73.1942 161.599C72.8643 161.939 72.5669 162.296 72.3568 162.635C72.1397 162.986 72.0535 163.258 72.0567 163.441C72.0591 163.58 72.0108 163.707 71.9291 163.806C72.6057 164.986 73.3567 165.469 73.9803 165.639C74.6403 165.818 75.2415 165.668 75.6052 165.474C75.6064 165.463 75.608 165.452 75.6099 165.441L75.6371 165.285C76.0011 163.192 77.1686 161.325 78.8906 160.081C79.1395 159.901 79.4871 159.957 79.667 160.206C79.8468 160.455 79.7907 160.803 79.5417 160.982C78.0551 162.056 77.047 163.668 76.7328 165.475L76.7056 165.632C76.698 165.676 76.6853 165.718 76.6684 165.757C77.1924 166.14 77.9157 166.572 78.6803 166.848C79.6506 167.197 80.5547 167.25 81.2277 166.83C82.662 165.933 84.1843 165.547 85.1936 165.414C84.7366 164.938 84.4106 164.392 84.2303 163.77C83.9839 162.92 84.0231 161.979 84.3006 160.962C84.7501 159.314 85.605 158.161 86.7085 157.375C87.8001 156.598 89.102 156.204 90.4192 156.005C91.7364 155.807 93.1049 155.799 94.3478 155.821C94.6301 155.826 94.9043 155.832 95.1695 155.839C96.0935 155.86 96.9089 155.879 97.584 155.827C98.8076 155.733 102.006 155.412 105.688 154.954L108.232 145.196C108.309 144.899 108.613 144.721 108.91 144.799C109.207 144.876 109.385 145.18 109.308 145.477L106.876 154.803C108.23 154.628 109.626 154.437 110.995 154.233C113.788 153.816 116.452 153.35 118.412 152.87C119.396 152.629 120.177 152.39 120.703 152.161C120.968 152.046 121.138 151.946 121.233 151.869C121.248 151.857 121.259 151.847 121.267 151.839C121.312 151.577 121.541 151.377 121.816 151.377C122.123 151.377 122.372 151.626 122.372 151.933C122.372 152.31 122.128 152.575 121.935 152.732C121.726 152.902 121.45 153.049 121.146 153.181C120.533 153.448 119.678 153.705 118.677 153.95C116.666 154.443 113.961 154.915 111.159 155.333C105.551 156.169 99.4906 156.796 97.6693 156.936C96.933 156.993 96.0402 156.972 95.1052 156.95C94.8486 156.944 94.5888 156.938 94.3283 156.933C93.095 156.911 91.8047 156.921 90.5849 157.105C89.365 157.289 88.2514 157.642 87.3534 158.281C86.4672 158.912 85.7581 159.844 85.3736 161.254C85.1338 162.133 85.1239 162.858 85.2984 163.46C85.471 164.055 85.8378 164.578 86.4384 165.035C87.6698 165.973 89.8409 166.604 93.0801 166.91C99.5293 167.519 109.792 166.812 123.98 165.282C129.524 164.684 133.226 163.544 135.486 162.156C137.729 160.779 138.489 159.207 138.353 157.683C138.211 156.102 137.092 154.383 135.153 152.789C133.227 151.206 130.562 149.805 127.489 148.849C125.499 148.23 123.701 147.705 122.071 147.23C121.139 146.957 120.262 146.701 119.436 146.453C117.181 145.775 115.31 145.156 113.824 144.44C112.334 143.722 111.187 142.886 110.42 141.748C109.65 140.605 109.304 139.218 109.304 137.475C109.304 137.439 109.308 137.402 109.315 137.366C114.309 112.394 111.565 99.5262 105.766 91.7941C102.86 87.9198 99.1556 85.2894 95.1623 83.0667C93.1877 81.9675 91.1511 80.9725 89.1058 79.9733L89.0323 79.9373C86.9671 78.9283 84.8937 77.9137 82.8967 76.7925C82.6289 76.6422 82.5337 76.3032 82.684 76.0354C82.8343 75.7676 83.1733 75.6724 83.4411 75.8228C85.406 76.9259 87.451 77.927 89.5205 78.9381L89.6062 78.98C91.1744 79.7461 92.756 80.5188 94.3139 81.3421C94.3235 81.2268 94.369 81.1136 94.4515 81.0203C97.6289 77.4285 99.1605 75.0359 99.8966 73.5636C100.264 72.8286 100.431 72.3281 100.506 72.0266C100.544 71.8761 100.559 71.7757 100.564 71.721C100.567 71.6936 100.568 71.6776 100.568 71.6724C100.567 71.6489 100.568 71.6255 100.571 71.6021L100.797 71.6247C100.571 71.6021 100.571 71.6021 100.571 71.6021L100.573 71.5824L100.578 71.5262C100.583 71.477 100.591 71.4048 100.601 71.3123C100.621 71.1272 100.65 70.8605 100.688 70.5333C100.763 69.8792 100.873 68.9821 101.011 68.0106C101.282 66.0914 101.671 63.8055 102.132 62.5666C102.235 62.2891 102.305 61.6988 102.343 60.8197C102.376 60.0553 102.382 59.1431 102.39 58.1586C102.391 58.0466 102.391 57.9337 102.392 57.8199C102.41 55.6198 102.443 53.0999 102.803 51.312C102.979 50.4377 103.255 49.6154 103.745 49.1189C104.008 48.8531 104.342 48.671 104.744 48.643C105.134 48.6158 105.523 48.7382 105.901 48.9555C106.643 49.3812 107.486 50.2562 108.471 51.6148C109.416 52.9185 110.525 54.716 111.829 57.1049C113.674 56.647 117.413 56.1583 120.623 57.2284C120.914 57.3255 121.072 57.6404 120.975 57.9317C120.878 58.2231 120.563 58.3805 120.271 58.2834C117.087 57.2221 113.23 57.8414 111.707 58.2894C111.455 58.3634 111.186 58.2513 111.061 58.0203C109.677 55.4593 108.525 53.5855 107.57 52.2675C106.604 50.9352 105.875 50.2228 105.347 49.9198C105.091 49.7727 104.923 49.7454 104.821 49.7524C104.731 49.7587 104.641 49.7948 104.536 49.9005C104.293 50.1472 104.065 50.6814 103.893 51.5317C103.558 53.1933 103.522 55.5954 103.504 57.8286C103.504 57.9426 103.503 58.056 103.502 58.1689C103.495 59.1485 103.488 60.0818 103.454 60.8672ZM100.568 71.6845L100.568 71.6856L100.569 71.6869C100.569 71.6877 100.569 71.6884 101.124 71.6575L100.569 71.6884C100.569 71.6871 100.568 71.6858 100.568 71.6845ZM121.29 151.815C121.29 151.815 121.289 151.816 121.286 151.819C121.288 151.816 121.29 151.814 121.29 151.815ZM75.2588 155.156C74.6918 153.892 73.5165 150.917 72.5644 147.281C72.5625 147.29 72.5606 147.298 72.5588 147.306C70.9737 154.138 69.1975 160.234 68.4325 162.855C68.2571 163.456 68.0608 164.017 67.8525 164.546C68.0784 164.686 68.4246 164.821 68.9367 164.903C69.5285 164.998 70.3103 165.018 71.3144 164.91C71.1128 164.624 70.9198 164.3 70.7378 163.936C69.8142 162.088 70.599 160.134 71.7307 158.578C72.7527 157.172 74.1533 155.948 75.2588 155.156ZM30.8436 50.2219C30.36 50.2726 30.2078 50.4148 30.1664 50.4976C30.029 50.7723 29.695 50.8836 29.4203 50.7463C29.1456 50.6089 29.0343 50.2749 29.1717 50.0002C29.4778 49.3879 30.1423 49.1772 30.7274 49.1158C31.3408 49.0514 32.063 49.1265 32.7655 49.2651C34.1607 49.5404 35.6636 50.1056 36.3723 50.578C36.6278 50.7484 36.6968 51.0936 36.5265 51.3491C36.3561 51.6047 36.0109 51.6737 35.7554 51.5034C35.2128 51.1417 33.8659 50.6158 32.5502 50.3562C31.8974 50.2274 31.2989 50.1741 30.8436 50.2219ZM105.041 50.8169C105.341 50.7536 105.636 50.946 105.699 51.2465C105.863 52.0243 106.008 52.6687 106.138 53.2478C106.234 53.6738 106.321 54.0644 106.403 54.4468C106.587 55.3079 106.716 56.0295 106.753 56.7179C106.83 58.13 106.513 59.3356 105.666 61.3113C105.545 61.5936 105.219 61.7243 104.936 61.6033C104.654 61.4824 104.523 61.1555 104.644 60.8732C105.466 58.9563 105.705 57.9377 105.643 56.778C105.61 56.1805 105.497 55.5292 105.315 54.6787C105.244 54.3426 105.157 53.9559 105.061 53.5262C104.925 52.9211 104.77 52.2306 104.611 51.4756C104.548 51.1751 104.74 50.8802 105.041 50.8169ZM23.473 51.9203C23.7783 51.9533 23.9991 52.2276 23.9661 52.5329C23.6873 55.1117 23.4816 57.0521 23.4303 58.6254C23.3792 60.1937 23.4836 61.3577 23.805 62.386C24.4492 64.4476 25.9945 66.0858 29.3587 69.3098C29.5804 69.5223 29.5879 69.8743 29.3754 70.096C29.1629 70.3178 28.8109 70.3253 28.5892 70.1128C25.2805 66.9419 23.4894 65.1048 22.7435 62.7178C22.3697 61.5219 22.2656 60.2183 22.3188 58.5892C22.3717 56.9651 22.5831 54.9782 22.8604 52.4134C22.8934 52.1081 23.1677 51.8873 23.473 51.9203ZM38.5426 53.4292C38.869 53.2379 39.3166 53.1682 39.8481 53.1682C40.3857 53.1682 40.8241 53.1922 41.1307 53.2739C41.2795 53.3135 41.4797 53.3869 41.6321 53.55C41.8214 53.7526 41.8627 54.0095 41.8086 54.2359C41.7639 54.423 41.6584 54.5795 41.5693 54.6927C41.4734 54.8146 41.3531 54.9394 41.2227 55.0643C40.9848 55.2922 40.6673 55.5633 40.3076 55.8703C40.2946 55.8815 40.2815 55.8926 40.2684 55.9038C40.3233 55.9191 40.3777 55.9355 40.4313 55.9525C40.6851 56.0334 40.9659 56.1441 41.2562 56.2651C41.4427 56.3427 41.6333 56.4246 41.8281 56.5083C42.2565 56.6924 42.7053 56.8852 43.1751 57.0614C43.8536 57.3158 44.5213 57.5133 45.1271 57.5716C45.7313 57.6297 46.2216 57.5445 46.5987 57.2931C46.8542 57.1228 47.1995 57.1918 47.3698 57.4474C47.5402 57.7029 47.4711 58.0481 47.2156 58.2185C46.55 58.6622 45.7718 58.7508 45.0206 58.6786C44.271 58.6065 43.4964 58.3696 42.7847 58.1027C42.2898 57.9171 41.7987 57.7062 41.3597 57.5177C41.1718 57.437 40.9935 57.3604 40.8285 57.2916C40.5454 57.1737 40.3005 57.078 40.0938 57.0123C39.8786 56.9437 39.747 56.9217 39.6782 56.9217C39.5659 56.9217 39.3909 56.9876 39.0829 57.229C38.9375 57.343 38.7847 57.4774 38.6103 57.6321L38.5787 57.6601C38.4166 57.8039 38.2384 57.962 38.0494 58.1167C37.2354 58.7827 36.125 59.4637 34.5591 59.1341C34.2586 59.0708 34.0662 58.7759 34.1295 58.4754C34.1928 58.1748 34.4877 57.9825 34.7882 58.0458C35.8636 58.2722 36.63 57.8411 37.3451 57.2559C37.5163 57.1159 37.679 56.9715 37.8443 56.825L37.8724 56.8C38.0434 56.6484 38.2208 56.4918 38.3969 56.3537C38.5625 56.2239 38.7522 56.0894 38.9637 55.9866C38.931 55.9636 38.9003 55.9367 38.8723 55.9059C38.7069 55.7242 38.5154 55.4999 38.3585 55.2627C38.2103 55.0386 38.0487 54.7386 38.0213 54.414C38.0066 54.2402 38.0295 54.047 38.1246 53.8604C38.2201 53.673 38.3686 53.5311 38.5426 53.4292ZM39.5805 55.0288C39.471 54.9025 39.3683 54.7735 39.2861 54.6491C39.2007 54.5199 39.1589 54.4276 39.1409 54.3709C39.2334 54.3318 39.4413 54.2804 39.8481 54.2804C40.0791 54.2804 40.2671 54.2855 40.4183 54.2945C40.209 54.492 39.9295 54.7308 39.5805 55.0288ZM126.071 56.3692C126.376 56.4039 126.595 56.6794 126.56 56.9845C126.386 58.5155 126.342 59.2197 126.481 60.0483C126.603 60.776 126.865 61.5984 127.345 63.105C127.435 63.3865 127.532 63.6918 127.638 64.0249C127.73 64.3177 127.568 64.6302 127.275 64.7229C126.983 64.8157 126.67 64.6535 126.577 64.3607C126.475 64.0372 126.379 63.7372 126.29 63.4575C125.812 61.9604 125.52 61.0449 125.384 60.2322C125.216 59.2323 125.282 58.3863 125.455 56.8589C125.49 56.5538 125.766 56.3345 126.071 56.3692ZM110.061 65.3942C109.888 65.4668 109.869 65.543 109.868 65.5502C109.867 65.5573 109.857 65.6353 109.992 65.7646C110.123 65.8901 110.347 66.0124 110.638 66.0661C110.929 66.1197 111.182 66.0852 111.349 66.0148C111.522 65.9421 111.541 65.8659 111.542 65.8588C111.543 65.8516 111.553 65.7737 111.417 65.6443C111.286 65.5189 111.062 65.3965 110.772 65.3429C110.481 65.2893 110.228 65.3237 110.061 65.3942ZM109.629 64.3692C110.023 64.2032 110.5 64.1619 110.973 64.2492C111.447 64.3365 111.877 64.545 112.186 64.8407C112.491 65.1325 112.727 65.5659 112.636 66.0604C112.544 66.555 112.17 66.8759 111.781 67.0397C111.387 67.2057 110.91 67.247 110.437 67.1597C109.963 67.0725 109.533 66.8639 109.224 66.5682C108.919 66.2765 108.683 65.8431 108.774 65.3485C108.865 64.854 109.24 64.5331 109.629 64.3692ZM122.69 66.4051C122.523 66.336 122.27 66.3037 121.979 66.3597C121.689 66.4158 121.466 66.5401 121.336 66.6666C121.202 66.7971 121.212 66.875 121.213 66.8821C121.215 66.8892 121.234 66.9653 121.407 67.0364C121.575 67.1055 121.828 67.1378 122.119 67.0818C122.409 67.0257 122.632 66.9014 122.762 66.7749C122.896 66.6444 122.886 66.5666 122.884 66.5594C122.883 66.5523 122.864 66.4762 122.69 66.4051ZM123.113 65.3765C123.504 65.5371 123.881 65.8548 123.976 66.3486C124.072 66.8424 123.84 67.2777 123.537 67.572C123.231 67.8703 122.802 68.0825 122.329 68.1737C121.857 68.265 121.38 68.2277 120.984 68.065C120.594 67.9044 120.217 67.5867 120.121 67.0929C120.026 66.5991 120.258 66.1638 120.56 65.8695C120.867 65.5712 121.296 65.359 121.768 65.2678C122.241 65.1765 122.718 65.2138 123.113 65.3765ZM116.399 69.6205C116.217 69.4727 116.061 69.3591 115.937 69.2701C115.86 69.2149 115.781 69.1586 115.722 69.1135C115.692 69.0904 115.656 69.0615 115.621 69.0294C115.595 69.005 115.53 68.9431 115.479 68.8512C115.424 68.7502 115.336 68.5001 115.504 68.2489C115.628 68.0654 115.811 68.0163 115.851 68.0054L115.852 68.0052C115.963 67.9756 116.087 67.9743 116.154 67.9737C116.219 67.9731 116.322 67.9746 116.446 67.9764C116.591 67.9785 116.765 67.981 116.94 67.981C117.17 67.981 117.352 67.9784 117.504 67.9762C117.578 67.9752 117.644 67.9742 117.706 67.9737C117.795 67.973 117.879 67.9731 117.95 67.9769C118.003 67.9797 118.123 67.9863 118.239 68.0327C118.302 68.0579 118.423 68.1175 118.515 68.2514C118.62 68.4047 118.631 68.5716 118.606 68.6971C118.584 68.8044 118.538 68.8826 118.514 68.9197C118.487 68.9619 118.458 68.9968 118.438 69.0205C118.402 69.0623 118.357 69.1082 118.322 69.1443L118.313 69.1532C118.272 69.1959 118.228 69.2407 118.181 69.2926C118.081 69.4029 117.946 69.4635 117.809 69.473C117.998 69.5601 118.156 69.6833 118.277 69.7858C118.393 69.8848 118.509 69.9962 118.617 70.0994C118.728 70.2065 118.833 70.3081 118.944 70.4063C119.383 70.796 119.792 71.0283 120.359 70.8988C120.659 70.8304 120.957 71.0177 121.025 71.3171C121.093 71.6165 120.906 71.9146 120.607 71.983C119.506 72.2344 118.732 71.7051 118.205 71.238C118.083 71.1294 117.968 71.0186 117.866 70.9205L117.846 70.9009C117.735 70.7943 117.643 70.7065 117.556 70.633C117.394 70.4952 117.328 70.4766 117.321 70.4742C117.315 70.4748 117.302 70.4766 117.278 70.4818C117.243 70.4896 117.197 70.5029 117.137 70.5234C117.017 70.565 116.87 70.627 116.692 70.7071C116.593 70.7523 116.483 70.8035 116.366 70.8581C116.087 70.988 115.768 71.1366 115.45 71.2659C114.994 71.4513 114.482 71.623 113.977 71.6757C113.467 71.7289 112.913 71.6655 112.436 71.3203C112.187 71.1404 112.131 70.7927 112.311 70.5439C112.491 70.295 112.839 70.2392 113.088 70.4192C113.269 70.55 113.516 70.6056 113.861 70.5696C114.211 70.533 114.609 70.4073 115.031 70.2357C115.322 70.1171 115.597 69.9891 115.865 69.8642C115.989 69.8063 116.112 69.749 116.234 69.6937C116.289 69.6688 116.345 69.6443 116.399 69.6205ZM30.61 73.9088C30.9022 73.8143 31.2157 73.9745 31.3102 74.2667C32.103 76.7171 32.2673 79.3787 32.2081 82.1327C32.1741 83.7166 32.0634 85.3756 31.9515 87.0516C31.871 88.258 31.7899 89.4732 31.7363 90.6755C31.4771 96.4988 31.8319 102.424 35.6845 107.899C35.8612 108.15 35.8009 108.497 35.5497 108.674C35.2986 108.851 34.9517 108.79 34.7749 108.539C30.7036 102.753 30.3632 96.5148 30.6253 90.626C30.6815 89.3625 30.7641 88.1325 30.845 86.9263C30.9552 85.2843 31.0624 83.6865 31.0962 82.1088C31.1544 79.402 30.9885 76.8852 30.2521 74.609C30.1576 74.3168 30.3178 74.0033 30.61 73.9088ZM87.4416 103.143C84.1853 103.412 81.0588 104.672 79.2317 108.066C79.0861 108.336 78.7488 108.437 78.4784 108.292C78.208 108.146 78.1068 107.809 78.2524 107.538C80.3177 103.703 83.8641 102.322 87.3502 102.035C90.8206 101.748 94.303 102.535 96.4015 103.094C96.6982 103.173 96.8746 103.478 96.7955 103.775C96.7164 104.071 96.4117 104.248 96.1149 104.169C94.0429 103.616 90.7135 102.873 87.4416 103.143ZM39.3582 106.513C39.6094 106.336 39.9563 106.397 40.133 106.648C44.6889 113.122 50.2254 117.74 54.1679 120.386C55.1733 121.061 56.0712 121.605 56.8186 122.017C56.5295 120.262 56.1777 118.374 55.8242 116.476C55.7243 115.94 55.6243 115.403 55.5255 114.868C55.0053 112.052 54.5188 109.289 54.2782 107.027C54.2457 106.721 54.4669 106.447 54.7723 106.415C55.0777 106.382 55.3516 106.604 55.3841 106.909C55.6195 109.122 56.0982 111.846 56.6192 114.666C56.7171 115.197 56.8166 115.73 56.9161 116.265C57.3441 118.562 57.7733 120.866 58.091 122.935C58.4497 125.271 58.6752 127.36 58.5835 128.828C58.5415 129.501 58.5052 130.581 58.4593 131.946C58.3582 134.956 58.2106 139.347 57.8529 143.783C57.5915 147.024 57.2159 150.331 56.6587 153.218C56.1049 156.087 55.3601 158.609 54.3271 160.232C54.1781 160.466 53.8792 160.555 53.6267 160.439C53.3743 160.324 53.2456 160.04 53.3253 159.774C55.8514 151.345 55.8046 145.5 54.9715 133.698C54.9706 133.685 54.9701 133.672 54.9701 133.659C54.9701 131.77 54.5632 129.279 54.1443 126.883C54.1037 126.65 54.0629 126.419 54.0223 126.188C53.6805 124.247 53.3556 122.403 53.3079 121.147C49.298 118.42 43.7833 113.768 39.2235 107.288C39.0468 107.037 39.1071 106.69 39.3582 106.513ZM54.4799 121.918C54.595 123.022 54.8468 124.454 55.1231 126.026C55.1617 126.245 55.2007 126.467 55.2399 126.691C55.6537 129.058 56.0795 131.639 56.0823 133.639C56.4113 138.303 56.6198 142.063 56.5927 145.435C56.6472 144.855 56.6976 144.274 56.7444 143.693C57.1009 139.273 57.2436 135.003 57.3437 132.007C57.3905 130.609 57.4279 129.488 57.4735 128.759C57.5536 127.478 57.367 125.602 57.0352 123.39C56.3371 123.038 55.4695 122.547 54.4799 121.918ZM141.608 131.037C145.967 131.547 150.565 132.085 155.444 132.085C155.751 132.085 156 132.334 156 132.641C156 132.948 155.751 133.197 155.444 133.197C150.497 133.197 145.793 132.647 141.41 132.134C139.605 131.923 137.854 131.718 136.163 131.561C130.324 131.018 125.177 131.034 120.671 133.145C120.392 133.275 120.061 133.155 119.931 132.877C119.801 132.599 119.921 132.268 120.199 132.138C124.994 129.892 130.401 129.908 136.266 130.454C138.007 130.616 139.787 130.824 141.608 131.037ZM35.9354 141.208C36.4824 141.208 37.0308 141.208 37.5805 141.208C37.8876 141.208 38.1366 141.457 38.1366 141.764C38.1366 142.071 37.8876 142.32 37.5805 142.32C37.0333 142.32 36.4879 142.32 35.9442 142.32C29.5728 142.317 23.456 142.313 17.8283 142.77C11.7203 143.266 6.23558 144.301 1.67194 146.438C1.39382 146.569 1.06277 146.449 0.932511 146.171C0.802252 145.893 0.922114 145.562 1.20023 145.431C5.93828 143.212 11.5749 142.162 17.7383 141.662C23.4137 141.201 29.5757 141.204 35.9354 141.208Z" fill="#201A18"/>
</svg>
