<svg width="360" height="320" viewBox="0 0 360 320" fill="none" xmlns="http://www.w3.org/2000/svg">
<path d="M235.081 45.9929C229.3 26.547 240.108 26.0292 248.517 21.8247C256.926 17.6202 257.451 9.73671 270.065 8.16001C282.678 6.58332 295.292 17.6202 307.906 24.4525C320.519 31.2848 326.3 53.8841 318.942 62.2931C311.584 70.7021 325.775 80.6878 307.906 89.0969" stroke="#201A18" stroke-width="2" stroke-linecap="round" stroke-linejoin="round"/>
<path d="M244.838 38.1171C229.071 45.475 234.327 58.6141 232.75 65.972C231.173 73.3299 227.494 77.0089 232.75 86.469M288.078 80.6491C305.948 75.9191 295.436 58.5754 284.925 63.3055C284.925 54.8965 276.897 62.2931 280.051 54.4096C283.204 46.5262 277.948 38.1171 259.028 38.1171" stroke="#201A18" stroke-width="2" stroke-linecap="round" stroke-linejoin="round"/>
<path d="M280.051 99.608C284.255 92.9509 289.511 80.1622 276.897 82.2644C261.13 84.8922 255.99 92.7074 250.093 91.7246C226.443 87.7827 211.727 95.4036 205.158 101.973C198.588 104.864 193.858 100.659 177.566 99.608C164.447 98.7617 178.091 119.054 186.5 119.58C194.909 120.105 182.262 129.952 202.234 126.798" stroke="#201A18" stroke-width="2" stroke-linecap="round" stroke-linejoin="round"/>
<path d="M265.335 113.273C277.423 109.068 281.695 102.903 279.856 99.75" stroke="#201A18" stroke-width="2" stroke-linecap="round" stroke-linejoin="round"/>
<path d="M203.055 117.74C202.394 132.07 202.634 138.766 210.798 143.964M216.424 146.835C214.223 145.905 212.365 144.962 210.798 143.964M262.181 107.492C264.935 114.203 269.176 118.043 267.804 128.777M253.482 141.39C262.181 137.186 266.942 135.518 267.804 128.777M267.804 128.777C269.028 139.741 268.718 145.916 268.718 150.646M210.798 143.964C211.515 149.204 209.592 152.529 208.54 153.536" stroke="#201A18" stroke-width="2" stroke-linecap="round" stroke-linejoin="round"/>
<path d="M274.27 169.245C267.437 167.931 231.436 153.478 218.56 152.69C209.066 150.646 203.319 156.895 200.165 158.734C197.012 160.574 189.391 162.928 189.391 169.245C189.391 172.136 184.661 176.866 186.5 179.757C188.34 182.647 186.238 187.18 189.391 189.02" stroke="#201A18" stroke-width="2" stroke-linecap="round" stroke-linejoin="round"/>
<path d="M186.763 183.961C188.445 179.126 191.493 175.465 192.807 174.238" stroke="#201A18" stroke-width="2" stroke-linecap="round" stroke-linejoin="round"/>
<path d="M275.287 167.99C274.499 185.07 272.43 199.991 263.233 209.451C254.035 218.911 297.394 245.189 323.147 238.357C348.9 231.525 357.309 153.741 334.972 130.879M292.664 93.827C325.775 99.0826 329.191 95.9292 332.081 122.733" stroke="#201A18" stroke-width="2" stroke-linecap="round" stroke-linejoin="round"/>
<path d="M226.804 176.793C257.917 191.508 267.141 199.699 268.718 201.1" stroke="#201A18" stroke-width="2" stroke-linecap="round" stroke-linejoin="round"/>
<path d="M194.384 127.463C169.682 141.653 134.995 158.997 136.046 182.122M136.046 188.428C141.334 222.065 156.018 236.78 163.375 244.664C169.262 250.971 191.055 232.225 201.216 222.065" stroke="#201A18" stroke-width="2" stroke-linecap="round" stroke-linejoin="round"/>
<path d="M176.021 164.778C187.583 185.275 194.447 198.94 200.722 217.86" stroke="#201A18" stroke-width="2" stroke-linecap="round" stroke-linejoin="round"/>
<path d="M275.353 167.924C308.148 180.958 322.271 186.677 323.673 187.377" stroke="#201A18" stroke-width="2" stroke-linecap="round" stroke-linejoin="round"/>
<path d="M337.895 233.101C325.807 271.993 332.639 282.504 315.295 291.439M304.784 283.556C290.909 269.681 278.184 264.11 270.3 263.059" stroke="#201A18" stroke-width="2" stroke-linecap="round" stroke-linejoin="round"/>
<path d="M198.292 225.342C215.636 245.313 218.066 246.241 223.322 248.343M227.263 248.343C235.935 248.343 235.147 250.445 240.14 248.343C245.133 246.241 248.023 244.138 249.337 247.029C250.651 249.919 246.709 255.701 240.14 257.277C233.57 258.854 232.782 261.981 232.782 267.263C232.782 270.154 238.037 277.512 238.563 278.826C241.016 280.753 243.628 280.139 243.628 285.658" stroke="#201A18" stroke-width="2" stroke-linecap="round" stroke-linejoin="round"/>
<path d="M176.612 242.62C183.182 248.664 192.517 255.701 196.721 260.431C200.085 264.215 202.152 265.862 202.765 266.212" stroke="#201A18" stroke-width="2" stroke-linecap="round" stroke-linejoin="round"/>
<path d="M235.087 289.94C228.255 290.869 227.001 290.327 224.11 290.327C221.219 290.327 220.168 292.494 217.015 290.327C213.861 288.159 207.029 272.987 203.876 269.891" stroke="#201A18" stroke-width="2" stroke-linecap="round" stroke-linejoin="round"/>
<path d="M226.81 284.212C230.909 285.158 236.752 287.585 239.161 288.68C241.438 289.38 243.864 285.894 247.438 284.212C248.139 281.804 249.232 277.701 240.928 279.803" stroke="#201A18" stroke-width="2" stroke-linecap="round" stroke-linejoin="round"/>
<path d="M269.118 222.524C270.432 239.343 266.293 271.139 242.643 279.285" stroke="#201A18" stroke-width="2" stroke-linecap="round" stroke-linejoin="round"/>
<path d="M207.692 302.464C209.374 299.1 214.788 293.266 216.89 291.164" stroke="#201A18" stroke-width="2" stroke-linecap="round" stroke-linejoin="round"/>
<path d="M158.618 243.087C137.595 266.212 130.238 271.468 118.675 292.49" stroke="#201A18" stroke-width="2" stroke-linecap="round" stroke-linejoin="round"/>
<path d="M97.3895 299.848C56.1329 278.3 88.1922 244.138 101.068 241.248M101.068 253.073C99.7545 245.452 106.85 234.678 114.208 234.678M113.156 245.189C116.835 233.364 129.537 231.174 136.019 229.948C148.107 233.627 106.587 263.584 126.033 278.3" stroke="#201A18" stroke-width="2" stroke-linecap="round" stroke-linejoin="round"/>
<path d="M89.2435 281.716C91.8713 289.6 97.3897 292.227 99.7548 293.541" stroke="#201A18" stroke-width="2" stroke-linecap="round" stroke-linejoin="round"/>
<path d="M250.197 160.574C252.957 155.318 264.256 150.062 271.089 152.165C277.921 154.267 287.775 160.048 281.994 169.508M287.907 172.136C298.024 161.756 311.294 166.881 313.397 169.508C315.499 172.136 324.236 177.852 316.221 184.29" stroke="#201A18" stroke-width="2" stroke-linecap="round" stroke-linejoin="round"/>
<path d="M265.833 155.712C269.775 158.865 271.22 162.413 269.643 167.275M277.658 158.997C279.892 162.019 279.695 165.304 279.169 168.983M303.411 168.983C306.564 171.216 309.061 175.027 307.747 179.888" stroke="#201A18" stroke-width="2" stroke-linecap="round" stroke-linejoin="round"/>
<path d="M314.185 175.158C317.207 179.428 315.236 182.122 315.236 183.698" stroke="#201A18" stroke-width="2" stroke-linecap="round" stroke-linejoin="round"/>
<path d="M282.651 124.31C301.151 122.207 317.163 125.711 321.017 124.31" stroke="#201A18" stroke-width="2" stroke-linecap="round" stroke-linejoin="round"/>
<path d="M164.301 151.91C171.665 150.857 179.256 155.833 182.132 158.453" stroke="#201A18" stroke-width="2" stroke-linecap="round" stroke-linejoin="round"/>
<path d="M257.424 280.928C278.972 287.76 292.111 317.717 298.418 311.41C303.463 306.365 307.177 299.147 308.404 296.169" stroke="#201A18" stroke-width="2" stroke-linecap="round" stroke-linejoin="round"/>
<path d="M255.847 193.684C247.438 199.991 249.541 222.59 243.759 228.897C239.134 233.942 232.722 236.78 230.971 236.605M236.927 222.065C232.722 234.678 225.715 237.832 222.211 239.408L214.328 242.562" stroke="#201A18" stroke-width="2" stroke-linecap="round" stroke-linejoin="round"/>
<path d="M233.248 183.698C226.416 194.735 221.686 203.144 217.481 204.721" stroke="#201A18" stroke-width="2" stroke-linecap="round" stroke-linejoin="round"/>
<path d="M266.615 250.372C274.499 248.795 277.832 247.392 280.023 242.036C282.388 236.255 283.177 241.51 287.381 234.153" stroke="#201A18" stroke-width="2" stroke-linecap="round" stroke-linejoin="round"/>
<path d="M210.517 131.536C212.094 134.69 220.635 138.5 236.139 129.303M259.395 119.842C256.898 126.543 248.489 129.04 239.555 129.303" stroke="#201A18" stroke-width="2" stroke-linecap="round" stroke-linejoin="round"/>
<path d="M223.262 138.763C225.622 139.183 230.308 140.339 232.356 140.865" stroke="#201A18" stroke-width="2" stroke-linecap="round" stroke-linejoin="round"/>
<path d="M239.218 133.081C243.106 135.383 243.045 139.203 244.109 141.03" stroke="#201A18" stroke-width="2" stroke-linecap="round" stroke-linejoin="round"/>
<path d="M249.015 131.405C251.906 137.503 255.103 148.874 241.394 149.396C232.525 149.734 235.088 140.553 229.306 136.284" stroke="#201A18" stroke-width="2" stroke-linecap="round" stroke-linejoin="round"/>
<path d="M254.271 125.624L250.803 134.558" stroke="#201A18" stroke-width="2" stroke-linecap="round" stroke-linejoin="round"/>
<path d="M236.927 126.937C234.825 124.835 226.153 129.302 227.992 123.258C229.464 118.423 239.029 116.689 241.263 118.134M242.445 119.842C244.548 123.784 239.949 122.733 239.029 125.755" stroke="#201A18" stroke-width="2" stroke-linecap="round" stroke-linejoin="round"/>
<path d="M216.299 114.587L217.481 118.397" stroke="#201A18" stroke-width="3" stroke-linecap="round" stroke-linejoin="round"/>
<path d="M245.277 106.635L246.459 110.446" stroke="#201A18" stroke-width="3" stroke-linecap="round" stroke-linejoin="round"/>
<path d="M206.576 100.922C204.079 104.207 203.072 109.025 202.897 110.514" stroke="#201A18" stroke-width="2" stroke-linecap="round" stroke-linejoin="round"/>
<path d="M248.752 91.7247C253.482 92.513 257.424 98.0314 259.001 101.579" stroke="#201A18" stroke-width="2" stroke-linecap="round" stroke-linejoin="round"/>
<path d="M158.618 265.686C173.859 273.044 173.159 284.256 173.859 287.76" stroke="#201A18" stroke-width="2" stroke-linecap="round" stroke-linejoin="round"/>
<path d="M219.583 146.909C226.311 147.75 232.817 146.537 234.745 146.186" stroke="#201A18" stroke-width="2" stroke-linecap="round" stroke-linejoin="round"/>
<path d="M251.511 48.2343C254.796 47.3146 261.103 46.9204 264.782 50.7307M240.737 50.7307C236.27 50.0737 233.774 52.5702 233.379 54.1469M252.563 61.6362C254.402 60.0595 258.212 58.3514 263.337 61.6362M233.379 64.0012C235.219 62.4245 235.482 60.4536 241.657 62.6873" stroke="#201A18" stroke-width="2" stroke-linecap="round" stroke-linejoin="round"/>
<path d="M235.087 79.8995C239.686 81.3448 249.278 79.3739 257.161 75.8264" stroke="#201A18" stroke-width="2" stroke-linecap="round" stroke-linejoin="round"/>
<path d="M241.132 67.1545C238.635 69.2568 239.949 71.2277 242.577 72.4102" stroke="#201A18" stroke-width="2" stroke-linecap="round" stroke-linejoin="round"/>
</svg>
