<svg width="156" height="184" viewBox="0 0 156 184" fill="none" xmlns="http://www.w3.org/2000/svg">
<path fill-rule="evenodd" clip-rule="evenodd" d="M119.848 11.7452C116.342 9.84624 112.942 8.59429 109.591 9.01313C106.207 9.43613 104.476 10.689 102.998 12.1317C102.671 12.4503 102.351 12.7867 102.023 13.1308C100.868 14.3436 99.622 15.6515 97.7075 16.6088C96.9733 16.9759 96.1776 17.3062 95.4119 17.624C94.9464 17.8172 94.4921 18.0058 94.0694 18.1953C92.908 18.7158 91.8895 19.2786 91.1162 20.0659C89.6313 21.578 88.8764 24.1139 90.4717 29.4796C90.5598 29.776 90.3909 30.0877 90.0946 30.1758C89.7982 30.2639 89.4865 30.0951 89.3983 29.7987C87.7568 24.2773 88.409 21.2245 90.3173 19.2814C91.2407 18.3411 92.4154 17.7095 93.6114 17.1735C94.099 16.9549 94.5778 16.7568 95.0506 16.561C95.7797 16.2592 96.4949 15.9632 97.2067 15.6073C98.9298 14.7457 100.005 13.6192 101.139 12.4317C101.485 12.0684 101.837 11.6994 102.215 11.3305C103.827 9.7572 105.774 8.36178 109.452 7.90204C113.163 7.43813 116.825 8.83442 120.381 10.7607C122.162 11.7253 123.939 12.8364 125.7 13.9364L125.707 13.9413C127.476 15.0466 129.226 16.1404 130.974 17.087C134.685 19.0974 137.328 23.3759 138.529 27.6911C139.132 29.8587 139.382 32.069 139.21 34.055C139.038 36.0355 138.442 37.8379 137.308 39.1339C136.391 40.1821 136.141 41.2689 136.15 42.43C136.154 43.0211 136.225 43.6274 136.313 44.2643C136.331 44.3932 136.35 44.5239 136.369 44.6559C136.441 45.1651 136.516 45.6944 136.562 46.2207C136.676 47.5607 136.607 48.9811 135.799 50.3826C134.995 51.7769 133.506 53.0737 130.946 54.2784C130.666 54.4101 130.332 54.29 130.201 54.0103C130.069 53.7305 130.189 53.3969 130.469 53.2653C132.911 52.116 134.18 50.9485 134.829 49.8233C135.474 48.7052 135.552 47.551 135.446 46.3163C135.404 45.8244 135.334 45.3353 135.262 44.83C135.243 44.6939 135.223 44.5565 135.204 44.4176C135.115 43.774 135.035 43.1068 135.03 42.4382C135.02 41.0797 135.323 39.7022 136.465 38.3965C137.391 37.3385 137.935 35.7938 138.094 33.9582C138.253 32.1282 138.024 30.0536 137.45 27.9913C136.297 23.8468 133.791 19.8864 130.441 18.0716C128.66 17.107 126.882 15.9959 125.122 14.896L125.114 14.8909C123.346 13.7857 121.595 12.6918 119.848 11.7452Z" fill="#201A18"/>
<path fill-rule="evenodd" clip-rule="evenodd" d="M95.9047 24.993C96.0355 25.2732 95.9144 25.6063 95.6341 25.7371C93.4981 26.7339 92.1062 27.9107 91.1912 29.1565C90.276 30.4026 89.8149 31.7489 89.5865 33.1194C89.3567 34.4984 89.3642 35.8857 89.378 37.2238C89.3785 37.2666 89.3789 37.3093 89.3794 37.3521C89.3928 38.62 89.406 39.8741 89.1771 40.9422C88.9656 41.9294 88.6884 42.8014 88.434 43.6015C88.4149 43.6615 88.3959 43.7211 88.3772 43.7804C88.1051 44.638 87.87 45.4085 87.7487 46.2056C87.5128 47.7559 87.698 49.4706 89.1191 52.0287C89.2693 52.299 89.1719 52.6399 88.9016 52.79C88.6313 52.9402 88.2905 52.8428 88.1403 52.5725C86.619 49.8342 86.3627 47.8708 86.6417 46.0372C86.7779 45.1424 87.0393 44.2945 87.3098 43.4418C87.328 43.3846 87.3462 43.3273 87.3644 43.2699C87.6207 42.4636 87.8825 41.6398 88.0822 40.7076C88.2845 39.7635 88.2727 38.6184 88.2588 37.2841L88.2583 37.2354C88.2446 35.9068 88.2337 34.4252 88.482 32.9353C88.7317 31.4369 89.2454 29.9142 90.2887 28.4937C91.3323 27.0728 92.883 25.7853 95.1606 24.7224C95.4408 24.5916 95.774 24.7128 95.9047 24.993ZM102.782 25.2297C102.782 24.9205 103.033 24.6699 103.342 24.6699C108.699 24.6699 112.255 25.8567 114.245 27.7275C116.276 29.6368 116.587 32.1715 115.632 34.5594C115.418 35.0933 115.313 35.4645 115.277 35.7198C115.258 35.8453 115.259 35.93 115.265 35.9842C115.268 36.0106 115.272 36.0281 115.275 36.0387C115.277 36.0467 115.28 36.0512 115.28 36.053C115.28 36.053 115.282 36.0543 115.283 36.0552C115.292 36.0615 115.316 36.0754 115.367 36.0914C115.483 36.1278 115.636 36.147 115.879 36.1753C115.89 36.1766 115.902 36.1779 115.914 36.1793C116.342 36.2287 117.005 36.3053 117.534 36.766C117.973 37.1484 118.251 37.7239 118.355 38.5442C121.378 37.6461 124.232 39.5302 125.203 41.9957C125.738 43.3523 125.722 44.919 124.856 46.3286C123.994 47.7302 122.34 48.8978 119.75 49.5834C119.451 49.6626 119.144 49.4844 119.065 49.1855C118.986 48.8866 119.164 48.5801 119.463 48.501C121.875 47.8625 123.237 46.8233 123.902 45.7421C124.562 44.669 124.583 43.4771 124.161 42.4061C123.299 40.2181 120.668 38.6738 118.071 39.8426C117.898 39.9205 117.697 39.9053 117.537 39.8022C117.378 39.699 117.281 39.522 117.281 39.332C117.281 38.2312 117.018 37.8014 116.799 37.6106C116.555 37.3984 116.226 37.3429 115.75 37.2875C115.739 37.2862 115.728 37.2849 115.716 37.2836C115.513 37.2601 115.258 37.2307 115.032 37.1597C114.778 37.0799 114.488 36.9265 114.306 36.6053C114.133 36.2992 114.114 35.9367 114.168 35.5594C114.224 35.1779 114.364 34.713 114.592 34.1435C115.403 32.1176 115.125 30.0915 113.478 28.5434C111.79 26.9568 108.578 25.7896 103.342 25.7896C103.033 25.7896 102.782 25.5389 102.782 25.2297Z" fill="#201A18"/>
<path fill-rule="evenodd" clip-rule="evenodd" d="M116.575 50.8742C116.082 50.4651 115.145 50.2144 113.439 50.4988C109.113 51.2198 106.249 52.6492 104.037 53.8453C103.847 53.9484 103.659 54.0507 103.475 54.1512C102.601 54.6284 101.798 55.0666 101.048 55.3729C100.124 55.7496 99.2146 55.9564 98.2478 55.7953C85.1688 53.6154 77.1167 57.8377 73.5775 61.3768C73.5284 61.4259 73.4706 61.4654 73.4071 61.4934C71.3973 62.3777 69.6645 62.1579 67.3874 61.6951C67.0584 61.6282 66.7163 61.5558 66.3582 61.4801C64.2392 61.0317 61.5591 60.4646 57.6975 60.2155C56.8391 60.1601 56.2737 60.2838 55.9159 60.48C55.5781 60.6653 55.3857 60.9357 55.2987 61.2945C55.2068 61.6735 55.2305 62.1695 55.3885 62.7654C55.5451 63.3562 55.8247 64.0105 56.2033 64.6856C56.9613 66.0374 58.0868 67.4203 59.3026 68.478C60.5363 69.5511 61.7797 70.2176 62.7707 70.2795C63.4102 70.3195 63.9179 70.451 64.3056 70.695C64.7107 70.9499 64.9373 71.2977 65.0582 71.6687C65.1717 72.0167 65.1916 72.3867 65.2031 72.6908C65.2049 72.7381 65.2065 72.7841 65.208 72.8288C65.2172 73.0958 65.2249 73.3186 65.2635 73.5318C65.3058 73.7659 65.3792 73.942 65.5045 74.0838C65.6298 74.2256 65.8486 74.3799 66.263 74.4952C67.1212 74.7339 68.6724 74.7666 71.4572 74.3269C71.7626 74.2786 72.0493 74.4871 72.0975 74.7926C72.1457 75.098 71.9372 75.3847 71.6318 75.4329C68.8259 75.8759 67.069 75.8816 65.963 75.574C65.3953 75.4161 64.9678 75.1674 64.6655 74.8253C64.3631 74.4831 64.2273 74.0942 64.1616 73.7311C64.1073 73.4309 64.097 73.1166 64.0883 72.8546C64.0869 72.8126 64.0856 72.772 64.0841 72.733C64.0725 72.4243 64.0531 72.1982 63.9936 72.0157C63.9416 71.8561 63.8616 71.7386 63.7092 71.6427C63.5392 71.5357 63.2384 71.4307 62.7009 71.3971C61.3378 71.3119 59.861 70.4478 58.5677 69.3228C57.2567 68.1824 56.0488 66.6994 55.2266 65.2333C54.8151 64.4996 54.493 63.757 54.3061 63.0523C54.1207 62.3527 54.0592 61.6548 54.2105 61.0307C54.3666 60.3865 54.7456 59.8447 55.3775 59.4982C55.9893 59.1627 56.7919 59.035 57.7696 59.0981C61.7165 59.3527 64.473 59.9363 66.5954 60.3856C66.9507 60.4608 67.2881 60.5323 67.6105 60.5978C69.8153 61.0459 71.2338 61.1969 72.8624 60.5089C76.715 56.711 85.1175 52.4717 98.4319 54.6908C99.1157 54.8048 99.8037 54.671 100.625 54.3361C101.311 54.0559 102.045 53.6554 102.918 53.1793C103.107 53.0764 103.302 52.9699 103.505 52.8604C105.764 51.6385 108.753 50.1446 113.254 49.3943C115.079 49.0902 116.423 49.2932 117.29 50.0121C118.171 50.7424 118.398 51.8661 118.319 53.0016C118.161 55.2558 116.772 58.0765 115.585 59.9557C115.42 60.2172 115.074 60.2952 114.813 60.1301C114.552 59.965 114.474 59.6192 114.639 59.3578C115.806 57.5099 117.065 54.887 117.202 52.9236C117.27 51.9503 117.055 51.2717 116.575 50.8742Z" fill="#201A18"/>
<path fill-rule="evenodd" clip-rule="evenodd" d="M114.721 59.2527C114.988 59.0969 115.331 59.1871 115.486 59.4542C116.201 60.6785 115.627 62.2634 114.267 63.6877C112.871 65.1501 110.493 66.6408 107.057 67.8361C106.765 67.9377 106.446 67.7833 106.344 67.4912C106.243 67.1992 106.397 66.8801 106.689 66.7785C110.021 65.6198 112.223 64.2077 113.457 62.9145C114.728 61.5831 114.835 60.5595 114.519 60.0184C114.363 59.7513 114.454 59.4085 114.721 59.2527Z" fill="#201A18"/>
<path fill-rule="evenodd" clip-rule="evenodd" d="M104.895 63.5526C105.181 63.4352 105.508 63.572 105.626 63.8581C105.977 64.7147 106.387 65.5035 106.797 66.2921C108.1 68.8014 109.403 71.3083 108.819 75.9918C109.393 81.1587 109.36 84.441 109.336 86.9171C109.331 87.3812 109.327 87.8169 109.327 88.2314C109.327 88.5406 109.076 88.7913 108.767 88.7913C108.458 88.7913 108.207 88.5406 108.207 88.2314C108.207 87.8101 108.211 87.3697 108.216 86.9027C108.236 84.8692 108.261 82.33 107.954 78.6562C107.523 79.368 106.946 79.9615 106.227 80.4994C105.075 81.3618 103.533 82.0964 101.678 82.9804C101.292 83.1642 100.893 83.3544 100.481 83.5537C100.202 83.6882 99.8676 83.5716 99.7331 83.2932C99.5985 83.0148 99.7151 82.6801 99.9935 82.5455C100.427 82.3361 100.84 82.1391 101.233 81.9516C103.086 81.0676 104.501 80.3926 105.556 79.6029C106.779 78.6875 107.479 77.6426 107.7 75.9166C108.257 71.5635 107.138 69.4044 105.865 66.9496C105.438 66.1255 104.994 65.268 104.59 64.2831C104.472 63.997 104.609 63.6699 104.895 63.5526ZM72.0304 69.2491C72.3393 69.2634 72.5781 69.5253 72.5639 69.8342C72.3779 73.864 72.3269 76.723 72.8632 78.9348C73.3855 81.0889 74.4687 82.6356 76.64 84.0183C77.4838 84.5555 78.4949 85.0695 79.7074 85.5825C79.9921 85.703 80.1253 86.0315 80.0048 86.3163C79.8843 86.601 79.5558 86.7342 79.2711 86.6137C78.4288 86.2574 77.6686 85.8956 76.9839 85.5202C77.0435 87.996 76.1028 89.6407 75.4629 90.254C75.2396 90.4679 74.8852 90.4604 74.6713 90.2372C74.4573 90.0139 74.4649 89.6595 74.6881 89.4456C75.1206 89.0311 76.1017 87.4426 75.8155 84.8178C73.5601 83.3221 72.3512 81.575 71.775 79.1986C71.194 76.8027 71.261 73.776 71.4453 69.7826C71.4596 69.4737 71.7215 69.2349 72.0304 69.2491Z" fill="#201A18"/>
<path fill-rule="evenodd" clip-rule="evenodd" d="M80.7615 88.8197C76.1733 87.85 72.9874 90.1959 71.1219 91.5695C70.7224 91.8637 70.3835 92.1133 70.1043 92.2761C69.8081 92.4489 69.4425 92.6277 69.0166 92.8359C68.8377 92.9233 68.6483 93.0159 68.449 93.1154C67.7939 93.4425 67.0655 93.8289 66.3874 94.3032C65.0348 95.2493 63.7944 96.6102 63.7944 98.6447C63.7944 98.9182 63.6768 99.2916 63.4486 99.784C63.3111 100.081 63.1585 100.372 62.997 100.68C62.8875 100.889 62.7739 101.105 62.6581 101.337C62.3881 101.877 62.125 102.465 62.0059 103.042C61.8852 103.627 61.9008 104.26 62.2635 104.83C62.4592 105.138 62.5629 105.509 62.6197 105.95C62.6605 106.267 62.674 106.581 62.6884 106.919C62.6947 107.066 62.7012 107.217 62.7102 107.375C62.7655 108.341 62.914 109.524 64.0722 110.199C64.3393 110.355 64.6821 110.265 64.8379 109.998C64.9937 109.731 64.9035 109.388 64.6364 109.232C64.029 108.878 63.8833 108.276 63.8282 107.311C63.8211 107.189 63.8155 107.057 63.8097 106.921C63.7943 106.565 63.7776 106.174 63.7302 105.806C63.6628 105.284 63.5274 104.731 63.2082 104.229C63.056 103.99 63.0164 103.685 63.1026 103.268C63.1904 102.843 63.3963 102.364 63.6596 101.838C63.7535 101.65 63.8587 101.449 63.9659 101.244C64.1403 100.91 64.3198 100.567 64.4646 100.255C64.7008 99.7449 64.9142 99.1804 64.9142 98.6447C64.9142 97.1421 65.8072 96.0755 67.0292 95.2208C67.6384 94.7947 68.3077 94.4375 68.9492 94.1172C69.122 94.031 69.2957 93.946 69.4665 93.8625C69.9107 93.6454 70.3346 93.4381 70.6685 93.2433C71.0478 93.0221 71.4641 92.7196 71.926 92.3839C73.8321 90.999 76.5138 89.0504 80.5672 89.9232C80.5948 89.9291 80.6227 89.933 80.6509 89.9347C82.3884 90.0411 84.9497 90.6144 87.9106 91.4459C90.8596 92.2741 94.1636 93.3463 97.3699 94.4303C99.3098 95.0862 101.206 95.7436 102.965 96.3536C104.117 96.7533 105.211 97.1326 106.221 97.4779C108.744 98.3411 110.766 99.0014 111.77 99.1945C112.073 99.2529 112.367 99.0541 112.425 98.7504C112.484 98.4468 112.285 98.1533 111.981 98.0949C111.073 97.9202 109.14 97.2932 106.583 96.4184C105.584 96.0766 104.493 95.6984 103.341 95.299C101.577 94.6872 99.6692 94.0257 97.7285 93.3696C94.5165 92.2836 91.1907 91.204 88.2134 90.3679C85.2702 89.5413 82.6263 88.9404 80.7615 88.8197Z" fill="#201A18"/>
<path fill-rule="evenodd" clip-rule="evenodd" d="M66.6762 101.058C66.8871 101.284 66.8749 101.638 66.6489 101.849C65.9684 102.485 64.3188 104.46 63.4118 107.068C63.3102 107.36 62.9911 107.514 62.6991 107.413C62.407 107.311 62.2526 106.992 62.3542 106.7C63.3304 103.893 65.094 101.769 65.8848 101.031C66.1109 100.82 66.4652 100.832 66.6762 101.058Z" fill="#201A18"/>
<path fill-rule="evenodd" clip-rule="evenodd" d="M121.621 56.3323C121.67 56.0269 121.956 55.8187 122.262 55.8671C124.487 56.2204 126.491 56.5081 128.284 56.7657C130.194 57.0399 131.864 57.2798 133.31 57.528C136.125 58.0114 138.245 58.5482 139.842 59.508C141.474 60.4896 142.517 61.8854 143.247 63.973C143.967 66.0316 144.395 68.794 144.799 72.5437C144.832 72.8512 144.61 73.1273 144.303 73.1604C143.995 73.1936 143.719 72.9712 143.686 72.6638C143.281 68.9102 142.863 66.2658 142.19 64.3428C141.527 62.4489 140.63 61.2884 139.265 60.4677C137.863 59.6253 135.928 59.1138 133.12 58.6316C131.672 58.3829 130.033 58.1478 128.148 57.8774C126.364 57.6214 124.359 57.3338 122.086 56.973C121.781 56.9246 121.573 56.6377 121.621 56.3323ZM145.47 76.7642C145.691 76.5481 146.045 76.5522 146.261 76.7734C149.5 80.0885 151.58 85.3378 152.681 91.3276C153.784 97.3316 153.917 104.15 153.204 110.678C152.491 117.203 150.93 123.469 148.623 128.361C146.327 133.228 143.233 136.859 139.384 137.88C135.663 138.867 131.346 138.65 127.073 137.715C122.794 136.779 118.52 135.113 114.867 133.161C111.22 131.213 108.152 128.958 106.313 126.821C105.396 125.756 104.748 124.679 104.521 123.648C104.286 122.586 104.504 121.578 105.295 120.765C110.278 115.639 111.443 107.5 111.886 97.9158C111.9 97.6069 112.162 97.3681 112.471 97.3823C112.78 97.3966 113.019 97.6585 113.004 97.9674C112.564 107.51 111.413 116.077 106.097 121.545C105.601 122.056 105.451 122.666 105.614 123.407C105.785 124.18 106.302 125.091 107.162 126.091C108.876 128.083 111.813 130.26 115.394 132.173C118.968 134.083 123.145 135.71 127.312 136.621C131.485 137.535 135.609 137.723 139.097 136.797C142.457 135.906 145.358 132.658 147.61 127.884C149.85 123.134 151.387 116.996 152.091 110.556C152.794 104.119 152.66 97.4109 151.579 91.53C150.496 85.6349 148.474 80.6406 145.461 77.5559C145.244 77.3347 145.249 76.9802 145.47 76.7642Z" fill="#201A18"/>
<path fill-rule="evenodd" clip-rule="evenodd" d="M84.7945 102.631C84.9267 102.351 85.2605 102.232 85.54 102.364C102.995 110.62 108.207 115.232 109.139 116.061C109.37 116.266 109.391 116.62 109.185 116.851C108.98 117.082 108.626 117.103 108.395 116.898L108.391 116.894C107.547 116.144 102.42 111.587 85.0613 103.376C84.7817 103.244 84.6623 102.91 84.7945 102.631Z" fill="#201A18"/>
<path fill-rule="evenodd" clip-rule="evenodd" d="M67.635 74.9731C67.789 75.2412 67.6966 75.5834 67.4284 75.7375C66.21 76.4374 64.951 77.1496 63.668 77.8753C57.6417 81.2842 51.0895 84.9906 45.7546 89.1198C39.2602 94.1466 34.7666 99.654 35.0473 105.828C35.0613 106.137 34.8223 106.399 34.5134 106.413C34.2045 106.427 33.9427 106.188 33.9287 105.879C33.6208 99.1068 38.5432 93.2856 45.0693 88.2344C50.4746 84.0505 57.1152 80.2947 63.1422 76.886C64.4184 76.1642 65.6671 75.458 66.8707 74.7665C67.1388 74.6125 67.481 74.705 67.635 74.9731ZM34.401 108.832C34.7065 108.784 34.993 108.992 35.041 109.298C37.8775 127.342 45.569 135.548 49.7752 140.036C49.9205 140.191 50.0616 140.341 50.1982 140.487C50.7759 141.106 51.8437 141.218 53.5094 140.652C55.1316 140.101 57.0928 138.977 59.1654 137.54C63.3013 134.673 67.7476 130.652 70.5789 127.821C70.7976 127.602 71.152 127.602 71.3707 127.821C71.5893 128.04 71.5893 128.394 71.3707 128.613C68.5132 131.47 64.0143 135.541 59.8034 138.461C57.7026 139.917 55.6399 141.111 53.8696 141.712C52.1429 142.299 50.4497 142.398 49.3796 141.251C49.2451 141.107 49.1063 140.959 48.9634 140.807C44.6993 136.256 36.8243 127.852 33.9349 109.472C33.8869 109.166 34.0956 108.88 34.401 108.832Z" fill="#201A18"/>
<path fill-rule="evenodd" clip-rule="evenodd" d="M56.5936 95.656C56.8629 95.5041 57.2044 95.5993 57.3563 95.8686C63.8372 107.357 67.7001 115.044 71.2298 125.687C71.3271 125.98 71.1681 126.297 70.8746 126.394C70.5811 126.491 70.2643 126.332 70.167 126.039C66.6703 115.496 62.8471 107.881 56.381 96.4187C56.2291 96.1494 56.3243 95.8079 56.5936 95.656Z" fill="#201A18"/>
<path fill-rule="evenodd" clip-rule="evenodd" d="M111.962 97.6981C112.076 97.4107 112.401 97.2703 112.689 97.3845C121.869 101.033 128.438 103.659 132.809 105.421C137.161 107.175 139.366 108.086 139.785 108.296C140.062 108.434 140.174 108.77 140.036 109.047C139.897 109.323 139.561 109.435 139.284 109.297C138.918 109.114 136.778 108.228 132.39 106.459C128.021 104.698 121.455 102.074 112.275 98.4251C111.988 98.3109 111.847 97.9854 111.962 97.6981Z" fill="#201A18"/>
<path fill-rule="evenodd" clip-rule="evenodd" d="M147.663 133.861C147.368 133.77 147.054 133.935 146.963 134.23C144.525 142.072 143.449 147.898 142.633 152.317C142.313 154.045 142.034 155.557 141.729 156.891C141.182 159.276 140.558 161.078 139.507 162.586C138.461 164.085 136.961 165.338 134.588 166.56C134.313 166.701 134.205 167.039 134.347 167.314C134.488 167.589 134.826 167.697 135.101 167.555C137.584 166.276 139.246 164.917 140.426 163.226C141.6 161.543 142.263 159.575 142.82 157.141C143.139 155.75 143.425 154.201 143.748 152.448C144.562 148.04 145.616 142.336 148.032 134.562C148.124 134.267 147.959 133.953 147.663 133.861ZM109.098 151.094C109.057 151.401 109.273 151.682 109.579 151.723C113.838 152.291 120.855 155.331 128.564 163.04C128.782 163.258 129.137 163.258 129.355 163.04C129.574 162.821 129.574 162.467 129.355 162.248C121.527 154.42 114.296 151.222 109.727 150.613C109.421 150.572 109.139 150.788 109.098 151.094Z" fill="#201A18"/>
<path fill-rule="evenodd" clip-rule="evenodd" d="M68.9705 129.629C68.7371 129.832 68.7122 130.185 68.9149 130.419C73.7686 136.008 76.5596 138.961 78.5144 140.664C80.4946 142.39 81.6335 142.845 83.1251 143.442L83.1432 143.449C83.4302 143.564 83.7561 143.424 83.8709 143.137C83.9857 142.85 83.8461 142.524 83.559 142.409L83.5166 142.392C82.0971 141.825 81.0872 141.421 79.2501 139.82C77.3614 138.174 74.6169 135.277 69.7604 129.684C69.5576 129.451 69.204 129.426 68.9705 129.629ZM93.9485 141.793C93.5155 141.99 93.0539 142.201 92.5498 142.413C91.8731 142.698 91.4292 142.824 91.0724 142.87C90.7247 142.915 90.429 142.888 90.0308 142.819C89.9063 142.797 89.7746 142.772 89.6324 142.745C88.823 142.59 87.672 142.369 85.5579 142.369C85.2487 142.369 84.9981 142.62 84.9981 142.929C84.9981 143.238 85.2487 143.489 85.5579 143.489C87.5634 143.489 88.6255 143.692 89.4251 143.845C89.5704 143.873 89.707 143.899 89.839 143.922C90.2868 144 90.7083 144.046 91.2157 143.981C91.7141 143.917 92.2632 143.749 92.9843 143.445C93.505 143.226 93.9893 143.005 94.4263 142.806C94.5829 142.734 94.7334 142.665 94.8774 142.601C95.4353 142.349 95.8881 142.159 96.2664 142.052C96.6506 141.943 96.8781 141.945 97.0187 141.992C97.1296 142.028 97.2678 142.12 97.4067 142.425C97.5173 142.668 97.5393 143.027 97.4024 143.49C97.2669 143.949 96.9867 144.468 96.5639 144.983C95.7186 146.015 94.3519 146.975 92.6364 147.387C90.7283 147.845 89.5329 148.558 88.8524 149.653C88.1902 150.719 88.0877 152.044 88.0877 153.522C88.0877 154.056 88.3187 154.713 88.6011 155.342C88.8935 155.994 89.282 156.704 89.672 157.372C90.0069 157.946 90.3487 158.5 90.6381 158.969C90.6862 159.047 90.7328 159.122 90.7777 159.195C90.9365 159.453 91.0723 159.675 91.1771 159.855C91.2877 160.044 91.3452 160.155 91.3645 160.204C91.401 160.295 91.461 160.375 91.5384 160.436C91.9293 160.743 92.3227 160.945 92.653 161.113L92.6649 161.119C93.0038 161.291 93.2537 161.418 93.4647 161.589C93.822 161.879 94.1602 162.37 94.1602 163.821C94.1602 164.13 94.4108 164.381 94.72 164.381C95.0292 164.381 95.2799 164.13 95.2799 163.821C95.2799 162.182 94.8868 161.3 94.1695 160.719C93.864 160.472 93.5176 160.296 93.2146 160.142C93.1963 160.133 93.1782 160.124 93.1603 160.115C92.8685 159.967 92.5968 159.825 92.3335 159.633C92.2807 159.528 92.2142 159.41 92.1443 159.291C92.0319 159.098 91.8895 158.865 91.7311 158.608C91.6853 158.533 91.6382 158.457 91.5897 158.379C91.3001 157.909 90.9664 157.369 90.6392 156.808C90.2567 156.152 89.8912 155.482 89.6227 154.884C89.3442 154.263 89.2074 153.797 89.2074 153.522C89.2074 152.043 89.3256 151.014 89.8036 150.244C90.2633 149.504 91.1277 148.901 92.8977 148.476C94.8602 148.005 96.4361 146.906 97.4299 145.693C97.9266 145.087 98.29 144.438 98.4763 143.807C98.6613 143.181 98.6833 142.528 98.4261 141.962C98.1972 141.458 97.8572 141.09 97.3704 140.929C96.9133 140.777 96.4236 140.844 95.9618 140.974C95.4942 141.107 94.9723 141.33 94.4175 141.58C94.2646 141.649 94.1085 141.72 93.9485 141.793Z" fill="#201A18"/>
<path fill-rule="evenodd" clip-rule="evenodd" d="M56.7878 139.346C56.9972 139.118 57.3514 139.104 57.5789 139.313C59.0366 140.654 60.7384 142.082 62.4177 143.492C62.8436 143.849 63.2681 144.206 63.6867 144.559C65.741 146.293 67.6683 147.965 68.8768 149.325C69.8077 150.372 70.5544 151.118 71.1058 151.623C71.6678 152.138 72.0051 152.382 72.12 152.448C72.3884 152.601 72.4817 152.943 72.3283 153.211C72.1749 153.48 71.8329 153.573 71.5644 153.42C71.336 153.289 70.923 152.974 70.3496 152.449C69.7657 151.914 68.9921 151.14 68.0399 150.069C66.8943 148.78 65.0315 147.159 62.9646 145.415C62.5519 145.066 62.1315 144.714 61.7082 144.358C60.027 142.947 58.2993 141.497 56.8208 140.137C56.5933 139.928 56.5785 139.573 56.7878 139.346Z" fill="#201A18"/>
<path fill-rule="evenodd" clip-rule="evenodd" d="M72.0644 154.601C71.8477 154.822 71.8509 155.176 72.0716 155.393C72.4537 155.768 72.9897 156.562 73.6295 157.63C74.1606 158.516 74.7374 159.546 75.3263 160.599C75.4351 160.793 75.5443 160.988 75.6536 161.183C76.3517 162.428 77.0579 163.671 77.7022 164.68C78.0244 165.185 78.3366 165.64 78.6296 166.012C78.9158 166.376 79.2108 166.695 79.5029 166.896C79.9918 167.232 80.4343 167.424 80.8625 167.499C81.2951 167.573 81.6701 167.52 82.0054 167.431C82.169 167.387 82.3269 167.334 82.4721 167.284C82.4948 167.276 82.5171 167.269 82.5391 167.261C82.6633 167.218 82.7792 167.178 82.9008 167.141C83.1791 167.056 83.4615 166.995 83.7924 166.995C84.1895 166.995 84.5373 167.015 84.9004 167.036C85.9528 167.097 87.1333 167.165 90.0139 166.773C90.3203 166.731 90.5349 166.449 90.4932 166.143C90.4516 165.836 90.1694 165.622 89.863 165.663C87.0966 166.04 86.0317 165.978 84.996 165.918C84.618 165.897 84.2439 165.875 83.7924 165.875C83.3141 165.875 82.9161 165.965 82.5737 166.07C82.431 166.114 82.2935 166.161 82.1698 166.204C82.1487 166.211 82.1279 166.218 82.1076 166.225C81.9637 166.275 81.8389 166.317 81.7174 166.349C81.4826 166.411 81.2783 166.434 81.0534 166.395C80.8242 166.356 80.5311 166.244 80.1372 165.974C79.9879 165.871 79.7772 165.66 79.5094 165.32C79.2483 164.988 78.9583 164.567 78.646 164.078C78.0213 163.099 77.3298 161.883 76.6303 160.635C76.5221 160.442 76.4137 160.249 76.3054 160.055C75.7169 159.004 75.1304 157.956 74.5901 157.054C73.9609 156.004 73.3567 155.085 72.8561 154.594C72.6355 154.377 72.281 154.38 72.0644 154.601Z" fill="#201A18"/>
<path fill-rule="evenodd" clip-rule="evenodd" d="M97.66 161.949C97.6142 162.393 97.4878 162.835 97.3909 163.168C97.346 163.322 97.237 163.45 97.0917 163.518C96.3567 163.864 95.7247 164.35 95.1023 164.828C94.9341 164.958 94.7665 165.086 94.5978 165.212C94.2187 165.493 93.8213 165.765 93.4171 165.936C93.0035 166.11 92.5389 166.197 92.0542 166.048C92.0314 166.041 92.009 166.032 91.9872 166.022C90.644 165.412 87.4156 164.073 85.1781 163.557C84.8769 163.488 84.689 163.187 84.7585 162.886C84.828 162.584 85.1286 162.397 85.4299 162.466C87.7609 163.004 91.035 164.362 92.4123 164.986C92.5594 165.023 92.7361 165.008 92.982 164.904C93.2537 164.789 93.56 164.588 93.93 164.313C94.0692 164.21 94.2165 164.096 94.3715 163.977C94.9441 163.535 95.6212 163.014 96.3829 162.62C96.4562 162.355 96.52 162.088 96.5462 161.834C96.5808 161.498 96.5395 161.273 96.4491 161.131C96.375 161.014 96.2048 160.856 95.7278 160.798C95.236 160.739 94.4794 160.799 93.3459 161.086C93.0462 161.162 92.7417 160.98 92.6658 160.68C92.5899 160.381 92.7714 160.076 93.0711 160C94.2623 159.699 95.1725 159.604 95.8613 159.687C96.5649 159.771 97.0888 160.05 97.3938 160.53C97.6825 160.983 97.7052 161.511 97.66 161.949Z" fill="#201A18"/>
<path fill-rule="evenodd" clip-rule="evenodd" d="M108.947 127.916C109.256 127.892 109.525 128.122 109.549 128.431C109.922 133.197 109.523 140.081 107.35 146.367C105.177 152.654 101.196 158.425 94.3506 160.782C94.0583 160.883 93.7397 160.728 93.639 160.435C93.5383 160.143 93.6936 159.824 93.986 159.724C100.382 157.521 104.18 152.11 106.292 146.001C108.404 139.892 108.796 133.168 108.433 128.518C108.409 128.21 108.639 127.94 108.947 127.916Z" fill="#201A18"/>
<path fill-rule="evenodd" clip-rule="evenodd" d="M80.146 166.508C80.3646 166.726 80.3646 167.081 80.146 167.3C79.5671 167.878 78.5253 168.978 77.5131 170.165C76.4901 171.365 75.5385 172.606 75.1015 173.48C74.9632 173.757 74.6269 173.869 74.3504 173.731C74.0738 173.593 73.9617 173.256 74.1 172.98C74.6046 171.97 75.6392 170.637 76.6611 169.439C77.694 168.228 78.7561 167.106 79.3542 166.508C79.5728 166.289 79.9273 166.289 80.146 166.508Z" fill="#201A18"/>
<path fill-rule="evenodd" clip-rule="evenodd" d="M47.5019 139.572C47.7307 139.78 47.7476 140.135 47.5396 140.363C44.8428 143.33 42.5507 145.769 40.5426 147.905C33.7596 155.122 30.2157 158.893 25.253 167.916C25.104 168.187 24.7636 168.286 24.4926 168.137C24.2217 167.988 24.1229 167.647 24.2719 167.376C29.3071 158.221 32.9537 154.342 39.7674 147.093C41.7699 144.963 44.0459 142.542 46.7111 139.61C46.919 139.381 47.2731 139.364 47.5019 139.572Z" fill="#201A18"/>
<path fill-rule="evenodd" clip-rule="evenodd" d="M34.3685 132.08C34.4574 132.064 34.5491 132.069 34.6356 132.095C35.1281 132.245 35.5379 132.478 35.8304 132.819C36.1281 133.166 36.2663 133.58 36.2881 134.019C36.3295 134.855 35.9511 135.829 35.4176 136.833C34.8726 137.859 34.1093 139.017 33.2691 140.245C33.0124 140.62 32.7484 141.002 32.4801 141.39C31.864 142.282 31.2255 143.206 30.6001 144.156C28.7997 146.894 27.1829 149.747 26.6634 152.393C26.4057 153.706 26.4234 154.942 26.8046 156.079C27.1841 157.211 27.9374 158.285 29.2196 159.255C29.4662 159.441 29.5148 159.793 29.3282 160.039C29.1416 160.286 28.7905 160.334 28.5439 160.148C27.1043 159.058 26.2025 157.806 25.7429 156.435C25.285 155.07 25.2798 153.628 25.5646 152.178C26.1301 149.297 27.8605 146.284 29.6646 143.541C30.2973 142.579 30.9481 141.637 31.5674 140.741C31.8338 140.356 32.0943 139.979 32.345 139.613C33.1853 138.384 33.9162 137.273 34.4287 136.308C34.9527 135.322 35.1949 134.583 35.1697 134.075C35.1582 133.842 35.0912 133.677 34.9805 133.548C34.8791 133.43 34.7118 133.308 34.4342 133.207C34.4195 133.21 34.4048 133.213 34.39 133.216C32.575 133.558 30.0594 134.033 27.7305 135.175C25.3364 136.348 23.1787 138.207 22.2072 141.33C22.1154 141.625 21.8016 141.79 21.5063 141.698C21.2111 141.606 21.0462 141.293 21.138 140.997C22.2262 137.499 24.654 135.435 27.2377 134.169C29.7061 132.959 32.3523 132.46 34.1547 132.121C34.2274 132.107 34.2987 132.094 34.3685 132.08ZM17.2224 139.147C15.8601 141.111 15.1215 143.538 15.4566 145.482C15.5092 145.787 15.3047 146.077 15 146.129C14.6953 146.182 14.4057 145.977 14.3532 145.673C13.9527 143.35 14.8325 140.628 16.3023 138.509C17.7649 136.401 19.9353 134.719 22.2612 134.719C22.5704 134.719 22.821 134.97 22.821 135.279C22.821 135.588 22.5704 135.839 22.2612 135.839C20.4676 135.839 18.592 137.173 17.2224 139.147ZM15.4512 138.834C15.5189 139.136 15.3292 139.435 15.0275 139.503C13.3664 139.876 10.9809 141.298 8.67828 143.476C6.38885 145.642 4.24631 148.494 3.03221 151.645C1.82074 154.79 1.54 158.21 2.92603 161.563C4.31398 164.921 7.40709 168.294 13.1044 171.269C13.3785 171.412 13.4846 171.751 13.3414 172.025C13.1983 172.299 12.8601 172.405 12.586 172.262C6.73409 169.205 3.40895 165.663 1.89121 161.991C0.371553 158.315 0.697702 154.59 1.98733 151.243C3.27432 147.902 5.52709 144.915 7.90882 142.663C10.2774 140.422 12.8389 138.847 14.7823 138.411C15.084 138.343 15.3834 138.532 15.4512 138.834Z" fill="#201A18"/>
<path fill-rule="evenodd" clip-rule="evenodd" d="M8.10743 161.083C8.40078 160.985 8.71784 161.144 8.81562 161.437C10.1338 165.392 12.7961 166.846 14.2024 167.614C14.2868 167.66 14.3666 167.704 14.4414 167.745C14.7116 167.895 14.809 168.236 14.6589 168.506C14.5087 168.777 14.1679 168.874 13.8976 168.724C13.8233 168.683 13.7429 168.639 13.6572 168.592C12.2097 167.802 9.21208 166.167 7.75334 161.791C7.65556 161.498 7.81409 161.181 8.10743 161.083Z" fill="#201A18"/>
<path fill-rule="evenodd" clip-rule="evenodd" d="M103.61 90.4063C101.405 91.3424 99.5779 92.7469 98.8938 94.05C98.7501 94.3238 98.4116 94.4292 98.1379 94.2855C97.8641 94.1417 97.7587 93.8033 97.9024 93.5295C98.7631 91.8901 100.872 90.3521 103.172 89.3756C105.479 88.3964 108.165 87.9022 110.259 88.5467C112.214 89.148 114.661 90.2904 116.212 92.0181C116.995 92.8906 117.568 93.9327 117.706 95.1423C117.844 96.3559 117.539 97.675 116.678 99.084C116.517 99.3478 116.172 99.431 115.908 99.2698C115.644 99.1085 115.561 98.7639 115.722 98.5001C116.48 97.2608 116.698 96.1891 116.593 95.2694C116.488 94.3457 116.049 93.512 115.379 92.7661C114.024 91.257 111.801 90.1925 109.93 89.6169C108.199 89.0844 105.809 89.4729 103.61 90.4063ZM128.293 97.3554C125.716 97.1894 122.611 97.8839 119.911 100.654C119.696 100.875 119.341 100.88 119.12 100.664C118.898 100.448 118.894 100.094 119.11 99.8725C122.074 96.8313 125.516 96.0545 128.365 96.2379C129.784 96.3293 131.059 96.6587 132.062 97.0651C133.041 97.4617 133.834 97.9613 134.219 98.4423C134.343 98.598 134.527 98.7884 134.765 99.0244C134.84 99.0979 134.919 99.176 135.003 99.2576C135.176 99.428 135.366 99.6139 135.555 99.8063C136.118 100.378 136.742 101.071 137.184 101.855C137.629 102.643 137.911 103.562 137.725 104.563C137.539 105.564 136.904 106.548 135.714 107.504C135.473 107.698 135.12 107.659 134.927 107.418C134.733 107.177 134.771 106.825 135.012 106.631C136.066 105.785 136.502 105.017 136.624 104.359C136.746 103.699 136.573 103.051 136.209 102.405C135.842 101.754 135.303 101.146 134.757 100.592C134.575 100.406 134.399 100.234 134.229 100.067C134.144 99.9837 134.06 99.9015 133.977 99.82C133.741 99.5853 133.514 99.3539 133.344 99.1418C133.141 98.8871 132.563 98.4764 131.641 98.1029C130.744 97.7392 129.586 97.4387 128.293 97.3554Z" fill="#201A18"/>
<path fill-rule="evenodd" clip-rule="evenodd" d="M106.715 90.7181C106.908 90.4767 107.26 90.4375 107.502 90.6307C108.656 91.5544 109.493 92.573 109.906 93.7621C110.322 94.9586 110.288 96.2635 109.818 97.7141C109.723 98.0082 109.407 98.1693 109.113 98.0739C108.818 97.9785 108.657 97.6627 108.753 97.3686C109.165 96.0973 109.168 95.0483 108.849 94.1299C108.526 93.204 107.855 92.3469 106.802 91.5051C106.561 91.3119 106.522 90.9596 106.715 90.7181ZM113.44 92.4567C113.689 92.2729 114.039 92.3255 114.223 92.5741C115.619 94.463 115.468 96.5112 115.173 98.5768C115.129 98.8829 114.846 99.0956 114.539 99.0519C114.233 99.0082 114.021 98.7246 114.064 98.4185C114.358 96.3646 114.427 94.7347 113.322 93.2397C113.139 92.991 113.191 92.6405 113.44 92.4567ZM127.734 98.174C127.913 97.9217 128.262 97.8621 128.514 98.0408C130.401 99.377 131.976 101.728 131.159 104.749C131.078 105.048 130.771 105.224 130.472 105.144C130.174 105.063 129.997 104.756 130.078 104.457C130.732 102.035 129.512 100.119 127.867 98.9545C127.615 98.7758 127.555 98.4264 127.734 98.174Z" fill="#201A18"/>
<path fill-rule="evenodd" clip-rule="evenodd" d="M133.899 101.498C134.152 101.319 134.501 101.379 134.68 101.632C135.602 102.934 135.785 104.04 135.71 104.957C135.673 105.401 135.577 105.787 135.5 106.091C135.415 106.424 135.371 106.603 135.371 106.737C135.371 107.046 135.121 107.296 134.811 107.296C134.502 107.296 134.251 107.046 134.251 106.737C134.251 106.452 134.332 106.14 134.398 105.879C134.404 105.858 134.409 105.836 134.415 105.815C134.491 105.514 134.566 105.208 134.594 104.866C134.647 104.211 134.536 103.367 133.766 102.278C133.587 102.026 133.647 101.677 133.899 101.498Z" fill="#201A18"/>
<path fill-rule="evenodd" clip-rule="evenodd" d="M130.347 73.8981C126.551 73.6535 121.76 73.46 116.631 74.0428C116.324 74.0777 116.047 73.8569 116.012 73.5497C115.977 73.2425 116.198 72.9651 116.505 72.9302C121.734 72.336 126.604 72.5348 130.419 72.7807C131.096 72.8243 131.736 72.8691 132.339 72.9113C133.444 72.9887 134.422 73.0572 135.262 73.0926C135.908 73.12 136.456 73.1268 136.902 73.1044C137.358 73.0814 137.667 73.0294 137.857 72.9604C138.147 72.8547 138.469 73.0046 138.574 73.2952C138.68 73.5858 138.53 73.907 138.239 74.0127C137.89 74.1398 137.447 74.1981 136.959 74.2227C136.461 74.2477 135.874 74.2393 135.214 74.2114C134.36 74.1753 133.355 74.105 132.238 74.0268C131.638 73.9848 131.006 73.9406 130.347 73.8981Z" fill="#201A18"/>
<path fill-rule="evenodd" clip-rule="evenodd" d="M49.7529 89.0184C49.7091 88.7123 49.9218 88.4287 50.2279 88.3849C52.4339 88.0695 54.6393 88.6594 56.4719 89.4898C58.3076 90.3215 59.8214 91.4181 60.667 92.1886C60.8956 92.3969 60.912 92.751 60.7038 92.9796C60.4955 93.2081 60.1414 93.2246 59.9129 93.0163C59.1487 92.3201 57.7325 91.2903 56.0098 90.5097C54.2842 89.7278 52.3031 89.2193 50.3864 89.4934C50.0803 89.5372 49.7967 89.3245 49.7529 89.0184Z" fill="#201A18"/>
<path fill-rule="evenodd" clip-rule="evenodd" d="M101.91 161.003C102.004 160.709 102.319 160.545 102.613 160.639C108.812 162.604 113.761 167.876 117.537 172.091C117.783 172.366 118.024 172.636 118.259 172.9C119.856 174.689 121.211 176.209 122.373 177.168C123.041 177.72 123.582 178.032 124.015 178.13C124.396 178.217 124.699 178.144 125 177.843C127.753 175.09 129.797 171.123 130.468 169.493C130.586 169.207 130.913 169.07 131.199 169.188C131.485 169.306 131.622 169.633 131.504 169.919C130.802 171.624 128.688 175.738 125.791 178.635C125.209 179.217 124.51 179.392 123.766 179.222C123.073 179.064 122.366 178.615 121.66 178.032C120.427 177.013 119.005 175.418 117.421 173.642C117.185 173.378 116.946 173.109 116.703 172.838C112.901 168.594 108.14 163.566 102.275 161.706C101.98 161.613 101.817 161.298 101.91 161.003Z" fill="#201A18"/>
<path fill-rule="evenodd" clip-rule="evenodd" d="M102.009 111.991C102.195 112.239 102.145 112.59 101.897 112.775C100.853 113.559 100.09 114.886 99.5018 116.584C98.9159 118.275 98.5267 120.258 98.1774 122.28C98.1017 122.718 98.0278 123.159 97.9541 123.598C97.6908 125.168 97.4301 126.723 97.0988 128.1C96.6786 129.845 96.1201 131.423 95.2063 132.42C93.8629 133.886 92.2665 135.025 90.8799 135.787C90.1859 136.168 89.5356 136.459 88.986 136.651C88.4628 136.833 87.9541 136.952 87.5778 136.915C87.2701 136.884 87.0456 136.61 87.0764 136.302C87.1072 135.994 87.3815 135.77 87.6892 135.801C87.8034 135.812 88.1112 135.77 88.6178 135.593C89.0981 135.426 89.691 135.162 90.3408 134.805C91.6416 134.091 93.1349 133.023 94.3808 131.664C95.0854 130.895 95.5935 129.568 96.0101 127.837C96.3313 126.503 96.5832 125.001 96.8454 123.438C96.9202 122.993 96.9957 122.542 97.074 122.089C97.4236 120.065 97.8251 118.003 98.4438 116.217C99.0598 114.44 99.916 112.861 101.225 111.879C101.473 111.694 101.824 111.744 102.009 111.991ZM91.1454 127.686C91.4387 127.783 91.5972 128.1 91.4995 128.394C90.2961 132.004 88.6797 134.292 87.086 135.796C85.4971 137.295 83.9562 137.989 82.9653 138.435L82.9591 138.438C82.9519 138.441 82.9446 138.444 82.9373 138.447L78.5236 140.212C78.2365 140.327 77.9106 140.187 77.7958 139.9C77.681 139.613 77.8206 139.287 78.1077 139.173L82.5104 137.412C83.481 136.975 84.8744 136.343 86.3175 134.982C87.7643 133.617 89.2866 131.492 90.4372 128.04C90.535 127.746 90.852 127.588 91.1454 127.686Z" fill="#201A18"/>
<path fill-rule="evenodd" clip-rule="evenodd" d="M89.2033 106.261C89.4662 106.423 89.5474 106.768 89.3847 107.031C88.9385 107.752 88.5072 108.455 88.0897 109.135C86.7261 111.356 85.5096 113.338 84.4026 114.928C83.678 115.968 82.9873 116.86 82.3184 117.553C81.6543 118.241 80.9788 118.768 80.2777 119.031C79.9882 119.139 79.6655 118.993 79.5569 118.703C79.4484 118.414 79.595 118.091 79.8846 117.982C80.3605 117.804 80.8988 117.411 81.5128 116.775C82.1221 116.144 82.7739 115.307 83.4837 114.288C84.5705 112.727 85.7628 110.785 87.1217 108.571C87.5421 107.886 87.9785 107.175 88.4326 106.442C88.5953 106.179 88.9404 106.098 89.2033 106.261Z" fill="#201A18"/>
<path fill-rule="evenodd" clip-rule="evenodd" d="M119.494 134.498C119.762 134.652 119.856 134.994 119.702 135.262C119.099 136.318 118.595 136.963 118.14 137.373C117.667 137.799 117.269 137.95 116.942 138.055C116.92 138.062 116.899 138.069 116.879 138.075C116.612 138.161 116.494 138.199 116.347 138.334C116.174 138.494 115.936 138.825 115.615 139.61C114.964 141.201 114.118 142.254 112.82 143.009C111.559 143.743 109.904 144.173 107.7 144.614C107.397 144.675 107.102 144.478 107.041 144.175C106.98 143.872 107.177 143.577 107.48 143.516C109.69 143.074 111.175 142.671 112.257 142.041C113.302 141.433 114.002 140.595 114.579 139.186C114.92 138.353 115.233 137.838 115.589 137.511C115.925 137.201 116.269 137.093 116.522 137.014C116.549 137.005 116.574 136.997 116.598 136.99C116.841 136.911 117.078 136.823 117.391 136.541C117.722 136.243 118.156 135.71 118.73 134.707C118.883 134.438 119.225 134.345 119.494 134.498Z" fill="#201A18"/>
<path fill-rule="evenodd" clip-rule="evenodd" d="M103.743 70.4607C104.033 70.5687 104.18 70.8911 104.072 71.1809C103.303 73.2448 101.633 74.6251 99.5635 75.5009C97.4995 76.3745 94.9961 76.7668 92.456 76.8415C92.147 76.8506 91.889 76.6074 91.88 76.2983C91.8709 75.9893 92.114 75.7313 92.4231 75.7222C94.8852 75.6498 97.237 75.2697 99.127 74.4697C101.012 73.672 102.394 72.4777 103.023 70.7899C103.131 70.5002 103.453 70.3528 103.743 70.4607ZM91.0085 75.9962C91.1663 76.2622 91.0786 76.6056 90.8126 76.7634C86.4088 79.3758 82.9353 80.1763 80.4048 80.0595C77.9026 79.944 76.2482 78.916 75.6816 77.7828C75.5433 77.5062 75.6554 77.1699 75.932 77.0317C76.2085 76.8934 76.5448 77.0055 76.6831 77.2821C76.9993 77.9143 78.177 78.8357 80.4564 78.9409C82.7074 79.0448 85.9648 78.3373 90.2413 75.8003C90.5073 75.6426 90.8507 75.7303 91.0085 75.9962Z" fill="#201A18"/>
<path fill-rule="evenodd" clip-rule="evenodd" d="M82.7667 81.4801C82.8209 81.1757 83.1117 80.9729 83.4161 81.0272C84.761 81.2668 87.4045 81.9196 88.5481 82.2131C88.8476 82.2899 89.0281 82.595 88.9512 82.8945C88.8744 83.194 88.5692 83.3745 88.2697 83.2977C87.12 83.0026 84.5166 82.3607 83.2196 82.1296C82.9152 82.0753 82.7124 81.7845 82.7667 81.4801Z" fill="#201A18"/>
<path fill-rule="evenodd" clip-rule="evenodd" d="M93.6951 80.935C93.3881 80.187 92.9195 79.4439 91.9659 78.8793C91.6999 78.7218 91.6119 78.3784 91.7694 78.1123C91.9269 77.8463 92.2703 77.7583 92.5364 77.9158C93.7592 78.6398 94.3618 79.6104 94.7309 80.5098C94.8875 80.8913 95.0047 81.2673 95.1055 81.5908C95.1208 81.6399 95.1357 81.6878 95.1504 81.7343C95.2673 82.1061 95.3606 82.3726 95.4733 82.566C95.629 82.8332 95.5386 83.176 95.2714 83.3316C95.0043 83.4873 94.6615 83.3969 94.5058 83.1298C94.3205 82.8118 94.1945 82.4274 94.0822 82.0702C94.0664 82.0199 94.0507 81.9697 94.035 81.9194C93.9334 81.5937 93.8317 81.2678 93.6951 80.935Z" fill="#201A18"/>
<path fill-rule="evenodd" clip-rule="evenodd" d="M97.4963 76.9529C97.7757 76.8205 98.1096 76.9397 98.242 77.2191C99.0587 78.9423 99.9776 81.5186 99.6415 83.7494C99.4696 84.8904 98.9659 85.9605 97.9461 86.756C96.9369 87.5432 95.4817 88.0152 93.4908 88.0911C92.1476 88.1423 91.1646 87.8326 90.4221 87.2373C89.6969 86.6558 89.2653 85.8505 88.9225 85.0483C88.7902 84.7386 88.6652 84.4143 88.5427 84.0964C88.5064 84.0024 88.4704 83.9089 88.4345 83.8165C88.2744 83.405 88.1119 83.0039 87.9234 82.6183C87.5481 81.8502 87.0807 81.1662 86.3692 80.6408C86.1204 80.4572 86.0677 80.1066 86.2514 79.8579C86.435 79.6091 86.7856 79.5564 87.0343 79.7401C87.9412 80.4098 88.5082 81.2646 88.9295 82.1267C89.1393 82.5561 89.3156 82.9929 89.478 83.4105C89.517 83.5108 89.555 83.6093 89.5925 83.7065C89.7135 84.0205 89.8286 84.319 89.9522 84.6083C90.276 85.3662 90.6191 85.9599 91.1226 86.3637C91.6089 86.7536 92.3087 87.0156 93.4482 86.9722C95.2949 86.9018 96.4941 86.4685 97.2574 85.8731C98.0099 85.2861 98.3966 84.4965 98.5343 83.5826C98.8173 81.7038 98.0318 79.39 97.2302 77.6987C97.0977 77.4192 97.2169 77.0854 97.4963 76.9529Z" fill="#201A18"/>
<path fill-rule="evenodd" clip-rule="evenodd" d="M100.881 73.7002C101.169 73.8121 101.312 74.1364 101.2 74.4247L99.2592 79.4269C99.1474 79.7152 98.823 79.8582 98.5347 79.7463C98.2465 79.6344 98.1035 79.3101 98.2153 79.0218L100.157 74.0196C100.268 73.7313 100.593 73.5883 100.881 73.7002Z" fill="#201A18"/>
<path fill-rule="evenodd" clip-rule="evenodd" d="M87.6259 71.648C87.0501 72.0627 86.6605 72.5392 86.5017 73.0608C86.2636 73.8431 86.448 74.0054 86.4948 74.0424C86.554 74.0892 86.6668 74.1413 86.8714 74.1729C87.073 74.2041 87.3216 74.2091 87.6146 74.1959C87.8852 74.1838 88.1715 74.1576 88.4737 74.1299C88.4977 74.1277 88.5217 74.1255 88.5459 74.1233C88.868 74.0938 89.2076 74.0639 89.5305 74.0553C89.8513 74.0468 90.1829 74.0582 90.4878 74.1219C90.7921 74.1855 91.1127 74.3101 91.3642 74.5617C91.5829 74.7803 91.5829 75.1348 91.3642 75.3534C91.1456 75.5721 90.7911 75.5721 90.5724 75.3534C90.5297 75.3107 90.4412 75.2561 90.2587 75.2179C90.0768 75.1799 89.844 75.1671 89.5603 75.1747C89.2786 75.1822 88.9733 75.2086 88.6478 75.2384C88.6223 75.2407 88.5967 75.2431 88.5709 75.2454C88.2747 75.2726 87.9628 75.3012 87.6647 75.3146C87.3416 75.329 87.0086 75.3271 86.7005 75.2795C86.3953 75.2324 86.0701 75.134 85.8006 74.921C85.19 74.4384 85.1536 73.6444 85.4305 72.7348C85.6837 71.9028 86.2724 71.2429 86.9716 70.7394C87.6725 70.2347 88.5189 69.8612 89.36 69.6086C90.2023 69.3557 91.0635 69.2166 91.8075 69.1956C92.1795 69.1851 92.5326 69.2038 92.8454 69.257C93.151 69.3091 93.4546 69.4002 93.7 69.559C93.9596 69.727 94.0339 70.0736 93.8659 70.3332C93.698 70.5928 93.3514 70.6671 93.0918 70.4991C93.0246 70.4556 92.8872 70.4001 92.6574 70.3609C92.4347 70.323 92.1578 70.3059 91.8391 70.3149C91.2014 70.3329 90.4379 70.4541 89.682 70.6811C88.925 70.9084 88.1999 71.2347 87.6259 71.648ZM93.7945 70.4912C94.0673 70.3457 94.4064 70.4489 94.552 70.7218C94.8708 71.3196 95.0116 71.8621 94.8646 72.3554C94.7172 72.8503 94.3265 73.1301 94.0265 73.3122C93.9178 73.3781 93.796 73.4451 93.6847 73.5063C93.6413 73.5302 93.5994 73.5533 93.5606 73.575C93.4111 73.6587 93.278 73.7381 93.1586 73.8259C92.9283 73.9953 92.7645 74.1842 92.681 74.4585C92.5909 74.7543 92.2781 74.9211 91.9823 74.8311C91.6865 74.7411 91.5197 74.4283 91.6097 74.1325C91.7837 73.5608 92.1348 73.1888 92.4952 72.9238C92.6713 72.7943 92.8525 72.6881 93.0137 72.5979C93.0692 72.5668 93.1204 72.5387 93.1685 72.5122C93.2699 72.4565 93.3581 72.4079 93.4458 72.3548C93.7066 72.1966 93.7711 72.104 93.7915 72.0357C93.8123 71.9658 93.8336 71.7543 93.5639 71.2487C93.4184 70.9759 93.5216 70.6367 93.7945 70.4912Z" fill="#201A18"/>
<path fill-rule="evenodd" clip-rule="evenodd" d="M79.1702 67.2408C79.6132 67.1034 80.0837 67.351 80.2212 67.794L80.8832 69.9273C81.0207 70.3703 80.7731 70.8408 80.3301 70.9783C79.8871 71.1158 79.4166 70.8681 79.2791 70.4251L78.617 68.2918C78.4796 67.8489 78.7272 67.3783 79.1702 67.2408Z" fill="#201A18"/>
<path fill-rule="evenodd" clip-rule="evenodd" d="M95.3942 62.7892C95.8372 62.6517 96.3078 62.8994 96.4452 63.3423L97.1073 65.4756C97.2448 65.9186 96.9971 66.3892 96.5541 66.5266C96.1112 66.6641 95.6406 66.4165 95.5031 65.9735L94.8411 63.8402C94.7036 63.3972 94.9513 62.9267 95.3942 62.7892Z" fill="#201A18"/>
<path fill-rule="evenodd" clip-rule="evenodd" d="M74.3143 59.9467C74.5605 60.1338 74.6084 60.485 74.4213 60.7312C73.7751 61.5814 73.3086 62.6503 72.9907 63.6276C72.6735 64.6029 72.5163 65.4496 72.4718 65.8279C72.4357 66.135 72.1575 66.3547 71.8504 66.3185C71.5433 66.2824 71.3236 66.0042 71.3597 65.6971C71.4133 65.2417 71.5871 64.3229 71.9259 63.2813C72.264 62.2418 72.7783 61.0425 73.5298 60.0537C73.7169 59.8075 74.0681 59.7596 74.3143 59.9467Z" fill="#201A18"/>
<path fill-rule="evenodd" clip-rule="evenodd" d="M97.0367 55.1511C97.0876 54.8461 97.376 54.64 97.681 54.6908C99.1814 54.9409 100.5 55.9256 101.531 57.0426C102.57 58.1677 103.375 59.4894 103.838 60.5329C103.964 60.8154 103.837 61.1463 103.554 61.2719C103.272 61.3975 102.941 61.2702 102.815 60.9876C102.396 60.045 101.656 58.8288 100.709 57.8021C99.7535 56.7674 98.6447 55.9867 97.4969 55.7954C97.1919 55.7445 96.9859 55.4561 97.0367 55.1511Z" fill="#201A18"/>
<path fill-rule="evenodd" clip-rule="evenodd" d="M46.6211 152.396C46.7556 152.118 47.0903 152.001 47.3687 152.135C51.751 154.251 53.8846 156.947 54.9578 159.404C55.763 161.247 55.9688 162.996 56.0976 164.091C56.1365 164.421 56.1683 164.692 56.2075 164.888C56.2682 165.191 56.0715 165.486 55.7683 165.547C55.4651 165.607 55.1702 165.411 55.1095 165.108C55.051 164.815 55.0101 164.47 54.9638 164.079C54.8333 162.98 54.6601 161.519 53.9317 159.852C52.9697 157.65 51.0329 155.147 46.8819 153.144C46.6035 153.009 46.4867 152.674 46.6211 152.396Z" fill="#201A18"/>
<path fill-rule="evenodd" clip-rule="evenodd" d="M90.2973 85.6345C90.3526 85.9387 90.1508 86.2301 89.8466 86.2855C89.8301 86.2884 89.813 86.2916 89.7953 86.2948C88.653 86.5028 84.9894 87.1698 81.1887 86.6948C80.8819 86.6564 80.6643 86.3766 80.7026 86.0698C80.741 85.7629 81.0208 85.5453 81.3276 85.5837C84.9563 86.0372 88.4821 85.3956 89.606 85.1911C89.6198 85.1886 89.6332 85.1861 89.6463 85.1838C89.9505 85.1285 90.242 85.3302 90.2973 85.6345Z" fill="#201A18"/>
<path fill-rule="evenodd" clip-rule="evenodd" d="M102.706 31.1565C101.416 31.0179 100.145 31.1922 99.2847 31.4332C98.9869 31.5166 98.678 31.3428 98.5946 31.045C98.5112 30.7472 98.685 30.4383 98.9828 30.3549C99.9611 30.081 101.375 29.8874 102.826 30.0431C104.276 30.1988 105.815 30.7107 106.966 31.9028C107.181 32.1253 107.175 32.4797 106.952 32.6945C106.73 32.9093 106.376 32.9031 106.161 32.6806C105.252 31.7394 103.996 31.295 102.706 31.1565ZM88.439 34.0685C88.7412 32.8596 90.4479 31.3356 93.1831 31.7378C93.489 31.7828 93.7006 32.0673 93.6556 32.3732C93.6106 32.6791 93.3261 32.8906 93.0202 32.8456C90.7532 32.5122 89.6645 33.7836 89.5253 34.3401C89.4503 34.6401 89.1464 34.8225 88.8464 34.7475C88.5464 34.6725 88.364 34.3685 88.439 34.0685ZM102.114 37.9328C101.226 38.0367 100.536 38.4371 100.087 38.8225C99.8518 39.0237 99.4984 38.9965 99.2972 38.7617C99.0959 38.527 99.1231 38.1735 99.3579 37.9723C99.9382 37.4749 100.83 36.9558 101.984 36.8206C103.147 36.6843 104.526 36.9449 106.056 37.926C106.317 38.0929 106.393 38.4392 106.226 38.6995C106.059 38.9598 105.713 39.0356 105.452 38.8687C104.114 38.0108 102.992 37.83 102.114 37.9328ZM89.8693 39.6387C89.7189 39.7944 89.5346 39.9854 89.3465 40.1466C89.1118 40.3478 88.7583 40.3206 88.5571 40.0858C88.3559 39.8511 88.383 39.4976 88.6178 39.2964C88.7693 39.1665 88.8812 39.0499 89.0068 38.919C89.0831 38.8393 89.1646 38.7544 89.263 38.6581C89.499 38.4272 89.7862 38.1857 90.1881 38.0311C90.9878 37.7236 92.0589 37.8271 93.807 38.4594C94.0978 38.5645 94.2483 38.8855 94.1431 39.1763C94.0379 39.4671 93.7169 39.6175 93.4262 39.5124C91.7169 38.8941 90.9857 38.9241 90.59 39.0762C90.3942 39.1516 90.2355 39.2732 90.0461 39.4585C89.9956 39.5079 89.9357 39.5699 89.8693 39.6387Z" fill="#201A18"/>
<path fill-rule="evenodd" clip-rule="evenodd" d="M102.807 46.1123C102.934 46.3943 102.809 46.7257 102.527 46.8526C100.281 47.8631 97.7935 48.649 95.533 49.0805C93.2962 49.5074 91.1955 49.6045 89.7706 49.1566C89.4756 49.0639 89.3116 48.7496 89.4043 48.4546C89.497 48.1597 89.8113 47.9957 90.1063 48.0884C91.256 48.4497 93.1277 48.3996 95.3231 47.9806C97.4946 47.5661 99.8988 46.8073 102.067 45.8315C102.349 45.7046 102.681 45.8304 102.807 46.1123Z" fill="#201A18"/>
<path fill-rule="evenodd" clip-rule="evenodd" d="M93.7506 41.1263C93.9497 41.3629 93.9195 41.7161 93.6829 41.9152C93.3812 42.1693 93.2372 42.3845 93.1765 42.5465C93.1204 42.6965 93.1256 42.8246 93.1741 42.9516C93.2865 43.246 93.6669 43.6065 94.3612 43.9189C94.6432 44.0458 94.7689 44.3772 94.642 44.6592C94.5151 44.9412 94.1837 45.0669 93.9017 44.94C93.1247 44.5904 92.4018 44.0681 92.128 43.351C91.9834 42.9723 91.9748 42.5625 92.1279 42.1538C92.2764 41.7573 92.5646 41.3931 92.9617 41.0587C93.1982 40.8596 93.5514 40.8898 93.7506 41.1263Z" fill="#201A18"/>
</svg>
