<svg width="278" height="280" viewBox="0 0 278 280" fill="none" xmlns="http://www.w3.org/2000/svg">
<path fill-rule="evenodd" clip-rule="evenodd" d="M133.156 58.2619C133.574 58.0167 134.112 58.157 134.357 58.5752C138.197 65.1267 138.656 70.6394 138.204 75.5029C138.027 77.4048 137.709 79.2187 137.41 80.9244C137.331 81.3728 137.254 81.8136 137.181 82.2466C136.825 84.3519 136.567 86.285 136.67 88.1548C136.755 89.6712 136.942 91.0646 137.132 92.4716C137.184 92.8582 137.236 93.2458 137.287 93.6372C137.518 95.4381 137.701 97.2855 137.591 99.3392C137.369 103.473 135.966 108.315 131.636 115.366C131.382 115.779 130.842 115.908 130.428 115.655C130.015 115.401 129.886 114.86 130.14 114.447C134.367 107.564 135.637 103.005 135.838 99.2452C135.94 97.3523 135.773 95.6302 135.545 93.8608C135.498 93.4915 135.448 93.1185 135.397 92.7409C135.206 91.3249 135.006 89.8443 134.918 88.2522C134.802 86.1722 135.092 84.0732 135.45 81.9544C135.527 81.4992 135.606 81.0435 135.687 80.5858C135.984 78.8884 136.286 77.1644 136.456 75.3403C136.881 70.7682 136.463 65.6385 132.842 59.463C132.597 59.0448 132.738 58.507 133.156 58.2619ZM127.603 121.259C128.01 121.522 128.127 122.065 127.864 122.472C126.182 125.075 124.76 127.78 123.459 130.256C122.996 131.137 122.549 131.989 122.11 132.797C121.285 134.317 120.485 135.692 119.683 136.763C118.898 137.811 118.02 138.696 116.999 139.06C116.542 139.223 116.04 138.986 115.877 138.529C115.714 138.073 115.952 137.57 116.408 137.407C116.923 137.223 117.54 136.695 118.277 135.711C118.998 134.748 119.748 133.469 120.568 131.959C120.985 131.19 121.419 130.364 121.874 129.499C123.183 127.007 124.661 124.194 126.389 121.52C126.652 121.112 127.196 120.996 127.603 121.259Z" fill="#201A18"/>
<path fill-rule="evenodd" clip-rule="evenodd" d="M68.9023 137.835C69.2435 137.491 69.7992 137.489 70.1436 137.83C72.2327 139.9 73.1819 140.403 73.9463 140.498C74.342 140.546 74.757 140.495 75.3781 140.37C75.513 140.343 75.6574 140.313 75.8112 140.28C76.3412 140.169 76.9842 140.033 77.7458 139.93C78.8155 139.784 79.6109 139.89 80.2812 140.143C80.7542 140.321 81.1762 140.587 81.4936 140.788C81.586 140.846 81.6695 140.899 81.7428 140.942C82.0957 141.151 82.4226 141.296 82.9088 141.325C83.4231 141.357 84.1819 141.261 85.3816 140.847C86.7535 140.373 87.848 140.296 88.7875 140.474C89.7159 140.649 90.4136 141.062 90.9684 141.402C90.9926 141.417 91.0165 141.431 91.0401 141.446C91.5865 141.781 91.9489 142.003 92.3764 142.098C92.7717 142.185 93.305 142.174 94.1528 141.787C95.4359 141.201 96.3432 140.878 97.0178 140.664C97.2545 140.59 97.4673 140.527 97.6456 140.474C97.7151 140.454 97.7794 140.435 97.8377 140.417C98.0585 140.351 98.1974 140.305 98.3059 140.257C98.4643 140.188 98.5857 140.11 98.8038 139.822C99.0554 139.489 99.3717 138.96 99.9273 138.01C100.172 137.592 100.71 137.451 101.128 137.696C101.547 137.94 101.687 138.478 101.443 138.896C100.908 139.81 100.533 140.445 100.204 140.88C99.8424 141.359 99.4951 141.653 99.0088 141.866C98.7949 141.959 98.5674 142.031 98.3418 142.099C98.2704 142.12 98.1984 142.142 98.1243 142.163C97.9513 142.214 97.7663 142.269 97.5471 142.338C96.9375 142.531 96.0971 142.829 94.8819 143.384C93.7666 143.893 92.842 143.999 91.9972 143.812C91.2687 143.651 90.6639 143.277 90.1792 142.977C90.1356 142.951 90.093 142.924 90.0513 142.899C89.5144 142.57 89.0509 142.31 88.4611 142.199C87.8826 142.089 87.1021 142.11 85.9549 142.506C84.6353 142.962 83.6322 143.128 82.8023 143.078C81.9443 143.026 81.3448 142.746 80.8496 142.453C80.6902 142.359 80.5567 142.275 80.4362 142.199C80.1616 142.026 79.9546 141.896 79.6625 141.786C79.3018 141.65 78.8052 141.557 77.9823 141.669C77.2904 141.763 76.7301 141.881 76.2081 141.991C76.0436 142.026 75.883 142.06 75.7231 142.092C75.0774 142.221 74.4261 142.326 73.7315 142.24C72.3153 142.065 70.9879 141.138 68.9079 139.077C68.5636 138.735 68.5611 138.18 68.9023 137.835Z" fill="#201A18"/>
<path fill-rule="evenodd" clip-rule="evenodd" d="M71.732 104.973C71.4314 104.518 71.0839 104.012 70.6901 103.546C69.7187 102.396 68.2553 101.258 66.2128 101.842C64.9568 102.201 64.2687 103.347 63.9031 104.311C63.6707 104.924 63.5275 105.568 63.4514 106.131C63.1121 106.107 62.6883 106.099 62.2496 106.186C61.7781 106.281 61.2805 106.488 60.8459 106.902C60.4142 107.313 60.0985 107.878 59.9018 108.599C59.8001 108.972 59.7555 109.497 59.7395 110.073C59.7228 110.67 59.7358 111.395 59.7763 112.206C59.8572 113.829 60.0499 115.832 60.3502 117.917C60.6504 120.001 61.0601 122.181 61.5786 124.155C62.0935 126.116 62.7296 127.929 63.5029 129.243C65.696 132.971 68.0093 137.315 68.7156 139.01C68.902 139.458 69.4159 139.669 69.8634 139.483C70.3108 139.296 70.5224 138.783 70.336 138.335C69.5794 136.519 67.2118 132.086 65.016 128.353C64.3645 127.246 63.7772 125.616 63.2764 123.709C62.7792 121.816 62.3812 119.704 62.0877 117.666C61.7943 115.629 61.6075 113.681 61.5295 112.118C61.4905 111.336 61.4792 110.66 61.4942 110.122C61.5098 109.562 61.5528 109.217 61.5954 109.061C61.7278 108.576 61.9058 108.317 62.0569 108.173C62.2052 108.032 62.3797 107.951 62.5939 107.908C62.8202 107.863 63.0765 107.863 63.3674 107.885C63.4352 107.89 63.5206 107.898 63.614 107.907C63.8269 107.928 64.0808 107.952 64.2596 107.952C64.7444 107.952 65.1373 107.559 65.1373 107.075C65.1373 106.583 65.2489 105.713 65.5445 104.933C65.8541 104.117 66.2632 103.653 66.6951 103.53C67.7244 103.236 68.5284 103.707 69.3491 104.679C69.7568 105.161 70.1169 105.71 70.4713 106.252C70.4838 106.271 70.4963 106.29 70.5088 106.309C70.8277 106.797 71.1805 107.337 71.5385 107.695C71.7895 107.946 72.1671 108.021 72.495 107.885C72.823 107.75 73.0369 107.43 73.0369 107.075C73.0369 106.608 73.1656 105.905 73.5162 105.348C73.837 104.839 74.3409 104.441 75.2312 104.441C75.4859 104.441 75.9551 104.646 76.6292 105.275C77.2622 105.866 77.9276 106.689 78.5646 107.584C79.5285 108.937 80.3513 110.34 80.8736 111.231C81.0473 111.527 81.1877 111.766 81.2891 111.928C81.5138 112.288 81.9633 112.435 82.3573 112.279C82.7513 112.123 82.9772 111.707 82.8941 111.291C82.7954 110.798 82.9141 110.466 83.1575 110.236C83.4348 109.974 84.0186 109.708 85.1054 109.708C85.4315 109.708 85.8373 109.852 86.3398 110.28C86.8445 110.709 87.3879 111.377 87.9639 112.295C89.1152 114.13 90.2972 116.804 91.524 120.107C91.524 120.107 91.524 120.107 91.524 120.107L91.5434 120.159L91.5681 120.226C92.9678 123.994 94.0919 127.021 95.7589 129.643C97.457 132.314 99.6966 134.537 103.292 136.784C104.942 137.815 105.965 138.936 106.549 140.123C107.133 141.309 107.315 142.632 107.163 144.125C106.854 147.166 105.186 150.75 102.981 154.941C102.755 155.37 102.92 155.9 103.348 156.126C103.777 156.352 104.308 156.187 104.534 155.758C106.717 151.611 108.56 147.734 108.909 144.302C109.087 142.558 108.884 140.891 108.124 139.348C107.365 137.806 106.084 136.459 104.222 135.295C100.812 133.164 98.7761 131.117 97.2402 128.701C95.6829 126.252 94.6179 123.395 93.189 119.548L93.1697 119.496C91.9327 116.166 90.7008 113.354 89.4509 111.362C88.8262 110.366 88.1721 109.534 87.4776 108.943C86.7811 108.35 85.9862 107.952 85.1054 107.952C83.7785 107.952 82.6799 108.272 81.9515 108.96C81.8664 109.041 81.7881 109.125 81.7165 109.211C81.2335 108.414 80.6354 107.466 79.9946 106.566C79.3297 105.632 78.5853 104.699 77.8268 103.992C77.1093 103.322 76.2053 102.686 75.2312 102.686C73.6639 102.686 72.6317 103.459 72.0309 104.412C71.916 104.595 71.8169 104.783 71.732 104.973Z" fill="#201A18"/>
<path fill-rule="evenodd" clip-rule="evenodd" d="M72.1261 107.331C72.5904 107.192 73.0797 107.455 73.219 107.92C74.1679 111.082 75.4614 117.317 76.3547 121.623C76.7097 123.334 77.0015 124.741 77.1833 125.529C77.4285 126.591 78.0782 128.34 78.8187 130.144C79.5514 131.928 80.3466 133.704 80.8538 134.791C81.0588 135.23 80.8689 135.752 80.4296 135.957C79.9903 136.162 79.468 135.972 79.263 135.533C78.7462 134.426 77.9396 132.624 77.1948 130.81C76.4578 129.015 75.7543 127.143 75.4728 125.924C75.2752 125.067 74.969 123.591 74.602 121.821C73.7117 117.529 72.4633 111.51 71.5376 108.424C71.3983 107.96 71.6618 107.47 72.1261 107.331ZM81.5905 113.467C82.0593 113.344 82.5393 113.624 82.6627 114.092C83.4294 117.006 83.7827 119.419 84.085 121.483C84.2187 122.397 84.3424 123.242 84.4875 124.032C84.9625 126.618 85.686 128.838 87.7759 131.555C88.656 132.699 89.2745 133.524 89.6944 134.104C90.0981 134.663 90.3544 135.043 90.4692 135.27C90.4932 135.318 90.553 135.437 90.5814 135.582C90.5925 135.639 90.6317 135.848 90.5385 136.088C90.484 136.229 90.3835 136.381 90.2198 136.496C90.0599 136.608 89.8945 136.646 89.7683 136.655C89.548 136.67 89.3827 136.598 89.3341 136.576C89.2638 136.545 89.2087 136.511 89.1758 136.489C89.1084 136.444 89.0486 136.395 89.0055 136.358C88.8362 136.211 88.6092 135.974 88.4081 135.755C88.2187 135.548 88.1469 135.276 88.1891 135.019C87.7854 134.464 87.2022 133.688 86.3845 132.625C84.0858 129.637 83.2733 127.139 82.7609 124.349C82.5972 123.458 82.4661 122.559 82.3283 121.615C82.033 119.592 81.7071 117.359 80.965 114.539C80.8417 114.07 81.1217 113.59 81.5905 113.467ZM88.9028 136.063C88.9082 136.073 88.9066 136.072 88.9014 136.06C88.9019 136.061 88.9024 136.062 88.9028 136.063Z" fill="#201A18"/>
<path fill-rule="evenodd" clip-rule="evenodd" d="M64.0674 107.974C64.5404 107.868 65.0098 108.165 65.1158 108.638C65.941 112.32 66.4912 115.269 66.9614 117.79C68.1379 124.097 68.8136 127.719 72.0445 133.412C72.2838 133.834 72.136 134.369 71.7144 134.609C71.2928 134.848 70.7571 134.7 70.5178 134.278C67.1337 128.316 66.3943 124.352 65.1903 117.898C64.7242 115.399 64.1885 112.527 63.4029 109.022C63.2969 108.549 63.5944 108.08 64.0674 107.974Z" fill="#201A18"/>
<path fill-rule="evenodd" clip-rule="evenodd" d="M63.3615 126.385C63.8462 126.374 64.248 126.758 64.259 127.242C64.3104 129.504 64.1796 131.444 64.0682 133.097C64.0584 133.241 64.0488 133.384 64.0395 133.524C63.9217 135.296 63.8562 136.657 64.0502 137.808C64.2358 138.91 64.6579 139.8 65.5458 140.621C66.4648 141.471 67.9237 142.284 70.2581 143.112C73.4042 144.228 76.0125 146.329 78.3676 148.225C78.6878 148.483 79.0034 148.737 79.3149 148.984C81.9954 151.112 84.351 152.716 87.0802 152.716C87.5649 152.716 87.9579 153.109 87.9579 153.594C87.9579 154.079 87.5649 154.472 87.0802 154.472C83.6653 154.472 80.8642 152.455 78.2235 150.359C77.9 150.102 77.5781 149.844 77.2565 149.585C74.8763 147.673 72.5152 145.775 69.6711 144.766C67.2446 143.905 65.5276 142.995 64.354 141.91C63.1491 140.796 62.5617 139.539 62.3192 138.1C62.085 136.711 62.1728 135.14 62.2879 133.408C62.2972 133.268 62.3067 133.127 62.3163 132.985C62.4278 131.328 62.5535 129.462 62.504 127.282C62.493 126.798 62.8769 126.396 63.3615 126.385Z" fill="#201A18"/>
<path fill-rule="evenodd" clip-rule="evenodd" d="M77.1955 150.108C77.6663 150.224 77.9543 150.699 77.8388 151.17C74.9485 162.954 68.4017 174.032 62.2026 183.797C61.3203 185.187 60.446 186.549 59.59 187.882C57.4262 191.252 55.3789 194.441 53.6124 197.445C51.145 201.642 49.2781 205.395 48.4324 208.671C48.3113 209.141 47.8326 209.423 47.3632 209.302C46.8939 209.181 46.6115 208.702 46.7327 208.233C47.6425 204.707 49.6156 200.78 52.0991 196.555C53.8843 193.519 55.9605 190.286 58.1322 186.903C58.9842 185.576 59.8509 184.227 60.7206 182.857C66.9193 173.092 73.319 162.228 76.1339 150.752C76.2494 150.281 76.7247 149.993 77.1955 150.108Z" fill="#201A18"/>
<path fill-rule="evenodd" clip-rule="evenodd" d="M103.064 157.125C103.538 157.227 103.84 157.694 103.737 158.168C99.5661 177.487 95.061 195.95 90.5504 210.252C88.2958 217.401 86.0325 223.534 83.7994 228.222C82.6828 230.566 81.5654 232.567 80.4499 234.159C79.3407 235.743 78.1987 236.973 77.0162 237.72C72.6863 240.455 67.3133 241.708 62.7509 242.055C60.4635 242.228 58.352 242.176 56.6436 241.958C55.7899 241.849 55.0229 241.697 54.378 241.504C53.7473 241.315 53.1726 241.07 52.7511 240.745C52.6282 240.65 52.4869 240.543 52.3291 240.423C50.7069 239.195 47.3408 236.648 44.3286 232.276C41.0143 227.466 38.1427 220.477 38.3666 210.626C38.5412 202.945 38.1216 195.693 37.6387 189.694C37.4523 187.38 37.2549 185.237 37.0788 183.326C36.8019 180.321 36.5778 177.889 36.5326 176.262C36.5192 175.778 36.9011 175.374 37.3856 175.36C37.8702 175.347 38.2739 175.729 38.2874 176.213C38.3312 177.79 38.5464 180.122 38.8178 183.064C38.9948 184.982 39.1956 187.158 39.3885 189.553C39.8738 195.581 40.2981 202.9 40.1216 210.666C39.9066 220.126 42.6569 226.756 45.7741 231.28C48.6201 235.41 51.784 237.808 53.3952 239.028C53.5539 239.149 53.6976 239.258 53.8243 239.355C53.9986 239.49 54.3372 239.659 54.8809 239.822C55.4104 239.98 56.0791 240.116 56.8662 240.217C58.4396 240.418 60.4306 240.47 62.618 240.304C67.005 239.971 72.0703 238.768 76.0788 236.236C76.9809 235.666 77.9646 234.648 79.012 233.152C80.053 231.666 81.1231 229.758 82.2146 227.467C84.3975 222.884 86.6326 216.838 88.8763 209.724C93.3624 195.5 97.854 177.098 102.021 157.797C102.124 157.324 102.591 157.022 103.064 157.125Z" fill="#201A18"/>
<path fill-rule="evenodd" clip-rule="evenodd" d="M200.048 173.322C200.915 174.924 201.907 176.76 203.051 178.846C203.284 179.271 203.129 179.804 202.704 180.037C202.279 180.27 201.745 180.115 201.512 179.69C200.33 177.533 199.316 175.66 198.442 174.044C196.539 170.526 195.293 168.223 194.391 166.861C194.067 166.371 193.812 166.042 193.61 165.835C193.544 165.766 193.49 165.719 193.45 165.687C193.382 165.765 193.288 165.896 193.166 166.105C192.61 167.057 191.887 169.08 191.194 171.32C190.512 173.525 189.891 175.835 189.529 177.286C189.435 177.661 189.108 177.93 188.722 177.95C187.379 178.019 185.167 178.375 182.987 179.219C180.796 180.067 178.746 181.365 177.572 183.244C177.315 183.655 176.774 183.78 176.363 183.523C175.951 183.266 175.826 182.724 176.083 182.313C177.542 179.979 179.991 178.497 182.353 177.582C184.409 176.786 186.483 176.388 187.982 176.245C188.359 174.78 188.914 172.753 189.517 170.802C190.199 168.595 190.976 166.375 191.649 165.221C191.855 164.867 192.1 164.511 192.407 164.257C192.749 163.975 193.205 163.793 193.733 163.906C194.193 164.005 194.568 164.302 194.869 164.611C195.182 164.934 195.507 165.366 195.855 165.891C196.802 167.322 198.108 169.737 200.048 173.322Z" fill="#201A18"/>
<path fill-rule="evenodd" clip-rule="evenodd" d="M149.354 216.415C149.446 216.588 149.554 216.831 149.674 217.154C150.064 218.201 150.459 219.765 150.814 221.486C151.527 224.942 152.032 228.79 152.032 229.956C152.032 230.581 152.16 231.416 152.295 232.297C152.314 232.425 152.334 232.555 152.354 232.684C152.514 233.747 152.679 234.942 152.718 236.196C152.797 238.708 152.371 241.358 150.49 243.536C148.563 245.767 145.209 247.487 141.666 248.578C138.13 249.667 134.583 250.076 132.385 249.821C131.903 249.765 131.467 250.11 131.411 250.591C131.355 251.073 131.7 251.508 132.182 251.564C134.701 251.857 138.505 251.389 142.183 250.256C145.854 249.125 149.576 247.28 151.819 244.683C154.107 242.034 154.558 238.869 154.473 236.141C154.43 234.777 154.252 233.496 154.09 232.422C154.07 232.289 154.05 232.16 154.031 232.035C153.891 231.118 153.788 230.437 153.788 229.956C153.788 228.599 153.25 224.603 152.533 221.131C152.174 219.389 151.757 217.719 151.32 216.542C151.108 215.971 150.859 215.428 150.56 215.056C150.413 214.874 150.183 214.642 149.853 214.53C149.473 214.402 149.091 214.475 148.789 214.684C147.674 215.383 146.346 216.551 145.073 217.789C143.964 218.867 142.863 220.031 141.933 221.055C141.763 220.966 141.575 220.866 141.372 220.758C139.921 219.986 137.66 218.783 135.1 217.989C131.659 216.921 127.442 216.494 123.319 218.645C122.89 218.87 122.723 219.4 122.947 219.83C123.172 220.259 123.702 220.426 124.132 220.202C127.689 218.345 131.382 218.673 134.58 219.665C136.958 220.403 138.935 221.454 140.387 222.227C140.92 222.51 141.382 222.756 141.767 222.935C142.117 223.097 142.533 223.012 142.79 222.724C143.789 221.61 145.042 220.268 146.297 219.047C147.398 217.976 148.469 217.032 149.354 216.415Z" fill="#201A18"/>
<path fill-rule="evenodd" clip-rule="evenodd" d="M168.215 177.505C170.416 178.168 173.763 179.761 177.95 181.8C178.385 182.012 178.567 182.538 178.354 182.974C178.142 183.409 177.617 183.591 177.181 183.378C172.94 181.313 169.742 179.799 167.708 179.186C167.207 179.035 166.809 178.949 166.505 178.918C166.281 178.895 166.148 178.907 166.077 178.92C166.073 178.995 166.08 179.139 166.141 179.378C166.315 180.066 166.725 180.952 167.294 181.953C167.857 182.941 168.545 183.989 169.235 184.99C169.748 185.732 170.254 186.438 170.709 187.073C170.869 187.295 171.022 187.509 171.167 187.712C171.695 188.454 172.171 189.134 172.361 189.54C172.566 189.979 172.377 190.501 171.937 190.707C171.498 190.912 170.976 190.722 170.771 190.283C170.666 190.06 170.313 189.539 169.737 188.731C169.597 188.535 169.448 188.326 169.29 188.107C168.833 187.469 168.313 186.744 167.791 185.987C167.088 184.968 166.367 183.873 165.769 182.821C165.177 181.782 164.672 180.731 164.439 179.809C164.32 179.342 164.268 178.851 164.391 178.399C164.529 177.893 164.866 177.516 165.339 177.317C165.761 177.14 166.236 177.126 166.682 177.172C167.141 177.218 167.657 177.337 168.215 177.505Z" fill="#201A18"/>
<path fill-rule="evenodd" clip-rule="evenodd" d="M116.663 213.045C118.245 214.422 120.2 217.22 122.514 221.294C122.753 221.716 122.605 222.251 122.184 222.491C121.762 222.73 121.227 222.582 120.987 222.161C118.672 218.084 116.843 215.529 115.511 214.369C114.82 213.768 114.459 213.716 114.35 213.731C114.326 213.735 114.105 213.767 113.856 214.44C113.618 215.088 113.454 216.218 113.361 217.667C113.27 219.086 113.251 220.718 113.261 222.312C113.268 223.495 113.291 224.646 113.312 225.668C113.319 226.023 113.326 226.362 113.331 226.681C113.342 227.298 113.349 227.844 113.346 228.282C113.343 228.697 113.332 229.081 113.29 229.332C113.211 229.81 112.759 230.133 112.281 230.054C111.803 229.975 111.479 229.523 111.559 229.045C111.574 228.953 111.588 228.708 111.591 228.27C111.594 227.856 111.587 227.328 111.576 226.713C111.571 226.4 111.564 226.065 111.557 225.713C111.536 224.689 111.513 223.52 111.505 222.323C111.495 220.714 111.514 219.035 111.609 217.554C111.702 216.102 111.874 214.743 112.209 213.833C112.536 212.948 113.112 212.132 114.107 211.993C115.017 211.866 115.897 212.378 116.663 213.045Z" fill="#201A18"/>
<path fill-rule="evenodd" clip-rule="evenodd" d="M171.629 192.008C172.106 191.924 172.561 192.243 172.645 192.721C173.144 195.559 173.876 197.841 175.186 199.695C176.486 201.534 178.406 203.027 181.413 204.192C181.865 204.367 182.089 204.875 181.914 205.327C181.739 205.779 181.231 206.004 180.779 205.829C177.519 204.566 175.29 202.884 173.753 200.708C172.226 198.548 171.434 195.974 170.916 193.024C170.832 192.547 171.152 192.092 171.629 192.008Z" fill="#201A18"/>
<path fill-rule="evenodd" clip-rule="evenodd" d="M113.066 228.447C113.527 228.596 113.781 229.09 113.632 229.552C112.744 232.304 111.857 236.34 113.164 240.177C114.445 243.937 117.921 247.742 126.278 249.885C126.748 250.005 127.031 250.483 126.911 250.953C126.79 251.422 126.312 251.705 125.842 251.585C117.084 249.339 113.026 245.214 111.503 240.743C110.006 236.35 111.045 231.854 111.961 229.013C112.11 228.551 112.605 228.298 113.066 228.447Z" fill="#201A18"/>
<path fill-rule="evenodd" clip-rule="evenodd" d="M197.484 201.968C197.773 202.357 197.691 202.907 197.302 203.196C197.302 203.195 197.3 203.197 197.296 203.2C197.292 203.203 197.286 203.208 197.279 203.214C197.264 203.227 197.244 203.244 197.219 203.267C197.186 203.296 197.152 203.327 197.112 203.364C197.087 203.387 197.058 203.413 197.026 203.442C196.869 203.585 196.663 203.769 196.405 203.972C195.888 204.38 195.174 204.86 194.211 205.283C192.276 206.131 189.407 206.717 185.207 206.135C184.727 206.068 184.391 205.625 184.458 205.145C184.524 204.665 184.968 204.329 185.448 204.396C189.369 204.94 191.905 204.377 193.506 203.675C194.754 203.127 195.409 202.534 195.864 202.121C196.011 201.988 196.137 201.874 196.256 201.786C196.645 201.497 197.195 201.578 197.484 201.968Z" fill="#201A18"/>
<path fill-rule="evenodd" clip-rule="evenodd" d="M183.224 149.782C183.736 149.201 184.604 148.876 185.824 148.876C186.726 148.876 187.736 149.217 188.757 149.739C189.794 150.269 190.919 151.026 192.072 151.949C194.378 153.797 196.855 156.361 199.034 159.266C200.193 160.812 201.121 163.036 202.006 165.597C202.546 167.16 203.087 168.905 203.66 170.75C204.026 171.93 204.405 173.151 204.804 174.39C206.862 180.781 209.529 187.915 214.122 194.031C217.342 196.912 221.783 202.294 223.6 204.62C223.899 205.002 223.831 205.554 223.449 205.852C223.067 206.151 222.515 206.083 222.217 205.701C220.389 203.361 215.985 198.035 212.89 195.284C212.847 195.245 212.807 195.203 212.772 195.156C207.961 188.779 205.21 181.378 203.133 174.928C202.72 173.645 202.336 172.408 201.969 171.224C201.405 169.407 200.88 167.714 200.346 166.171C199.465 163.62 198.61 161.627 197.63 160.32C195.53 157.519 193.153 155.065 190.974 153.319C189.884 152.446 188.86 151.763 187.958 151.302C187.04 150.833 186.322 150.632 185.824 150.632C184.925 150.632 184.623 150.859 184.55 150.932C184.615 151.17 184.577 151.43 184.436 151.645C184.237 151.948 183.871 152.097 183.517 152.02C183.255 151.963 182.777 151.965 182.311 152.099C181.837 152.236 181.561 152.455 181.453 152.67C181.092 153.392 181.311 154.147 181.438 154.381C181.509 154.51 181.545 154.654 181.545 154.801V156.556C181.545 156.916 181.689 157.314 182.016 157.768C182.345 158.223 182.823 158.683 183.4 159.146C183.974 159.606 184.613 160.044 185.247 160.466C185.363 160.544 185.48 160.622 185.597 160.699C186.1 161.033 186.596 161.361 187.007 161.667C189.271 163.351 190.355 165.017 190.907 166.426C191.18 167.123 191.315 167.735 191.404 168.212C191.427 168.341 191.445 168.44 191.46 168.529C191.477 168.625 191.492 168.708 191.51 168.802C191.542 168.968 191.563 169.034 191.572 169.056C191.758 169.503 191.547 170.017 191.099 170.203C190.652 170.39 190.138 170.178 189.952 169.731C189.869 169.533 189.821 169.315 189.787 169.138C189.769 169.047 189.748 168.925 189.726 168.803C189.709 168.708 189.693 168.614 189.678 168.534C189.599 168.11 189.489 167.618 189.273 167.067C188.847 165.98 187.974 164.574 185.959 163.076C185.59 162.801 185.145 162.506 184.646 162.174C184.524 162.094 184.4 162.012 184.273 161.927C183.635 161.501 182.941 161.027 182.302 160.515C181.667 160.006 181.053 159.432 180.593 158.795C180.132 158.156 179.79 157.404 179.79 156.556V154.998C179.51 154.338 179.269 153.113 179.883 151.885C180.302 151.047 181.122 150.616 181.824 150.413C182.186 150.308 182.565 150.249 182.927 150.233C182.999 150.077 183.098 149.925 183.224 149.782ZM184.518 150.975C184.518 150.975 184.518 150.975 184.518 150.975V150.975Z" fill="#201A18"/>
<path fill-rule="evenodd" clip-rule="evenodd" d="M224.118 206.229C224.497 205.927 225.049 205.99 225.351 206.37C228.758 210.656 231.306 214.371 232.592 217.888C233.898 221.457 233.907 224.828 232.262 228.353C230.626 231.857 228.596 233.2 227.04 233.932C226.76 234.064 226.492 234.178 226.265 234.274C226.193 234.304 226.126 234.332 226.064 234.359C225.781 234.481 225.614 234.562 225.507 234.634C225.497 234.641 225.488 234.647 225.48 234.653C225.484 234.676 225.492 234.708 225.505 234.751C225.63 235.168 226.007 235.928 226.68 236.864C227.341 237.784 228.255 238.83 229.407 239.825C231.711 241.815 234.933 243.574 238.972 243.782C240.086 243.839 241.133 244.136 241.613 244.959C242.141 245.864 241.691 246.822 241.165 247.462C240.062 248.802 237.648 250.095 234.614 250.651C228.417 251.785 219.301 249.927 211.652 238.792C211.378 238.392 211.479 237.846 211.879 237.571C212.278 237.297 212.825 237.398 213.099 237.798C220.372 248.386 228.81 249.929 234.298 248.924C237.106 248.41 239.067 247.248 239.809 246.346C240.06 246.041 240.088 245.885 240.087 245.835C240.037 245.787 239.774 245.58 238.882 245.535C234.363 245.303 230.783 243.332 228.259 241.153C226.998 240.064 225.991 238.915 225.254 237.888C224.527 236.876 224.027 235.936 223.823 235.255C223.709 234.874 223.667 234.456 223.815 234.044C223.965 233.63 224.257 233.36 224.527 233.178C224.787 233.003 225.094 232.865 225.37 232.747C225.448 232.713 225.525 232.68 225.603 232.647C225.824 232.554 226.047 232.459 226.292 232.344C227.534 231.759 229.234 230.689 230.671 227.61C232.098 224.552 232.106 221.669 230.944 218.491C229.762 215.26 227.372 211.733 223.977 207.462C223.675 207.083 223.738 206.53 224.118 206.229ZM240.085 245.816C240.085 245.816 240.086 245.818 240.087 245.823C240.085 245.818 240.085 245.816 240.085 245.816ZM225.475 234.603C225.475 234.603 225.475 234.604 225.475 234.606L225.475 234.603Z" fill="#201A18"/>
<path fill-rule="evenodd" clip-rule="evenodd" d="M184.947 211.305C185.431 211.305 185.824 211.698 185.824 212.182C185.824 212.941 185.797 213.831 185.767 214.827C185.709 216.767 185.638 219.107 185.731 221.653C185.87 225.47 186.379 229.539 187.811 232.903C189.232 236.239 191.531 238.826 195.269 239.848C199.057 240.884 204.488 240.36 212.251 237.048C212.696 236.858 213.212 237.066 213.402 237.511C213.592 237.957 213.385 238.473 212.939 238.663C205.013 242.044 199.143 242.727 194.806 241.541C190.417 240.341 187.766 237.277 186.196 233.591C184.638 229.932 184.119 225.608 183.977 221.717C183.882 219.125 183.956 216.63 184.015 214.653C184.044 213.69 184.069 212.85 184.069 212.182C184.069 211.698 184.462 211.305 184.947 211.305Z" fill="#201A18"/>
<path fill-rule="evenodd" clip-rule="evenodd" d="M181.921 205.613C182.398 205.7 182.715 206.156 182.629 206.633C182.037 209.908 181.792 213.285 181.555 216.543C181.445 218.072 181.336 219.575 181.193 221.029C180.974 223.275 180.674 225.396 180.15 227.236C179.628 229.072 178.863 230.698 177.668 231.893C176.657 232.904 176.24 233.745 176.217 234.409C176.196 235.011 176.496 235.711 177.563 236.488C177.976 236.787 178.631 236.987 179.492 237.029C180.338 237.07 181.304 236.954 182.256 236.705C183.207 236.456 184.112 236.082 184.841 235.633C185.582 235.175 186.073 234.682 186.301 234.227C186.518 233.793 187.045 233.617 187.479 233.834C187.912 234.051 188.088 234.578 187.871 235.012C187.441 235.873 186.649 236.58 185.762 237.127C184.863 237.682 183.792 238.117 182.7 238.403C181.609 238.689 180.462 238.834 179.406 238.782C178.364 238.731 177.326 238.485 176.531 237.907C175.185 236.928 174.415 235.736 174.463 234.349C174.508 233.024 175.298 231.781 176.427 230.652C177.327 229.751 177.981 228.444 178.462 226.755C178.942 225.07 179.23 223.074 179.446 220.859C179.58 219.493 179.685 218.04 179.795 216.537C180.035 213.232 180.292 209.688 180.901 206.321C180.987 205.844 181.444 205.527 181.921 205.613Z" fill="#201A18"/>
<path fill-rule="evenodd" clip-rule="evenodd" d="M187.938 233.904C188.303 234.223 188.34 234.777 188.021 235.142C187.327 235.935 187.108 236.549 187.108 236.982C187.108 237.378 187.291 237.788 187.814 238.206C188.931 239.099 191.295 239.765 194.77 239.873C195.254 239.889 195.635 240.294 195.62 240.778C195.605 241.263 195.2 241.643 194.715 241.628C191.168 241.517 188.305 240.845 186.718 239.577C185.89 238.915 185.352 238.039 185.353 236.981C185.353 235.959 185.858 234.949 186.7 233.986C187.019 233.621 187.574 233.585 187.938 233.904Z" fill="#201A18"/>
<path fill-rule="evenodd" clip-rule="evenodd" d="M128.461 182.91C128.451 182.901 128.154 182.638 126.914 182.968C126.331 183.124 125.546 183.665 124.636 184.608C123.751 185.526 122.836 186.73 121.981 188.049C120.261 190.706 118.876 193.688 118.469 195.519C117.608 199.393 116.843 207.408 116.624 212.331C116.602 212.815 116.192 213.19 115.708 213.169C115.224 213.147 114.849 212.737 114.87 212.253C115.09 207.301 115.861 199.164 116.755 195.138C117.226 193.019 118.733 189.835 120.508 187.095C121.402 185.715 122.385 184.413 123.373 183.389C124.336 182.391 125.399 181.556 126.461 181.272C127.854 180.901 128.983 180.966 129.687 181.654C129.821 181.784 129.926 181.924 130.007 182.069C130.495 181.923 131.084 181.911 131.688 182.213C132.381 182.559 132.772 183.159 132.986 183.68C133.095 183.947 133.167 184.216 133.212 184.463C133.368 184.549 133.526 184.658 133.673 184.793C134.059 185.148 134.368 185.685 134.368 186.399V188.813C134.368 189.588 134.006 190.158 133.544 190.567C133.117 190.944 132.57 191.216 132.116 191.435C132.053 191.465 131.991 191.495 131.931 191.524C131.514 191.724 131.149 191.898 130.826 192.111C130.469 192.347 130.241 192.583 130.115 192.85C129.98 193.137 129.858 193.412 129.743 193.673C129.522 194.172 129.323 194.621 129.091 195.017C128.698 195.689 128.185 196.281 127.266 197.086C127.267 197.085 127.227 197.122 127.166 197.241C127.106 197.356 127.041 197.517 126.977 197.731C126.847 198.16 126.737 198.73 126.648 199.418C126.471 200.79 126.393 202.521 126.372 204.287C126.331 207.811 126.522 211.37 126.576 212.237C126.606 212.721 126.239 213.138 125.755 213.168C125.271 213.198 124.854 212.831 124.824 212.347C124.769 211.459 124.575 207.852 124.617 204.266C124.638 202.476 124.717 200.666 124.907 199.194C125.002 198.459 125.127 197.782 125.297 197.222C125.455 196.7 125.694 196.129 126.11 195.765C126.946 195.034 127.311 194.583 127.576 194.131C127.761 193.814 127.894 193.512 128.078 193.093C128.197 192.823 128.337 192.505 128.527 192.102C128.84 191.436 129.352 190.981 129.859 190.646C130.291 190.361 130.775 190.13 131.182 189.936C131.241 189.908 131.298 189.88 131.353 189.854C131.831 189.623 132.162 189.445 132.38 189.252C132.562 189.091 132.612 188.97 132.612 188.813V186.399C132.612 186.306 132.594 186.245 132.575 186.205C132.555 186.163 132.526 186.123 132.484 186.085C132.39 185.998 132.269 185.953 132.221 185.943C131.81 185.861 131.515 185.501 131.515 185.082C131.515 184.927 131.478 184.63 131.361 184.345C131.245 184.062 131.088 183.876 130.903 183.783C130.742 183.702 130.595 183.71 130.429 183.779C130.239 183.859 130.078 184.006 130.006 184.095C129.745 184.421 129.29 184.518 128.918 184.326C128.547 184.135 128.362 183.707 128.477 183.305C128.549 183.054 128.479 182.928 128.461 182.91ZM152.611 199.753C152.235 200.001 151.7 200.354 150.648 200.539C150.46 200.572 150.349 200.605 150.288 200.627C150.285 200.642 150.282 200.659 150.279 200.678C150.276 200.696 150.273 200.715 150.27 200.735C150.239 200.935 150.187 201.275 150.016 201.655C149.824 202.082 149.506 202.516 148.989 202.968C148.597 203.312 148.549 203.466 148.542 203.501C148.534 203.534 148.521 203.633 148.674 204.002C148.732 204.143 148.808 204.307 148.895 204.495C149.237 205.236 149.759 206.365 150.127 208.063C150.72 209.342 151.746 211.22 152.646 212.814C153.103 213.625 153.523 214.354 153.828 214.88C153.981 215.143 154.105 215.356 154.191 215.502L154.29 215.67L154.324 215.728L153.568 216.174C152.812 216.621 152.812 216.621 152.812 216.621L152.777 216.561L152.676 216.39C152.59 216.242 152.464 216.027 152.31 215.762C152.002 215.231 151.578 214.495 151.117 213.677C150.199 212.05 149.112 210.062 148.491 208.708C148.464 208.649 148.444 208.587 148.43 208.523C148.107 206.986 147.674 206.046 147.326 205.29C147.226 205.072 147.133 204.87 147.052 204.673C146.875 204.247 146.697 203.715 146.827 203.124C146.957 202.535 147.348 202.072 147.833 201.647C148.194 201.332 148.343 201.094 148.415 200.934C148.485 200.778 148.505 200.655 148.538 200.449C148.541 200.433 148.543 200.416 148.546 200.399L148.548 200.386C148.582 200.172 148.652 199.737 149.017 199.381C149.36 199.046 149.838 198.9 150.343 198.81C151.039 198.687 151.338 198.49 151.644 198.288C151.668 198.272 151.692 198.257 151.716 198.241C151.905 198.117 152.167 197.951 152.519 197.855C152.877 197.759 153.26 197.752 153.701 197.82C153.722 197.823 153.744 197.826 153.766 197.83C154.51 197.943 156.161 198.196 157.724 199.178C159.38 200.219 160.881 202.041 161.242 205.17C161.541 207.754 162.041 208.946 162.43 209.874C162.453 209.928 162.475 209.982 162.497 210.034C162.706 210.535 162.91 211.05 162.999 211.692C163.088 212.336 163.054 213.053 162.879 213.99C162.789 214.466 162.331 214.78 161.854 214.691C161.378 214.601 161.064 214.143 161.153 213.666C161.307 212.848 161.315 212.331 161.26 211.932C161.204 211.532 161.08 211.196 160.877 210.71C160.856 210.661 160.835 210.611 160.814 210.56C160.393 209.555 159.825 208.198 159.498 205.371C159.201 202.794 158.014 201.434 156.79 200.665C155.539 199.878 154.191 199.671 153.466 199.56L153.435 199.555C153.163 199.513 153.038 199.534 152.978 199.55C152.911 199.568 152.845 199.6 152.677 199.71C152.655 199.724 152.633 199.738 152.611 199.753ZM153.568 216.174L152.812 216.621C153.059 217.038 153.597 217.177 154.014 216.93C154.432 216.683 154.57 216.145 154.324 215.728L153.568 216.174ZM142.719 221.4C143.105 221.693 143.181 222.243 142.888 222.63L140.474 225.811C140.181 226.197 139.631 226.273 139.244 225.98C138.858 225.687 138.783 225.136 139.076 224.75L141.489 221.569C141.782 221.182 142.333 221.107 142.719 221.4ZM121.917 225.371C122.268 225.705 122.281 226.261 121.947 226.612C121.677 226.896 121.197 227.232 120.644 227.564C120.067 227.911 119.336 228.297 118.508 228.673C116.858 229.422 114.768 230.151 112.681 230.43C112.201 230.494 111.759 230.156 111.695 229.676C111.631 229.195 111.969 228.754 112.449 228.69C114.312 228.441 116.23 227.779 117.783 227.074C118.556 226.724 119.226 226.368 119.74 226.059C120.278 225.736 120.581 225.501 120.676 225.401C121.01 225.05 121.566 225.037 121.917 225.371ZM140.594 227.1C140.96 226.781 141.514 226.82 141.832 227.186C143.929 229.597 146.702 231.088 148.503 231.278C148.985 231.328 149.335 231.76 149.284 232.242C149.233 232.725 148.802 233.074 148.319 233.023C145.951 232.774 142.8 230.974 140.508 228.338C140.19 227.972 140.228 227.418 140.594 227.1Z" fill="#201A18"/>
<path fill-rule="evenodd" clip-rule="evenodd" d="M161.962 212.527C162.438 212.436 162.898 212.749 162.988 213.225C163.808 217.541 164.652 222.739 163.758 227.17C163.306 229.408 162.404 231.494 160.8 233.177C159.192 234.865 156.935 236.088 153.883 236.693C153.407 236.787 152.945 236.478 152.851 236.002C152.757 235.527 153.066 235.065 153.541 234.971C156.304 234.423 158.212 233.348 159.529 231.966C160.85 230.581 161.633 228.825 162.037 226.823C162.853 222.776 162.09 217.905 161.263 213.553C161.173 213.077 161.486 212.617 161.962 212.527Z" fill="#201A18"/>
<path fill-rule="evenodd" clip-rule="evenodd" d="M145.595 191.675C147.126 191.448 149.008 191.403 150.558 192.481C152.062 193.527 152.615 194.848 152.58 196.241C152.548 197.537 152.004 198.839 151.516 199.925C151.317 200.367 150.797 200.564 150.355 200.365C149.913 200.166 149.716 199.647 149.915 199.205C150.414 198.097 150.803 197.095 150.825 196.197C150.845 195.395 150.575 194.631 149.556 193.922C148.582 193.245 147.283 193.199 145.852 193.411C145.242 193.502 144.653 193.631 144.087 193.755C143.999 193.774 143.912 193.793 143.825 193.812C143.218 193.944 142.572 194.079 142.048 194.079C141.306 194.079 138.736 194.342 136.139 194.845C134.849 195.095 133.585 195.398 132.564 195.745C132.053 195.919 131.62 196.097 131.282 196.276C130.933 196.462 130.742 196.618 130.657 196.722C130.095 197.403 129.97 197.806 129.951 197.966C130.069 198.088 130.151 198.243 130.183 198.413C130.229 198.653 130.172 198.901 130.027 199.098C129.808 199.396 129.588 199.812 129.532 200.123C129.522 200.179 129.52 200.218 129.52 200.243C129.531 200.247 129.545 200.252 129.562 200.257C130.121 200.417 130.526 200.709 130.775 201.133C130.952 201.433 131.024 201.788 131.055 201.943C131.06 201.967 131.064 201.985 131.067 201.999C131.072 202.018 131.076 202.034 131.079 202.048C131.142 202.065 131.273 202.088 131.515 202.088C132.622 202.088 133.433 202.46 134.014 202.726C134.099 202.765 134.178 202.801 134.253 202.834C134.561 202.968 134.781 203.043 134.998 203.065C135.198 203.085 135.444 203.065 135.789 202.923C136.348 202.692 137.122 202.527 137.896 202.371C138.042 202.342 138.191 202.313 138.341 202.283C139.021 202.148 139.734 202.007 140.448 201.827C142.248 201.374 143.716 200.747 144.39 199.736C144.658 199.333 145.203 199.224 145.607 199.493C146.01 199.762 146.119 200.307 145.85 200.71C144.769 202.333 142.67 203.078 140.877 203.529C140.115 203.721 139.348 203.873 138.667 204.008C138.521 204.037 138.379 204.065 138.242 204.092C137.429 204.256 136.831 204.392 136.457 204.546C135.87 204.788 135.334 204.863 134.821 204.811C134.362 204.765 133.964 204.62 133.629 204.477C133.56 204.52 133.484 204.555 133.402 204.578C130.325 205.457 129.252 205.946 128.646 206.372C128.374 206.563 128.185 206.749 127.907 207.021C127.879 207.049 127.85 207.078 127.819 207.108C127.491 207.429 127.087 207.811 126.436 208.284C126.044 208.569 125.495 208.483 125.21 208.09C124.925 207.698 125.011 207.149 125.403 206.864C125.959 206.46 126.296 206.142 126.592 205.853C126.622 205.823 126.653 205.793 126.683 205.763C126.952 205.499 127.241 205.215 127.636 204.936C128.222 204.524 129.016 204.14 130.396 203.668C130.245 203.609 130.104 203.532 129.975 203.433C129.536 203.097 129.415 202.643 129.357 202.398C129.334 202.299 129.319 202.23 129.308 202.18C129.284 202.073 129.28 202.054 129.262 202.023C129.261 202.022 129.259 202.021 129.256 202.019C129.243 202.009 129.195 201.978 129.08 201.945C128.58 201.802 128.169 201.504 127.942 201.043C127.732 200.614 127.741 200.165 127.804 199.813C127.884 199.369 128.076 198.932 128.281 198.572C128.198 198.322 128.173 198.043 128.208 197.757C128.284 197.129 128.634 196.416 129.302 195.606C129.6 195.243 130.023 194.957 130.46 194.726C130.909 194.488 131.435 194.274 131.999 194.083C133.127 193.7 134.477 193.379 135.805 193.121C138.447 192.61 141.143 192.324 142.048 192.324C142.347 192.324 142.798 192.239 143.452 192.097C143.534 192.079 143.618 192.061 143.704 192.042C144.267 191.918 144.921 191.775 145.595 191.675ZM157.382 196.907C156.899 197.25 156.374 197.871 155.485 199.094C155.2 199.486 154.651 199.572 154.259 199.287C153.867 199.002 153.78 198.453 154.065 198.061C154.931 196.87 155.613 196.011 156.365 195.476C157.185 194.892 158.02 194.737 159.054 194.737C160.201 194.737 161.422 195.031 162.501 196.026C163.555 196.997 164.383 198.555 164.953 200.893C165.06 201.331 165.309 201.865 165.692 202.537C165.95 202.989 166.244 203.463 166.566 203.983C166.724 204.237 166.889 204.502 167.059 204.782C168.079 206.45 169.228 208.483 169.872 210.9C170.521 213.335 170.653 216.139 169.677 219.346C168.705 222.543 166.647 226.094 162.99 230.058C162.662 230.414 162.106 230.436 161.75 230.108C161.394 229.779 161.371 229.224 161.7 228.867C165.229 225.042 167.122 221.715 167.998 218.836C168.87 215.968 168.748 213.499 168.176 211.352C167.6 209.189 166.562 207.334 165.561 205.697C165.407 205.444 165.251 205.192 165.097 204.944C164.983 204.761 164.871 204.58 164.761 204.401C164.588 205.885 164.335 207.384 164.086 208.722C163.934 209.539 163.781 210.309 163.647 210.981C163.587 211.283 163.531 211.565 163.481 211.822C163.399 212.243 163.333 212.597 163.287 212.877C163.238 213.175 163.223 213.332 163.223 213.389C163.223 213.874 162.83 214.267 162.345 214.267C161.86 214.267 161.468 213.874 161.468 213.389C161.468 213.172 161.507 212.884 161.554 212.594C161.605 212.285 161.676 211.909 161.758 211.486C161.81 211.218 161.868 210.93 161.928 210.625C162.061 209.958 162.21 209.208 162.36 208.401C162.791 206.083 163.21 203.404 163.223 201.206C162.699 199.111 162.002 197.953 161.311 197.317C160.635 196.693 159.881 196.493 159.054 196.493C158.222 196.493 157.795 196.612 157.382 196.907Z" fill="#201A18"/>
<path fill-rule="evenodd" clip-rule="evenodd" d="M145.213 177.92C145.358 178.043 145.535 178.183 145.749 178.34C148.795 180.574 150.02 182.511 150.378 184.715C150.55 185.772 150.515 186.845 150.448 187.945C150.433 188.187 150.416 188.43 150.4 188.677C150.339 189.572 150.276 190.508 150.276 191.556C150.276 192.04 149.883 192.433 149.399 192.433C148.914 192.433 148.521 192.04 148.521 191.556C148.521 190.443 148.589 189.432 148.65 188.53C148.666 188.292 148.682 188.061 148.695 187.838C148.762 186.75 148.783 185.845 148.646 184.997C148.385 183.394 147.525 181.82 144.71 179.756C144.173 179.362 143.754 178.999 143.467 178.663C143.216 178.371 142.9 177.91 142.967 177.358C143.049 176.687 143.599 176.397 143.935 176.289C144.29 176.176 144.707 176.15 145.106 176.16C146.71 176.197 149.286 176.838 151.309 177.627C151.414 177.668 151.529 177.711 151.652 177.756C152.795 178.179 154.628 178.858 156.156 181.138C157.813 183.613 159.054 187.866 159.054 195.505C159.054 195.99 158.661 196.383 158.176 196.383C157.691 196.383 157.298 195.99 157.298 195.505C157.298 188.004 156.07 184.165 154.697 182.115C153.494 180.319 152.142 179.814 151.038 179.401C150.912 179.354 150.789 179.309 150.671 179.262C148.815 178.538 146.554 177.986 145.213 177.92Z" fill="#201A18"/>
<path fill-rule="evenodd" clip-rule="evenodd" d="M166.079 101.653C166.252 101.699 166.584 101.734 167.167 101.659C168.745 101.454 170.038 101.553 171.071 102.122C172.127 102.703 172.591 103.614 172.843 104.11L172.851 104.126C173.145 104.703 173.198 104.764 173.277 104.82C173.315 104.846 173.617 105.05 174.73 104.972C177.208 104.798 179.489 105.424 181.136 105.876C181.478 105.97 181.793 106.057 182.077 106.127C183.002 106.356 183.5 106.4 183.797 106.346L183.799 106.345C183.922 106.323 184.064 106.297 184.272 105.903C184.746 105.006 185.512 103.923 186.848 103.783C187.475 103.717 188.001 103.895 188.358 104.062C188.703 104.223 189.017 104.437 189.229 104.581L189.245 104.593C189.74 104.931 190.002 105.11 190.302 105.205C190.511 105.27 190.795 105.312 191.288 105.105C192.613 104.547 193.405 103.594 193.904 102.182C194.431 100.688 194.602 98.7452 194.602 96.3839C194.602 95.7968 194.654 95.0216 194.708 94.2328C194.735 93.8342 194.762 93.4322 194.783 93.0491C194.85 91.8133 194.869 90.5695 194.726 89.4629C194.58 88.3343 194.287 87.5471 193.891 87.0653C193.563 86.6675 193.044 86.3233 191.968 86.3233C190.25 86.3233 188.927 86.0639 187.83 85.6282C186.738 85.1946 185.963 84.6203 185.365 84.1646C185.342 84.1471 185.319 84.1299 185.297 84.113C184.711 83.6668 184.371 83.4076 183.938 83.2238C183.542 83.0557 182.98 82.9207 182.009 82.9949C179.294 83.2025 177.581 82.3022 176.371 81.6658C176.254 81.6044 176.142 81.5455 176.034 81.4903C175.429 81.1803 175.049 81.031 174.66 80.9895C174.304 80.9514 173.783 80.9903 172.938 81.3692C172.02 81.7814 171.103 82.0834 170.316 82.3405L170.273 82.3546C169.47 82.6168 168.839 82.823 168.303 83.068C167.769 83.3118 167.467 83.5357 167.286 83.7497C167.133 83.9319 166.99 84.1971 166.949 84.6964C166.726 88.061 166.393 90.9791 166.112 93.4226L166.11 93.444C165.826 95.9158 165.607 97.8167 165.582 99.2763C165.554 100.834 165.773 101.392 165.902 101.556L165.903 101.558C165.922 101.582 165.949 101.617 166.079 101.653ZM164.355 93.3336C163.521 100.595 163.135 103.951 167.392 103.4C170.322 103.02 170.821 104.005 171.327 105.002C171.806 105.946 172.291 106.903 174.853 106.723C177.001 106.572 178.929 107.097 180.579 107.546C182.976 108.199 184.785 108.691 185.824 106.723C186.736 104.998 187.41 105.462 188.339 106.1C189.2 106.692 190.28 107.433 191.968 106.723C195.692 105.156 196.357 101.184 196.357 96.3839C196.357 95.8535 196.402 95.1886 196.453 94.4462C196.717 90.5662 197.126 84.5679 191.968 84.5679C188.785 84.5679 187.486 83.5763 186.303 82.6722C185.202 81.8316 184.201 81.0667 181.875 81.2446C179.676 81.4128 178.361 80.7251 177.179 80.1067C175.764 79.3671 174.539 78.7266 172.22 79.7676C171.363 80.152 170.494 80.4357 169.674 80.7037C167.341 81.4654 165.394 82.1012 165.198 84.5679C164.975 87.9417 164.639 90.8636 164.355 93.3336Z" fill="#201A18"/>
<path fill-rule="evenodd" clip-rule="evenodd" d="M173.756 88.8618C174.24 88.8618 174.633 89.2547 174.633 89.7395C174.633 91.7143 174.229 96.9616 172.624 102.492C172.489 102.957 172.002 103.225 171.536 103.09C171.071 102.955 170.803 102.468 170.938 102.002C172.492 96.6488 172.878 91.5681 172.878 89.7395C172.878 89.2547 173.271 88.8618 173.756 88.8618ZM182.627 92.2111C183.08 92.3842 183.306 92.8916 183.133 93.3444C182.667 94.5653 181.962 96.6014 181.377 98.718C180.784 100.858 180.339 102.99 180.339 104.441C180.339 104.926 179.946 105.319 179.461 105.319C178.976 105.319 178.583 104.926 178.583 104.441C178.583 102.733 179.089 100.403 179.685 98.2497C180.287 96.0727 181.01 93.9835 181.494 92.7175C181.667 92.2647 182.174 92.038 182.627 92.2111ZM189.739 92.1539C190.223 92.1346 190.632 92.5115 190.651 92.9959C190.728 94.9056 190.43 99.6781 188.598 103.707C188.398 104.149 187.877 104.344 187.436 104.143C186.995 103.943 186.8 103.422 187 102.981C188.68 99.2864 188.967 94.8135 188.897 93.066C188.878 92.5817 189.255 92.1733 189.739 92.1539Z" fill="#201A18"/>
<path fill-rule="evenodd" clip-rule="evenodd" d="M166.374 86.0783C166.662 86.4682 166.579 87.0178 166.189 87.3059C163.64 89.1905 161.902 90.6776 161.125 92.3286C160.403 93.8645 160.449 95.7107 162.015 98.5294C163.703 101.567 164.093 103.077 164.34 104.09C164.461 104.588 164.52 104.82 164.648 105.058C164.771 105.287 164.99 105.57 165.51 106.037C165.91 106.397 166.269 106.52 166.591 106.537C166.932 106.555 167.314 106.459 167.746 106.242C168.546 105.841 169.308 105.147 170.039 104.479C170.131 104.395 170.223 104.312 170.314 104.229C170.674 103.904 171.229 103.932 171.554 104.291C171.879 104.651 171.851 105.206 171.492 105.531C171.409 105.606 171.322 105.686 171.23 105.77C170.524 106.417 169.569 107.292 168.533 107.811C167.93 108.113 167.239 108.329 166.498 108.29C165.738 108.249 165.006 107.944 164.337 107.344C163.747 106.814 163.362 106.373 163.102 105.89C162.862 105.444 162.755 105.004 162.653 104.581C162.647 104.556 162.641 104.53 162.634 104.505C162.421 103.63 162.085 102.269 160.481 99.3819C158.755 96.2759 158.488 93.8095 159.537 91.5813C160.531 89.4683 162.649 87.7399 165.146 85.8942C165.536 85.6061 166.085 85.6885 166.374 86.0783Z" fill="#201A18"/>
<path fill-rule="evenodd" clip-rule="evenodd" d="M164.777 97.3576C165.259 97.4111 165.606 97.8451 165.553 98.3268C165.488 98.9107 165.326 99.4739 165.161 99.9977C165.119 100.133 165.076 100.266 165.034 100.397C164.907 100.792 164.784 101.174 164.679 101.586C164.411 102.64 164.285 103.807 164.723 105.29C164.86 105.755 164.594 106.243 164.129 106.38C163.665 106.518 163.176 106.252 163.039 105.787C162.49 103.924 162.654 102.424 162.978 101.153C163.097 100.682 163.243 100.229 163.374 99.8231C163.413 99.7013 163.451 99.5837 163.487 99.4712C163.647 98.9623 163.763 98.5365 163.808 98.133C163.861 97.6512 164.295 97.304 164.777 97.3576Z" fill="#201A18"/>
<path fill-rule="evenodd" clip-rule="evenodd" d="M38.2398 114.56C42.25 110.595 48.2375 108.391 56.7985 108.391C57.2833 108.391 57.6763 108.784 57.6763 109.269C57.6763 109.754 57.2833 110.147 56.7985 110.147C48.5337 110.147 43.054 112.268 39.4741 115.808C35.8815 119.361 34.068 124.472 33.4204 130.729C32.7728 136.984 33.3016 144.279 34.2967 152.083C34.8903 156.738 35.6427 161.527 36.4031 166.367C36.8787 169.395 37.3574 172.442 37.8024 175.489C38.7574 175.376 39.9448 175.072 41.4178 174.64C41.9369 174.488 42.488 174.321 43.0693 174.145C44.5519 173.697 46.2311 173.189 48.0762 172.712C53.2436 171.379 59.8288 170.261 67.867 171.154C68.3488 171.207 68.696 171.641 68.6424 172.123C68.5889 172.605 68.1549 172.952 67.6731 172.899C59.9123 172.036 53.5511 173.113 48.5149 174.412C46.7071 174.879 45.0846 175.37 43.6127 175.815C43.0222 175.994 42.4558 176.165 41.9115 176.325C40.0552 176.869 38.4017 177.293 37.0498 177.293C36.6134 177.293 36.2432 176.972 36.181 176.54C35.7114 173.279 35.1931 169.979 34.6765 166.689C33.9117 161.819 33.1505 156.972 32.5554 152.305C31.556 144.468 31.0052 137.011 31.6742 130.548C32.3432 124.086 34.2424 118.513 38.2398 114.56Z" fill="#201A18"/>
<path fill-rule="evenodd" clip-rule="evenodd" d="M168.154 80.545C157.663 71.9809 144.428 72.0311 137.723 75.3838C137.289 75.6005 136.762 75.4248 136.545 74.9912C136.328 74.5576 136.504 74.0304 136.938 73.8136C144.276 70.1445 158.251 70.1947 169.264 79.1851C169.639 79.4917 169.695 80.0446 169.389 80.4201C169.082 80.7956 168.529 80.8515 168.154 80.545Z" fill="#201A18"/>
<path fill-rule="evenodd" clip-rule="evenodd" d="M195.693 89.5325C196.134 89.3305 196.655 89.524 196.857 89.9647C198.605 93.7777 201.205 96.8753 204.095 99.7532C205.424 101.076 206.804 102.343 208.188 103.614C208.311 103.727 208.433 103.84 208.556 103.953C210.058 105.333 211.559 106.723 212.964 108.173C215.776 111.074 218.249 114.259 219.66 118.221C221.077 122.195 221.398 126.876 220.033 132.728C220.027 132.754 220.019 132.78 220.011 132.805C218.913 136.112 217.575 138.783 215.638 140.61C213.666 142.47 211.155 143.381 207.893 143.323C207.408 143.314 207.022 142.914 207.031 142.43C207.039 141.945 207.439 141.559 207.924 141.568C210.805 141.619 212.848 140.829 214.434 139.333C216.049 137.809 217.27 135.48 218.332 132.29C219.622 126.734 219.291 122.413 218.007 118.81C216.715 115.185 214.433 112.211 211.703 109.395C210.338 107.986 208.872 106.627 207.368 105.245C207.245 105.132 207.121 105.018 206.997 104.904C205.617 103.637 204.212 102.346 202.857 100.997C199.9 98.0528 197.134 94.7826 195.261 90.6961C195.059 90.2554 195.253 89.7344 195.693 89.5325ZM179.91 106.12C180.279 105.805 180.833 105.85 181.148 106.219C183.752 109.276 185.139 112.028 186.448 115.218C186.836 116.164 187.215 117.141 187.616 118.173C188.568 120.629 189.643 123.4 191.257 126.82C191.464 127.259 191.276 127.782 190.838 127.989C190.4 128.196 189.877 128.008 189.67 127.569C188.028 124.091 186.915 121.222 185.955 118.748C185.561 117.732 185.193 116.783 184.824 115.885C183.555 112.793 182.254 110.224 179.811 107.357C179.497 106.988 179.541 106.434 179.91 106.12Z" fill="#201A18"/>
<path fill-rule="evenodd" clip-rule="evenodd" d="M165.847 148.089C165.918 148.569 165.586 149.015 165.107 149.086C163.885 149.267 163.144 149.844 162.678 150.628C162.187 151.453 161.966 152.573 161.963 153.847C161.957 156.404 162.831 159.209 163.484 160.466C163.708 160.896 163.54 161.426 163.11 161.649C162.68 161.873 162.15 161.706 161.927 161.276C161.154 159.79 160.201 156.707 160.208 153.843C160.211 152.407 160.455 150.932 161.169 149.731C161.907 148.489 163.11 147.608 164.85 147.35C165.329 147.279 165.776 147.61 165.847 148.089Z" fill="#201A18"/>
<path fill-rule="evenodd" clip-rule="evenodd" d="M167.583 149.678C167.045 149.16 166.322 148.89 165.324 149.063C164.847 149.146 164.392 148.827 164.309 148.349C164.226 147.871 164.546 147.417 165.024 147.334C166.549 147.068 167.842 147.491 168.801 148.413C169.726 149.304 170.274 150.594 170.516 151.984C171.001 154.757 170.336 158.271 168.471 160.935C168.193 161.332 167.646 161.429 167.249 161.151C166.852 160.873 166.755 160.326 167.033 159.929C168.625 157.655 169.194 154.614 168.787 152.286C168.584 151.125 168.154 150.227 167.583 149.678Z" fill="#201A18"/>
<path fill-rule="evenodd" clip-rule="evenodd" d="M161.647 156.337C161.592 156.819 161.158 157.165 160.676 157.111C160.301 157.068 159.86 157.235 159.461 157.621C159.06 158.009 158.815 158.514 158.778 158.927C158.746 159.287 158.859 159.541 159.19 159.716C159.609 159.938 160.494 160.091 162.137 159.738C162.611 159.637 163.078 159.938 163.18 160.412C163.281 160.886 162.979 161.353 162.505 161.455C160.712 161.839 159.33 161.776 158.37 161.268C157.322 160.714 156.945 159.726 157.03 158.771C157.11 157.87 157.59 156.99 158.24 156.36C158.892 155.729 159.827 155.248 160.873 155.366C161.355 155.421 161.701 155.855 161.647 156.337Z" fill="#201A18"/>
<path fill-rule="evenodd" clip-rule="evenodd" d="M168.997 156.161C169.246 155.745 169.785 155.609 170.201 155.858C172.533 157.25 173.454 159.328 172.503 160.893C172.047 161.642 171.231 162.071 170.308 162.08C169.393 162.089 168.411 161.694 167.481 160.899C167.112 160.585 167.068 160.031 167.383 159.662C167.698 159.293 168.252 159.25 168.62 159.564C169.315 160.158 169.902 160.328 170.291 160.325C170.672 160.321 170.895 160.159 171.002 159.981C171.178 159.692 171.324 158.573 169.301 157.365C168.885 157.116 168.749 156.578 168.997 156.161Z" fill="#201A18"/>
<path fill-rule="evenodd" clip-rule="evenodd" d="M162.167 159.505C162.618 159.328 163.127 159.551 163.304 160.003C163.726 161.086 164.114 161.712 164.432 162.042C164.724 162.344 164.884 162.332 164.959 162.319C165.109 162.294 165.373 162.162 165.749 161.76C166.11 161.374 166.491 160.829 166.89 160.164C167.139 159.749 167.679 159.614 168.094 159.863C168.51 160.113 168.645 160.652 168.395 161.067C167.971 161.774 167.516 162.441 167.03 162.959C166.559 163.463 165.966 163.929 165.252 164.05C164.463 164.183 163.752 163.864 163.169 163.261C162.614 162.686 162.124 161.808 161.668 160.641C161.492 160.19 161.715 159.681 162.167 159.505Z" fill="#201A18"/>
<path d="M165.927 163.746C165.927 164.323 165.459 164.791 164.882 164.791C164.305 164.791 163.837 164.323 163.837 163.746C163.837 163.169 164.305 162.7 164.882 162.7C165.459 162.7 165.927 163.169 165.927 163.746Z" fill="#201A18"/>
<path fill-rule="evenodd" clip-rule="evenodd" d="M165.433 106.539C165.918 106.548 166.304 106.948 166.295 107.433C166.112 117.334 165.856 134.104 166.295 148.145C166.31 148.629 165.929 149.034 165.445 149.049C164.96 149.064 164.555 148.684 164.54 148.199C164.1 134.11 164.357 117.3 164.54 107.4C164.549 106.916 164.949 106.53 165.433 106.539Z" fill="#201A18"/>
<path fill-rule="evenodd" clip-rule="evenodd" d="M182.989 109.822C183.374 110.118 183.445 110.669 183.15 111.053C183.025 111.216 182.86 111.419 182.666 111.659C181.655 112.905 179.831 115.157 178.457 118.009C176.823 121.402 175.913 125.48 177.738 129.535C177.937 129.977 177.74 130.497 177.298 130.696C176.856 130.895 176.336 130.698 176.137 130.256C174.012 125.534 175.129 120.874 176.875 117.248C178.351 114.184 180.338 111.739 181.329 110.519C181.507 110.3 181.653 110.12 181.759 109.983C182.054 109.599 182.605 109.527 182.989 109.822Z" fill="#201A18"/>
<path fill-rule="evenodd" clip-rule="evenodd" d="M176.12 129.376C176.407 128.985 176.956 128.901 177.347 129.188C177.615 129.385 177.911 129.605 178.233 129.844C183.254 133.574 194.609 142.012 207.471 141.69C207.956 141.678 208.359 142.061 208.371 142.546C208.383 143.03 208 143.433 207.515 143.445C194.012 143.783 182.192 134.981 177.209 131.271C176.878 131.024 176.578 130.801 176.309 130.603C175.918 130.317 175.833 129.767 176.12 129.376Z" fill="#201A18"/>
<path fill-rule="evenodd" clip-rule="evenodd" d="M197.416 141.068C197.608 140.623 198.124 140.418 198.57 140.61C205.016 143.387 208.776 145.085 211.654 146.384C214.829 147.817 216.93 148.765 220.382 150.146C221.808 150.717 223.795 150.767 226.323 150.404C228.831 150.043 231.749 149.295 234.973 148.382C236.15 148.049 237.367 147.694 238.616 147.329C244.164 145.711 250.344 143.908 256.494 143.003C256.974 142.933 257.42 143.264 257.49 143.744C257.561 144.224 257.229 144.67 256.75 144.74C250.732 145.625 244.697 147.385 239.153 149.002C237.892 149.37 236.656 149.73 235.451 150.071C232.221 150.986 229.207 151.763 226.573 152.141C223.959 152.517 221.595 152.522 219.73 151.776C216.263 150.389 214.112 149.419 210.892 147.966C207.996 146.659 204.235 144.962 197.875 142.222C197.43 142.03 197.224 141.513 197.416 141.068Z" fill="#201A18"/>
<path fill-rule="evenodd" clip-rule="evenodd" d="M87.8043 213.192C88.0952 212.804 88.6454 212.725 89.0332 213.016C97.3218 219.233 109.058 222.895 112.494 223.611C112.968 223.71 113.273 224.175 113.174 224.649C113.075 225.124 112.61 225.429 112.136 225.33C108.549 224.583 96.5436 220.843 87.9799 214.42C87.5921 214.13 87.5135 213.579 87.8043 213.192Z" fill="#201A18"/>
<path fill-rule="evenodd" clip-rule="evenodd" d="M179.776 227.495C179.863 227.972 179.546 228.429 179.069 228.516C178.793 228.566 178.408 228.652 177.921 228.76C175.336 229.337 169.856 230.559 162.245 230.559C161.761 230.559 161.368 230.166 161.368 229.681C161.368 229.196 161.761 228.803 162.245 228.803C169.632 228.803 174.892 227.635 177.517 227.051C178.033 226.937 178.447 226.845 178.755 226.789C179.232 226.702 179.689 227.018 179.776 227.495Z" fill="#201A18"/>
<path fill-rule="evenodd" clip-rule="evenodd" d="M234.223 156.553C234.669 156.362 235.185 156.569 235.376 157.014C237.428 161.801 238.137 168.595 237.736 176.031C237.334 183.488 235.811 191.683 233.319 199.324C233.169 199.785 232.673 200.037 232.213 199.886C231.752 199.736 231.5 199.241 231.65 198.78C234.096 191.28 235.59 183.237 235.983 175.937C236.378 168.616 235.661 162.134 233.762 157.706C233.572 157.26 233.778 156.744 234.223 156.553Z" fill="#201A18"/>
<path fill-rule="evenodd" clip-rule="evenodd" d="M44.5149 161.845C44.5631 161.363 44.9932 161.011 45.4756 161.059C52.594 161.771 62.6146 164.604 66.7223 165.924C67.1838 166.073 67.4376 166.567 67.2893 167.029C67.1409 167.49 66.6466 167.744 66.1851 167.596C62.1006 166.283 52.2261 163.498 45.3009 162.806C44.8186 162.758 44.4666 162.327 44.5149 161.845Z" fill="#201A18"/>
<path fill-rule="evenodd" clip-rule="evenodd" d="M149.643 108.852C150.116 108.744 150.586 109.041 150.694 109.513C151.707 113.974 155.603 117.432 159.894 120.039C162.945 121.893 165.996 123.212 168.193 124.161C169.1 124.553 169.862 124.883 170.418 125.161C170.851 125.377 171.027 125.905 170.81 126.338C170.594 126.772 170.066 126.948 169.633 126.731C169.193 126.511 168.522 126.22 167.69 125.86C165.483 124.906 162.145 123.461 158.982 121.539C154.605 118.88 150.162 115.096 148.982 109.902C148.874 109.43 149.17 108.959 149.643 108.852Z" fill="#201A18"/>
<path fill-rule="evenodd" clip-rule="evenodd" d="M255.153 230.251C255.233 230.729 254.91 231.181 254.431 231.261C252.573 231.571 245.378 231.974 230.985 231.272C230.5 231.248 230.127 230.837 230.151 230.352C230.174 229.868 230.586 229.495 231.07 229.518C245.466 230.221 252.49 229.805 254.143 229.529C254.621 229.45 255.073 229.773 255.153 230.251Z" fill="#201A18"/>
<path fill-rule="evenodd" clip-rule="evenodd" d="M57.6188 96.7617C61.574 93.4334 68.4341 93.1936 72.407 98.1899C72.7087 98.5693 72.6457 99.1215 72.2663 99.4232C71.8869 99.7249 71.3347 99.6619 71.033 99.2825C67.7648 95.1724 62.0626 95.3166 58.7491 98.1049C57.1239 99.4725 56.1062 101.457 56.2571 103.881C56.4092 106.326 57.7597 109.344 61.1473 112.705C61.4914 113.047 61.4936 113.602 61.1522 113.947C60.8108 114.291 60.255 114.293 59.9109 113.951C56.3316 110.4 54.6923 107.001 54.505 103.99C54.3164 100.959 55.6096 98.4524 57.6188 96.7617Z" fill="#201A18"/>
<path fill-rule="evenodd" clip-rule="evenodd" d="M44.7093 42.4991C48.3617 40.412 52.3194 39.7588 55.962 39.9295C56.4463 39.9522 56.8204 40.3631 56.7977 40.8474C56.775 41.3316 56.3641 41.7057 55.8798 41.683C52.5006 41.5246 48.888 42.1331 45.5803 44.0232C42.2808 45.9086 39.2271 49.1017 37.0044 54.2125C32.5395 64.4792 31.4434 82.46 38.5626 112.799C38.6734 113.271 38.3806 113.743 37.9086 113.854C37.4367 113.964 36.9644 113.672 36.8536 113.2C29.7098 82.756 30.6983 64.3111 35.3946 53.5124C37.7526 48.0904 41.0487 44.5909 44.7093 42.4991Z" fill="#201A18"/>
<path fill-rule="evenodd" clip-rule="evenodd" d="M62.697 38.5336C61.7242 39.1624 60.8581 39.7223 60.0999 40.1733C58.213 41.2955 56.8211 42.3122 55.7229 43.4634C54.6325 44.6063 53.803 45.912 53.0835 47.6448C51.702 50.972 50.7615 55.7627 49.1788 63.8248C49.0825 64.3152 48.9839 64.8176 48.8826 65.3325C48.7891 65.8082 48.3277 66.1179 47.8521 66.0244C47.3764 65.9309 47.0666 65.4695 47.1602 64.9938C47.2722 64.4239 47.3813 63.8683 47.4876 63.3264C49.0364 55.4323 50.0103 50.4686 51.4623 46.9717C52.2514 45.0712 53.191 43.5741 54.4527 42.2516C55.7065 40.9374 57.2495 39.826 59.2026 38.6645C59.9026 38.2482 60.7235 37.7168 61.6602 37.1103C65.7279 34.4769 71.9816 30.4283 80.0202 28.243C89.9762 25.5364 102.675 25.6653 117.59 34.5116C129.405 41.5191 135.309 47.5033 137.82 52.2324C140.351 56.9995 139.465 60.6141 137.494 62.4789C137.142 62.812 136.587 62.7967 136.254 62.4446C135.92 62.0924 135.936 61.5369 136.288 61.2037C137.535 60.0235 138.537 57.3266 136.27 53.0555C133.982 48.7464 128.403 42.9658 116.695 36.0215C102.206 27.4281 89.9991 27.3494 80.4807 29.937C72.7401 32.0413 66.7796 35.8944 62.697 38.5336Z" fill="#201A18"/>
<path fill-rule="evenodd" clip-rule="evenodd" d="M46.5957 70.9327C47.0449 71.1148 47.2615 71.6266 47.0793 72.0759C43.863 80.0095 42.8466 94.0391 53.436 103.57C53.7963 103.894 53.8256 104.449 53.5013 104.809C53.177 105.169 52.622 105.199 52.2617 104.874C40.9079 94.656 42.0859 79.7207 45.4525 71.4163C45.6346 70.9671 46.1464 70.7506 46.5957 70.9327Z" fill="#201A18"/>
<path fill-rule="evenodd" clip-rule="evenodd" d="M78.3045 48.0214C83.3709 47.1632 88.9022 46.634 93.331 47.1763C104.423 48.5344 114.558 56.4422 119.057 67.9147C119.234 68.366 119.011 68.8754 118.56 69.0523C118.109 69.2293 117.599 69.0069 117.422 68.5556C113.144 57.6461 103.53 50.1937 93.1176 48.9187C88.9447 48.4077 83.6142 48.9025 78.5977 49.7522C73.596 50.5994 68.9811 51.7862 66.2721 52.617C65.8087 52.7591 65.3178 52.4986 65.1757 52.0352C65.0335 51.5717 65.294 51.0808 65.7575 50.9387C68.5343 50.0871 73.2233 48.8821 78.3045 48.0214Z" fill="#201A18"/>
<path fill-rule="evenodd" clip-rule="evenodd" d="M117.592 39.116C117.92 38.7587 118.475 38.7345 118.833 39.0621C122.842 42.7371 125.561 46.3908 126.607 50.6351C127.656 54.8891 126.99 59.5912 124.531 65.2914C124.339 65.7365 123.823 65.9417 123.378 65.7497C122.933 65.5577 122.727 65.0412 122.919 64.5961C125.288 59.1052 125.829 54.8106 124.903 51.0554C123.974 47.2904 121.537 43.9224 117.646 40.3561C117.289 40.0286 117.265 39.4733 117.592 39.116Z" fill="#201A18"/>
<path fill-rule="evenodd" clip-rule="evenodd" d="M114.954 49.8741C115.278 49.5138 115.833 49.4845 116.193 49.8088C118.497 51.8815 119.738 53.8769 120.502 56.2548C121.163 58.3142 121.46 60.6611 121.822 63.5113C121.868 63.8701 121.914 64.2368 121.963 64.612C122.025 65.0927 121.685 65.5328 121.204 65.5948C120.724 65.6568 120.284 65.3174 120.222 64.8366C120.173 64.4628 120.127 64.1004 120.082 63.7486C119.715 60.8572 119.438 58.6856 118.83 56.7913C118.167 54.7256 117.105 52.9907 115.019 51.1136C114.659 50.7894 114.63 50.2344 114.954 49.8741Z" fill="#201A18"/>
<path fill-rule="evenodd" clip-rule="evenodd" d="M102.41 79.8536C102.537 80.3212 102.261 80.8037 101.794 80.9313C97.0518 82.2245 94.8115 83.5897 93.2095 85.3169C92.3911 86.1993 91.714 87.2031 90.9506 88.4197C90.7757 88.6985 90.5961 88.9887 90.4096 89.29C89.7907 90.2901 89.0958 91.413 88.2417 92.6515C84.1647 98.5631 80.6964 102.047 79.1277 103.541C78.7767 103.875 78.2211 103.862 77.8868 103.511C77.5525 103.16 77.5661 102.604 77.9171 102.27C79.4205 100.838 82.8035 97.4448 86.7965 91.6549C87.6235 90.4558 88.2878 89.3825 88.9032 88.3881C89.0936 88.0806 89.2793 87.7805 89.4636 87.4867C90.2363 86.2552 90.9855 85.1333 91.9225 84.1231C93.8314 82.0651 96.4187 80.5776 101.332 79.2377C101.799 79.1102 102.282 79.3859 102.41 79.8536Z" fill="#201A18"/>
<path fill-rule="evenodd" clip-rule="evenodd" d="M97.1133 60.2994C97.3102 59.8564 97.8289 59.6569 98.2719 59.8538C101.294 61.1969 104.212 63.0363 106.02 65.7041C107.862 68.4212 108.478 71.8874 107.091 76.2804C106.945 76.7426 106.452 76.999 105.989 76.8531C105.527 76.7071 105.271 76.214 105.417 75.7518C106.663 71.8064 106.072 68.909 104.567 66.689C103.029 64.4195 100.462 62.748 97.5589 61.4579C97.116 61.2611 96.9165 60.7424 97.1133 60.2994Z" fill="#201A18"/>
<path fill-rule="evenodd" clip-rule="evenodd" d="M105.782 137.942C105.943 137.485 106.445 137.245 106.902 137.406C107.431 137.593 108.878 137.933 110.693 138.05C112.504 138.167 114.594 138.056 116.444 137.406C116.901 137.245 117.402 137.486 117.563 137.943C117.723 138.4 117.483 138.901 117.025 139.062C114.871 139.819 112.52 139.927 110.58 139.802C108.645 139.677 107.032 139.314 106.318 139.062C105.86 138.9 105.621 138.399 105.782 137.942Z" fill="#201A18"/>
<path fill-rule="evenodd" clip-rule="evenodd" d="M137.576 78.5035C137.624 78.9858 137.272 79.4159 136.79 79.4642C136.067 79.5364 135.323 80.0402 134.299 81.3139C133.532 82.2679 132.707 83.5221 131.678 85.0854C131.342 85.5957 130.984 86.139 130.6 86.7155C130.331 87.1188 129.786 87.2278 129.382 86.9589C128.979 86.69 128.87 86.145 129.139 85.7417C129.5 85.2006 129.843 84.6795 130.171 84.1813C131.215 82.5937 132.107 81.239 132.931 80.214C134.007 78.8757 135.144 77.8646 136.615 77.7174C137.098 77.6692 137.528 78.0211 137.576 78.5035ZM111.138 91.9343C107.691 93.207 104.069 95.4967 101.306 98.2597C100.963 98.6024 100.407 98.6024 100.064 98.2597C99.7216 97.9169 99.7216 97.3612 100.064 97.0184C103.007 94.0761 106.845 91.648 110.53 90.2875C114.155 88.949 117.894 88.5524 120.447 90.084C120.862 90.3334 120.997 90.8726 120.748 91.2882C120.498 91.7039 119.959 91.8387 119.543 91.5893C117.707 90.4877 114.644 90.6397 111.138 91.9343Z" fill="#201A18"/>
<path fill-rule="evenodd" clip-rule="evenodd" d="M116.957 102.605C117.365 102.866 117.485 103.409 117.223 103.817C115.462 106.57 113.987 108.162 112.041 108.665C111.078 108.914 110.076 108.877 108.986 108.683C107.904 108.49 106.676 108.132 105.254 107.694C104.791 107.551 104.531 107.06 104.674 106.597C104.816 106.134 105.307 105.874 105.771 106.016C107.201 106.456 108.332 106.783 109.294 106.954C110.248 107.124 110.973 107.128 111.601 106.965C112.837 106.646 113.996 105.604 115.745 102.871C116.006 102.463 116.549 102.344 116.957 102.605Z" fill="#201A18"/>
<path fill-rule="evenodd" clip-rule="evenodd" d="M125.055 125.6C125.367 125.971 125.32 126.524 124.949 126.836C122.893 128.568 121.335 129.846 119.442 130.457C117.519 131.077 115.36 130.983 112.137 130.316C111.662 130.218 111.357 129.753 111.455 129.279C111.554 128.804 112.018 128.499 112.493 128.597C115.633 129.247 117.424 129.263 118.903 128.786C120.41 128.3 121.705 127.273 123.818 125.494C124.189 125.181 124.743 125.229 125.055 125.6Z" fill="#201A18"/>
<path fill-rule="evenodd" clip-rule="evenodd" d="M134.916 89.9589C135.401 89.9589 135.794 90.3519 135.794 90.8366C135.794 91.0269 135.799 91.2392 135.804 91.4628C135.815 91.9406 135.827 92.4697 135.795 92.9441C135.746 93.683 135.588 94.4884 135.092 95.2131C134.083 96.6898 131.986 97.4196 128.224 97.4196C127.739 97.4196 127.346 97.0266 127.346 96.5419C127.346 96.0571 127.739 95.6641 128.224 95.6641C131.922 95.6641 133.171 94.9127 133.643 94.2225C133.888 93.8638 134.004 93.4143 134.044 92.8264C134.071 92.4262 134.061 92.0444 134.051 91.6207C134.045 91.377 134.039 91.1195 134.039 90.8366C134.039 90.3519 134.432 89.9589 134.916 89.9589Z" fill="#201A18"/>
<path fill-rule="evenodd" clip-rule="evenodd" d="M128.02 105.962C128.502 105.91 128.935 106.259 128.987 106.741C129.299 109.653 130.12 111.243 130.831 112.539C130.872 112.614 130.913 112.688 130.954 112.763C131.637 113.998 132.304 115.205 132.056 117.065C131.788 119.078 130.388 120.478 128.963 121.369C127.534 122.262 125.931 122.742 124.931 122.867C124.45 122.927 124.012 122.586 123.951 122.105C123.891 121.624 124.233 121.185 124.714 121.125C125.469 121.03 126.828 120.633 128.033 119.88C129.241 119.125 130.146 118.111 130.316 116.833C130.486 115.556 130.079 114.816 129.366 113.518C129.341 113.474 129.317 113.429 129.292 113.384C128.522 111.981 127.587 110.16 127.241 106.928C127.19 106.446 127.538 106.014 128.02 105.962Z" fill="#201A18"/>
</svg>
