<svg width="156" height="184" viewBox="0 0 156 184" fill="none" xmlns="http://www.w3.org/2000/svg">
<path fill-rule="evenodd" clip-rule="evenodd" d="M70.4145 42.894C70.6956 42.7292 71.0571 42.8235 71.2218 43.1046C73.8035 47.5086 74.112 51.2143 73.8079 54.4836C73.689 55.7621 73.4751 56.9814 73.274 58.128C73.2211 58.4294 73.1691 58.7257 73.12 59.0168C72.8811 60.432 72.7072 61.7314 72.777 62.9883C72.8336 64.0077 72.9598 64.9443 73.0873 65.8901C73.1223 66.15 73.1574 66.4105 73.1912 66.6737C73.3466 67.8842 73.47 69.1261 73.3959 70.5066C73.2469 73.2854 72.3037 76.5403 69.3927 81.2801C69.2221 81.5577 68.8588 81.6446 68.5811 81.474C68.3034 81.3035 68.2166 80.9402 68.3871 80.6625C71.2288 76.0357 72.0821 72.9706 72.2176 70.4434C72.2858 69.171 72.1735 68.0134 72.0208 66.824C71.9889 66.5757 71.9551 66.325 71.9209 66.0712C71.7925 65.1193 71.6582 64.124 71.5988 63.0538C71.5211 61.6556 71.716 60.2446 71.9564 58.8204C72.0081 58.5144 72.0618 58.208 72.1157 57.9004C72.3157 56.7593 72.5189 55.6004 72.6329 54.3743C72.9188 51.3009 72.6373 47.8526 70.2038 43.7013C70.039 43.4202 70.1333 43.0587 70.4145 42.894ZM66.6817 85.2412C66.9554 85.418 67.0339 85.7832 66.857 86.0569C65.7266 87.8064 64.7709 89.6251 63.8964 91.2894C63.5852 91.8815 63.2844 92.4541 62.9895 92.9971C62.4346 94.0192 61.8967 94.9432 61.3577 95.6632C60.8299 96.368 60.2401 96.9625 59.5535 97.2077C59.2466 97.3173 58.909 97.1574 58.7994 96.8505C58.6898 96.5436 58.8497 96.206 59.1566 96.0964C59.5024 95.9729 59.9175 95.6178 60.4131 94.9559C60.8973 94.3091 61.4012 93.4493 61.9525 92.434C62.2331 91.9173 62.5249 91.3619 62.8304 90.7805C63.7107 89.1051 64.704 87.2146 65.8659 85.4165C66.0427 85.1428 66.408 85.0643 66.6817 85.2412Z" fill="#201A18"/>
<path fill-rule="evenodd" clip-rule="evenodd" d="M27.2225 96.3842C27.4519 96.1528 27.8254 96.1511 28.0569 96.3805C29.4612 97.7722 30.0993 98.1105 30.6131 98.1738C30.8791 98.2066 31.1581 98.1719 31.5756 98.0882C31.6663 98.0701 31.7633 98.0496 31.8667 98.0278C32.223 97.9527 32.6553 97.8616 33.1672 97.792C33.8863 97.6942 34.421 97.7655 34.8715 97.9352C35.1895 98.055 35.4731 98.2341 35.6865 98.3689C35.7486 98.4081 35.8047 98.4435 35.854 98.4726C36.0912 98.6128 36.311 98.7104 36.6378 98.7302C36.9835 98.7512 37.4936 98.6872 38.3001 98.4086C39.2223 98.0899 39.958 98.0382 40.5896 98.1577C41.2136 98.2758 41.6827 98.5531 42.0556 98.7816C42.0719 98.7916 42.0879 98.8014 42.1038 98.8111C42.4711 99.0364 42.7147 99.1858 43.0021 99.2493C43.2678 99.3081 43.6263 99.3005 44.1962 99.0403C45.0587 98.6465 45.6686 98.4293 46.1221 98.2859C46.2812 98.2356 46.4242 98.1934 46.5441 98.1581C46.5908 98.1443 46.634 98.1316 46.6732 98.1198C46.8216 98.0753 46.915 98.0442 46.9879 98.0123C47.0944 97.9658 47.1761 97.9135 47.3227 97.7194C47.4917 97.4957 47.7044 97.1404 48.0779 96.5017C48.2424 96.2204 48.6038 96.1257 48.885 96.2902C49.1663 96.4547 49.261 96.8161 49.0965 97.0974C48.7372 97.7118 48.485 98.1385 48.2642 98.4308C48.0208 98.7529 47.7874 98.9507 47.4604 99.0936C47.3166 99.1564 47.1637 99.2047 47.0121 99.2502C46.9641 99.2646 46.9157 99.2788 46.8658 99.2935C46.7496 99.3278 46.6252 99.3644 46.4778 99.411C46.0681 99.5406 45.5032 99.7407 44.6863 100.114C43.9366 100.456 43.315 100.527 42.7472 100.402C42.2575 100.293 41.8509 100.042 41.5251 99.8408C41.4958 99.8227 41.4671 99.805 41.4391 99.7878C41.0782 99.5667 40.7666 99.3922 40.3702 99.3171C39.9813 99.2436 39.4566 99.2574 38.6854 99.5239C37.7984 99.8304 37.1241 99.942 36.5663 99.9081C35.9895 99.8731 35.5865 99.6852 35.2536 99.4885C35.1465 99.4252 35.0567 99.3686 34.9757 99.3175C34.7911 99.2012 34.652 99.1135 34.4556 99.0395C34.2132 98.9482 33.8794 98.8861 33.3262 98.9613C32.8611 99.0245 32.4845 99.1038 32.1336 99.1777C32.023 99.201 31.915 99.2237 31.8076 99.2453C31.3735 99.3323 30.9357 99.4025 30.4688 99.345C29.5168 99.2276 28.6245 98.6044 27.2262 97.2186C26.9948 96.9893 26.9931 96.6157 27.2225 96.3842Z" fill="#201A18"/>
<path fill-rule="evenodd" clip-rule="evenodd" d="M29.1247 74.294C28.9226 73.988 28.689 73.6477 28.4243 73.3343C27.7713 72.5615 26.7876 71.7967 25.4146 72.189C24.5703 72.4303 24.1077 73.2004 23.862 73.8488C23.7058 74.2609 23.6095 74.6936 23.5584 75.072C23.3303 75.0561 23.0454 75.0505 22.7505 75.1094C22.4335 75.1728 22.0991 75.312 21.8069 75.5904C21.5167 75.867 21.3045 76.2463 21.1723 76.7313C21.1039 76.982 21.0739 77.3348 21.0631 77.7218C21.052 78.1234 21.0607 78.6105 21.0879 79.1556C21.1423 80.2467 21.2718 81.5931 21.4737 82.9946C21.6755 84.3957 21.9509 85.8613 22.2994 87.1883C22.6455 88.5063 23.0731 89.7248 23.593 90.6085C25.0672 93.1145 26.6222 96.0345 27.097 97.174C27.2223 97.4748 27.5678 97.617 27.8686 97.4917C28.1693 97.3664 28.3116 97.0209 28.1863 96.7201C27.6777 95.4996 26.0862 92.5194 24.6101 90.0102C24.1722 89.2658 23.7773 88.1702 23.4407 86.8885C23.1065 85.6158 22.8389 84.1961 22.6417 82.8264C22.4444 81.457 22.3189 80.1473 22.2665 79.0968C22.2402 78.5713 22.2326 78.1164 22.2427 77.7547C22.2532 77.3785 22.2821 77.1467 22.3107 77.0417C22.3997 76.7154 22.5194 76.5415 22.621 76.4447C22.7206 76.3498 22.8379 76.2953 22.9819 76.2666C23.134 76.2361 23.3063 76.2363 23.5019 76.251C23.5474 76.2544 23.6049 76.26 23.6677 76.2661C23.8108 76.2799 23.9815 76.2964 24.1016 76.2964C24.4275 76.2964 24.6917 76.0323 24.6917 75.7064C24.6917 75.3759 24.7667 74.7913 24.9654 74.2671C25.1735 73.7182 25.4484 73.4066 25.7388 73.3237C26.4307 73.126 26.9712 73.4429 27.5229 74.0959C27.7969 74.4202 28.039 74.7891 28.2772 75.1535C28.2856 75.1663 28.294 75.1792 28.3024 75.1921C28.5168 75.5201 28.7539 75.883 28.9946 76.1236C29.1633 76.2924 29.4171 76.3429 29.6376 76.2515C29.8581 76.1602 30.0018 75.9451 30.0018 75.7064C30.0018 75.393 30.0884 74.92 30.324 74.5459C30.5397 74.2035 30.8784 73.9364 31.4769 73.9364C31.6481 73.9364 31.9635 74.0741 32.4166 74.4969C32.8421 74.8939 33.2894 75.4472 33.7176 76.0486C34.3655 76.9587 34.9187 77.9017 35.2698 78.5003C35.3865 78.6993 35.4809 78.8602 35.549 78.9692C35.7001 79.2109 36.0023 79.3101 36.2671 79.2049C36.532 79.0997 36.6838 78.8203 36.6279 78.5408C36.5616 78.2093 36.6414 77.9862 36.805 77.8315C36.9914 77.6552 37.3838 77.4765 38.1144 77.4765C38.3336 77.4765 38.6064 77.5735 38.9442 77.8611C39.2834 78.1498 39.6488 78.5984 40.0359 79.2154C40.8099 80.449 41.6044 82.2466 42.4291 84.4671C42.4291 84.4671 42.4291 84.4671 42.4291 84.4671L42.4421 84.5021L42.4587 84.5468C43.3996 87.0802 44.1553 89.1149 45.2758 90.8773C46.4173 92.6726 47.9228 94.1667 50.3397 95.6773C51.4485 96.3703 52.1363 97.1242 52.5293 97.9222C52.9219 98.7194 53.0438 99.6084 52.9418 100.612C52.7339 102.656 51.613 105.066 50.1303 107.883C49.9785 108.171 50.0893 108.528 50.3776 108.68C50.666 108.831 51.0228 108.721 51.1746 108.432C52.642 105.644 53.8811 103.038 54.1158 100.731C54.235 99.559 54.0988 98.4383 53.5879 97.4009C53.0774 96.3643 52.2164 95.4587 50.9651 94.6767C48.6726 93.2439 47.304 91.868 46.2716 90.2441C45.2247 88.5976 44.5088 86.6774 43.5483 84.0913L43.5353 84.0563C42.7038 81.8175 41.8757 79.9275 41.0355 78.5883C40.6155 77.9189 40.1759 77.3598 39.7091 76.9625C39.2408 76.5639 38.7065 76.2964 38.1144 76.2964C37.2225 76.2964 36.484 76.5111 35.9943 76.974C35.9371 77.0281 35.8845 77.0845 35.8363 77.1428C35.5117 76.6069 35.1096 75.9692 34.6789 75.3642C34.2319 74.7365 33.7315 74.1098 33.2216 73.634C32.7394 73.1841 32.1317 72.7563 31.4769 72.7563C30.4233 72.7563 29.7294 73.2759 29.3256 73.9169C29.2483 74.0395 29.1817 74.1662 29.1247 74.294Z" fill="#201A18"/>
<path fill-rule="evenodd" clip-rule="evenodd" d="M29.3896 75.8788C29.7017 75.7852 30.0306 75.9623 30.1243 76.2744C30.7621 78.4005 31.6316 82.5917 32.2321 85.4862C32.4707 86.6365 32.6669 87.5819 32.7891 88.1116C32.9539 88.8257 33.3906 90.0012 33.8884 91.2137C34.3809 92.4133 34.9155 93.6069 35.2564 94.3375C35.3942 94.6328 35.2666 94.9839 34.9713 95.1217C34.676 95.2595 34.3249 95.1318 34.1871 94.8365C33.8397 94.0921 33.2975 92.8813 32.7968 91.6619C32.3014 90.4552 31.8285 89.197 31.6393 88.377C31.5064 87.8012 31.3006 86.8089 31.0539 85.6194C30.4554 82.7338 29.6163 78.6877 28.994 76.6135C28.9004 76.3014 29.0775 75.9724 29.3896 75.8788ZM35.7517 80.0035C36.0668 79.9205 36.3895 80.1088 36.4724 80.4239C36.9878 82.3824 37.2253 84.0045 37.4285 85.3922C37.5183 86.0061 37.6015 86.5741 37.699 87.1052C38.0183 88.8436 38.5047 90.3358 39.9096 92.1622C40.5012 92.9312 40.9169 93.4859 41.1992 93.8762C41.4706 94.2515 41.6429 94.5075 41.72 94.6599C41.7361 94.6918 41.7763 94.7721 41.7954 94.8698C41.8029 94.9078 41.8293 95.0481 41.7666 95.2099C41.73 95.3044 41.6624 95.4064 41.5524 95.4836C41.4449 95.5589 41.3337 95.5848 41.2489 95.5905C41.1008 95.6005 40.9896 95.5524 40.957 95.538C40.9098 95.517 40.8727 95.4939 40.8506 95.4792C40.8052 95.4492 40.7651 95.416 40.7361 95.391C40.6223 95.2925 40.4697 95.1331 40.3345 94.9857C40.2072 94.8468 40.1589 94.6635 40.1873 94.4909C39.916 94.1182 39.5239 93.5962 38.9743 92.8817C37.4291 90.8729 36.8829 89.1938 36.5384 87.3184C36.4284 86.7194 36.3402 86.1154 36.2476 85.4806C36.0491 84.1208 35.83 82.6197 35.3312 80.7242C35.2483 80.4091 35.4365 80.0864 35.7517 80.0035ZM40.6671 95.1926C40.6707 95.1998 40.6696 95.1987 40.6661 95.1908C40.6665 95.1914 40.6668 95.192 40.6671 95.1926Z" fill="#201A18"/>
<path fill-rule="evenodd" clip-rule="evenodd" d="M23.9724 76.3107C24.2904 76.2395 24.6059 76.4394 24.6772 76.7574C25.2319 79.2322 25.6017 81.2148 25.9178 82.9092C26.7087 87.149 27.1629 89.5842 29.3347 93.4107C29.4956 93.6941 29.3962 94.0542 29.1128 94.2151C28.8294 94.3759 28.4693 94.2766 28.3085 93.9932C26.0337 89.9852 25.5366 87.3204 24.7273 82.9818C24.414 81.3022 24.0539 79.3718 23.5257 77.0155C23.4545 76.6975 23.6545 76.382 23.9724 76.3107Z" fill="#201A18"/>
<path fill-rule="evenodd" clip-rule="evenodd" d="M23.4979 88.687C23.8237 88.6796 24.0938 88.9377 24.1012 89.2634C24.1358 90.784 24.0479 92.0877 23.9729 93.1988C23.9664 93.2961 23.9599 93.3919 23.9537 93.4862C23.8745 94.6773 23.8305 95.5924 23.9609 96.366C24.0856 97.1063 24.3694 97.705 24.9662 98.2569C25.584 98.8281 26.5647 99.3743 28.1339 99.9311C30.2488 100.682 32.0021 102.093 33.5852 103.368C33.8005 103.542 34.0126 103.712 34.222 103.879C36.0238 105.309 37.6073 106.387 39.4419 106.387C39.7677 106.387 40.0319 106.651 40.0319 106.977C40.0319 107.303 39.7677 107.567 39.4419 107.567C37.1464 107.567 35.2634 106.212 33.4883 104.803C33.2709 104.63 33.0545 104.456 32.8383 104.283C31.2383 102.997 29.6512 101.722 27.7393 101.043C26.1082 100.464 24.954 99.8528 24.1651 99.1233C23.3551 98.3743 22.9603 97.5293 22.7972 96.5622C22.6399 95.6285 22.6988 94.5725 22.7762 93.408C22.7825 93.3141 22.7888 93.2193 22.7953 93.1234C22.8703 92.0099 22.9548 90.7555 22.9215 89.2902C22.9141 88.9645 23.1722 88.6944 23.4979 88.687Z" fill="#201A18"/>
<path fill-rule="evenodd" clip-rule="evenodd" d="M32.7973 104.634C33.1137 104.712 33.3074 105.031 33.2297 105.348C31.2868 113.269 26.886 120.716 22.7189 127.28C22.1258 128.215 21.5381 129.13 20.9627 130.026C19.5081 132.292 18.1319 134.435 16.9445 136.455C15.2858 139.276 14.0309 141.798 13.4624 144.001C13.381 144.316 13.0592 144.506 12.7437 144.425C12.4282 144.343 12.2384 144.022 12.3198 143.706C12.9314 141.336 14.2578 138.696 15.9272 135.857C17.1272 133.816 18.5228 131.642 19.9827 129.368C20.5555 128.476 21.1381 127.569 21.7227 126.648C25.8895 120.084 30.1915 112.781 32.0837 105.067C32.1613 104.75 32.4808 104.557 32.7973 104.634Z" fill="#201A18"/>
<path fill-rule="evenodd" clip-rule="evenodd" d="M50.1867 109.351C50.5052 109.419 50.7077 109.733 50.6389 110.052C47.835 123.038 44.8067 135.45 41.7746 145.063C40.2591 149.869 38.7376 153.991 37.2365 157.143C36.4859 158.719 35.7348 160.064 34.9849 161.134C34.2393 162.199 33.4716 163.026 32.6767 163.528C29.7661 165.366 26.1544 166.209 23.0875 166.442C21.5499 166.558 20.1305 166.523 18.9821 166.377C18.4082 166.303 17.8926 166.201 17.4591 166.071C17.0351 165.944 16.6488 165.78 16.3655 165.561C16.2829 165.497 16.1879 165.425 16.0818 165.345C14.9913 164.52 12.7286 162.807 10.7038 159.868C8.47588 156.635 6.54558 151.937 6.69607 145.315C6.81342 140.151 6.53139 135.276 6.20674 131.244C6.08146 129.688 5.94875 128.248 5.8304 126.964C5.64425 124.944 5.49362 123.309 5.46324 122.215C5.45419 121.889 5.71091 121.618 6.03665 121.609C6.36238 121.6 6.63377 121.857 6.64282 122.182C6.67227 123.242 6.81691 124.81 6.99938 126.787C7.11832 128.076 7.25333 129.54 7.38297 131.15C7.7092 135.201 7.99445 140.121 7.8758 145.342C7.73128 151.701 9.58003 156.158 11.6755 159.199C13.5886 161.975 15.7154 163.587 16.7985 164.407C16.9051 164.488 17.0017 164.561 17.0869 164.627C17.2041 164.718 17.4317 164.831 17.7971 164.941C18.1531 165.047 18.6026 165.139 19.1317 165.206C20.1894 165.341 21.5277 165.377 22.9981 165.265C25.9471 165.041 29.352 164.232 32.0466 162.53C32.653 162.147 33.3143 161.462 34.0184 160.457C34.7182 159.458 35.4375 158.176 36.1712 156.635C37.6386 153.555 39.141 149.491 40.6492 144.709C43.6649 135.147 46.6842 122.777 49.4855 109.803C49.5542 109.484 49.8682 109.282 50.1867 109.351Z" fill="#201A18"/>
<path fill-rule="evenodd" clip-rule="evenodd" d="M115.38 120.239C115.963 121.316 116.63 122.549 117.399 123.952C117.556 124.237 117.451 124.596 117.165 124.753C116.88 124.909 116.521 124.805 116.364 124.519C115.569 123.069 114.888 121.81 114.301 120.724C113.021 118.359 112.184 116.811 111.577 115.895C111.359 115.566 111.188 115.345 111.053 115.206C111.008 115.16 110.972 115.128 110.945 115.106C110.899 115.159 110.836 115.247 110.754 115.387C110.38 116.027 109.894 117.387 109.429 118.893C108.97 120.375 108.553 121.928 108.309 122.903C108.246 123.155 108.026 123.336 107.767 123.35C106.864 123.396 105.377 123.635 103.912 124.203C102.439 124.773 101.061 125.645 100.272 126.908C100.099 127.184 99.7348 127.268 99.4585 127.096C99.1822 126.923 99.0982 126.559 99.2709 126.283C100.252 124.714 101.897 123.717 103.485 123.103C104.867 122.568 106.261 122.299 107.269 122.204C107.522 121.219 107.896 119.856 108.301 118.544C108.76 117.061 109.282 115.569 109.734 114.793C109.873 114.555 110.037 114.316 110.244 114.145C110.474 113.955 110.78 113.833 111.135 113.909C111.445 113.976 111.696 114.175 111.899 114.383C112.109 114.6 112.328 114.891 112.561 115.244C113.198 116.206 114.076 117.829 115.38 120.239Z" fill="#201A18"/>
<path fill-rule="evenodd" clip-rule="evenodd" d="M81.3032 149.206C81.3649 149.323 81.4378 149.486 81.5184 149.703C81.7801 150.407 82.0457 151.458 82.2846 152.615C82.764 154.938 83.1033 157.525 83.1033 158.309C83.1033 158.729 83.1892 159.29 83.2799 159.882C83.2931 159.969 83.3064 160.056 83.3196 160.143C83.4274 160.857 83.538 161.66 83.5645 162.504C83.6176 164.192 83.3313 165.973 82.0667 167.437C80.7714 168.937 78.5169 170.093 76.1352 170.827C73.7583 171.559 71.3738 171.834 69.896 171.662C69.5723 171.624 69.2794 171.856 69.2418 172.18C69.2042 172.504 69.436 172.796 69.7597 172.834C71.4533 173.031 74.0102 172.716 76.4825 171.955C78.95 171.195 81.4525 169.954 82.9598 168.209C84.4978 166.428 84.8016 164.3 84.744 162.467C84.7152 161.549 84.5953 160.688 84.4864 159.967C84.4729 159.877 84.4597 159.79 84.4469 159.707C84.3531 159.09 84.2833 158.632 84.2833 158.309C84.2833 157.397 83.9219 154.71 83.4403 152.377C83.1986 151.206 82.9186 150.083 82.6245 149.292C82.4818 148.908 82.315 148.543 82.1139 148.293C82.0152 148.17 81.8603 148.014 81.6384 147.939C81.3828 147.853 81.1266 147.903 80.9231 148.043C80.1735 148.513 79.2808 149.298 78.4252 150.13C77.6797 150.855 76.94 151.637 76.3145 152.325C76.2001 152.265 76.074 152.198 75.9373 152.126C74.9621 151.607 73.4419 150.798 71.7211 150.264C69.4083 149.547 66.5734 149.259 63.8022 150.706C63.5133 150.856 63.4014 151.213 63.5522 151.502C63.7029 151.791 64.0593 151.903 64.3482 151.752C66.7397 150.504 69.2222 150.725 71.3715 151.391C72.9703 151.887 74.2993 152.594 75.2753 153.113C75.6335 153.303 75.9442 153.469 76.2032 153.589C76.4386 153.698 76.7177 153.641 76.891 153.448C77.5622 152.699 78.4042 151.796 79.2478 150.976C79.9885 150.256 80.708 149.621 81.3032 149.206Z" fill="#201A18"/>
<path fill-rule="evenodd" clip-rule="evenodd" d="M93.9815 123.051C95.461 123.497 97.7109 124.567 100.525 125.938C100.818 126.081 100.94 126.434 100.798 126.727C100.655 127.02 100.302 127.141 100.009 126.999C97.1578 125.61 95.0079 124.592 93.6409 124.18C93.3042 124.079 93.0368 124.021 92.8322 124C92.6819 123.985 92.5919 123.993 92.5442 124.002C92.5415 124.052 92.5465 124.149 92.5872 124.31C92.7042 124.772 92.9798 125.368 93.3627 126.04C93.7408 126.705 94.2032 127.409 94.6676 128.082C95.012 128.581 95.3524 129.056 95.6583 129.482C95.7654 129.632 95.8684 129.775 95.9657 129.912C96.3211 130.41 96.6412 130.868 96.7686 131.141C96.9066 131.436 96.7791 131.787 96.4839 131.925C96.1886 132.063 95.8375 131.935 95.6995 131.64C95.6295 131.49 95.392 131.14 95.0049 130.597C94.9109 130.465 94.8102 130.325 94.7045 130.177C94.3972 129.749 94.0474 129.261 93.6963 128.752C93.2238 128.067 92.7397 127.331 92.3372 126.624C91.9393 125.926 91.6 125.219 91.4432 124.599C91.3637 124.285 91.3281 123.956 91.4108 123.652C91.5035 123.311 91.7306 123.058 92.0484 122.924C92.332 122.805 92.6516 122.796 92.9511 122.826C93.2595 122.858 93.6066 122.938 93.9815 123.051Z" fill="#201A18"/>
<path fill-rule="evenodd" clip-rule="evenodd" d="M59.3278 146.941C60.3913 147.866 61.7056 149.747 63.2607 152.486C63.4216 152.77 63.3223 153.13 63.039 153.291C62.7556 153.451 62.3955 153.352 62.2346 153.069C60.6782 150.328 59.4487 148.61 58.5531 147.831C58.0887 147.427 57.8465 147.392 57.7732 147.402C57.757 147.405 57.608 147.427 57.4412 147.879C57.2806 148.314 57.1707 149.074 57.1081 150.048C57.0468 151.002 57.034 152.099 57.0407 153.17C57.0456 153.966 57.0612 154.739 57.075 155.426C57.0797 155.665 57.0843 155.893 57.0882 156.107C57.0956 156.522 57.1004 156.889 57.0983 157.184C57.0964 157.462 57.0887 157.721 57.0608 157.889C57.0075 158.211 56.7038 158.428 56.3823 158.375C56.0608 158.321 55.8433 158.018 55.8966 157.696C55.9068 157.635 55.9163 157.469 55.9183 157.175C55.9203 156.897 55.9158 156.542 55.9083 156.129C55.9046 155.918 55.9 155.693 55.8953 155.457C55.8814 154.768 55.8657 153.982 55.8607 153.178C55.854 152.096 55.8666 150.967 55.9305 149.972C55.9932 148.996 56.1084 148.082 56.334 147.471C56.5534 146.876 56.941 146.327 57.6098 146.234C58.2215 146.148 58.8127 146.493 59.3278 146.941Z" fill="#201A18"/>
<path fill-rule="evenodd" clip-rule="evenodd" d="M96.2766 132.8C96.5975 132.743 96.9034 132.958 96.9597 133.279C97.2947 135.187 97.7869 136.72 98.6678 137.967C99.5413 139.203 100.832 140.207 102.853 140.99C103.157 141.107 103.308 141.449 103.19 141.753C103.073 142.057 102.731 142.208 102.427 142.09C100.236 141.241 98.7375 140.111 97.7041 138.648C96.678 137.196 96.1456 135.466 95.7975 133.483C95.7411 133.162 95.9556 132.856 96.2766 132.8Z" fill="#201A18"/>
<path fill-rule="evenodd" clip-rule="evenodd" d="M56.9099 157.294C57.22 157.394 57.3903 157.727 57.2903 158.037C56.6934 159.887 56.0971 162.6 56.9759 165.18C57.8369 167.707 60.1733 170.264 65.7913 171.705C66.107 171.786 66.2973 172.107 66.2163 172.423C66.1354 172.739 65.8139 172.929 65.4982 172.848C59.611 171.338 56.8828 168.566 55.8589 165.56C54.8527 162.607 55.551 159.585 56.1672 157.675C56.2673 157.364 56.5998 157.194 56.9099 157.294Z" fill="#201A18"/>
<path fill-rule="evenodd" clip-rule="evenodd" d="M113.656 139.495C113.851 139.756 113.796 140.126 113.534 140.32C113.534 140.32 113.533 140.321 113.53 140.323C113.528 140.325 113.524 140.328 113.519 140.333C113.509 140.341 113.496 140.353 113.479 140.368C113.456 140.388 113.434 140.408 113.407 140.433C113.389 140.449 113.37 140.466 113.349 140.486C113.243 140.582 113.104 140.705 112.931 140.842C112.584 141.117 112.104 141.439 111.456 141.723C110.156 142.293 108.227 142.687 105.404 142.296C105.081 142.251 104.856 141.953 104.9 141.63C104.945 141.308 105.243 141.082 105.566 141.127C108.202 141.493 109.906 141.114 110.982 140.642C111.822 140.274 112.262 139.875 112.568 139.598C112.666 139.508 112.751 139.432 112.831 139.372C113.093 139.178 113.462 139.233 113.656 139.495Z" fill="#201A18"/>
<path fill-rule="evenodd" clip-rule="evenodd" d="M104.071 104.415C104.415 104.024 104.998 103.806 105.819 103.806C106.425 103.806 107.104 104.035 107.79 104.386C108.487 104.742 109.244 105.251 110.018 105.872C111.568 107.114 113.234 108.838 114.699 110.79C115.478 111.829 116.101 113.324 116.696 115.046C117.059 116.097 117.423 117.27 117.808 118.51C118.054 119.303 118.309 120.123 118.577 120.957C119.96 125.253 121.753 130.049 124.841 134.159C127.005 136.096 129.991 139.714 131.212 141.278C131.413 141.534 131.367 141.905 131.111 142.106C130.854 142.306 130.483 142.261 130.282 142.004C129.054 140.432 126.093 136.851 124.013 135.002C123.984 134.976 123.957 134.947 123.934 134.916C120.7 130.629 118.85 125.654 117.454 121.319C117.176 120.456 116.918 119.624 116.671 118.829C116.292 117.607 115.939 116.469 115.581 115.431C114.989 113.717 114.414 112.377 113.755 111.498C112.343 109.616 110.745 107.966 109.28 106.792C108.548 106.206 107.859 105.746 107.253 105.437C106.636 105.121 106.153 104.986 105.819 104.986C105.214 104.986 105.011 105.139 104.962 105.188C105.006 105.348 104.981 105.523 104.886 105.667C104.752 105.871 104.506 105.971 104.268 105.919C104.092 105.881 103.77 105.882 103.457 105.973C103.139 106.065 102.953 106.211 102.88 106.356C102.638 106.841 102.785 107.349 102.871 107.506C102.918 107.593 102.943 107.69 102.943 107.789V108.969C102.943 109.21 103.039 109.478 103.259 109.783C103.48 110.089 103.802 110.398 104.19 110.709C104.575 111.019 105.005 111.313 105.431 111.597C105.509 111.649 105.588 111.701 105.666 111.753C106.004 111.978 106.337 112.199 106.614 112.404C108.136 113.536 108.864 114.656 109.235 115.603C109.419 116.071 109.509 116.483 109.569 116.804C109.585 116.89 109.597 116.957 109.607 117.017C109.619 117.081 109.629 117.137 109.641 117.2C109.662 117.312 109.677 117.356 109.683 117.371C109.808 117.672 109.666 118.017 109.365 118.142C109.064 118.268 108.719 118.125 108.593 117.825C108.538 117.691 108.506 117.545 108.483 117.426C108.471 117.365 108.456 117.283 108.442 117.201C108.43 117.137 108.419 117.074 108.409 117.02C108.356 116.735 108.282 116.404 108.137 116.034C107.85 115.303 107.264 114.358 105.909 113.351C105.661 113.166 105.362 112.968 105.026 112.745C104.945 112.691 104.861 112.636 104.776 112.579C104.347 112.293 103.88 111.974 103.451 111.63C103.024 111.287 102.612 110.902 102.302 110.474C101.992 110.044 101.763 109.538 101.763 108.969V107.921C101.574 107.477 101.412 106.654 101.825 105.828C102.106 105.265 102.658 104.976 103.13 104.839C103.373 104.769 103.628 104.729 103.871 104.718C103.92 104.613 103.986 104.511 104.071 104.415ZM104.941 105.217C104.941 105.217 104.941 105.217 104.941 105.217Z" fill="#201A18"/>
<path fill-rule="evenodd" clip-rule="evenodd" d="M131.56 142.359C131.815 142.156 132.186 142.199 132.389 142.454C134.679 145.335 136.392 147.832 137.257 150.196C138.134 152.595 138.14 154.861 137.034 157.231C135.935 159.587 134.57 160.489 133.524 160.982C133.337 161.07 133.156 161.147 133.003 161.211C132.955 161.231 132.91 161.251 132.868 161.269C132.678 161.35 132.566 161.405 132.494 161.453C132.487 161.458 132.481 161.462 132.476 161.466C132.479 161.482 132.484 161.503 132.492 161.532C132.576 161.812 132.83 162.323 133.282 162.952C133.727 163.571 134.341 164.274 135.115 164.943C136.664 166.28 138.83 167.463 141.545 167.602C142.294 167.641 142.998 167.841 143.321 168.394C143.676 169.002 143.373 169.646 143.019 170.076C142.278 170.977 140.655 171.847 138.616 172.22C134.45 172.983 128.322 171.733 123.181 164.248C122.996 163.98 123.064 163.612 123.333 163.428C123.601 163.243 123.969 163.311 124.153 163.58C129.042 170.698 134.714 171.735 138.403 171.059C140.291 170.714 141.609 169.933 142.108 169.326C142.277 169.121 142.295 169.016 142.295 168.982C142.261 168.95 142.085 168.812 141.485 168.781C138.447 168.625 136.04 167.3 134.344 165.836C133.496 165.103 132.82 164.331 132.324 163.641C131.835 162.961 131.499 162.328 131.362 161.871C131.285 161.615 131.257 161.334 131.357 161.057C131.457 160.778 131.653 160.597 131.835 160.474C132.01 160.357 132.217 160.264 132.402 160.185C132.454 160.162 132.506 160.14 132.559 160.118C132.707 160.055 132.857 159.991 133.022 159.914C133.857 159.521 134.999 158.801 135.965 156.732C136.924 154.676 136.93 152.738 136.149 150.602C135.354 148.43 133.748 146.059 131.465 143.188C131.263 142.933 131.305 142.562 131.56 142.359ZM142.293 168.97C142.294 168.97 142.294 168.971 142.295 168.975C142.293 168.971 142.293 168.97 142.293 168.97ZM132.473 161.432C132.473 161.432 132.473 161.433 132.473 161.434Z" fill="#201A18"/>
<path fill-rule="evenodd" clip-rule="evenodd" d="M105.229 145.771C105.555 145.771 105.819 146.035 105.819 146.361C105.819 146.871 105.801 147.47 105.781 148.139C105.741 149.443 105.694 151.016 105.756 152.728C105.85 155.293 106.192 158.029 107.155 160.29C108.109 162.532 109.655 164.271 112.167 164.958C114.714 165.654 118.365 165.302 123.583 163.076C123.883 162.948 124.229 163.088 124.357 163.388C124.485 163.687 124.346 164.034 124.046 164.162C118.718 166.435 114.772 166.894 111.856 166.096C108.906 165.29 107.124 163.23 106.069 160.752C105.022 158.292 104.672 155.386 104.577 152.771C104.513 151.028 104.563 149.351 104.603 148.022C104.622 147.375 104.639 146.81 104.639 146.361C104.639 146.035 104.903 145.771 105.229 145.771Z" fill="#201A18"/>
<path fill-rule="evenodd" clip-rule="evenodd" d="M103.195 141.945C103.516 142.003 103.729 142.31 103.671 142.631C103.273 144.832 103.108 147.102 102.949 149.292C102.875 150.32 102.801 151.331 102.706 152.308C102.558 153.818 102.357 155.244 102.005 156.48C101.653 157.715 101.14 158.808 100.336 159.611C99.6565 160.291 99.376 160.856 99.3606 161.302C99.3467 161.707 99.5482 162.178 100.266 162.699C100.543 162.901 100.983 163.035 101.562 163.063C102.131 163.091 102.78 163.013 103.42 162.845C104.06 162.678 104.668 162.427 105.158 162.125C105.656 161.817 105.986 161.486 106.139 161.18C106.285 160.888 106.639 160.77 106.931 160.916C107.222 161.061 107.34 161.416 107.195 161.707C106.905 162.286 106.373 162.761 105.777 163.129C105.173 163.502 104.453 163.795 103.719 163.987C102.985 164.179 102.214 164.276 101.505 164.242C100.804 164.208 100.106 164.042 99.5717 163.654C98.6667 162.996 98.1492 162.194 98.1813 161.262C98.212 160.371 98.7428 159.535 99.5016 158.777C100.107 158.171 100.547 157.292 100.87 156.157C101.192 155.024 101.386 153.682 101.531 152.193C101.621 151.276 101.692 150.299 101.766 149.289C101.927 147.066 102.1 144.684 102.509 142.421C102.567 142.1 102.874 141.887 103.195 141.945Z" fill="#201A18"/>
<path fill-rule="evenodd" clip-rule="evenodd" d="M107.24 160.962C107.485 161.177 107.51 161.55 107.295 161.795C106.829 162.328 106.682 162.741 106.682 163.032C106.682 163.298 106.805 163.573 107.156 163.855C107.907 164.455 109.497 164.902 111.832 164.975C112.158 164.986 112.414 165.258 112.403 165.583C112.393 165.909 112.121 166.165 111.795 166.155C109.411 166.08 107.486 165.629 106.42 164.776C105.863 164.331 105.501 163.742 105.502 163.031C105.502 162.344 105.841 161.665 106.407 161.018C106.622 160.773 106.995 160.748 107.24 160.962Z" fill="#201A18"/>
<path fill-rule="evenodd" clip-rule="evenodd" d="M67.2583 126.684C67.2521 126.678 67.0522 126.501 66.2185 126.723C65.8267 126.828 65.299 127.191 64.6874 127.825C64.0922 128.442 63.4771 129.252 62.9029 130.139C61.7462 131.925 60.8153 133.929 60.5418 135.16C59.9631 137.764 59.4486 143.152 59.3015 146.461C59.2871 146.787 59.0114 147.039 58.6859 147.024C58.3604 147.01 58.1082 146.734 58.1227 146.409C58.2706 143.08 58.7886 137.61 59.3899 134.904C59.7065 133.479 60.7196 131.339 61.9125 129.497C62.5131 128.57 63.1743 127.694 63.8381 127.006C64.4856 126.335 65.1999 125.773 65.9144 125.583C66.8508 125.333 67.6096 125.377 68.0829 125.84C68.1724 125.927 68.2431 126.021 68.2981 126.118C68.6256 126.021 69.0217 126.012 69.4279 126.215C69.8935 126.448 70.1568 126.851 70.3002 127.202C70.3736 127.381 70.4221 127.562 70.4519 127.728C70.5572 127.785 70.6631 127.859 70.762 127.95C71.0216 128.189 71.2291 128.549 71.2291 129.029V130.652C71.2291 131.173 70.9862 131.556 70.6751 131.831C70.3885 132.085 70.0208 132.267 69.7152 132.414C69.6731 132.435 69.6317 132.455 69.591 132.474C69.3105 132.608 69.0654 132.726 68.8483 132.869C68.608 133.028 68.4548 133.186 68.3704 133.365C68.2793 133.559 68.1977 133.743 68.1201 133.919C67.9715 134.254 67.8379 134.556 67.6819 134.823C67.4176 135.274 67.0731 135.672 66.455 136.213C66.4558 136.212 66.4293 136.237 66.3877 136.317C66.3477 136.395 66.3043 136.503 66.2608 136.647C66.1734 136.935 66.0993 137.318 66.0397 137.781C65.9208 138.703 65.8681 139.867 65.8544 141.053C65.827 143.423 65.9551 145.815 65.9916 146.398C66.0119 146.723 65.7647 147.003 65.4395 147.024C65.1143 147.044 64.8341 146.797 64.8138 146.472C64.7765 145.875 64.6465 143.45 64.6744 141.04C64.6883 139.837 64.7417 138.62 64.8694 137.63C64.933 137.136 65.0174 136.681 65.1315 136.304C65.2378 135.954 65.3985 135.57 65.6779 135.325C66.2398 134.833 66.4854 134.531 66.6635 134.227C66.7882 134.014 66.8775 133.811 67.0013 133.529C67.0811 133.348 67.1753 133.133 67.3027 132.863C67.5133 132.415 67.8578 132.109 68.1983 131.884C68.4885 131.693 68.8138 131.537 69.0873 131.407C69.127 131.388 69.1656 131.369 69.2029 131.351C69.5242 131.197 69.7465 131.077 69.8932 130.947C70.0154 130.839 70.0491 130.758 70.0491 130.652V129.029C70.0491 128.966 70.0366 128.926 70.024 128.899C70.0106 128.87 69.9908 128.844 69.963 128.818C69.8997 128.76 69.818 128.729 69.7859 128.723C69.5101 128.668 69.3116 128.425 69.3116 128.144C69.3116 128.04 69.2863 127.84 69.208 127.649C69.1301 127.458 69.0246 127.333 68.9002 127.271C68.7915 127.216 68.6931 127.221 68.5817 127.268C68.4539 127.322 68.3452 127.42 68.2972 127.48C68.1217 127.7 67.8156 127.765 67.5659 127.636C67.3161 127.507 67.192 127.22 67.2692 126.95C67.3174 126.781 67.2709 126.696 67.2583 126.684ZM83.4924 138.006C83.2397 138.173 82.88 138.41 82.1732 138.534C82.0464 138.557 81.9717 138.579 81.9308 138.594C81.929 138.603 81.927 138.615 81.9249 138.628C81.923 138.64 81.921 138.652 81.9189 138.666C81.8981 138.8 81.8628 139.029 81.7478 139.285C81.6187 139.571 81.4054 139.863 81.0579 140.167C80.7939 140.398 80.7623 140.502 80.757 140.525C80.7522 140.547 80.7432 140.614 80.8458 140.862C80.8851 140.957 80.9359 141.067 80.9944 141.194C81.2247 141.692 81.5752 142.45 81.8227 143.592C82.2214 144.451 82.9112 145.714 83.5157 146.786C83.823 147.331 84.1053 147.821 84.3107 148.175C84.4133 148.351 84.4967 148.494 84.5544 148.593L84.6208 148.706L84.6437 148.744L84.1357 149.045C83.6278 149.345 83.6278 149.345 83.6277 149.345L83.6039 149.304L83.5364 149.189C83.478 149.09 83.3937 148.946 83.2901 148.767C83.083 148.41 82.7983 147.916 82.4879 147.366C81.8709 146.272 81.1403 144.936 80.723 144.026C80.7048 143.986 80.6911 143.944 80.682 143.901C80.4645 142.868 80.1739 142.236 79.94 141.728C79.8728 141.582 79.8102 141.446 79.7554 141.313C79.6368 141.027 79.5172 140.669 79.6045 140.272C79.6915 139.876 79.9549 139.565 80.2809 139.279C80.5234 139.067 80.6236 138.907 80.6719 138.8C80.7191 138.695 80.7323 138.612 80.7545 138.474C80.7562 138.463 80.758 138.452 80.7599 138.44L80.7613 138.431C80.7843 138.288 80.8313 137.995 81.0765 137.756C81.3072 137.531 81.6282 137.432 81.9681 137.372C82.4361 137.29 82.6369 137.157 82.8423 137.021C82.8585 137.011 82.8746 137 82.891 136.989C83.0177 136.906 83.1943 136.794 83.4308 136.73C83.6716 136.665 83.9287 136.661 84.2255 136.706C84.2393 136.708 84.2538 136.711 84.2687 136.713C84.7691 136.789 85.8787 136.959 86.9296 137.62C88.0427 138.319 89.0519 139.544 89.2945 141.647C89.495 143.385 89.8312 144.186 90.093 144.81C90.1083 144.846 90.1233 144.882 90.138 144.917C90.2783 145.254 90.4156 145.6 90.4752 146.031C90.535 146.464 90.5127 146.946 90.3946 147.576C90.3345 147.896 90.0262 148.107 89.7059 148.047C89.3856 147.987 89.1747 147.679 89.2347 147.359C89.3379 146.808 89.3433 146.461 89.3063 146.193C89.2691 145.924 89.1851 145.698 89.0488 145.371C89.035 145.338 89.021 145.305 89.0068 145.271C88.7238 144.595 88.3415 143.683 88.1223 141.782C87.9224 140.05 87.1246 139.136 86.3017 138.619C85.4605 138.09 84.5545 137.951 84.0674 137.876L84.046 137.873C83.8634 137.845 83.7794 137.858 83.739 137.869C83.6943 137.882 83.6496 137.903 83.5367 137.977C83.5223 137.986 83.5076 137.996 83.4924 138.006ZM84.1357 149.045L83.6277 149.345C83.7935 149.625 84.1554 149.718 84.4359 149.553C84.7164 149.387 84.8095 149.025 84.6437 148.744L84.1357 149.045ZM76.843 152.557C77.1026 152.754 77.1534 153.124 76.9564 153.384L75.3339 155.523C75.1369 155.782 74.7668 155.833 74.5072 155.636C74.2476 155.439 74.1968 155.069 74.3938 154.809L76.0163 152.671C76.2132 152.411 76.5834 152.36 76.843 152.557ZM62.8595 155.227C63.0955 155.451 63.1046 155.825 62.8799 156.061C62.698 156.252 62.3753 156.477 62.0038 156.701C61.6158 156.934 61.1249 157.194 60.568 157.446C59.4586 157.949 58.0542 158.44 56.6513 158.627C56.3283 158.67 56.0315 158.443 55.9884 158.12C55.9454 157.797 56.1723 157.501 56.4953 157.457C57.7474 157.291 59.0368 156.845 60.0805 156.372C60.6 156.136 61.0504 155.897 61.396 155.689C61.7581 155.472 61.9614 155.314 62.0253 155.247C62.2501 155.011 62.6235 155.002 62.8595 155.227ZM75.4146 156.389C75.6605 156.175 76.0332 156.201 76.247 156.447C77.6561 158.067 79.5207 159.07 80.7312 159.197C81.0552 159.231 81.2903 159.522 81.2562 159.846C81.2221 160.17 80.9317 160.405 80.6076 160.371C79.0155 160.203 76.8975 158.993 75.3565 157.221C75.1427 156.975 75.1687 156.602 75.4146 156.389Z" fill="#201A18"/>
<path fill-rule="evenodd" clip-rule="evenodd" d="M89.7783 146.593C90.0985 146.532 90.4073 146.742 90.468 147.062C91.0189 149.963 91.5864 153.457 90.9853 156.436C90.6819 157.94 90.0756 159.342 88.9971 160.474C87.916 161.609 86.3994 162.431 84.3472 162.837C84.0276 162.901 83.7171 162.693 83.6538 162.373C83.5905 162.053 83.7983 161.743 84.1179 161.68C85.9746 161.312 87.2577 160.589 88.1428 159.66C89.0305 158.729 89.5571 157.548 89.8286 156.203C90.3776 153.482 89.8642 150.208 89.3087 147.282C89.2479 146.962 89.4582 146.653 89.7783 146.593Z" fill="#201A18"/>
<path fill-rule="evenodd" clip-rule="evenodd" d="M78.776 132.576C79.8052 132.423 81.0707 132.393 82.1126 133.118C83.1235 133.821 83.4952 134.709 83.4718 135.645C83.45 136.516 83.0847 137.392 82.7562 138.122C82.6225 138.419 82.2732 138.551 81.976 138.418C81.6789 138.284 81.5464 137.935 81.6801 137.637C82.0153 136.892 82.277 136.219 82.2921 135.615C82.3056 135.076 82.1241 134.563 81.4387 134.086C80.7843 133.631 79.911 133.601 78.9489 133.743C78.5392 133.804 78.1432 133.891 77.7624 133.974C77.7034 133.987 77.6447 134 77.5865 134.013C77.1783 134.101 76.744 134.192 76.3917 134.192C75.8934 134.192 74.1657 134.368 72.4199 134.707C71.5523 134.875 70.7033 135.078 70.0164 135.312C69.6729 135.428 69.3822 135.549 69.1551 135.669C68.9201 135.794 68.792 135.898 68.7345 135.968C68.3572 136.426 68.2731 136.697 68.26 136.805C68.3395 136.887 68.3943 136.991 68.416 137.105C68.4468 137.267 68.4089 137.433 68.3115 137.566C68.1638 137.766 68.0158 138.046 67.9784 138.255C67.9717 138.292 67.9702 138.319 67.9704 138.336C67.9777 138.338 67.9869 138.341 67.9986 138.345C68.3744 138.452 68.6466 138.648 68.8142 138.933C68.9327 139.135 68.9813 139.374 69.0025 139.478C69.0057 139.494 69.0082 139.507 69.0103 139.516C69.0134 139.529 69.0161 139.539 69.0186 139.548C69.0607 139.56 69.1489 139.576 69.3116 139.576C70.0559 139.576 70.6005 139.825 70.9916 140.005C71.0483 140.03 71.1018 140.055 71.1522 140.077C71.3587 140.167 71.5069 140.218 71.6525 140.232C71.7871 140.246 71.9526 140.232 72.1845 140.137C72.5604 139.982 73.0803 139.871 73.6009 139.766C73.6993 139.746 73.799 139.727 73.8998 139.707C74.3569 139.616 74.8366 139.521 75.3165 139.4C76.5265 139.095 77.5129 138.674 77.9659 137.995C78.1467 137.724 78.513 137.65 78.7841 137.831C79.0552 138.012 79.1285 138.378 78.9477 138.649C78.2207 139.74 76.8101 140.241 75.6048 140.544C75.0925 140.673 74.5769 140.775 74.1189 140.866C74.0209 140.886 73.9255 140.904 73.8333 140.923C73.2868 141.033 72.8848 141.124 72.6338 141.228C72.2388 141.39 71.8788 141.441 71.534 141.406C71.2251 141.375 70.9578 141.277 70.7327 141.181C70.6864 141.21 70.6352 141.234 70.5799 141.249C68.5113 141.84 67.7901 142.169 67.3832 142.455C67.2003 142.584 67.0733 142.709 66.8864 142.892C66.8673 142.911 66.8475 142.93 66.827 142.95C66.6064 143.166 66.3348 143.422 65.8972 143.741C65.6337 143.932 65.2647 143.874 65.073 143.61C64.8814 143.347 64.9396 142.978 65.2032 142.786C65.5769 142.514 65.8031 142.301 66.0019 142.106C66.0224 142.086 66.0429 142.066 66.0636 142.046C66.2442 141.868 66.4384 141.677 66.7041 141.49C67.098 141.213 67.6318 140.955 68.5591 140.638C68.4575 140.598 68.3627 140.546 68.2762 140.48C67.9814 140.254 67.8996 139.949 67.8612 139.784C67.8457 139.717 67.8354 139.671 67.8279 139.637C67.812 139.566 67.8091 139.552 67.7971 139.532C67.7964 139.531 67.7951 139.53 67.7932 139.529C67.7842 139.522 67.7517 139.501 67.6744 139.479C67.3383 139.383 67.0622 139.183 66.91 138.873C66.7685 138.585 66.7745 138.283 66.8169 138.047C66.8704 137.748 66.9996 137.454 67.1374 137.212C67.0819 137.044 67.0652 136.857 67.0885 136.664C67.1394 136.242 67.375 135.763 67.8235 135.218C68.0241 134.975 68.3085 134.782 68.6023 134.626C68.9038 134.467 69.2579 134.323 69.6369 134.194C70.3951 133.937 71.3023 133.721 72.1955 133.548C73.9714 133.204 75.7838 133.012 76.3917 133.012C76.5926 133.012 76.8959 132.955 77.3358 132.859C77.3907 132.847 77.4472 132.835 77.5052 132.822C77.8837 132.739 78.3228 132.643 78.776 132.576ZM86.6995 136.092C86.3752 136.323 86.022 136.741 85.4242 137.563C85.2325 137.826 84.8635 137.885 84.6 137.693C84.3364 137.501 84.2782 137.132 84.4699 136.869C85.0521 136.068 85.5101 135.49 86.0156 135.131C86.5672 134.739 87.1287 134.634 87.8234 134.634C88.5949 134.634 89.4154 134.832 90.1408 135.501C90.8492 136.154 91.4058 137.201 91.7892 138.772C91.861 139.067 92.0282 139.426 92.2858 139.878C92.4591 140.181 92.6565 140.5 92.8735 140.849C92.9795 141.02 93.0901 141.199 93.2048 141.386C93.8899 142.508 94.6626 143.874 95.0957 145.499C95.5317 147.136 95.6203 149.021 94.9645 151.177C94.3109 153.325 92.9279 155.712 90.4696 158.377C90.2486 158.617 89.8754 158.632 89.6358 158.411C89.3963 158.19 89.3813 157.816 89.6023 157.577C91.9747 155.005 93.2468 152.769 93.8355 150.833C94.4219 148.906 94.3399 147.246 93.9555 145.803C93.568 144.349 92.8703 143.102 92.1979 142.002C92.094 141.831 91.9891 141.662 91.8857 141.496C91.8092 141.372 91.7335 141.25 91.6597 141.13C91.5436 142.128 91.3733 143.136 91.206 144.035C91.1038 144.584 91.001 145.102 90.9112 145.554C90.8709 145.756 90.8332 145.946 90.7994 146.119C90.7442 146.402 90.6996 146.64 90.6689 146.828C90.6362 147.028 90.6259 147.134 90.6259 147.172C90.6259 147.498 90.3618 147.762 90.0359 147.762C89.7101 147.762 89.4459 147.498 89.4459 147.172C89.4459 147.026 89.4725 146.833 89.5043 146.638C89.5381 146.43 89.5857 146.177 89.6412 145.893C89.6764 145.713 89.7148 145.519 89.7556 145.314C89.8448 144.866 89.945 144.361 90.0459 143.819C90.3358 142.261 90.6169 140.46 90.6257 138.983C90.2734 137.574 89.8052 136.796 89.341 136.368C88.8864 135.949 88.3794 135.814 87.8234 135.814C87.2642 135.814 86.9775 135.895 86.6995 136.092Z" fill="#201A18"/>
<path fill-rule="evenodd" clip-rule="evenodd" d="M78.5192 123.33C78.6166 123.413 78.7356 123.507 78.8794 123.612C80.927 125.114 81.7505 126.416 81.9916 127.898C82.107 128.607 82.0834 129.329 82.0381 130.069C82.0282 130.231 82.0172 130.395 82.006 130.56C81.9655 131.162 81.9231 131.791 81.9231 132.496C81.9231 132.821 81.659 133.086 81.3331 133.086C81.0072 133.086 80.7431 132.821 80.7431 132.496C80.7431 131.748 80.7889 131.068 80.8298 130.462C80.8407 130.302 80.8511 130.146 80.8603 129.996C80.9051 129.265 80.9195 128.657 80.8268 128.087C80.6515 127.009 80.0738 125.951 78.1816 124.564C77.8202 124.299 77.5388 124.055 77.3456 123.829C77.1773 123.632 76.9648 123.323 77.0098 122.952C77.0648 122.501 77.4343 122.306 77.6606 122.233C77.8987 122.157 78.1791 122.14 78.4478 122.146C79.5258 122.171 81.2575 122.602 82.6171 123.133C82.6881 123.16 82.7652 123.189 82.8478 123.219C83.6158 123.504 84.8486 123.96 85.8752 125.493C86.9894 127.157 87.8233 130.015 87.8233 135.151C87.8233 135.477 87.5592 135.741 87.2333 135.741C86.9075 135.741 86.6433 135.477 86.6433 135.151C86.6433 130.108 85.8178 127.528 84.8947 126.149C84.0862 124.942 83.177 124.603 82.4348 124.325C82.3503 124.294 82.2679 124.263 82.1881 124.232C80.9405 123.745 79.4208 123.374 78.5192 123.33Z" fill="#201A18"/>
<path fill-rule="evenodd" clip-rule="evenodd" d="M92.5461 72.0616C92.662 72.0928 92.8856 72.1166 93.277 72.0659C94.3381 71.9285 95.2072 71.9948 95.9014 72.3769C96.6111 72.7677 96.923 73.3804 97.0925 73.7133L97.0982 73.7245C97.2957 74.1122 97.3316 74.1533 97.3846 74.1906C97.4101 74.2086 97.6132 74.3454 98.3611 74.2929C100.027 74.1761 101.56 74.5969 102.667 74.9009C102.897 74.964 103.109 75.0221 103.3 75.0693C103.922 75.2232 104.257 75.2527 104.456 75.2166L104.457 75.2163C104.54 75.2013 104.635 75.184 104.775 74.9189C105.094 74.3157 105.609 73.5881 106.507 73.4937C106.929 73.4493 107.282 73.569 107.522 73.6813C107.754 73.7897 107.965 73.9331 108.107 74.0305L108.118 74.0381C108.451 74.2653 108.627 74.3857 108.829 74.4495C108.969 74.4936 109.16 74.5217 109.491 74.3824C110.382 74.0076 110.915 73.3665 111.25 72.4173C111.605 71.4132 111.719 70.1073 111.719 68.5201C111.719 68.1254 111.754 67.6043 111.79 67.074C111.808 66.8061 111.827 66.5359 111.841 66.2784C111.886 65.4476 111.899 64.6115 111.803 63.8676C111.704 63.109 111.508 62.5798 111.241 62.256C111.021 61.9885 110.672 61.7572 109.949 61.7572C108.794 61.7572 107.905 61.5828 107.167 61.2899C106.433 60.9985 105.912 60.6124 105.51 60.306C105.494 60.2943 105.479 60.2828 105.464 60.2714C105.07 59.9715 104.842 59.7972 104.551 59.6736C104.285 59.5606 103.907 59.4699 103.254 59.5198C101.429 59.6594 100.278 59.0541 99.464 58.6263C99.3855 58.5851 99.3102 58.5455 99.2377 58.5084C98.8307 58.3 98.5754 58.1996 98.314 58.1717C98.0745 58.1461 97.7243 58.1723 97.1567 58.427C96.5392 58.7041 95.923 58.9071 95.3942 59.0799L95.3651 59.0893C94.8256 59.2656 94.4013 59.4042 94.0407 59.5689C93.6818 59.7328 93.4786 59.8833 93.3574 60.0272C93.2542 60.1496 93.1581 60.3279 93.1304 60.6636C92.9808 62.9253 92.7568 64.8868 92.5681 66.5294L92.5664 66.5438C92.3754 68.2054 92.2286 69.4832 92.2114 70.4643C92.1931 71.5116 92.34 71.8864 92.4265 71.997L92.4274 71.9982C92.4401 72.0145 92.4585 72.0381 92.5461 72.0616ZM91.3871 66.4696C90.826 71.3511 90.5668 73.6066 93.4285 73.2362C95.3982 72.9812 95.7337 73.6428 96.0737 74.3132C96.3957 74.9481 96.7217 75.5908 98.4437 75.4701C99.8874 75.3689 101.184 75.7217 102.293 76.0236C103.904 76.462 105.12 76.793 105.819 75.4701C106.431 74.3106 106.885 74.6222 107.509 75.0514C108.088 75.449 108.814 75.9476 109.949 75.4701C112.452 74.417 112.899 71.7469 112.899 68.5201C112.899 68.1635 112.93 67.7166 112.964 67.2175C113.141 64.6093 113.416 60.5772 109.949 60.5772C107.809 60.5772 106.936 59.9106 106.14 59.3029C105.401 58.7378 104.727 58.2236 103.164 58.3432C101.686 58.4563 100.802 57.994 100.007 57.5783C99.0564 57.0812 98.233 56.6506 96.6736 57.3504C96.0977 57.6088 95.5138 57.7994 94.9621 57.9796C93.394 58.4916 92.085 58.9191 91.9535 60.5772C91.8037 62.8451 91.578 64.8092 91.3871 66.4696Z" fill="#201A18"/>
<path fill-rule="evenodd" clip-rule="evenodd" d="M97.7061 63.4636C98.032 63.4636 98.2962 63.7277 98.2962 64.0536C98.2962 65.3811 98.0245 68.9084 96.9452 72.6258C96.8544 72.9388 96.527 73.1188 96.2141 73.0279C95.9012 72.9371 95.7211 72.6098 95.812 72.2968C96.8568 68.6981 97.1161 65.2828 97.1161 64.0536C97.1161 63.7277 97.3803 63.4636 97.7061 63.4636ZM103.67 65.715C103.974 65.8314 104.126 66.1725 104.01 66.4769C103.696 67.2975 103.223 68.6662 102.829 70.089C102.431 71.5277 102.131 72.9606 102.131 73.9364C102.131 74.2622 101.867 74.5264 101.541 74.5264C101.215 74.5264 100.951 74.2622 100.951 73.9364C100.951 72.788 101.291 71.2217 101.692 69.7742C102.097 68.3109 102.582 66.9065 102.908 66.0554C103.024 65.7511 103.365 65.5987 103.67 65.715ZM108.45 65.6766C108.776 65.6636 109.05 65.917 109.064 66.2426C109.115 67.5263 108.915 70.7344 107.684 73.443C107.549 73.7397 107.199 73.8708 106.902 73.736C106.606 73.6011 106.474 73.2513 106.609 72.9547C107.738 70.4711 107.931 67.4644 107.884 66.2897C107.871 65.9641 108.125 65.6896 108.45 65.6766Z" fill="#201A18"/>
<path fill-rule="evenodd" clip-rule="evenodd" d="M92.7438 61.5925C92.9375 61.8546 92.8821 62.224 92.62 62.4177C90.9061 63.6846 89.738 64.6842 89.2158 65.794C88.7301 66.8264 88.7616 68.0675 89.8142 69.9622C90.9485 72.004 91.2111 73.019 91.3768 73.7C91.4583 74.0346 91.4976 74.1909 91.5838 74.3509C91.6666 74.5047 91.8135 74.6953 92.1632 75.0092C92.4324 75.2508 92.6737 75.3333 92.8901 75.3448C93.1189 75.3571 93.3758 75.2924 93.6666 75.1467C94.2043 74.8772 94.7162 74.4104 95.2079 73.962C95.2699 73.9055 95.3315 73.8493 95.3927 73.7939C95.6344 73.5752 96.0075 73.5939 96.2261 73.8355C96.4447 74.0772 96.4261 74.4503 96.1844 74.6689C96.1287 74.7193 96.0699 74.7732 96.0083 74.8296C95.5339 75.2643 94.8915 75.8528 94.1953 76.2017C93.79 76.4047 93.3256 76.5498 92.8272 76.5232C92.3164 76.4959 91.8248 76.2911 91.375 75.8874C90.9781 75.5312 90.7195 75.2348 90.5448 74.9103C90.3832 74.6102 90.3116 74.3147 90.2428 74.0305C90.2386 74.0133 90.2344 73.9961 90.2303 73.979C90.0871 73.3909 89.8609 72.4762 88.7827 70.5353C87.6227 68.4474 87.4434 66.7895 88.1481 65.2917C88.8164 63.8713 90.24 62.7094 91.9186 61.4687C92.1807 61.275 92.5501 61.3305 92.7438 61.5925Z" fill="#201A18"/>
<path fill-rule="evenodd" clip-rule="evenodd" d="M91.6707 69.1745C91.9946 69.2105 92.228 69.5022 92.192 69.8261C92.1484 70.2186 92.0396 70.5972 91.9289 70.9493C91.9002 71.0405 91.8716 71.1296 91.8432 71.2176C91.7577 71.4834 91.6752 71.7397 91.6046 72.0172C91.4243 72.7255 91.3401 73.51 91.6342 74.5069C91.7265 74.8195 91.5478 75.1476 91.2353 75.2398C90.9228 75.332 90.5947 75.1534 90.5024 74.8409C90.1329 73.5884 90.2436 72.5802 90.461 71.7262C90.5416 71.4095 90.6397 71.1048 90.7276 70.8319C90.754 70.75 90.7794 70.671 90.8032 70.5954C90.9108 70.2533 90.989 69.9671 91.0192 69.6958C91.0551 69.3719 91.3468 69.1385 91.6707 69.1745Z" fill="#201A18"/>
<path fill-rule="evenodd" clip-rule="evenodd" d="M6.61084 80.7382C9.30651 78.0727 13.3314 76.5915 19.0862 76.5915C19.4121 76.5915 19.6762 76.8556 19.6762 77.1815C19.6762 77.5073 19.4121 77.7715 19.0862 77.7715C13.5305 77.7715 9.84696 79.1978 7.44053 81.5773C5.02553 83.9652 3.80649 87.4013 3.37114 91.6069C2.93583 95.8121 3.29128 100.716 3.96025 105.962C4.35926 109.091 4.86504 112.31 5.37617 115.564C5.69589 117.599 6.01769 119.647 6.31677 121.695C6.95879 121.619 7.75692 121.415 8.74714 121.125C9.09605 121.022 9.4665 120.91 9.85724 120.792C10.8539 120.491 11.9826 120.149 13.223 119.829C16.6965 118.933 21.1232 118.181 26.5266 118.781C26.8504 118.817 27.0838 119.109 27.0478 119.433C27.0118 119.757 26.7201 119.99 26.3962 119.954C21.1793 119.374 16.9033 120.098 13.5179 120.972C12.3026 121.285 11.212 121.615 10.2226 121.915C9.82557 122.035 9.44489 122.15 9.07898 122.257C7.83118 122.623 6.71965 122.908 5.81087 122.908C5.51751 122.908 5.2687 122.692 5.22688 122.402C4.91118 120.21 4.56281 117.991 4.21551 115.78C3.70145 112.506 3.18972 109.248 2.78969 106.111C2.1179 100.843 1.74766 95.8298 2.19737 91.4854C2.64705 87.1414 3.92374 83.3952 6.61084 80.7382Z" fill="#201A18"/>
<path fill-rule="evenodd" clip-rule="evenodd" d="M93.9404 57.8729C86.8882 52.116 77.9916 52.1498 73.4843 54.4035C73.1928 54.5492 72.8384 54.4311 72.6927 54.1396C72.547 53.8482 72.6651 53.4938 72.9566 53.348C77.8895 50.8816 87.2834 50.9154 94.6867 56.9588C94.9391 57.1649 94.9767 57.5366 94.7706 57.789C94.5645 58.0414 94.1929 58.079 93.9404 57.8729Z" fill="#201A18"/>
<path fill-rule="evenodd" clip-rule="evenodd" d="M112.453 63.9144C112.749 63.7787 113.099 63.9087 113.235 64.205C114.41 66.7681 116.158 68.8503 118.101 70.7849C118.994 71.6743 119.921 72.5259 120.852 73.3804C120.934 73.4562 121.017 73.532 121.099 73.6079C122.109 74.5356 123.118 75.4701 124.062 76.4447C125.952 78.3949 127.615 80.5361 128.564 83.1989C129.516 85.8704 129.732 89.0169 128.814 92.951C128.81 92.9685 128.805 92.9858 128.8 93.0029C128.062 95.2256 127.162 97.0211 125.86 98.2493C124.535 99.4999 122.847 100.112 120.653 100.073C120.328 100.067 120.068 99.7984 120.074 99.4725C120.08 99.1467 120.349 98.8873 120.674 98.8932C122.611 98.9277 123.984 98.3969 125.05 97.3909C126.136 96.3667 126.957 94.8006 127.671 92.6566C128.538 88.9219 128.316 86.0173 127.452 83.595C126.584 81.1582 125.05 79.1594 123.215 77.266C122.297 76.3188 121.312 75.4055 120.301 74.4768C120.218 74.4004 120.135 74.3239 120.051 74.2472C119.124 73.3956 118.179 72.5281 117.268 71.6211C115.281 69.6419 113.421 67.4436 112.162 64.6966C112.027 64.4004 112.157 64.0502 112.453 63.9144ZM101.843 75.0645C102.091 74.8532 102.464 74.883 102.675 75.131C104.426 77.1863 105.358 79.0361 106.238 81.1805C106.499 81.8164 106.754 82.4731 107.023 83.1672C107.663 84.8181 108.386 86.6808 109.471 88.9797C109.61 89.2744 109.484 89.626 109.189 89.7651C108.894 89.9042 108.543 89.778 108.404 89.4833C107.3 87.1449 106.552 85.2166 105.907 83.5533C105.642 82.8704 105.394 82.2322 105.146 81.6286C104.293 79.5507 103.419 77.8235 101.777 75.8962C101.565 75.6482 101.595 75.2758 101.843 75.0645Z" fill="#201A18"/>
<path fill-rule="evenodd" clip-rule="evenodd" d="M92.3896 103.277C92.4373 103.599 92.2147 103.899 91.8924 103.947C91.0708 104.069 90.5728 104.456 90.2594 104.984C89.9297 105.538 89.7809 106.291 89.779 107.147C89.7752 108.866 90.3622 110.752 90.8015 111.597C90.9518 111.886 90.8393 112.242 90.5502 112.392C90.2611 112.543 89.9049 112.43 89.7546 112.141C89.2351 111.142 88.5947 109.07 88.5989 107.145C88.6011 106.179 88.765 105.188 89.245 104.381C89.7413 103.546 90.5498 102.953 91.7195 102.78C92.0418 102.732 92.3418 102.955 92.3896 103.277Z" fill="#201A18"/>
<path fill-rule="evenodd" clip-rule="evenodd" d="M93.5571 104.345C93.1952 103.997 92.7092 103.815 92.0385 103.932C91.7175 103.988 91.412 103.773 91.3562 103.452C91.3003 103.131 91.5153 102.825 91.8364 102.769C92.862 102.591 93.7312 102.875 94.3753 103.495C94.9976 104.093 95.3655 104.961 95.5287 105.895C95.8545 107.759 95.4074 110.122 94.154 111.912C93.9671 112.179 93.5992 112.244 93.3323 112.057C93.0653 111.87 93.0004 111.502 93.1873 111.236C94.257 109.707 94.6397 107.663 94.3663 106.098C94.2299 105.317 93.9409 104.714 93.5571 104.345Z" fill="#201A18"/>
<path fill-rule="evenodd" clip-rule="evenodd" d="M89.5665 108.821C89.5298 109.145 89.2376 109.378 88.9138 109.341C88.6618 109.313 88.3652 109.425 88.0971 109.685C87.8278 109.945 87.6631 110.285 87.6383 110.563C87.6167 110.804 87.6926 110.975 87.9152 111.093C88.1965 111.242 88.7916 111.344 89.8962 111.108C90.2148 111.039 90.5285 111.242 90.5968 111.561C90.6651 111.879 90.4622 112.193 90.1436 112.261C88.9378 112.52 88.0088 112.477 87.3634 112.136C86.6593 111.763 86.4057 111.099 86.4629 110.458C86.517 109.852 86.8392 109.26 87.2762 108.837C87.7143 108.413 88.3431 108.089 89.0466 108.169C89.3704 108.205 89.6031 108.497 89.5665 108.821Z" fill="#201A18"/>
<path fill-rule="evenodd" clip-rule="evenodd" d="M94.5076 108.703C94.6746 108.423 95.0368 108.332 95.3166 108.499C96.884 109.435 97.5032 110.831 96.8638 111.884C96.5577 112.387 96.0092 112.676 95.3886 112.682C94.7737 112.688 94.1131 112.422 93.4879 111.888C93.2401 111.676 93.2107 111.304 93.4223 111.056C93.6339 110.808 94.0063 110.779 94.2542 110.991C94.7212 111.389 95.1156 111.504 95.3773 111.502C95.6333 111.499 95.7828 111.39 95.8554 111.271C95.9733 111.077 96.0718 110.324 94.7117 109.512C94.4319 109.345 94.3405 108.983 94.5076 108.703Z" fill="#201A18"/>
<path fill-rule="evenodd" clip-rule="evenodd" d="M89.916 110.95C90.2196 110.832 90.5617 110.982 90.6802 111.286C90.9641 112.013 91.2247 112.434 91.4388 112.656C91.6352 112.859 91.7425 112.851 91.793 112.842C91.8935 112.825 92.0711 112.737 92.3237 112.467C92.5667 112.207 92.8229 111.841 93.0909 111.394C93.2586 111.115 93.621 111.024 93.9004 111.192C94.1798 111.359 94.2705 111.722 94.1028 112.001C93.8177 112.476 93.5116 112.924 93.1853 113.273C92.8686 113.611 92.4699 113.925 91.9897 114.006C91.4593 114.096 90.9813 113.881 90.59 113.476C90.2164 113.089 89.8869 112.499 89.5809 111.715C89.4624 111.411 89.6124 111.069 89.916 110.95Z" fill="#201A18"/>
<path d="M92.4439 113.802C92.4439 114.19 92.1293 114.504 91.7413 114.504C91.3533 114.504 91.0388 114.19 91.0388 113.802C91.0388 113.413 91.3533 113.099 91.7413 113.099C92.1293 113.099 92.4439 113.413 92.4439 113.802Z" fill="#201A18"/>
<path fill-rule="evenodd" clip-rule="evenodd" d="M92.1118 75.3464C92.4377 75.3524 92.6969 75.6214 92.6909 75.9472C92.5679 82.6029 92.3962 93.8762 92.6907 103.314C92.7008 103.64 92.4451 103.912 92.1194 103.922C91.7937 103.932 91.5214 103.677 91.5112 103.351C91.2157 93.8802 91.3881 82.5799 91.511 75.9254C91.5171 75.5996 91.786 75.3404 92.1118 75.3464Z" fill="#201A18"/>
<path fill-rule="evenodd" clip-rule="evenodd" d="M103.913 77.5535C104.171 77.7522 104.22 78.1227 104.021 78.381C103.937 78.4903 103.826 78.6267 103.695 78.7882C103.016 79.626 101.79 81.1392 100.866 83.0569C99.7681 85.3374 99.1563 88.0786 100.383 90.8048C100.517 91.1019 100.384 91.4512 100.087 91.5849C99.7899 91.7187 99.4406 91.5862 99.3069 91.289C97.8786 88.1149 98.6293 84.9826 99.8032 82.5449C100.795 80.4851 102.131 78.8418 102.797 78.022C102.917 77.8743 103.015 77.7533 103.086 77.6615C103.284 77.4032 103.655 77.3549 103.913 77.5535Z" fill="#201A18"/>
<path fill-rule="evenodd" clip-rule="evenodd" d="M99.2954 90.698C99.4881 90.4352 99.8574 90.3784 100.12 90.5711C100.301 90.7035 100.5 90.8514 100.716 91.0122C104.091 93.5197 111.724 99.1916 120.37 98.9754C120.696 98.9673 120.967 99.2248 120.975 99.5505C120.983 99.8763 120.725 100.147 120.4 100.155C111.323 100.382 103.377 94.4656 100.028 91.9714C99.8053 91.8058 99.6031 91.6553 99.4223 91.5227C99.1595 91.33 99.1027 90.9607 99.2954 90.698Z" fill="#201A18"/>
<path fill-rule="evenodd" clip-rule="evenodd" d="M113.611 98.5574C113.74 98.2581 114.087 98.1201 114.386 98.249C118.72 100.116 121.247 101.257 123.182 102.13C125.316 103.094 126.729 103.731 129.049 104.659C130.008 105.043 131.343 105.077 133.043 104.833C134.729 104.59 136.69 104.087 138.857 103.474C139.648 103.25 140.466 103.011 141.306 102.766C145.036 101.678 149.19 100.466 153.324 99.8581C153.646 99.8107 153.946 100.034 153.994 100.356C154.041 100.678 153.818 100.978 153.496 101.026C149.45 101.62 145.394 102.804 141.667 103.89C140.819 104.138 139.988 104.38 139.179 104.609C137.007 105.224 134.981 105.746 133.211 106.001C131.454 106.254 129.864 106.257 128.61 105.755C126.28 104.823 124.834 104.171 122.669 103.194C120.723 102.316 118.195 101.175 113.919 99.3327C113.62 99.2038 113.482 98.8566 113.611 98.5574Z" fill="#201A18"/>
<path fill-rule="evenodd" clip-rule="evenodd" d="M39.9287 147.04C40.1242 146.779 40.494 146.726 40.7547 146.922C46.3264 151.1 54.2159 153.563 56.5252 154.044C56.8443 154.11 57.049 154.423 56.9825 154.742C56.9161 155.061 56.6036 155.265 56.2846 155.199C53.8738 154.697 45.8033 152.183 40.0467 147.866C39.786 147.67 39.7332 147.3 39.9287 147.04Z" fill="#201A18"/>
<path fill-rule="evenodd" clip-rule="evenodd" d="M101.753 156.655C101.811 156.975 101.599 157.282 101.278 157.341C101.092 157.374 100.834 157.432 100.506 157.505C98.7685 157.893 95.0846 158.714 89.9687 158.714C89.6429 158.714 89.3787 158.45 89.3787 158.124C89.3787 157.798 89.6429 157.534 89.9687 157.534C94.9339 157.534 98.4697 156.748 100.234 156.356C100.581 156.279 100.86 156.217 101.067 156.18C101.388 156.121 101.695 156.334 101.753 156.655Z" fill="#201A18"/>
<path fill-rule="evenodd" clip-rule="evenodd" d="M138.353 108.966C138.653 108.838 139 108.977 139.128 109.276C140.507 112.494 140.984 117.061 140.714 122.06C140.444 127.073 139.42 132.581 137.745 137.718C137.644 138.027 137.311 138.197 137.002 138.096C136.692 137.995 136.522 137.661 136.623 137.352C138.267 132.31 139.272 126.903 139.536 121.996C139.801 117.075 139.319 112.718 138.043 109.741C137.915 109.442 138.054 109.095 138.353 108.966Z" fill="#201A18"/>
<path fill-rule="evenodd" clip-rule="evenodd" d="M10.829 112.524C10.8614 112.2 11.1506 111.963 11.4748 111.995C16.2599 112.474 22.9958 114.378 25.7571 115.266C26.0673 115.366 26.2379 115.698 26.1382 116.008C26.0385 116.318 25.7062 116.489 25.396 116.389C22.6503 115.507 16.0126 113.635 11.3574 113.17C11.0331 113.137 10.7966 112.848 10.829 112.524Z" fill="#201A18"/>
<path fill-rule="evenodd" clip-rule="evenodd" d="M81.4974 76.9011C81.8152 76.8289 82.1313 77.028 82.2035 77.3457C82.8851 80.3445 85.5034 82.6686 88.3879 84.4212C90.4393 85.6677 92.4899 86.554 93.9667 87.1923C94.5766 87.4559 95.0886 87.6772 95.4624 87.8641C95.7539 88.0098 95.872 88.3642 95.7263 88.6557C95.5806 88.9471 95.2262 89.0653 94.9347 88.9195C94.6388 88.7716 94.1878 88.5764 93.6287 88.3345C92.1454 87.6926 89.9015 86.7217 87.7751 85.4297C84.8332 83.6422 81.8463 81.0987 81.0528 77.6072C80.9806 77.2895 81.1797 76.9733 81.4974 76.9011Z" fill="#201A18"/>
<path fill-rule="evenodd" clip-rule="evenodd" d="M152.422 158.507C152.476 158.828 152.259 159.132 151.937 159.186C150.688 159.394 145.852 159.665 136.176 159.193C135.851 159.177 135.6 158.901 135.615 158.575C135.631 158.25 135.908 157.999 136.234 158.015C145.91 158.487 150.632 158.207 151.743 158.022C152.065 157.968 152.369 158.185 152.422 158.507Z" fill="#201A18"/>
<path fill-rule="evenodd" clip-rule="evenodd" d="M19.6376 68.774C22.2963 66.5367 26.9078 66.3755 29.5784 69.734C29.7812 69.9891 29.7389 70.3603 29.4838 70.5631C29.2288 70.7659 28.8576 70.7235 28.6548 70.4685C26.4579 67.7056 22.6247 67.8025 20.3974 69.6769C19.3049 70.5962 18.6209 71.9305 18.7222 73.5598C18.8245 75.2029 19.7323 77.2322 22.0095 79.4914C22.2408 79.721 22.2423 80.0945 22.0128 80.3259C21.7833 80.5572 21.4097 80.5587 21.1784 80.3292C18.7723 77.942 17.6704 75.6568 17.5445 73.6331C17.4177 71.5955 18.287 69.9105 19.6376 68.774Z" fill="#201A18"/>
<path fill-rule="evenodd" clip-rule="evenodd" d="M10.9597 32.298C13.4149 30.8951 16.0753 30.456 18.5239 30.5707C18.8494 30.586 19.1009 30.8622 19.0857 31.1877C19.0704 31.5132 18.7942 31.7647 18.4687 31.7495C16.1971 31.643 13.7687 32.052 11.5452 33.3226C9.32724 34.59 7.27448 36.7364 5.7804 40.1719C2.779 47.0733 2.04223 59.1602 6.82784 79.5543C6.90228 79.8715 6.70545 80.189 6.38821 80.2635C6.07097 80.3379 5.75345 80.1411 5.67901 79.8238C0.876833 59.3592 1.54135 46.9603 4.69827 39.7013C6.28334 36.0566 8.49899 33.7042 10.9597 32.298Z" fill="#201A18"/>
<path fill-rule="evenodd" clip-rule="evenodd" d="M23.0512 29.6324C22.3973 30.0551 21.8151 30.4315 21.3055 30.7346C20.037 31.489 19.1014 32.1724 18.3631 32.9462C17.6302 33.7145 17.0726 34.5923 16.5889 35.7571C15.6603 37.9936 15.0281 41.214 13.9641 46.6335C13.8994 46.9631 13.8331 47.3008 13.7651 47.6469C13.7022 47.9667 13.392 48.1749 13.0723 48.112C12.7526 48.0492 12.5443 47.739 12.6072 47.4193C12.6825 47.0362 12.7558 46.6626 12.8273 46.2984C13.8684 40.9919 14.5231 37.6553 15.4991 35.3046C16.0296 34.027 16.6612 33.0207 17.5093 32.1317C18.3521 31.2482 19.3894 30.5012 20.7023 29.7204C21.1728 29.4405 21.7246 29.0833 22.3543 28.6756C25.0887 26.9054 29.2924 24.1839 34.6961 22.7149C41.3887 20.8955 49.9248 20.9822 59.951 26.9288C67.8931 31.6393 71.8622 35.6619 73.5498 38.8409C75.251 42.0454 74.6558 44.4752 73.3309 45.7287C73.0942 45.9526 72.7208 45.9423 72.4968 45.7056C72.2729 45.4689 72.2832 45.0955 72.5199 44.8715C73.3584 44.0782 74.0317 42.2653 72.5075 39.3942C70.9697 36.4976 67.2194 32.6117 59.349 27.9437C49.6096 22.1672 41.404 22.1142 35.0056 23.8536C29.8023 25.2682 25.7956 27.8583 23.0512 29.6324Z" fill="#201A18"/>
<path fill-rule="evenodd" clip-rule="evenodd" d="M12.2277 51.4114C12.5297 51.5339 12.6753 51.8779 12.5529 52.1799C10.3908 57.5129 9.70759 66.9438 16.8259 73.3503C17.0681 73.5683 17.0877 73.9414 16.8698 74.1836C16.6518 74.4258 16.2787 74.4454 16.0365 74.2274C8.40437 67.3585 9.1962 57.3188 11.4593 51.7365C11.5817 51.4346 11.9258 51.289 12.2277 51.4114Z" fill="#201A18"/>
<path fill-rule="evenodd" clip-rule="evenodd" d="M33.5428 36.0102C36.9485 35.4333 40.6667 35.0776 43.6438 35.4421C51.0996 36.3551 57.9125 41.6708 60.9368 49.3827C61.0558 49.6861 60.9063 50.0285 60.603 50.1474C60.2996 50.2664 59.9572 50.1169 59.8383 49.8136C56.9624 42.4801 50.4999 37.4705 43.5003 36.6134C40.6953 36.2699 37.112 36.6025 33.7398 37.1737C30.3777 37.7432 27.2755 38.541 25.4545 39.0994C25.1429 39.1949 24.8129 39.0198 24.7174 38.7083C24.6219 38.3968 24.797 38.0668 25.1085 37.9712C26.9751 37.3988 30.1271 36.5888 33.5428 36.0102Z" fill="#201A18"/>
<path fill-rule="evenodd" clip-rule="evenodd" d="M59.9526 30.0239C60.1728 29.7837 60.546 29.7675 60.7862 29.9876C63.4812 32.458 65.3089 34.9141 66.0124 37.7672C66.7175 40.6268 66.2698 43.7876 64.6169 47.6193C64.4878 47.9185 64.1407 48.0564 63.8414 47.9273C63.5422 47.7983 63.4043 47.4511 63.5334 47.1519C65.1256 43.4609 65.4891 40.574 64.8667 38.0497C64.2427 35.5188 62.6041 33.2548 59.9888 30.8575C59.7486 30.6373 59.7324 30.2641 59.9526 30.0239Z" fill="#201A18"/>
<path fill-rule="evenodd" clip-rule="evenodd" d="M58.1789 37.2556C58.3969 37.0134 58.77 36.9937 59.0122 37.2117C60.5603 38.605 61.395 39.9464 61.9081 41.5448C62.3525 42.9292 62.5527 44.5068 62.7958 46.4227C62.8264 46.6639 62.8577 46.9104 62.8903 47.1626C62.932 47.4857 62.7038 47.7815 62.3806 47.8232C62.0574 47.8649 61.7616 47.6368 61.7199 47.3136C61.6875 47.0623 61.6565 46.8187 61.6264 46.5822C61.3791 44.6386 61.1933 43.1788 60.7845 41.9054C60.3388 40.5169 59.6248 39.3506 58.2228 38.0888C57.9806 37.8709 57.9609 37.4978 58.1789 37.2556Z" fill="#201A18"/>
<path fill-rule="evenodd" clip-rule="evenodd" d="M49.7464 57.4081C49.8322 57.7225 49.6468 58.0469 49.3325 58.1326C46.1449 59.0019 44.639 59.9196 43.5621 61.0807C43.0119 61.6738 42.5568 62.3486 42.0436 63.1664C41.926 63.3538 41.8053 63.5489 41.68 63.7515C41.264 64.4237 40.7968 65.1785 40.2226 66.0111C37.4821 69.9849 35.1506 72.3269 34.0962 73.3311C33.8602 73.5558 33.4867 73.5467 33.262 73.3108C33.0373 73.0748 33.0464 72.7013 33.2823 72.4766C34.293 71.5141 36.5671 69.2332 39.2512 65.3412C39.8071 64.5351 40.2536 63.8136 40.6673 63.1452C40.7953 62.9384 40.9201 62.7368 41.0441 62.5392C41.5635 61.7114 42.0671 60.9572 42.6969 60.2782C43.9801 58.8947 45.7193 57.8949 49.022 56.9942C49.3363 56.9084 49.6607 57.0938 49.7464 57.4081Z" fill="#201A18"/>
<path fill-rule="evenodd" clip-rule="evenodd" d="M46.1863 44.2636C46.3186 43.9658 46.6673 43.8317 46.9651 43.9641C48.9965 44.8669 50.9582 46.1034 52.1737 47.8967C53.4116 49.7232 53.8258 52.0532 52.8932 55.0062C52.7951 55.3169 52.4637 55.4893 52.1529 55.3912C51.8422 55.293 51.6699 54.9616 51.768 54.6509C52.6055 51.9987 52.2084 50.0511 51.1969 48.5588C50.1629 47.0332 48.437 45.9096 46.4858 45.0424C46.188 44.9101 46.0539 44.5614 46.1863 44.2636Z" fill="#201A18"/>
<path fill-rule="evenodd" clip-rule="evenodd" d="M52.0134 96.4557C52.1219 96.1484 52.4589 95.9872 52.7662 96.0957C53.1216 96.2211 54.0947 96.4498 55.3148 96.5285C56.5319 96.6071 57.9369 96.5322 59.1803 96.0954C59.4877 95.9874 59.8245 96.149 59.9325 96.4565C60.0405 96.7639 59.8789 97.1007 59.5714 97.2087C58.1229 97.7176 56.5428 97.7903 55.2388 97.7061C53.9378 97.6222 52.8538 97.378 52.3734 97.2084C52.0662 97.1 51.905 96.763 52.0134 96.4557Z" fill="#201A18"/>
<path fill-rule="evenodd" clip-rule="evenodd" d="M73.3858 56.5006C73.4183 56.8248 73.1817 57.114 72.8575 57.1464C72.3717 57.195 71.8715 57.5336 71.1831 58.3898C70.6675 59.0311 70.1125 59.8742 69.4207 60.9251C69.1949 61.2681 68.9545 61.6333 68.6962 62.0208C68.5154 62.2919 68.1491 62.3652 67.878 62.1844C67.6069 62.0037 67.5336 61.6374 67.7143 61.3662C67.9568 61.0025 68.1874 60.6522 68.4078 60.3173C69.1101 59.2501 69.7095 58.3394 70.2634 57.6504C70.9868 56.7508 71.7508 56.0711 72.74 55.9722C73.0643 55.9398 73.3534 56.1764 73.3858 56.5006ZM55.6136 65.529C53.2966 66.3845 50.8617 67.9237 49.0044 69.7809C48.774 70.0114 48.4004 70.0114 48.17 69.7809C47.9396 69.5505 47.9396 69.177 48.17 68.9465C50.1478 66.9687 52.728 65.3365 55.2049 64.422C57.6418 63.5222 60.1552 63.2556 61.8711 64.2852C62.1506 64.4528 62.2412 64.8152 62.0735 65.0947C61.9059 65.3741 61.5434 65.4647 61.264 65.297C60.0299 64.5566 57.9706 64.6587 55.6136 65.529Z" fill="#201A18"/>
<path fill-rule="evenodd" clip-rule="evenodd" d="M59.5256 72.7019C59.8 72.8776 59.8801 73.2424 59.7045 73.5169C58.5202 75.3673 57.5291 76.4371 56.2208 76.7755C55.5736 76.9428 54.8998 76.9177 54.1674 76.7875C53.4401 76.6581 52.6146 76.4169 51.6588 76.1228C51.3473 76.027 51.1725 75.6969 51.2684 75.3854C51.3642 75.074 51.6943 74.8992 52.0058 74.995C52.9675 75.2909 53.7277 75.5107 54.374 75.6257C55.0152 75.7397 55.503 75.7422 55.9253 75.633C56.7558 75.4182 57.5348 74.718 58.7105 72.8808C58.8862 72.6063 59.2511 72.5262 59.5256 72.7019Z" fill="#201A18"/>
<path fill-rule="evenodd" clip-rule="evenodd" d="M64.969 88.1593C65.1789 88.4085 65.147 88.7807 64.8977 88.9906C63.5155 90.1546 62.4686 91.0134 61.1956 91.424C59.9034 91.8409 58.452 91.7779 56.2854 91.3297C55.9663 91.2636 55.7611 90.9514 55.8271 90.6323C55.8932 90.3132 56.2054 90.1081 56.5245 90.1741C58.6355 90.6109 59.8391 90.6217 60.8333 90.301C61.8465 89.9741 62.7172 89.2841 64.1376 88.088C64.3869 87.8781 64.7591 87.91 64.969 88.1593Z" fill="#201A18"/>
<path fill-rule="evenodd" clip-rule="evenodd" d="M71.5979 64.2011C71.9237 64.2011 72.1879 64.4652 72.1879 64.7911C72.1879 64.919 72.1912 65.0617 72.1947 65.212C72.2021 65.5332 72.2103 65.8888 72.1889 66.2077C72.1555 66.7045 72.0492 67.2459 71.7162 67.733C71.0377 68.7257 69.6283 69.2162 67.099 69.2162C66.7731 69.2162 66.509 68.9521 66.509 68.6262C66.509 68.3004 66.7731 68.0362 67.099 68.0362C69.5849 68.0362 70.4249 67.5311 70.742 67.0671C70.9068 66.826 70.9849 66.5238 71.0115 66.1286C71.0296 65.8596 71.0232 65.603 71.0162 65.3181C71.0121 65.1544 71.0079 64.9813 71.0079 64.7911C71.0079 64.4652 71.272 64.2011 71.5979 64.2011Z" fill="#201A18"/>
<path fill-rule="evenodd" clip-rule="evenodd" d="M66.9624 74.9585C67.2864 74.9237 67.5772 75.1582 67.6119 75.4823C67.8216 77.4399 68.3734 78.5088 68.8516 79.3798C68.8791 79.43 68.9068 79.48 68.9344 79.53C69.3934 80.3606 69.8418 81.172 69.6751 82.4221C69.4947 83.7756 68.554 84.7164 67.5961 85.3152C66.6357 85.9154 65.5578 86.2382 64.8859 86.3222C64.5625 86.3626 64.2676 86.1332 64.2272 85.8099C64.1868 85.4866 64.4161 85.1917 64.7395 85.1513C65.2475 85.0878 66.161 84.8206 66.9707 84.3145C67.7828 83.8069 68.3909 83.1253 68.5055 82.2661C68.6199 81.4081 68.3462 80.9102 67.8667 80.0379C67.8504 80.0083 67.8339 79.9782 67.8171 79.9476C67.2996 79.0048 66.6713 77.7804 66.4386 75.608C66.4039 75.284 66.6384 74.9932 66.9624 74.9585Z" fill="#201A18"/>
</svg>
