<svg width="360" height="320" viewBox="0 0 360 320" fill="none" xmlns="http://www.w3.org/2000/svg">
<path d="M204.945 67.8346C213.445 82.3346 206.945 92.0846 207.445 101.085C207.945 110.085 211.606 115.633 201.856 131.508M185.695 158.085C189.195 156.835 192.32 147.71 197.57 139.585" stroke="#201A18" stroke-width="2" stroke-linecap="round" stroke-linejoin="round"/>
<path d="M131.945 158.335C136.695 163.042 137.133 161.594 141.445 161.008C145.758 160.421 144.596 163.99 150.336 162.007C156.077 160.023 155.945 165.085 160.418 163.042C166.111 160.443 164.961 162.582 167.445 158.335" stroke="#201A18" stroke-width="2" stroke-linecap="round" stroke-linejoin="round"/>
<path d="M170.945 177.585C175.945 168.085 178.945 160.585 170.945 155.585C162.945 150.585 161.195 145.835 157.945 137.085C155.138 129.527 152.445 124.585 149.695 124.585C146.945 124.585 145.862 125.918 146.195 127.585C145.362 126.251 141.245 118.585 138.445 118.585C135.645 118.585 134.945 121.251 134.945 122.585C133.612 121.251 131.945 116.585 128.445 117.585C126.522 118.134 125.945 121.251 125.945 122.585C124.945 122.585 122.695 121.835 121.945 124.585C121.288 126.997 122.699 141.816 125.945 147.335C128.445 151.585 131.112 156.585 131.945 158.585" stroke="#201A18" stroke-width="2" stroke-linecap="round" stroke-linejoin="round"/>
<path d="M145.945 130.835C148.445 140.335 146.945 144.585 151.945 151.085C155.945 156.285 155.112 155.585 154.195 154.585M135.195 123.835C136.695 128.835 138.945 140.585 139.695 143.835C140.295 146.435 142.779 152.085 143.945 154.585" stroke="#201A18" stroke-width="2" stroke-linecap="round" stroke-linejoin="round"/>
<path d="M125.945 124.585C129.195 139.085 128.695 143.835 133.945 153.085" stroke="#201A18" stroke-width="2" stroke-linecap="round" stroke-linejoin="round"/>
<path d="M124.945 145.585C125.195 156.585 121.597 160.735 132.445 164.585C140.195 167.335 144.945 175.585 151.945 175.585" stroke="#201A18" stroke-width="2" stroke-linecap="round" stroke-linejoin="round"/>
<path d="M140.445 172.585C133.945 199.085 110.945 222.585 106.945 238.085" stroke="#201A18" stroke-width="2" stroke-linecap="round" stroke-linejoin="round"/>
<path d="M169.945 180.585C160.445 224.585 149.445 264.585 139.945 270.585C130.445 276.585 116.16 276.182 113.445 274.085C110.255 271.62 96.9451 262.585 97.4451 240.585C97.8451 222.985 95.5222 207.383 95.3555 201.383" stroke="#201A18" stroke-width="2" stroke-linecap="round" stroke-linejoin="round"/>
<path d="M283.195 204.835C274.695 189.335 273.695 186.335 271.945 189.335C270.545 191.735 268.529 199.001 267.695 202.335C264.445 202.501 257.195 204.035 254.195 208.835" stroke="#201A18" stroke-width="2" stroke-linecap="round" stroke-linejoin="round"/>
<path d="M193.695 250.585C202.445 246.018 211.72 252.308 214.672 253.678C216.965 251.119 220.446 247.486 222.805 246.018C224.57 244.71 226.945 259.71 226.945 262.585C226.945 265.46 229.695 273.21 224.945 278.71C220.195 284.21 208.82 286.835 203.445 286.21" stroke="#201A18" stroke-width="2" stroke-linecap="round" stroke-linejoin="round"/>
<path d="M255.036 208.619C245.434 203.943 240.121 201.539 241.05 205.206C241.978 208.874 247.531 215.529 248.2 216.961" stroke="#201A18" stroke-width="2" stroke-linecap="round" stroke-linejoin="round"/>
<path d="M191.445 253.21C186.172 243.922 182.822 241.012 181.513 244.561C180.204 248.111 181.078 260.15 180.82 261.71" stroke="#201A18" stroke-width="2" stroke-linecap="round" stroke-linejoin="round"/>
<path d="M248.445 220.335C249.603 226.93 251.918 231.398 259.058 234.163" stroke="#201A18" stroke-width="2" stroke-linecap="round" stroke-linejoin="round"/>
<path d="M181.244 261.816C179.188 268.189 176.856 281.258 196.356 286.258" stroke="#201A18" stroke-width="2" stroke-linecap="round" stroke-linejoin="round"/>
<path d="M263.879 234.454C273.131 235.737 276.195 231.835 276.926 231.293" stroke="#201A18" stroke-width="2" stroke-linecap="round" stroke-linejoin="round"/>
<path d="M306.695 234.335C304.612 231.668 299.545 225.535 295.945 222.335C285.195 208.085 283.57 189.147 278.695 182.647C273.82 176.147 267.633 171.21 264.445 171.21C261.975 171.21 261.82 172.522 262.029 172.814C261.07 172.605 259.17 172.885 258.57 174.085C257.97 175.285 258.32 176.501 258.57 176.96C258.57 176.71 258.57 176.76 258.57 178.96C258.57 181.71 262.996 183.949 265.195 185.585C270.07 189.21 269.654 192.585 270.07 193.585" stroke="#201A18" stroke-width="2" stroke-linecap="round" stroke-linejoin="round"/>
<path d="M308.695 236.335C316.445 246.085 319.945 252.835 316.445 260.335C312.945 267.835 307.945 265.835 308.695 268.335C309.445 270.835 315.195 278.835 324.945 279.335C334.695 279.835 311.695 296.835 294.695 272.085" stroke="#201A18" stroke-width="2" stroke-linecap="round" stroke-linejoin="round"/>
<path d="M263.445 242.335C263.445 252.081 259.195 286.835 294.945 271.585" stroke="#201A18" stroke-width="2" stroke-linecap="round" stroke-linejoin="round"/>
<path d="M259.82 235.835C257.82 246.897 259.222 259.308 254.445 264.085C252.008 266.522 251.695 268.835 254.445 270.835C257.195 272.835 264.383 270.897 265.883 267.897" stroke="#201A18" stroke-width="2" stroke-linecap="round" stroke-linejoin="round"/>
<path d="M266.195 267.835C262.695 271.835 266.606 274.633 274.606 274.883" stroke="#201A18" stroke-width="2" stroke-linecap="round" stroke-linejoin="round"/>
<path d="M211.981 257.258L214.731 253.633M180.981 262.133C185.481 261.533 190.112 258.96 190.945 258.085M213.57 260.085C216.07 262.96 219.445 264.835 221.82 265.085M184.606 242.46C184.856 236.835 185.731 227.633 186.731 223.133C187.731 218.633 193.32 209.085 197.07 208.085C200.07 207.285 200.32 208.835 200.07 209.71C200.404 209.293 201.32 208.585 202.32 209.085C203.32 209.585 203.57 210.876 203.57 211.46C203.987 211.543 204.82 211.96 204.82 212.96C204.82 214.21 204.82 213.585 204.82 215.71C204.82 217.835 201.07 217.758 200.07 219.883C199.07 222.008 199.07 222.633 197.07 224.383C195.07 226.133 195.82 240.46 195.945 242.46M237.32 244.21C238.07 240.21 236.195 240.96 235.445 234.46C234.695 227.96 229.32 227.21 227.695 226.96C226.07 226.71 226.32 227.71 224.195 228.085C222.07 228.46 223.82 229.335 221.82 231.085C219.82 232.835 221.82 233.21 222.82 237.96C224.195 240.96 227.695 246.883 227.695 246.883" stroke="#201A18" stroke-width="2" stroke-linecap="round" stroke-linejoin="round"/>
<path d="M237.445 243.71C239.32 253.585 241.109 266.654 227.859 269.279" stroke="#201A18" stroke-width="2" stroke-linecap="round" stroke-linejoin="round"/>
<path d="M224.445 227.96C225.57 225.46 226.57 222.71 223.695 220.71C220.82 218.71 216.445 220.71 214.57 220.71C212.695 220.71 202.57 221.96 200.82 224.085C199.42 225.785 199.737 226.626 200.07 226.835C199.487 227.626 198.67 229.31 200.07 229.71C201.82 230.21 200.195 231.835 202.57 231.835C204.945 231.835 205.695 233.585 207.82 232.71C209.945 231.835 216.07 231.71 218.07 228.71M196.195 237.085C198.945 235.085 197.445 234.71 204.445 232.71M229.07 226.835C231.07 224.085 231.82 223.46 233.945 223.46C236.195 223.46 238.445 224.585 239.695 229.71M239.695 229.71C239.695 234.96 237.695 242.46 237.695 243.71M239.695 229.71C240.945 234.835 254.07 244.272 237.695 262.022" stroke="#201A18" stroke-width="2" stroke-linecap="round" stroke-linejoin="round"/>
<path d="M222.945 218.835C222.945 212.585 224.872 209.481 218.195 204.585C213.508 201.147 220.26 202.142 224.758 203.897C227.32 204.897 232.945 206.085 232.945 223.335" stroke="#201A18" stroke-width="2" stroke-linecap="round" stroke-linejoin="round"/>
<path d="M243.317 117.406C241.829 117.599 241.253 117.289 240.959 116.914C240.577 116.426 240.351 115.464 240.383 113.683C240.412 111.971 240.666 109.766 240.984 106.995L240.993 106.917C241.314 104.131 241.691 100.825 241.943 97.0153C242.004 96.2557 242.237 95.7492 242.56 95.3661C242.898 94.9645 243.39 94.6334 244.067 94.324C244.731 94.0211 245.497 93.7707 246.382 93.4819C246.41 93.4727 246.438 93.4635 246.466 93.4543C247.365 93.1604 248.363 92.8311 249.355 92.3859C250.442 91.8978 251.214 91.8053 251.832 91.8713C252.468 91.9392 253.038 92.1832 253.747 92.5461C253.873 92.6109 254.002 92.6787 254.135 92.7482C255.499 93.4632 257.224 94.3674 260.021 94.1534C261.262 94.0585 262.067 94.2274 262.687 94.4908C263.298 94.7506 263.78 95.1181 264.406 95.5951C264.446 95.6254 264.486 95.6562 264.527 95.6873C265.196 96.1967 265.989 96.7803 267.1 97.2212C268.213 97.6633 269.591 97.9425 271.445 97.9425C272.933 97.9425 273.822 98.4417 274.407 99.1524C275.032 99.9109 275.401 101.024 275.578 102.391C275.754 103.745 275.727 105.236 275.65 106.66C275.624 107.134 275.592 107.612 275.56 108.076C275.501 108.949 275.445 109.768 275.445 110.405C275.445 113.117 275.254 115.473 274.593 117.343C273.949 119.166 272.873 120.498 271.057 121.262C270.277 121.591 269.708 121.554 269.246 121.408C268.759 121.254 268.347 120.972 267.851 120.632C267.821 120.612 267.79 120.591 267.76 120.57C267.514 120.402 267.218 120.203 266.908 120.058C266.591 119.91 266.183 119.78 265.716 119.829C264.736 119.932 264.081 120.733 263.561 121.717C263.192 122.416 262.782 122.653 262.314 122.738C261.746 122.841 260.994 122.737 259.935 122.475C259.579 122.387 259.195 122.282 258.788 122.171C256.906 121.657 254.509 121.002 251.875 121.186C250.491 121.284 249.882 121.049 249.575 120.834C249.245 120.601 249.082 120.284 248.774 119.679C248.491 119.123 248.079 118.327 247.154 117.818C246.249 117.32 245.028 117.185 243.317 117.406Z" stroke="#201A18" stroke-width="2" stroke-linecap="round" stroke-linejoin="round"/>
<path d="M248.445 117.085C250.245 110.885 250.695 105.001 250.695 102.835M257.195 119.585C257.195 115.985 259.362 109.418 260.445 106.585M266.695 118.335C268.695 113.935 269.029 108.668 268.945 106.585" stroke="#201A18" stroke-width="2" stroke-linecap="round" stroke-linejoin="round"/>
<path d="M241.481 99.2578C235.731 103.508 232.695 106.585 236.445 113.335C240.195 120.085 238.102 119.876 240.633 122.147C243.07 124.335 245.695 121.668 247.445 120.085" stroke="#201A18" stroke-width="2" stroke-linecap="round" stroke-linejoin="round"/>
<path d="M240.356 112.508C240.106 114.758 238.32 117.022 239.445 120.835" stroke="#201A18" stroke-width="2" stroke-linecap="round" stroke-linejoin="round"/>
<path d="M117.445 125.085C79.1055 125.085 89.6055 164.508 94.9451 201.585C100.445 201.585 111.945 194.585 129.945 196.585" stroke="#201A18" stroke-width="2" stroke-linecap="round" stroke-linejoin="round"/>
<path d="M209.195 85.5846C217.195 81.5846 232.695 81.5846 244.945 91.5846" stroke="#201A18" stroke-width="2" stroke-linecap="round" stroke-linejoin="round"/>
<path d="M276.106 103.508C284.356 121.508 308.521 125.546 302.445 151.585C299.981 159.008 296.606 163.008 289.606 162.883M258.356 122.258C264.106 129.008 264.481 134.383 269.731 145.508" stroke="#201A18" stroke-width="2" stroke-linecap="round" stroke-linejoin="round"/>
<path d="M240.695 169.46C233.945 170.46 236.48 180.75 238.106 183.875" stroke="#201A18" stroke-width="2" stroke-linecap="round" stroke-linejoin="round"/>
<path d="M240.918 169.437C246.668 168.437 247.793 177.75 243.856 183.375" stroke="#201A18" stroke-width="2" stroke-linecap="round" stroke-linejoin="round"/>
<path d="M235.906 178.597C232.667 178.23 229.836 185.242 237.668 183.563" stroke="#201A18" stroke-width="2" stroke-linecap="round" stroke-linejoin="round"/>
<path d="M244.195 183.147C247.898 186.308 251.094 181.984 246.133 179.022" stroke="#201A18" stroke-width="2" stroke-linecap="round" stroke-linejoin="round"/>
<path d="M237.856 183.25C239.856 188.375 241.856 186.71 243.731 183.585" stroke="#201A18" stroke-width="2" stroke-linecap="round" stroke-linejoin="round"/>
<ellipse cx="240.586" cy="187.151" rx="1.19073" ry="1.1911" fill="#201A18"/>
<path d="M241.195 169.407C240.695 153.383 240.987 134.254 241.195 122.974" stroke="#201A18" stroke-width="2" stroke-linecap="round" stroke-linejoin="round"/>
<path d="M254.32 148.585C249.82 138.585 258.939 128.674 260.606 126.508" stroke="#201A18" stroke-width="2" stroke-linecap="round" stroke-linejoin="round"/>
<path d="M289.133 163.022C273.133 163.422 259.195 152.251 254.195 148.585" stroke="#201A18" stroke-width="2" stroke-linecap="round" stroke-linejoin="round"/>
<path d="M278.57 161.71C293.945 168.335 295.945 169.585 303.445 172.585C310.945 175.585 328.106 167.008 345.106 164.508" stroke="#201A18" stroke-width="2" stroke-linecap="round" stroke-linejoin="round"/>
<path d="M153.57 244.085C163.17 251.285 176.695 255.501 180.695 256.335" stroke="#201A18" stroke-width="2" stroke-linecap="round" stroke-linejoin="round"/>
<path d="M237.581 262.271C247.769 262.271 254.508 260.335 256.57 259.96" stroke="#201A18" stroke-width="2" stroke-linecap="round" stroke-linejoin="round"/>
<path d="M319.981 179.875C324.481 190.375 323.231 210.125 317.606 227.375" stroke="#201A18" stroke-width="2" stroke-linecap="round" stroke-linejoin="round"/>
<path d="M104.445 185.085C112.445 185.885 123.779 189.085 128.445 190.585" stroke="#201A18" stroke-width="2" stroke-linecap="round" stroke-linejoin="round"/>
<path d="M223.445 125.585C225.945 136.585 242.445 142.085 246.445 144.085" stroke="#201A18" stroke-width="2" stroke-linecap="round" stroke-linejoin="round"/>
<path d="M315.945 263.085C332.345 263.885 340.445 263.418 342.445 263.085" stroke="#201A18" stroke-width="2" stroke-linecap="round" stroke-linejoin="round"/>
<path d="M134.445 113.085C126.195 102.71 105.82 113.96 121.695 129.71" stroke="#201A18" stroke-width="2" stroke-linecap="round" stroke-linejoin="round"/>
<path d="M116.445 47.0846C100.445 46.3346 79.4452 60.0846 95.6952 129.335" stroke="#201A18" stroke-width="2" stroke-linecap="round" stroke-linejoin="round"/>
<path d="M107.445 74.8346C111.445 54.4924 111.945 50.7078 120.695 45.5039C129.445 40.3001 152.695 20.904 186.195 40.7732C212.995 56.6685 212.362 67.5808 208.695 71.05" stroke="#201A18" stroke-width="2" stroke-linecap="round" stroke-linejoin="round"/>
<path d="M105.445 82.3346C101.695 91.5846 100.445 108.085 112.945 119.335" stroke="#201A18" stroke-width="2" stroke-linecap="round" stroke-linejoin="round"/>
<path d="M187.445 78.3346C182.445 65.5846 171.195 56.8346 158.945 55.3346C149.145 54.1346 134.195 57.6679 127.945 59.5846" stroke="#201A18" stroke-width="2" stroke-linecap="round" stroke-linejoin="round"/>
<path d="M193.695 74.5846C199.195 61.8346 196.445 54.0846 187.445 45.8346" stroke="#201A18" stroke-width="2" stroke-linecap="round" stroke-linejoin="round"/>
<path d="M190.695 74.3346C189.695 66.5846 189.445 62.5846 184.445 58.0846" stroke="#201A18" stroke-width="2" stroke-linecap="round" stroke-linejoin="round"/>
<path d="M168.445 91.8346C157.445 94.8346 157.445 98.3346 152.445 105.585C147.848 112.25 143.945 116.168 142.195 117.835" stroke="#201A18" stroke-width="2" stroke-linecap="round" stroke-linejoin="round"/>
<path d="M173.79 87.1994C176.79 77.6994 171.04 72.6994 164.29 69.6994" stroke="#201A18" stroke-width="2" stroke-linecap="round" stroke-linejoin="round"/>
<path d="M185.731 158.085C181.168 159.688 175.612 158.585 174.195 158.085" stroke="#201A18" stroke-width="2" stroke-linecap="round" stroke-linejoin="round"/>
<path d="M167.445 111.835C173.945 105.335 184.445 101.085 189.445 104.085M200.695 98.8346C204.195 93.5846 205.981 90.3828 208.481 90.1328" stroke="#201A18" stroke-width="2" stroke-linecap="round" stroke-linejoin="round"/>
<path d="M172.945 122.335C179.445 124.335 181.445 124.585 185.445 118.335" stroke="#201A18" stroke-width="2" stroke-linecap="round" stroke-linejoin="round"/>
<path d="M180.695 148.085C187.945 149.585 189.695 148.335 194.445 144.335" stroke="#201A18" stroke-width="2" stroke-linecap="round" stroke-linejoin="round"/>
<path d="M198.82 110.585C207.32 110.585 206.445 107.21 206.445 104.085" stroke="#201A18" stroke-width="2" stroke-linecap="round" stroke-linejoin="round"/>
<path d="M194.945 139.585C196.945 139.335 201.695 137.585 202.195 133.835C202.695 130.085 199.445 129.311 198.695 122.311" stroke="#201A18" stroke-width="2" stroke-linecap="round" stroke-linejoin="round"/>
</svg>
