<svg width="361" height="320" viewBox="0 0 361 320" fill="none" xmlns="http://www.w3.org/2000/svg">
<g clip-path="url(#clip0_568_21481)">
<path d="M175.378 59.924C179.878 50.924 185.96 13.4062 198.878 51.424C216.378 102.924 226.878 119.924 236.378 125.424" stroke="#201A18" stroke-width="2" stroke-linecap="round" stroke-linejoin="round"/>
<path d="M240.339 127.787C268.839 143.787 306.339 147.787 288.339 237.787C288.339 249.787 297.839 250.287 320.339 257.287C342.839 264.287 353.966 284.459 313.839 288.787C262.839 294.287 239.618 293.93 243.339 280.287C246.339 269.287 259.839 272.287 266.339 271.787C272.839 271.287 309.839 267.287 309.839 263.787" stroke="#201A18" stroke-width="2" stroke-linecap="round" stroke-linejoin="round"/>
<path d="M171.878 61.9244C152.378 60.9244 153.378 61.4241 144.879 43.424C138.856 30.6704 131.628 51.1741 134.378 70.6741C134.952 74.7416 135.378 76.0908 134.379 77.9241" stroke="#201A18" stroke-width="2" stroke-linecap="round" stroke-linejoin="round"/>
<path d="M132.878 84.9241C130.878 103.424 130.878 104.424 142.878 115.924" stroke="#201A18" stroke-width="2" stroke-linecap="round" stroke-linejoin="round"/>
<path d="M146.128 124.424C151.628 141.424 139.878 164.924 154.128 185.174" stroke="#201A18" stroke-width="2" stroke-linecap="round" stroke-linejoin="round"/>
<path d="M154.378 189.924C156.878 211.924 160.128 213.174 163.878 234.924C167.628 256.674 168.878 270.112 168.878 276.674C168.878 282.924 162.628 290.424 168.878 292.174C168.962 293.007 168.128 294.924 172.128 295.924C173.378 296.424 176.478 297.124 178.878 295.924C181.878 294.424 181.856 296.75 183.106 293" stroke="#201A18" stroke-width="2" stroke-linecap="round" stroke-linejoin="round"/>
<path d="M158.356 245.5C133.356 245.5 110.084 245.165 93.356 253" stroke="#201A18" stroke-width="2" stroke-linecap="round" stroke-linejoin="round"/>
<path d="M370.314 229.093C345.314 229.093 324.084 221.259 307.356 229.093" stroke="#201A18" stroke-width="2" stroke-linecap="round" stroke-linejoin="round"/>
<path d="M184.628 287.598C182.128 291.524 181.878 297.283 189.128 297.283C189.628 298.504 191.578 300.581 195.378 299.115C196.878 299.725 200.328 300.581 202.128 299.115C203.295 299.289 205.928 298.905 207.128 295.974C208.628 292.309 211.265 288.678 212.878 283.148C215.628 273.725 225.628 239.388 225.628 219.424C225.628 210.109 222.378 210.121 225.628 193.369" stroke="#201A18" stroke-width="2" stroke-linecap="round" stroke-linejoin="round"/>
<path d="M189.378 182.924C190.235 190.972 192.85 202.656 194.252 211.79M162.128 182.924C170.407 194.689 180.462 203.075 187.628 207.885M194.252 211.79C194.897 215.991 195.286 219.654 195.128 222.174C194.628 230.174 194.628 267.174 187.628 278.174C192.225 262.835 192.128 252.174 190.628 230.924C190.628 223.924 187.628 212.648 187.628 207.885M194.252 211.79C192.621 211.004 190.33 209.699 187.628 207.885" stroke="#201A18" stroke-width="2" stroke-linecap="round" stroke-linejoin="round"/>
<path d="M232.378 184.424C239.378 171.424 256.378 174.924 263.878 176.924M221.503 252.174C223.503 260.974 226.545 268.257 227.378 269.924C223.378 272.591 216.078 279.324 218.878 284.924C221.678 290.524 225.712 289.924 227.378 288.924C229.378 290.591 234.178 293.424 237.378 291.424C240.578 289.424 244.045 288.924 245.378 288.924" stroke="#201A18" stroke-width="2" stroke-linecap="round" stroke-linejoin="round"/>
<path d="M220.606 287.924C215.45 288.724 212.703 287.966 211.628 286.799" stroke="#201A18" stroke-width="2" stroke-linecap="round" stroke-linejoin="round"/>
<path d="M286.378 251.924L281.731 269.75M233.231 279.25V279.25C230.346 281.334 228.39 284.463 227.78 287.969L227.731 288.25" stroke="#201A18" stroke-width="2" stroke-linecap="round" stroke-linejoin="round"/>
<path d="M227.231 270C230.604 267.746 237.068 267.652 239.878 267.887" stroke="#201A18" stroke-width="2" stroke-linecap="round" stroke-linejoin="round"/>
<path d="M189.461 296.885C189.419 294.431 190.774 291.798 191.856 291.25" stroke="#201A18" stroke-width="2" stroke-linecap="round" stroke-linejoin="round"/>
<path d="M196.327 298.146C196.284 295.692 198.436 293.983 199.518 293.435" stroke="#201A18" stroke-width="2" stroke-linecap="round" stroke-linejoin="round"/>
<path d="M219.356 284.5C219.313 282.046 223.774 278.423 224.856 277.875" stroke="#201A18" stroke-width="2" stroke-linecap="round" stroke-linejoin="round"/>
<path d="M168.856 292.375C168.813 289.921 170.852 287.949 171.933 287.401M175.106 295.25C175.063 292.796 176.399 289.423 177.481 288.875" stroke="#201A18" stroke-width="2" stroke-linecap="round" stroke-linejoin="round"/>
<path d="M185.128 41.4241C186.878 51.9241 180.378 59.7991 189.878 64.5491M141.378 46.4241C142.378 56.4241 143.128 55.4241 139.878 62.1741C137.278 67.5741 136.628 70.5907 136.628 71.4241" stroke="#201A18" stroke-width="2" stroke-linecap="round" stroke-linejoin="round"/>
<path d="M153.128 95.9241C157.878 96.9241 159.878 91.9241 162.128 91.9241C164.378 91.9241 171.378 96.9241 175.128 94.4241" stroke="#201A18" stroke-width="2" stroke-linecap="round" stroke-linejoin="round"/>
<path d="M307.443 119.035C304.445 119.719 303.182 116.296 301.762 116.296C300.342 116.296 295.924 119.719 293.557 118.007" stroke="#201A18" stroke-width="2" stroke-linecap="round" stroke-linejoin="round"/>
<path d="M144.128 80.9241C145.378 78.4241 153.378 80.848 155.628 82.348" stroke="#201A18" stroke-width="2" stroke-linecap="round" stroke-linejoin="round"/>
<path d="M182.803 79.8259C181.553 77.3259 172.303 80.3259 170.053 81.8259" stroke="#201A18" stroke-width="2" stroke-linecap="round" stroke-linejoin="round"/>
<path d="M162.434 90.4241C165.36 87.9241 166.316 87.1741 162.434 87.1741C158.822 87.1741 160.28 89.1741 161.418 90.4241" stroke="#201A18" stroke-width="2" stroke-linecap="round" stroke-linejoin="round"/>
<path d="M301.071 115.268C299.067 113.556 298.412 113.812 301.071 113.812C303.544 113.812 303.343 113.642 302.564 114.498" stroke="#201A18" stroke-width="2" stroke-linecap="round" stroke-linejoin="round"/>
<path d="M261.378 136.924C272.878 123.924 272.628 119.424 272.628 119.424C272.628 119.424 273.809 107.642 275.378 103.424C277.378 98.0491 271.378 57.4242 291.378 94.4242C294.212 93.5909 301.378 92.4242 307.378 94.4242M310.378 145.924C319.378 124.924 322.378 124.424 322.378 110.924C322.378 97.4241 319.878 87.9241 318.378 82.4241C316.878 76.9241 313.378 89.1741 310.378 93.1741" stroke="#201A18" stroke-width="2" stroke-linecap="round" stroke-linejoin="round"/>
<path d="M312.339 141.287C315.339 156.287 319.339 164.787 307.155 192.594C292.839 236.287 298.731 236.125 298.731 250.25" stroke="#201A18" stroke-width="2" stroke-linecap="round" stroke-linejoin="round"/>
<ellipse cx="289.858" cy="108.718" rx="2.53053" ry="1.66119" transform="rotate(10.4464 289.858 108.718)" fill="#201A18"/>
<ellipse cx="310.259" cy="110.546" rx="2.53053" ry="1.66119" transform="rotate(-10.9276 310.259 110.546)" fill="#201A18"/>
<path d="M279.878 82.9241C281.878 92.4241 282.878 93.4241 279.878 100.424M319.356 106C316.981 98.5 316.753 98.4241 317.378 92.9241" stroke="#201A18" stroke-width="2" stroke-linecap="round" stroke-linejoin="round"/>
</g>
<defs>
<clipPath id="clip0_568_21481">
<rect width="360" height="320" fill="white" transform="translate(0.605591)"/>
</clipPath>
</defs>
</svg>
